G75*
%MOIN*%
%OFA0B0*%
%FSLAX24Y24*%
%IPPOS*%
%LPD*%
%AMOC8*
5,1,8,0,0,1.08239X$1,22.5*
%
%ADD10C,0.1424*%
%ADD11C,0.1266*%
%ADD12C,0.0740*%
%ADD13R,0.0740X0.0740*%
%ADD14C,0.0317*%
%ADD15C,0.0270*%
%ADD16C,0.0080*%
%ADD17C,0.0238*%
%ADD18C,0.0277*%
%ADD19C,0.0100*%
%ADD20C,0.0320*%
%ADD21C,0.0160*%
%ADD22C,0.0310*%
%ADD23C,0.0200*%
%ADD24C,0.0480*%
%ADD25C,0.0120*%
%ADD26C,0.0356*%
%ADD27C,0.0360*%
D10*
X003966Y003587D03*
X006328Y003587D03*
D11*
X005147Y001736D03*
D12*
X014535Y001487D03*
X015535Y001487D03*
X016535Y001487D03*
X017535Y001487D03*
X018535Y001487D03*
X019535Y001487D03*
X021535Y001487D03*
X022535Y001487D03*
X023535Y001487D03*
X024535Y001487D03*
X025535Y001487D03*
X026535Y001487D03*
X026535Y011387D03*
X027535Y011387D03*
X027535Y012387D03*
X026535Y012387D03*
X026535Y013387D03*
X027535Y013387D03*
X025535Y020487D03*
X024535Y020487D03*
X023535Y020487D03*
X022535Y020487D03*
X021535Y020487D03*
X020535Y020487D03*
X019535Y020487D03*
X016935Y020487D03*
X015935Y020487D03*
X014935Y020487D03*
X013935Y020487D03*
X012935Y020487D03*
X011935Y020487D03*
X010935Y020487D03*
D13*
X017935Y020487D03*
X026535Y020487D03*
D14*
X026035Y018487D03*
X026035Y017737D03*
X025285Y017737D03*
X023935Y017437D03*
X022515Y017117D03*
X022035Y016617D03*
X021285Y017487D03*
X020635Y016237D03*
X020035Y016747D03*
X019535Y017487D03*
X019015Y015187D03*
X020265Y013937D03*
X022535Y015487D03*
X023935Y015487D03*
X023935Y014187D03*
X026035Y015487D03*
X026035Y016237D03*
X020845Y011907D03*
X019785Y011487D03*
X020015Y010867D03*
X019045Y010047D03*
X017035Y011237D03*
X014975Y011897D03*
X013285Y010487D03*
X013535Y009987D03*
X014035Y009737D03*
X014285Y009237D03*
X015435Y008587D03*
X016155Y009077D03*
X015035Y007987D03*
X015285Y007487D03*
X016285Y007237D03*
X015435Y006337D03*
X014185Y006337D03*
X014185Y007587D03*
X011685Y007587D03*
X011675Y008727D03*
X011665Y009857D03*
X011655Y010987D03*
X011655Y011977D03*
X012535Y011987D03*
X010185Y013837D03*
X009655Y012367D03*
X009635Y010987D03*
X009665Y010357D03*
X006645Y009997D03*
X005535Y009987D03*
X006275Y011297D03*
X004625Y011257D03*
X004185Y013837D03*
X004345Y015077D03*
X004725Y016327D03*
X004185Y017087D03*
X005305Y017537D03*
X004185Y018587D03*
X002435Y018587D03*
X005785Y019987D03*
X006025Y018987D03*
X011785Y017987D03*
X014785Y016237D03*
X016785Y016737D03*
X016785Y017987D03*
X016035Y018237D03*
X016785Y015237D03*
X017285Y014737D03*
X017185Y013337D03*
X015265Y014437D03*
X022675Y010867D03*
X023145Y010727D03*
X023175Y011387D03*
X022375Y008407D03*
X021645Y007837D03*
X022285Y004987D03*
X023065Y004987D03*
X020435Y004587D03*
X019785Y003487D03*
X018185Y004587D03*
X017535Y003487D03*
X015285Y004487D03*
X017435Y006337D03*
X011685Y006337D03*
X011045Y001597D03*
X012685Y001587D03*
X009185Y001587D03*
X002185Y007087D03*
X002185Y008587D03*
X006535Y014237D03*
D15*
X020885Y010137D03*
X020885Y009737D03*
X021285Y009737D03*
X021685Y009737D03*
X021685Y010137D03*
X021285Y010137D03*
X021285Y009337D03*
X021685Y009337D03*
X020885Y009337D03*
X023245Y009707D03*
X023845Y009737D03*
X024095Y010157D03*
X024595Y010157D03*
X024455Y009717D03*
X025025Y009727D03*
X025545Y009737D03*
X025575Y010157D03*
X025095Y010157D03*
X025295Y010657D03*
X025755Y010647D03*
X026225Y010657D03*
X026015Y010147D03*
X026015Y009747D03*
X024815Y010657D03*
X024355Y010777D03*
X023935Y011007D03*
X025285Y011987D03*
X025285Y012987D03*
X025535Y014287D03*
X025535Y014987D03*
X026205Y008787D03*
X026205Y008337D03*
X026205Y007827D03*
X026205Y007317D03*
X026215Y006817D03*
X026205Y006317D03*
X026205Y005837D03*
X024875Y005867D03*
X024435Y005817D03*
X023925Y005817D03*
X023915Y005177D03*
X024435Y005177D03*
X024445Y004547D03*
X024865Y004287D03*
X025215Y003997D03*
X025705Y004037D03*
X026205Y003927D03*
X026195Y004387D03*
X026205Y003417D03*
X026205Y002927D03*
X025675Y003197D03*
X025055Y003217D03*
X024485Y003217D03*
X023925Y003227D03*
X024535Y003857D03*
X023925Y003897D03*
X023915Y004557D03*
X023935Y006577D03*
X024425Y006567D03*
X024895Y006577D03*
X024905Y007327D03*
X024435Y007337D03*
X023935Y007377D03*
X023475Y007917D03*
X023925Y008297D03*
X024345Y008007D03*
X024885Y007877D03*
X024435Y008747D03*
X024005Y008767D03*
D16*
X001827Y000848D02*
X001789Y000938D01*
X001785Y000987D01*
X001785Y020987D01*
X001789Y021035D01*
X001827Y021126D01*
X001896Y021195D01*
X001986Y021232D01*
X002035Y021237D01*
X007177Y021237D01*
X007065Y021190D01*
X006831Y020957D01*
X006705Y020652D01*
X006705Y020322D01*
X006831Y020017D01*
X006941Y019907D01*
X006208Y019907D01*
X006143Y019972D01*
X006143Y020058D01*
X006089Y020190D01*
X005988Y020291D01*
X005856Y020345D01*
X005713Y020345D01*
X005582Y020291D01*
X005481Y020190D01*
X005426Y020058D01*
X005426Y019915D01*
X005481Y019784D01*
X005582Y019683D01*
X005713Y019628D01*
X005780Y019628D01*
X005963Y019445D01*
X006055Y019407D01*
X006361Y019407D01*
X006323Y019368D01*
X006285Y019276D01*
X006285Y018158D01*
X006275Y018167D01*
X006158Y018216D01*
X006031Y018216D01*
X005914Y018167D01*
X005824Y018077D01*
X005776Y017960D01*
X005776Y017931D01*
X005583Y017739D01*
X005513Y017668D01*
X005475Y017576D01*
X005475Y016758D01*
X005454Y016737D01*
X005406Y016620D01*
X005406Y016493D01*
X005454Y016376D01*
X005544Y016286D01*
X005661Y016238D01*
X005788Y016238D01*
X005905Y016286D01*
X005995Y016376D01*
X006044Y016493D01*
X006044Y016620D01*
X005995Y016737D01*
X005975Y016758D01*
X005975Y017423D01*
X006129Y017578D01*
X006158Y017578D01*
X006161Y017579D01*
X006204Y017476D01*
X006294Y017386D01*
X006411Y017338D01*
X006538Y017338D01*
X006655Y017386D01*
X006745Y017476D01*
X006794Y017593D01*
X006794Y017720D01*
X006765Y017789D01*
X006785Y017837D01*
X006785Y019123D01*
X006808Y019147D01*
X007467Y019147D01*
X007436Y019070D01*
X007436Y018943D01*
X007454Y018900D01*
X007452Y018875D01*
X007455Y018866D01*
X007455Y018077D01*
X007493Y017985D01*
X007563Y017915D01*
X007895Y017583D01*
X007895Y017518D01*
X007894Y017517D01*
X007846Y017400D01*
X007846Y017273D01*
X007865Y017227D01*
X007594Y017227D01*
X007594Y017280D01*
X007545Y017397D01*
X007455Y017487D01*
X007338Y017536D01*
X007211Y017536D01*
X007094Y017487D01*
X007004Y017397D01*
X006956Y017280D01*
X006956Y017153D01*
X007004Y017036D01*
X007094Y016946D01*
X007124Y016934D01*
X007133Y016925D01*
X007293Y016765D01*
X007361Y016737D01*
X006914Y016737D01*
X006914Y016810D01*
X006865Y016927D01*
X006775Y017017D01*
X006658Y017066D01*
X006531Y017066D01*
X006414Y017017D01*
X006324Y016927D01*
X006276Y016810D01*
X006276Y016683D01*
X006324Y016566D01*
X006414Y016476D01*
X006461Y016457D01*
X006573Y016345D01*
X006643Y016275D01*
X006735Y016237D01*
X008833Y016237D01*
X008764Y016167D01*
X008716Y016050D01*
X008716Y015923D01*
X008764Y015806D01*
X008854Y015716D01*
X008971Y015668D01*
X009098Y015668D01*
X009215Y015716D01*
X009236Y015737D01*
X011501Y015737D01*
X011514Y015706D01*
X011604Y015616D01*
X011721Y015568D01*
X011848Y015568D01*
X011965Y015616D01*
X012055Y015706D01*
X012104Y015823D01*
X012104Y015950D01*
X012055Y016067D01*
X011965Y016157D01*
X011848Y016206D01*
X011809Y016206D01*
X011734Y016237D01*
X011236Y016237D01*
X011305Y016306D01*
X011354Y016423D01*
X011354Y016550D01*
X011305Y016667D01*
X011215Y016757D01*
X011098Y016806D01*
X010971Y016806D01*
X010854Y016757D01*
X010833Y016737D01*
X009076Y016737D01*
X009155Y016816D01*
X009204Y016933D01*
X009204Y017060D01*
X009155Y017177D01*
X009065Y017267D01*
X008948Y017316D01*
X008821Y017316D01*
X008704Y017267D01*
X008663Y017227D01*
X008464Y017227D01*
X008484Y017273D01*
X008484Y017400D01*
X008435Y017517D01*
X008395Y017558D01*
X008395Y017736D01*
X008357Y017828D01*
X008325Y017860D01*
X008365Y017876D01*
X008455Y017966D01*
X008504Y018083D01*
X008504Y018210D01*
X008455Y018327D01*
X008435Y018348D01*
X008435Y018983D01*
X009035Y018383D01*
X009035Y018187D01*
X009073Y018095D01*
X009143Y018025D01*
X009304Y017864D01*
X009314Y017839D01*
X010064Y017089D01*
X010137Y017016D01*
X010233Y016977D01*
X010843Y016977D01*
X010854Y016966D01*
X010971Y016918D01*
X011098Y016918D01*
X011215Y016966D01*
X011236Y016987D01*
X011931Y016987D01*
X012285Y016633D01*
X012285Y012244D01*
X012231Y012190D01*
X012176Y012058D01*
X012176Y011915D01*
X012231Y011784D01*
X012285Y011730D01*
X012285Y005840D01*
X012181Y005737D01*
X010735Y005737D01*
X010643Y005699D01*
X010573Y005628D01*
X010323Y005378D01*
X010285Y005286D01*
X010285Y004687D01*
X010323Y004595D01*
X010393Y004525D01*
X010643Y004275D01*
X010735Y004237D01*
X012931Y004237D01*
X014285Y002883D01*
X014285Y002000D01*
X014212Y001970D01*
X014051Y001810D01*
X013965Y001600D01*
X013965Y001373D01*
X014051Y001164D01*
X014212Y001003D01*
X014421Y000917D01*
X014648Y000917D01*
X014858Y001003D01*
X015018Y001164D01*
X015035Y001204D01*
X015051Y001164D01*
X015212Y001003D01*
X015421Y000917D01*
X015648Y000917D01*
X015858Y001003D01*
X015981Y001127D01*
X016089Y001127D01*
X016212Y001003D01*
X016421Y000917D01*
X016648Y000917D01*
X016858Y001003D01*
X017018Y001164D01*
X017089Y001336D01*
X017099Y001306D01*
X017133Y001240D01*
X017176Y001180D01*
X017228Y001128D01*
X017288Y001085D01*
X017354Y001051D01*
X017425Y001028D01*
X017498Y001017D01*
X017506Y001017D01*
X017506Y001458D01*
X017564Y001458D01*
X017564Y001516D01*
X017506Y001516D01*
X017506Y001957D01*
X017498Y001957D01*
X017425Y001945D01*
X017354Y001922D01*
X017288Y001889D01*
X017228Y001845D01*
X017176Y001793D01*
X017133Y001733D01*
X017099Y001667D01*
X017089Y001637D01*
X017018Y001810D01*
X016858Y001970D01*
X016648Y002057D01*
X016421Y002057D01*
X016212Y001970D01*
X016089Y001847D01*
X015981Y001847D01*
X015858Y001970D01*
X015648Y002057D01*
X015421Y002057D01*
X015212Y001970D01*
X015051Y001810D01*
X015035Y001769D01*
X015018Y001810D01*
X014858Y001970D01*
X014785Y002000D01*
X014785Y002978D01*
X015229Y002533D01*
X015331Y002431D01*
X015463Y002377D01*
X018636Y002377D01*
X019127Y001885D01*
X019051Y001810D01*
X018980Y001637D01*
X018970Y001667D01*
X018937Y001733D01*
X018893Y001793D01*
X018841Y001845D01*
X018781Y001889D01*
X018715Y001922D01*
X018645Y001945D01*
X018572Y001957D01*
X018564Y001957D01*
X018564Y001516D01*
X018506Y001516D01*
X018506Y001957D01*
X018498Y001957D01*
X018425Y001945D01*
X018354Y001922D01*
X018288Y001889D01*
X018228Y001845D01*
X018176Y001793D01*
X018133Y001733D01*
X018099Y001667D01*
X018076Y001597D01*
X018065Y001524D01*
X018065Y001516D01*
X018506Y001516D01*
X018506Y001458D01*
X018564Y001458D01*
X018564Y001017D01*
X018572Y001017D01*
X018645Y001028D01*
X018715Y001051D01*
X018781Y001085D01*
X018841Y001128D01*
X018893Y001180D01*
X018937Y001240D01*
X018970Y001306D01*
X018980Y001336D01*
X019051Y001164D01*
X019212Y001003D01*
X019421Y000917D01*
X019648Y000917D01*
X019858Y001003D01*
X020018Y001164D01*
X020105Y001373D01*
X020105Y001600D01*
X020018Y001810D01*
X019895Y001933D01*
X019895Y002058D01*
X019840Y002191D01*
X019739Y002292D01*
X018989Y003042D01*
X018856Y003097D01*
X015684Y003097D01*
X015044Y003737D01*
X017278Y003737D01*
X017231Y003690D01*
X017176Y003558D01*
X017176Y003415D01*
X017231Y003284D01*
X017332Y003183D01*
X017463Y003128D01*
X017606Y003128D01*
X017738Y003183D01*
X017792Y003237D01*
X018931Y003237D01*
X019893Y002275D01*
X019985Y002237D01*
X022181Y002237D01*
X022379Y002039D01*
X022212Y001970D01*
X022051Y001810D01*
X022035Y001769D01*
X022018Y001810D01*
X021858Y001970D01*
X021648Y002057D01*
X021421Y002057D01*
X021212Y001970D01*
X021051Y001810D01*
X020965Y001600D01*
X020965Y001373D01*
X021051Y001164D01*
X021212Y001003D01*
X021421Y000917D01*
X021648Y000917D01*
X021858Y001003D01*
X022018Y001164D01*
X022035Y001204D01*
X022051Y001164D01*
X022212Y001003D01*
X022421Y000917D01*
X022648Y000917D01*
X022858Y001003D01*
X023018Y001164D01*
X023035Y001204D01*
X023051Y001164D01*
X023212Y001003D01*
X023421Y000917D01*
X023648Y000917D01*
X023858Y001003D01*
X024018Y001164D01*
X024035Y001204D01*
X024051Y001164D01*
X024212Y001003D01*
X024421Y000917D01*
X024648Y000917D01*
X024858Y001003D01*
X025018Y001164D01*
X025035Y001204D01*
X025051Y001164D01*
X025212Y001003D01*
X025421Y000917D01*
X025648Y000917D01*
X025858Y001003D01*
X026018Y001164D01*
X026035Y001204D01*
X026051Y001164D01*
X026212Y001003D01*
X026332Y000954D01*
X026329Y000917D01*
X026311Y000850D01*
X026281Y000787D01*
X026246Y000737D01*
X007393Y000737D01*
X007505Y000783D01*
X007738Y001017D01*
X007865Y001322D01*
X007865Y001652D01*
X007738Y001957D01*
X007505Y002190D01*
X007200Y002317D01*
X006870Y002317D01*
X006565Y002190D01*
X006331Y001957D01*
X006205Y001652D01*
X006205Y001322D01*
X006331Y001017D01*
X006565Y000783D01*
X006677Y000737D01*
X002035Y000737D01*
X001986Y000741D01*
X001896Y000779D01*
X001827Y000848D01*
X001814Y000879D02*
X006468Y000879D01*
X006390Y000958D02*
X001788Y000958D01*
X001785Y001036D02*
X004928Y001036D01*
X004911Y001041D02*
X005004Y001016D01*
X005099Y001003D01*
X005107Y001003D01*
X005107Y001696D01*
X005187Y001696D01*
X005187Y001003D01*
X005195Y001003D01*
X005291Y001016D01*
X005383Y001041D01*
X005472Y001077D01*
X005555Y001125D01*
X005632Y001184D01*
X005700Y001252D01*
X005758Y001328D01*
X005806Y001411D01*
X005843Y001500D01*
X005868Y001593D01*
X005880Y001688D01*
X005880Y001696D01*
X005187Y001696D01*
X005187Y001776D01*
X005880Y001776D01*
X005880Y001784D01*
X005868Y001880D01*
X005843Y001972D01*
X005806Y002061D01*
X005758Y002144D01*
X005700Y002221D01*
X005632Y002289D01*
X005555Y002347D01*
X005472Y002395D01*
X005383Y002432D01*
X005291Y002457D01*
X005195Y002469D01*
X005187Y002469D01*
X005187Y001776D01*
X005107Y001776D01*
X005107Y001696D01*
X004414Y001696D01*
X004414Y001688D01*
X004427Y001593D01*
X004452Y001500D01*
X004488Y001411D01*
X004536Y001328D01*
X004595Y001252D01*
X004663Y001184D01*
X004739Y001125D01*
X004822Y001077D01*
X004911Y001041D01*
X004758Y001115D02*
X001785Y001115D01*
X001785Y001193D02*
X004654Y001193D01*
X004580Y001272D02*
X001785Y001272D01*
X001785Y001350D02*
X004524Y001350D01*
X004481Y001429D02*
X001785Y001429D01*
X001785Y001507D02*
X004450Y001507D01*
X004429Y001586D02*
X001785Y001586D01*
X001785Y001664D02*
X004417Y001664D01*
X004414Y001776D02*
X005107Y001776D01*
X005107Y002469D01*
X005099Y002469D01*
X005004Y002457D01*
X004911Y002432D01*
X004822Y002395D01*
X004739Y002347D01*
X004663Y002289D01*
X004595Y002221D01*
X004536Y002144D01*
X004488Y002061D01*
X004452Y001972D01*
X004427Y001880D01*
X004414Y001784D01*
X004414Y001776D01*
X004419Y001821D02*
X001785Y001821D01*
X001785Y001743D02*
X005107Y001743D01*
X005107Y001821D02*
X005187Y001821D01*
X005187Y001743D02*
X006242Y001743D01*
X006275Y001821D02*
X005875Y001821D01*
X005862Y001900D02*
X006307Y001900D01*
X006352Y001978D02*
X005841Y001978D01*
X005808Y002057D02*
X006431Y002057D01*
X006509Y002135D02*
X005763Y002135D01*
X005705Y002214D02*
X006621Y002214D01*
X006811Y002292D02*
X005627Y002292D01*
X005515Y002371D02*
X014285Y002371D01*
X014285Y002449D02*
X005319Y002449D01*
X005187Y002449D02*
X005107Y002449D01*
X005107Y002371D02*
X005187Y002371D01*
X005187Y002292D02*
X005107Y002292D01*
X005107Y002214D02*
X005187Y002214D01*
X005187Y002135D02*
X005107Y002135D01*
X005107Y002057D02*
X005187Y002057D01*
X005187Y001978D02*
X005107Y001978D01*
X005107Y001900D02*
X005187Y001900D01*
X005187Y001664D02*
X005107Y001664D01*
X005107Y001586D02*
X005187Y001586D01*
X005187Y001507D02*
X005107Y001507D01*
X005107Y001429D02*
X005187Y001429D01*
X005187Y001350D02*
X005107Y001350D01*
X005107Y001272D02*
X005187Y001272D01*
X005187Y001193D02*
X005107Y001193D01*
X005107Y001115D02*
X005187Y001115D01*
X005187Y001036D02*
X005107Y001036D01*
X005367Y001036D02*
X006323Y001036D01*
X006290Y001115D02*
X005537Y001115D01*
X005641Y001193D02*
X006258Y001193D01*
X006225Y001272D02*
X005715Y001272D01*
X005771Y001350D02*
X006205Y001350D01*
X006205Y001429D02*
X005813Y001429D01*
X005845Y001507D02*
X006205Y001507D01*
X006205Y001586D02*
X005866Y001586D01*
X005877Y001664D02*
X006210Y001664D01*
X007259Y002292D02*
X014285Y002292D01*
X014285Y002214D02*
X007448Y002214D01*
X007560Y002135D02*
X014285Y002135D01*
X014285Y002057D02*
X007638Y002057D01*
X007717Y001978D02*
X014232Y001978D01*
X014142Y001900D02*
X007762Y001900D01*
X007794Y001821D02*
X014063Y001821D01*
X014024Y001743D02*
X007827Y001743D01*
X007859Y001664D02*
X013991Y001664D01*
X013965Y001586D02*
X007865Y001586D01*
X007865Y001507D02*
X013965Y001507D01*
X013965Y001429D02*
X007865Y001429D01*
X007865Y001350D02*
X013974Y001350D01*
X014007Y001272D02*
X007844Y001272D01*
X007811Y001193D02*
X014039Y001193D01*
X014101Y001115D02*
X007779Y001115D01*
X007746Y001036D02*
X014179Y001036D01*
X014322Y000958D02*
X007679Y000958D01*
X007601Y000879D02*
X026318Y000879D01*
X026322Y000958D02*
X025747Y000958D01*
X025890Y001036D02*
X026179Y001036D01*
X026101Y001115D02*
X025969Y001115D01*
X026030Y001193D02*
X026039Y001193D01*
X026288Y000801D02*
X007522Y000801D01*
X006547Y000801D02*
X001874Y000801D01*
X001785Y001900D02*
X004432Y001900D01*
X004454Y001978D02*
X001785Y001978D01*
X001785Y002057D02*
X004486Y002057D01*
X004531Y002135D02*
X001785Y002135D01*
X001785Y002214D02*
X004590Y002214D01*
X004668Y002292D02*
X001785Y002292D01*
X001785Y002371D02*
X004780Y002371D01*
X004975Y002449D02*
X001785Y002449D01*
X001785Y002528D02*
X014285Y002528D01*
X014285Y002606D02*
X001785Y002606D01*
X001785Y002685D02*
X006123Y002685D01*
X006147Y002675D02*
X006510Y002675D01*
X006845Y002814D01*
X007101Y003070D01*
X007240Y003405D01*
X007240Y003768D01*
X007101Y004103D01*
X006845Y004360D01*
X006510Y004498D01*
X006147Y004498D01*
X005812Y004360D01*
X005555Y004103D01*
X005417Y003768D01*
X005417Y003405D01*
X005555Y003070D01*
X005812Y002814D01*
X006147Y002675D01*
X005934Y002763D02*
X001785Y002763D01*
X001785Y002842D02*
X003643Y002842D01*
X003606Y002857D02*
X003705Y002816D01*
X003807Y002789D01*
X003913Y002775D01*
X003926Y002775D01*
X003926Y003547D01*
X003154Y003547D01*
X003154Y003533D01*
X003168Y003428D01*
X003196Y003325D01*
X003236Y003227D01*
X003290Y003135D01*
X003354Y003050D01*
X003430Y002975D01*
X003514Y002910D01*
X003606Y002857D01*
X003501Y002920D02*
X001785Y002920D01*
X001785Y002999D02*
X003406Y002999D01*
X003334Y003077D02*
X001785Y003077D01*
X001785Y003156D02*
X003278Y003156D01*
X003233Y003234D02*
X001785Y003234D01*
X001785Y003313D02*
X003201Y003313D01*
X003178Y003391D02*
X001785Y003391D01*
X001785Y003470D02*
X003163Y003470D01*
X003154Y003627D02*
X003926Y003627D01*
X004006Y003627D01*
X003926Y003627D01*
X003926Y004398D01*
X003913Y004398D01*
X003807Y004385D01*
X003705Y004357D01*
X003606Y004316D01*
X003514Y004263D01*
X003430Y004198D01*
X003354Y004123D01*
X003290Y004039D01*
X003236Y003946D01*
X003196Y003848D01*
X003168Y003745D01*
X003154Y003640D01*
X003154Y003627D01*
X001785Y003627D01*
X001785Y003705D02*
X003163Y003705D01*
X003178Y003784D02*
X001785Y003784D01*
X001785Y003862D02*
X003202Y003862D01*
X003234Y003941D02*
X001785Y003941D01*
X001785Y004019D02*
X003278Y004019D01*
X003335Y004098D02*
X001785Y004098D01*
X001785Y004176D02*
X003408Y004176D01*
X003503Y004255D02*
X001785Y004255D01*
X001785Y004333D02*
X003647Y004333D01*
X003926Y004333D02*
X004006Y004333D01*
X004006Y004398D02*
X004006Y003627D01*
X004778Y003627D01*
X005417Y003627D01*
X005417Y003705D02*
X004769Y003705D01*
X004764Y003745D02*
X004737Y003848D01*
X004696Y003946D01*
X004643Y004039D01*
X004578Y004123D01*
X004503Y004198D01*
X004418Y004263D01*
X004326Y004316D01*
X004228Y004357D01*
X004125Y004385D01*
X004019Y004398D01*
X004006Y004398D01*
X004006Y004255D02*
X003926Y004255D01*
X003926Y004176D02*
X004006Y004176D01*
X004006Y004098D02*
X003926Y004098D01*
X003926Y004019D02*
X004006Y004019D01*
X004006Y003941D02*
X003926Y003941D01*
X003926Y003862D02*
X004006Y003862D01*
X004006Y003784D02*
X003926Y003784D01*
X003926Y003705D02*
X004006Y003705D01*
X004006Y003627D02*
X004006Y003547D01*
X004778Y003547D01*
X004778Y003533D01*
X004764Y003428D01*
X004737Y003325D01*
X004696Y003227D01*
X004643Y003135D01*
X004578Y003050D01*
X004503Y002975D01*
X004418Y002910D01*
X004326Y002857D01*
X004228Y002816D01*
X004125Y002789D01*
X004019Y002775D01*
X004006Y002775D01*
X004006Y003547D01*
X003926Y003547D01*
X003926Y003627D01*
X003926Y003548D02*
X001785Y003548D01*
X001785Y004412D02*
X005937Y004412D01*
X005785Y004333D02*
X004285Y004333D01*
X004429Y004255D02*
X005707Y004255D01*
X005628Y004176D02*
X004525Y004176D01*
X004597Y004098D02*
X005553Y004098D01*
X005521Y004019D02*
X004654Y004019D01*
X004698Y003941D02*
X005488Y003941D01*
X005456Y003862D02*
X004731Y003862D01*
X004754Y003784D02*
X005423Y003784D01*
X005417Y003548D02*
X004006Y003548D01*
X004006Y003470D02*
X003926Y003470D01*
X003926Y003391D02*
X004006Y003391D01*
X004006Y003313D02*
X003926Y003313D01*
X003926Y003234D02*
X004006Y003234D01*
X004006Y003156D02*
X003926Y003156D01*
X003926Y003077D02*
X004006Y003077D01*
X004006Y002999D02*
X003926Y002999D01*
X003926Y002920D02*
X004006Y002920D01*
X004006Y002842D02*
X003926Y002842D01*
X004289Y002842D02*
X005784Y002842D01*
X005705Y002920D02*
X004431Y002920D01*
X004526Y002999D02*
X005627Y002999D01*
X005552Y003077D02*
X004598Y003077D01*
X004655Y003156D02*
X005520Y003156D01*
X005487Y003234D02*
X004699Y003234D01*
X004731Y003313D02*
X005455Y003313D01*
X005422Y003391D02*
X004754Y003391D01*
X004770Y003470D02*
X005417Y003470D01*
X004778Y003627D02*
X004778Y003640D01*
X004764Y003745D01*
X004856Y004749D02*
X004877Y004751D01*
X004887Y004747D01*
X004921Y004747D01*
X004955Y004743D01*
X004969Y004747D01*
X008701Y004747D01*
X008714Y004743D01*
X008748Y004747D01*
X008782Y004747D01*
X008792Y004751D01*
X008813Y004749D01*
X008833Y004756D01*
X008853Y004759D01*
X008878Y004772D01*
X008882Y004773D01*
X008909Y004778D01*
X008926Y004789D01*
X008946Y004796D01*
X008952Y004801D01*
X008964Y004772D01*
X009070Y004666D01*
X009209Y004609D01*
X009360Y004609D01*
X009499Y004666D01*
X009605Y004772D01*
X009663Y004911D01*
X009663Y005062D01*
X009645Y005106D01*
X009645Y008618D01*
X009663Y008661D01*
X009663Y008812D01*
X009605Y008951D01*
X009499Y009057D01*
X009360Y009115D01*
X009209Y009115D01*
X009175Y009100D01*
X009175Y009353D01*
X009178Y009366D01*
X009175Y009400D01*
X009175Y009434D01*
X009171Y009444D01*
X009172Y009465D01*
X009165Y009485D01*
X009163Y009505D01*
X009149Y009530D01*
X009148Y009534D01*
X009143Y009561D01*
X009132Y009578D01*
X009126Y009598D01*
X009107Y009618D01*
X009105Y009622D01*
X009094Y009647D01*
X009080Y009662D01*
X009069Y009679D01*
X009046Y009695D01*
X009043Y009698D01*
X009027Y009721D01*
X009010Y009732D01*
X008995Y009746D01*
X008970Y009757D01*
X008966Y009759D01*
X008946Y009778D01*
X008926Y009784D01*
X008909Y009795D01*
X008882Y009800D01*
X008878Y009801D01*
X008853Y009815D01*
X008833Y009817D01*
X008813Y009824D01*
X008792Y009823D01*
X008782Y009827D01*
X008748Y009827D01*
X008714Y009831D01*
X008701Y009827D01*
X005856Y009827D01*
X005893Y009915D01*
X005893Y010058D01*
X005839Y010190D01*
X005738Y010291D01*
X005606Y010345D01*
X005463Y010345D01*
X005332Y010291D01*
X005288Y010247D01*
X004483Y010247D01*
X004387Y010207D01*
X004314Y010134D01*
X004064Y009884D01*
X004025Y009788D01*
X004025Y008928D01*
X004014Y008917D01*
X003966Y008800D01*
X003966Y008673D01*
X004014Y008556D01*
X004104Y008466D01*
X004221Y008418D01*
X004348Y008418D01*
X004465Y008466D01*
X004495Y008495D01*
X004495Y005439D01*
X004495Y005221D01*
X004491Y005207D01*
X004495Y005173D01*
X004495Y005139D01*
X004499Y005129D01*
X004497Y005108D01*
X004504Y005088D01*
X004507Y005068D01*
X004520Y005044D01*
X004521Y005040D01*
X004526Y005013D01*
X004537Y004995D01*
X004544Y004976D01*
X004562Y004955D01*
X004564Y004951D01*
X004575Y004926D01*
X004589Y004911D01*
X004600Y004894D01*
X004623Y004878D01*
X004626Y004875D01*
X004642Y004852D01*
X004659Y004841D01*
X004674Y004827D01*
X004699Y004816D01*
X004703Y004814D01*
X004724Y004796D01*
X004743Y004789D01*
X004761Y004778D01*
X004788Y004773D01*
X004792Y004772D01*
X004816Y004759D01*
X004836Y004756D01*
X004856Y004749D01*
X004714Y004804D02*
X001785Y004804D01*
X001785Y004726D02*
X009011Y004726D01*
X009116Y004647D02*
X001785Y004647D01*
X001785Y004569D02*
X010349Y004569D01*
X010301Y004647D02*
X009453Y004647D01*
X009558Y004726D02*
X010285Y004726D01*
X010285Y004804D02*
X009618Y004804D01*
X009651Y004883D02*
X010285Y004883D01*
X010285Y004961D02*
X009663Y004961D01*
X009663Y005040D02*
X010285Y005040D01*
X010285Y005118D02*
X009645Y005118D01*
X009645Y005197D02*
X010285Y005197D01*
X010285Y005275D02*
X009645Y005275D01*
X009645Y005354D02*
X010313Y005354D01*
X010377Y005432D02*
X009645Y005432D01*
X009645Y005511D02*
X010455Y005511D01*
X010534Y005589D02*
X009645Y005589D01*
X009645Y005668D02*
X010612Y005668D01*
X009645Y005746D02*
X012191Y005746D01*
X012269Y005825D02*
X009645Y005825D01*
X009645Y005903D02*
X012285Y005903D01*
X012285Y005982D02*
X009645Y005982D01*
X009645Y006060D02*
X012285Y006060D01*
X012285Y006139D02*
X009645Y006139D01*
X009645Y006217D02*
X012285Y006217D01*
X012285Y006296D02*
X009645Y006296D01*
X009645Y006374D02*
X012285Y006374D01*
X012285Y006453D02*
X009645Y006453D01*
X009645Y006531D02*
X012285Y006531D01*
X012285Y006610D02*
X009645Y006610D01*
X009645Y006688D02*
X012285Y006688D01*
X012285Y006767D02*
X009645Y006767D01*
X009645Y006845D02*
X012285Y006845D01*
X012285Y006924D02*
X009645Y006924D01*
X009645Y007002D02*
X012285Y007002D01*
X012285Y007081D02*
X009645Y007081D01*
X009645Y007159D02*
X012285Y007159D01*
X012285Y007238D02*
X009645Y007238D01*
X009645Y007316D02*
X012285Y007316D01*
X012285Y007395D02*
X009645Y007395D01*
X009645Y007473D02*
X012285Y007473D01*
X012285Y007552D02*
X009645Y007552D01*
X009645Y007630D02*
X012285Y007630D01*
X012285Y007709D02*
X009645Y007709D01*
X009645Y007787D02*
X012285Y007787D01*
X012285Y007866D02*
X009645Y007866D01*
X009645Y007944D02*
X012285Y007944D01*
X012285Y008023D02*
X009645Y008023D01*
X009645Y008101D02*
X012285Y008101D01*
X012285Y008180D02*
X009645Y008180D01*
X009645Y008258D02*
X012285Y008258D01*
X012285Y008337D02*
X009645Y008337D01*
X009645Y008415D02*
X012285Y008415D01*
X012285Y008494D02*
X009645Y008494D01*
X009645Y008572D02*
X012285Y008572D01*
X012285Y008651D02*
X009658Y008651D01*
X009663Y008729D02*
X012285Y008729D01*
X012285Y008808D02*
X009663Y008808D01*
X009632Y008886D02*
X012285Y008886D01*
X012285Y008965D02*
X009591Y008965D01*
X009513Y009043D02*
X012285Y009043D01*
X012285Y009122D02*
X009175Y009122D01*
X009175Y009200D02*
X012285Y009200D01*
X012285Y009279D02*
X009175Y009279D01*
X009176Y009357D02*
X012285Y009357D01*
X012285Y009436D02*
X009174Y009436D01*
X009158Y009514D02*
X012285Y009514D01*
X012285Y009593D02*
X009127Y009593D01*
X009074Y009671D02*
X012285Y009671D01*
X012285Y009750D02*
X008988Y009750D01*
X008859Y009543D02*
X008891Y009511D01*
X008915Y009473D01*
X008930Y009431D01*
X008935Y009387D01*
X008935Y005187D01*
X008930Y005142D01*
X008915Y005100D01*
X008891Y005062D01*
X008859Y005030D01*
X008821Y005006D01*
X008779Y004992D01*
X008735Y004987D01*
X004935Y004987D01*
X004890Y004992D01*
X004848Y005006D01*
X004810Y005030D01*
X004778Y005062D01*
X004754Y005100D01*
X004740Y005142D01*
X004735Y005187D01*
X004735Y009387D01*
X004740Y009431D01*
X004754Y009473D01*
X004778Y009511D01*
X004810Y009543D01*
X004848Y009567D01*
X004890Y009582D01*
X004935Y009587D01*
X008735Y009587D01*
X008779Y009582D01*
X008821Y009567D01*
X008859Y009543D01*
X008888Y009514D02*
X004781Y009514D01*
X004741Y009436D02*
X008928Y009436D01*
X008935Y009357D02*
X004735Y009357D01*
X004735Y009279D02*
X008935Y009279D01*
X008935Y009200D02*
X004735Y009200D01*
X004735Y009122D02*
X008935Y009122D01*
X008935Y009043D02*
X004735Y009043D01*
X004735Y008965D02*
X008935Y008965D01*
X008935Y008886D02*
X004735Y008886D01*
X004735Y008808D02*
X008935Y008808D01*
X008935Y008729D02*
X004735Y008729D01*
X004735Y008651D02*
X008935Y008651D01*
X008935Y008572D02*
X004735Y008572D01*
X004735Y008494D02*
X008935Y008494D01*
X008935Y008415D02*
X004735Y008415D01*
X004735Y008337D02*
X008935Y008337D01*
X008935Y008258D02*
X004735Y008258D01*
X004735Y008180D02*
X008935Y008180D01*
X008935Y008101D02*
X004735Y008101D01*
X004735Y008023D02*
X008935Y008023D01*
X008935Y007944D02*
X004735Y007944D01*
X004735Y007866D02*
X008935Y007866D01*
X008935Y007787D02*
X004735Y007787D01*
X004735Y007709D02*
X008935Y007709D01*
X008935Y007630D02*
X004735Y007630D01*
X004735Y007552D02*
X008935Y007552D01*
X008935Y007473D02*
X004735Y007473D01*
X004735Y007395D02*
X008935Y007395D01*
X008935Y007316D02*
X004735Y007316D01*
X004735Y007238D02*
X008935Y007238D01*
X008935Y007159D02*
X004735Y007159D01*
X004735Y007081D02*
X008935Y007081D01*
X008935Y007002D02*
X004735Y007002D01*
X004735Y006924D02*
X008935Y006924D01*
X008935Y006845D02*
X004735Y006845D01*
X004735Y006767D02*
X008935Y006767D01*
X008935Y006688D02*
X004735Y006688D01*
X004735Y006610D02*
X008935Y006610D01*
X008935Y006531D02*
X004735Y006531D01*
X004735Y006453D02*
X008935Y006453D01*
X008935Y006374D02*
X004735Y006374D01*
X004735Y006296D02*
X008935Y006296D01*
X008935Y006217D02*
X004735Y006217D01*
X004735Y006139D02*
X008935Y006139D01*
X008935Y006060D02*
X004735Y006060D01*
X004735Y005982D02*
X008935Y005982D01*
X008935Y005903D02*
X004735Y005903D01*
X004735Y005825D02*
X008935Y005825D01*
X008935Y005746D02*
X004735Y005746D01*
X004735Y005668D02*
X008935Y005668D01*
X008935Y005589D02*
X004735Y005589D01*
X004735Y005511D02*
X008935Y005511D01*
X008935Y005432D02*
X004735Y005432D01*
X004735Y005354D02*
X008935Y005354D01*
X008935Y005275D02*
X004735Y005275D01*
X004735Y005197D02*
X008935Y005197D01*
X008921Y005118D02*
X004748Y005118D01*
X004801Y005040D02*
X008869Y005040D01*
X010428Y004490D02*
X006530Y004490D01*
X006719Y004412D02*
X010506Y004412D01*
X010585Y004333D02*
X006871Y004333D01*
X006950Y004255D02*
X010691Y004255D01*
X012785Y005840D02*
X012785Y011730D01*
X012839Y011784D01*
X012893Y011915D01*
X012893Y012058D01*
X012839Y012190D01*
X012785Y012244D01*
X012785Y016786D01*
X012747Y016878D01*
X012276Y017349D01*
X012275Y017349D01*
X012206Y017419D01*
X012206Y017419D01*
X012191Y017433D01*
X012063Y017487D01*
X011236Y017487D01*
X011215Y017507D01*
X011098Y017556D01*
X010971Y017556D01*
X010854Y017507D01*
X010843Y017497D01*
X010392Y017497D01*
X009682Y018207D01*
X009658Y018217D01*
X009535Y018340D01*
X009535Y018536D01*
X009497Y018628D01*
X008327Y019798D01*
X013120Y019798D01*
X013042Y019876D02*
X008238Y019876D01*
X008256Y019869D02*
X008164Y019907D01*
X008128Y019907D01*
X008238Y020017D01*
X008365Y020322D01*
X008365Y020652D01*
X008238Y020957D01*
X008005Y021190D01*
X007893Y021237D01*
X026246Y021237D01*
X026281Y021187D01*
X026311Y021123D01*
X026328Y021057D01*
X026082Y021057D01*
X025965Y020940D01*
X025965Y020863D01*
X025858Y020970D01*
X025648Y021057D01*
X025421Y021057D01*
X025212Y020970D01*
X025051Y020810D01*
X025035Y020769D01*
X025018Y020810D01*
X024858Y020970D01*
X024648Y021057D01*
X024421Y021057D01*
X024212Y020970D01*
X024051Y020810D01*
X024035Y020769D01*
X024018Y020810D01*
X023858Y020970D01*
X023648Y021057D01*
X023421Y021057D01*
X023212Y020970D01*
X023051Y020810D01*
X023035Y020769D01*
X023018Y020810D01*
X022858Y020970D01*
X022648Y021057D01*
X022421Y021057D01*
X022212Y020970D01*
X022051Y020810D01*
X022035Y020769D01*
X022018Y020810D01*
X021858Y020970D01*
X021648Y021057D01*
X021421Y021057D01*
X021212Y020970D01*
X021051Y020810D01*
X021035Y020769D01*
X021018Y020810D01*
X020858Y020970D01*
X020648Y021057D01*
X020421Y021057D01*
X020212Y020970D01*
X020051Y020810D01*
X020035Y020769D01*
X020018Y020810D01*
X019858Y020970D01*
X019648Y021057D01*
X019421Y021057D01*
X019212Y020970D01*
X019051Y020810D01*
X018965Y020600D01*
X018965Y020373D01*
X019051Y020164D01*
X019212Y020003D01*
X019285Y019973D01*
X019285Y017744D01*
X019231Y017690D01*
X019176Y017558D01*
X019176Y017415D01*
X019231Y017284D01*
X019332Y017183D01*
X019463Y017128D01*
X019606Y017128D01*
X019738Y017183D01*
X019802Y017247D01*
X021018Y017247D01*
X021082Y017183D01*
X021213Y017128D01*
X021356Y017128D01*
X021488Y017183D01*
X021589Y017284D01*
X021643Y017415D01*
X021643Y017558D01*
X021589Y017690D01*
X021488Y017791D01*
X021356Y017845D01*
X021213Y017845D01*
X021082Y017791D01*
X021018Y017727D01*
X019802Y017727D01*
X019785Y017744D01*
X019785Y019973D01*
X019858Y020003D01*
X020018Y020164D01*
X020035Y020204D01*
X020051Y020164D01*
X020212Y020003D01*
X020421Y019917D01*
X020648Y019917D01*
X020813Y019985D01*
X021273Y019525D01*
X021365Y019487D01*
X021681Y019487D01*
X021785Y019383D01*
X021785Y017670D01*
X021723Y017608D01*
X021685Y017516D01*
X021685Y017160D01*
X021511Y016987D01*
X020985Y016987D01*
X020893Y016949D01*
X020823Y016878D01*
X020801Y016857D01*
X020395Y016857D01*
X020303Y016819D01*
X020233Y016748D01*
X020023Y016538D01*
X019985Y016446D01*
X019985Y016077D01*
X020023Y015985D01*
X020093Y015915D01*
X020323Y015685D01*
X020415Y015647D01*
X020994Y015647D01*
X021086Y015685D01*
X021138Y015737D01*
X021931Y015737D01*
X022176Y015492D01*
X022176Y015415D01*
X022231Y015284D01*
X022332Y015183D01*
X022463Y015128D01*
X022606Y015128D01*
X022738Y015183D01*
X022839Y015284D01*
X022893Y015415D01*
X022893Y015558D01*
X022839Y015690D01*
X022738Y015791D01*
X022606Y015845D01*
X022530Y015845D01*
X022388Y015987D01*
X022584Y015987D01*
X022676Y016025D01*
X023006Y016355D01*
X023077Y016425D01*
X023115Y016517D01*
X023115Y017456D01*
X023077Y017548D01*
X023035Y017590D01*
X023035Y019633D01*
X023348Y019947D01*
X023421Y019917D01*
X023648Y019917D01*
X023858Y020003D01*
X024018Y020164D01*
X024035Y020204D01*
X024051Y020164D01*
X024212Y020003D01*
X024421Y019917D01*
X024535Y019917D01*
X024535Y019687D01*
X024573Y019595D01*
X024785Y019383D01*
X024785Y018340D01*
X024643Y018199D01*
X024573Y018128D01*
X024535Y018036D01*
X024535Y015937D01*
X024573Y015845D01*
X024785Y015633D01*
X024785Y013840D01*
X024393Y013449D01*
X024323Y013378D01*
X024285Y013286D01*
X024285Y012090D01*
X024181Y011987D01*
X022638Y011987D01*
X022506Y012119D01*
X022414Y012157D01*
X021102Y012157D01*
X021048Y012211D01*
X020916Y012265D01*
X020860Y012265D01*
X020676Y012449D01*
X020584Y012487D01*
X019235Y012487D01*
X019143Y012449D01*
X019073Y012378D01*
X018431Y011737D01*
X017235Y011737D01*
X017143Y011699D01*
X017073Y011628D01*
X017040Y011595D01*
X016963Y011595D01*
X016832Y011541D01*
X016731Y011440D01*
X016676Y011308D01*
X016676Y011165D01*
X016731Y011034D01*
X016832Y010933D01*
X016963Y010878D01*
X017106Y010878D01*
X017238Y010933D01*
X017339Y011034D01*
X017393Y011165D01*
X017393Y011237D01*
X018565Y011237D01*
X018565Y011219D01*
X018564Y011218D01*
X018510Y011087D01*
X018510Y010946D01*
X018564Y010816D01*
X018664Y010716D01*
X018794Y010662D01*
X018935Y010662D01*
X019066Y010716D01*
X019166Y010816D01*
X019220Y010946D01*
X019220Y011087D01*
X019173Y011201D01*
X019426Y011454D01*
X019426Y011415D01*
X019481Y011284D01*
X019582Y011183D01*
X019713Y011128D01*
X019804Y011128D01*
X019831Y011101D01*
X019899Y011033D01*
X019987Y010997D01*
X021935Y010997D01*
X022081Y010851D01*
X022149Y010783D01*
X022216Y010755D01*
X022179Y010740D01*
X022111Y010673D01*
X022111Y010673D01*
X021921Y010483D01*
X021885Y010394D01*
X021885Y010336D01*
X021861Y010313D01*
X021825Y010224D01*
X021825Y008899D01*
X021861Y008811D01*
X021929Y008743D01*
X022068Y008604D01*
X022018Y008482D01*
X021649Y008195D01*
X021573Y008195D01*
X021442Y008141D01*
X021341Y008040D01*
X021286Y007908D01*
X021286Y007765D01*
X021341Y007634D01*
X021442Y007533D01*
X021573Y007478D01*
X021716Y007478D01*
X021848Y007533D01*
X021949Y007634D01*
X022000Y007759D01*
X022295Y007988D01*
X022295Y007836D01*
X022229Y007770D01*
X022161Y007703D01*
X022125Y007614D01*
X022125Y006016D01*
X022081Y005973D01*
X022045Y005884D01*
X022045Y005254D01*
X021981Y005190D01*
X021926Y005058D01*
X021926Y004915D01*
X021981Y004784D01*
X022082Y004683D01*
X022213Y004628D01*
X022323Y004628D01*
X022296Y004602D01*
X022293Y004599D01*
X021931Y004237D01*
X015542Y004237D01*
X015589Y004284D01*
X015643Y004415D01*
X015643Y004558D01*
X015589Y004690D01*
X015488Y004791D01*
X015356Y004845D01*
X015280Y004845D01*
X013997Y006128D01*
X013926Y006199D01*
X013834Y006237D01*
X013388Y006237D01*
X013285Y006340D01*
X013285Y009730D01*
X013332Y009683D01*
X013463Y009628D01*
X013606Y009628D01*
X013679Y009659D01*
X013731Y009534D01*
X013832Y009433D01*
X013957Y009381D01*
X013926Y009308D01*
X013926Y009165D01*
X013981Y009034D01*
X014082Y008933D01*
X014213Y008878D01*
X014356Y008878D01*
X014405Y008898D01*
X014405Y008567D01*
X014443Y008475D01*
X014513Y008405D01*
X014535Y008383D01*
X014535Y008187D01*
X014573Y008095D01*
X014676Y007992D01*
X014676Y007915D01*
X014731Y007784D01*
X014832Y007683D01*
X014957Y007631D01*
X014926Y007558D01*
X014926Y007415D01*
X014981Y007284D01*
X015082Y007183D01*
X015213Y007128D01*
X015356Y007128D01*
X015488Y007183D01*
X015589Y007284D01*
X015643Y007415D01*
X015643Y007492D01*
X015747Y007595D01*
X015785Y007687D01*
X015785Y008036D01*
X015747Y008128D01*
X015676Y008199D01*
X015285Y008590D01*
X015285Y008883D01*
X015535Y009133D01*
X015535Y008687D01*
X015573Y008595D01*
X015785Y008383D01*
X015785Y007437D01*
X015823Y007345D01*
X015926Y007242D01*
X015926Y007165D01*
X015981Y007034D01*
X016082Y006933D01*
X016213Y006878D01*
X016356Y006878D01*
X016488Y006933D01*
X016589Y007034D01*
X016643Y007165D01*
X016643Y007308D01*
X016589Y007440D01*
X016488Y007541D01*
X016356Y007595D01*
X016285Y007595D01*
X016285Y008536D01*
X016247Y008628D01*
X016176Y008699D01*
X016157Y008718D01*
X016226Y008718D01*
X016285Y008743D01*
X016306Y008747D01*
X018332Y008747D01*
X018421Y008783D01*
X018671Y009033D01*
X018738Y009101D01*
X018775Y009189D01*
X018775Y009437D01*
X019026Y009688D01*
X019116Y009688D01*
X019248Y009743D01*
X019349Y009844D01*
X019403Y009975D01*
X019403Y010118D01*
X019349Y010250D01*
X019248Y010351D01*
X019116Y010405D01*
X018973Y010405D01*
X018842Y010351D01*
X018741Y010250D01*
X018686Y010118D01*
X018686Y010028D01*
X018331Y009673D01*
X018295Y009584D01*
X018295Y009336D01*
X018185Y009227D01*
X016480Y009227D01*
X016459Y009280D01*
X016358Y009381D01*
X016226Y009435D01*
X016083Y009435D01*
X016035Y009415D01*
X016035Y013033D01*
X016247Y013245D01*
X016285Y013337D01*
X016285Y016633D01*
X016426Y016775D01*
X016426Y016665D01*
X016481Y016534D01*
X016535Y016480D01*
X016535Y015494D01*
X016481Y015440D01*
X016426Y015308D01*
X016426Y015165D01*
X016481Y015034D01*
X016582Y014933D01*
X016713Y014878D01*
X016856Y014878D01*
X016976Y014928D01*
X016926Y014808D01*
X016926Y014665D01*
X016981Y014534D01*
X017082Y014433D01*
X017213Y014378D01*
X017356Y014378D01*
X017488Y014433D01*
X017589Y014534D01*
X017643Y014665D01*
X017643Y014808D01*
X017589Y014940D01*
X017535Y014994D01*
X017535Y017383D01*
X017747Y017595D01*
X017785Y017687D01*
X017785Y019917D01*
X018387Y019917D01*
X018505Y020034D01*
X018505Y020940D01*
X018387Y021057D01*
X017482Y021057D01*
X017365Y020940D01*
X017365Y020863D01*
X017258Y020970D01*
X017048Y021057D01*
X016821Y021057D01*
X016612Y020970D01*
X016451Y020810D01*
X016435Y020769D01*
X016418Y020810D01*
X016258Y020970D01*
X016048Y021057D01*
X015821Y021057D01*
X015612Y020970D01*
X015451Y020810D01*
X015435Y020769D01*
X015418Y020810D01*
X015258Y020970D01*
X015048Y021057D01*
X014821Y021057D01*
X014612Y020970D01*
X014451Y020810D01*
X014435Y020769D01*
X014418Y020810D01*
X014258Y020970D01*
X014048Y021057D01*
X013821Y021057D01*
X013612Y020970D01*
X013451Y020810D01*
X013435Y020769D01*
X013418Y020810D01*
X013258Y020970D01*
X013048Y021057D01*
X012821Y021057D01*
X012612Y020970D01*
X012451Y020810D01*
X012380Y020637D01*
X012370Y020667D01*
X012337Y020733D01*
X012293Y020793D01*
X012241Y020845D01*
X012181Y020889D01*
X012115Y020922D01*
X012045Y020945D01*
X011972Y020957D01*
X011964Y020957D01*
X011964Y020516D01*
X011906Y020516D01*
X011906Y020957D01*
X011898Y020957D01*
X011825Y020945D01*
X011754Y020922D01*
X011688Y020889D01*
X011628Y020845D01*
X011576Y020793D01*
X011533Y020733D01*
X011499Y020667D01*
X011476Y020597D01*
X011465Y020524D01*
X011465Y020516D01*
X011906Y020516D01*
X011906Y020458D01*
X011465Y020458D01*
X011465Y020450D01*
X011476Y020377D01*
X011499Y020306D01*
X011533Y020240D01*
X011576Y020180D01*
X011628Y020128D01*
X011688Y020085D01*
X011754Y020051D01*
X011825Y020028D01*
X011898Y020017D01*
X011906Y020017D01*
X011906Y020458D01*
X011964Y020458D01*
X011964Y020017D01*
X011972Y020017D01*
X012045Y020028D01*
X012115Y020051D01*
X012181Y020085D01*
X012241Y020128D01*
X012293Y020180D01*
X012337Y020240D01*
X012370Y020306D01*
X012380Y020336D01*
X012451Y020164D01*
X012612Y020003D01*
X012821Y019917D01*
X013001Y019917D01*
X013285Y019633D01*
X013285Y018437D01*
X013323Y018345D01*
X013393Y018275D01*
X013535Y018133D01*
X013535Y010744D01*
X013488Y010791D01*
X013356Y010845D01*
X013213Y010845D01*
X013082Y010791D01*
X012981Y010690D01*
X012926Y010558D01*
X012926Y010482D01*
X012823Y010378D01*
X012785Y010286D01*
X012785Y006187D01*
X012823Y006095D01*
X012893Y006025D01*
X013143Y005775D01*
X013235Y005737D01*
X013681Y005737D01*
X014926Y004492D01*
X014926Y004449D01*
X013676Y005699D01*
X013584Y005737D01*
X012888Y005737D01*
X012785Y005840D01*
X012800Y005825D02*
X013093Y005825D01*
X013015Y005903D02*
X012785Y005903D01*
X012785Y005982D02*
X012936Y005982D01*
X012858Y006060D02*
X012785Y006060D01*
X012785Y006139D02*
X012805Y006139D01*
X012785Y006217D02*
X012785Y006217D01*
X012785Y006296D02*
X012785Y006296D01*
X012785Y006374D02*
X012785Y006374D01*
X012785Y006453D02*
X012785Y006453D01*
X012785Y006531D02*
X012785Y006531D01*
X012785Y006610D02*
X012785Y006610D01*
X012785Y006688D02*
X012785Y006688D01*
X012785Y006767D02*
X012785Y006767D01*
X012785Y006845D02*
X012785Y006845D01*
X012785Y006924D02*
X012785Y006924D01*
X012785Y007002D02*
X012785Y007002D01*
X012785Y007081D02*
X012785Y007081D01*
X012785Y007159D02*
X012785Y007159D01*
X012785Y007238D02*
X012785Y007238D01*
X012785Y007316D02*
X012785Y007316D01*
X012785Y007395D02*
X012785Y007395D01*
X012785Y007473D02*
X012785Y007473D01*
X012785Y007552D02*
X012785Y007552D01*
X012785Y007630D02*
X012785Y007630D01*
X012785Y007709D02*
X012785Y007709D01*
X012785Y007787D02*
X012785Y007787D01*
X012785Y007866D02*
X012785Y007866D01*
X012785Y007944D02*
X012785Y007944D01*
X012785Y008023D02*
X012785Y008023D01*
X012785Y008101D02*
X012785Y008101D01*
X012785Y008180D02*
X012785Y008180D01*
X012785Y008258D02*
X012785Y008258D01*
X012785Y008337D02*
X012785Y008337D01*
X012785Y008415D02*
X012785Y008415D01*
X012785Y008494D02*
X012785Y008494D01*
X012785Y008572D02*
X012785Y008572D01*
X012785Y008651D02*
X012785Y008651D01*
X012785Y008729D02*
X012785Y008729D01*
X012785Y008808D02*
X012785Y008808D01*
X012785Y008886D02*
X012785Y008886D01*
X012785Y008965D02*
X012785Y008965D01*
X012785Y009043D02*
X012785Y009043D01*
X012785Y009122D02*
X012785Y009122D01*
X012785Y009200D02*
X012785Y009200D01*
X012785Y009279D02*
X012785Y009279D01*
X012785Y009357D02*
X012785Y009357D01*
X012785Y009436D02*
X012785Y009436D01*
X012785Y009514D02*
X012785Y009514D01*
X012785Y009593D02*
X012785Y009593D01*
X012785Y009671D02*
X012785Y009671D01*
X012785Y009750D02*
X012785Y009750D01*
X012785Y009828D02*
X012785Y009828D01*
X012785Y009907D02*
X012785Y009907D01*
X012785Y009985D02*
X012785Y009985D01*
X012785Y010064D02*
X012785Y010064D01*
X012785Y010142D02*
X012785Y010142D01*
X012785Y010221D02*
X012785Y010221D01*
X012785Y010299D02*
X012790Y010299D01*
X012785Y010378D02*
X012822Y010378D01*
X012785Y010456D02*
X012901Y010456D01*
X012926Y010535D02*
X012785Y010535D01*
X012785Y010613D02*
X012949Y010613D01*
X012983Y010692D02*
X012785Y010692D01*
X012785Y010770D02*
X013061Y010770D01*
X012785Y010849D02*
X013535Y010849D01*
X013535Y010927D02*
X012785Y010927D01*
X012785Y011006D02*
X013535Y011006D01*
X013535Y011084D02*
X012785Y011084D01*
X012785Y011163D02*
X013535Y011163D01*
X013535Y011241D02*
X012785Y011241D01*
X012785Y011320D02*
X013535Y011320D01*
X013535Y011398D02*
X012785Y011398D01*
X012785Y011477D02*
X013535Y011477D01*
X013535Y011555D02*
X012785Y011555D01*
X012785Y011634D02*
X013535Y011634D01*
X013535Y011712D02*
X012785Y011712D01*
X012841Y011791D02*
X013535Y011791D01*
X013535Y011869D02*
X012874Y011869D01*
X012893Y011948D02*
X013535Y011948D01*
X013535Y012026D02*
X012893Y012026D01*
X012874Y012105D02*
X013535Y012105D01*
X013535Y012183D02*
X012841Y012183D01*
X012785Y012262D02*
X013535Y012262D01*
X013535Y012340D02*
X012785Y012340D01*
X012785Y012419D02*
X013535Y012419D01*
X013535Y012497D02*
X012785Y012497D01*
X012785Y012576D02*
X013535Y012576D01*
X013535Y012654D02*
X012785Y012654D01*
X012785Y012733D02*
X013535Y012733D01*
X013535Y012811D02*
X012785Y012811D01*
X012785Y012890D02*
X013535Y012890D01*
X013535Y012968D02*
X012785Y012968D01*
X012785Y013047D02*
X013535Y013047D01*
X013535Y013125D02*
X012785Y013125D01*
X012785Y013204D02*
X013535Y013204D01*
X013535Y013282D02*
X012785Y013282D01*
X012785Y013361D02*
X013535Y013361D01*
X013535Y013439D02*
X012785Y013439D01*
X012785Y013518D02*
X013535Y013518D01*
X013535Y013596D02*
X012785Y013596D01*
X012785Y013675D02*
X013535Y013675D01*
X013535Y013753D02*
X012785Y013753D01*
X012785Y013832D02*
X013535Y013832D01*
X013535Y013910D02*
X012785Y013910D01*
X012785Y013989D02*
X013535Y013989D01*
X013535Y014067D02*
X012785Y014067D01*
X012785Y014146D02*
X013535Y014146D01*
X013535Y014224D02*
X012785Y014224D01*
X012785Y014303D02*
X013535Y014303D01*
X013535Y014381D02*
X012785Y014381D01*
X012785Y014460D02*
X013535Y014460D01*
X013535Y014538D02*
X012785Y014538D01*
X012785Y014617D02*
X013535Y014617D01*
X013535Y014695D02*
X012785Y014695D01*
X012785Y014774D02*
X013535Y014774D01*
X013535Y014852D02*
X012785Y014852D01*
X012785Y014931D02*
X013535Y014931D01*
X013535Y015009D02*
X012785Y015009D01*
X012785Y015088D02*
X013535Y015088D01*
X013535Y015166D02*
X012785Y015166D01*
X012785Y015245D02*
X013535Y015245D01*
X013535Y015323D02*
X012785Y015323D01*
X012785Y015402D02*
X013535Y015402D01*
X013535Y015480D02*
X012785Y015480D01*
X012785Y015559D02*
X013535Y015559D01*
X013535Y015637D02*
X012785Y015637D01*
X012785Y015716D02*
X013535Y015716D01*
X013535Y015794D02*
X012785Y015794D01*
X012785Y015873D02*
X013535Y015873D01*
X013535Y015951D02*
X012785Y015951D01*
X012785Y016030D02*
X013535Y016030D01*
X013535Y016108D02*
X012785Y016108D01*
X012785Y016187D02*
X013535Y016187D01*
X013535Y016265D02*
X012785Y016265D01*
X012785Y016344D02*
X013535Y016344D01*
X013535Y016422D02*
X012785Y016422D01*
X012785Y016501D02*
X013535Y016501D01*
X013535Y016579D02*
X012785Y016579D01*
X012785Y016658D02*
X013535Y016658D01*
X013535Y016736D02*
X012785Y016736D01*
X012773Y016815D02*
X013535Y016815D01*
X013535Y016893D02*
X012732Y016893D01*
X012653Y016972D02*
X013535Y016972D01*
X013535Y017050D02*
X012575Y017050D01*
X012496Y017129D02*
X013535Y017129D01*
X013535Y017207D02*
X012418Y017207D01*
X012339Y017286D02*
X013535Y017286D01*
X013535Y017364D02*
X012261Y017364D01*
X012191Y017433D02*
X012191Y017433D01*
X012169Y017443D02*
X013535Y017443D01*
X013535Y017521D02*
X011181Y017521D01*
X010888Y017521D02*
X010368Y017521D01*
X010289Y017600D02*
X013535Y017600D01*
X013535Y017678D02*
X010211Y017678D01*
X010132Y017757D02*
X013535Y017757D01*
X013535Y017835D02*
X010054Y017835D01*
X009975Y017914D02*
X013535Y017914D01*
X013535Y017992D02*
X009897Y017992D01*
X009818Y018071D02*
X013535Y018071D01*
X013519Y018149D02*
X009740Y018149D01*
X009647Y018228D02*
X013440Y018228D01*
X013362Y018306D02*
X009569Y018306D01*
X009535Y018385D02*
X013306Y018385D01*
X013285Y018463D02*
X009535Y018463D01*
X009532Y018542D02*
X013285Y018542D01*
X013285Y018620D02*
X009500Y018620D01*
X009426Y018699D02*
X013285Y018699D01*
X013285Y018777D02*
X009348Y018777D01*
X009269Y018856D02*
X013285Y018856D01*
X013285Y018934D02*
X009191Y018934D01*
X009112Y019013D02*
X013285Y019013D01*
X013285Y019091D02*
X009034Y019091D01*
X008955Y019170D02*
X013285Y019170D01*
X013285Y019248D02*
X008877Y019248D01*
X008798Y019327D02*
X013285Y019327D01*
X013285Y019405D02*
X008720Y019405D01*
X008641Y019484D02*
X013285Y019484D01*
X013285Y019562D02*
X008563Y019562D01*
X008484Y019641D02*
X013277Y019641D01*
X013199Y019719D02*
X008406Y019719D01*
X008327Y019798D02*
X008256Y019869D01*
X008176Y019955D02*
X012729Y019955D01*
X012582Y020033D02*
X012060Y020033D01*
X011964Y020033D02*
X011906Y020033D01*
X011906Y020112D02*
X011964Y020112D01*
X011964Y020190D02*
X011906Y020190D01*
X011906Y020269D02*
X011964Y020269D01*
X011964Y020347D02*
X011906Y020347D01*
X011906Y020426D02*
X011964Y020426D01*
X011906Y020504D02*
X010964Y020504D01*
X010964Y020516D02*
X011405Y020516D01*
X011405Y020524D01*
X011393Y020597D01*
X011370Y020667D01*
X011337Y020733D01*
X011293Y020793D01*
X011241Y020845D01*
X011181Y020889D01*
X011115Y020922D01*
X011045Y020945D01*
X010972Y020957D01*
X010964Y020957D01*
X010964Y020516D01*
X010906Y020516D01*
X010906Y020957D01*
X010898Y020957D01*
X010825Y020945D01*
X010754Y020922D01*
X010688Y020889D01*
X010628Y020845D01*
X010576Y020793D01*
X010533Y020733D01*
X010499Y020667D01*
X010476Y020597D01*
X010465Y020524D01*
X010465Y020516D01*
X010906Y020516D01*
X010906Y020458D01*
X010465Y020458D01*
X010465Y020450D01*
X010476Y020377D01*
X010499Y020306D01*
X010533Y020240D01*
X010576Y020180D01*
X010628Y020128D01*
X010688Y020085D01*
X010754Y020051D01*
X010825Y020028D01*
X010898Y020017D01*
X010906Y020017D01*
X010906Y020458D01*
X010964Y020458D01*
X010964Y020516D01*
X010964Y020458D02*
X011405Y020458D01*
X011405Y020450D01*
X011393Y020377D01*
X011370Y020306D01*
X011337Y020240D01*
X011293Y020180D01*
X011241Y020128D01*
X011181Y020085D01*
X011115Y020051D01*
X011045Y020028D01*
X010972Y020017D01*
X010964Y020017D01*
X010964Y020458D01*
X010964Y020426D02*
X010906Y020426D01*
X010906Y020504D02*
X008365Y020504D01*
X008365Y020426D02*
X010468Y020426D01*
X010486Y020347D02*
X008365Y020347D01*
X008343Y020269D02*
X010518Y020269D01*
X010569Y020190D02*
X008310Y020190D01*
X008278Y020112D02*
X010651Y020112D01*
X010809Y020033D02*
X008245Y020033D01*
X008365Y020583D02*
X010474Y020583D01*
X010497Y020661D02*
X008361Y020661D01*
X008328Y020740D02*
X010538Y020740D01*
X010602Y020818D02*
X008296Y020818D01*
X008263Y020897D02*
X010704Y020897D01*
X010906Y020897D02*
X010964Y020897D01*
X010964Y020818D02*
X010906Y020818D01*
X010906Y020740D02*
X010964Y020740D01*
X010964Y020661D02*
X010906Y020661D01*
X010906Y020583D02*
X010964Y020583D01*
X010964Y020347D02*
X010906Y020347D01*
X010906Y020269D02*
X010964Y020269D01*
X010964Y020190D02*
X010906Y020190D01*
X010906Y020112D02*
X010964Y020112D01*
X010964Y020033D02*
X010906Y020033D01*
X011060Y020033D02*
X011809Y020033D01*
X011651Y020112D02*
X011218Y020112D01*
X011300Y020190D02*
X011569Y020190D01*
X011518Y020269D02*
X011351Y020269D01*
X011384Y020347D02*
X011486Y020347D01*
X011468Y020426D02*
X011401Y020426D01*
X011395Y020583D02*
X011474Y020583D01*
X011497Y020661D02*
X011372Y020661D01*
X011332Y020740D02*
X011538Y020740D01*
X011602Y020818D02*
X011268Y020818D01*
X011165Y020897D02*
X011704Y020897D01*
X011906Y020897D02*
X011964Y020897D01*
X011964Y020818D02*
X011906Y020818D01*
X011906Y020740D02*
X011964Y020740D01*
X011964Y020661D02*
X011906Y020661D01*
X011906Y020583D02*
X011964Y020583D01*
X012165Y020897D02*
X012539Y020897D01*
X012460Y020818D02*
X012268Y020818D01*
X012332Y020740D02*
X012423Y020740D01*
X012390Y020661D02*
X012372Y020661D01*
X012625Y020975D02*
X008220Y020975D01*
X008141Y021054D02*
X012814Y021054D01*
X013055Y021054D02*
X013814Y021054D01*
X013625Y020975D02*
X013245Y020975D01*
X013331Y020897D02*
X013539Y020897D01*
X013460Y020818D02*
X013409Y020818D01*
X013935Y020487D02*
X013935Y020387D01*
X014409Y020818D02*
X014460Y020818D01*
X014539Y020897D02*
X014331Y020897D01*
X014245Y020975D02*
X014625Y020975D01*
X014814Y021054D02*
X014055Y021054D01*
X015055Y021054D02*
X015814Y021054D01*
X015625Y020975D02*
X015245Y020975D01*
X015331Y020897D02*
X015539Y020897D01*
X015460Y020818D02*
X015409Y020818D01*
X016055Y021054D02*
X016814Y021054D01*
X016625Y020975D02*
X016245Y020975D01*
X016331Y020897D02*
X016539Y020897D01*
X016460Y020818D02*
X016409Y020818D01*
X017055Y021054D02*
X017479Y021054D01*
X017400Y020975D02*
X017245Y020975D01*
X017331Y020897D02*
X017365Y020897D01*
X018390Y021054D02*
X019414Y021054D01*
X019225Y020975D02*
X018469Y020975D01*
X018505Y020897D02*
X019139Y020897D01*
X019060Y020818D02*
X018505Y020818D01*
X018505Y020740D02*
X019023Y020740D01*
X018990Y020661D02*
X018505Y020661D01*
X018505Y020583D02*
X018965Y020583D01*
X018965Y020504D02*
X018505Y020504D01*
X018505Y020426D02*
X018965Y020426D01*
X018975Y020347D02*
X018505Y020347D01*
X018505Y020269D02*
X019008Y020269D01*
X019040Y020190D02*
X018505Y020190D01*
X018505Y020112D02*
X019103Y020112D01*
X019182Y020033D02*
X018504Y020033D01*
X018426Y019955D02*
X019285Y019955D01*
X019285Y019876D02*
X017785Y019876D01*
X017785Y019798D02*
X019285Y019798D01*
X019285Y019719D02*
X017785Y019719D01*
X017785Y019641D02*
X019285Y019641D01*
X019285Y019562D02*
X017785Y019562D01*
X017785Y019484D02*
X019285Y019484D01*
X019285Y019405D02*
X017785Y019405D01*
X017785Y019327D02*
X019285Y019327D01*
X019285Y019248D02*
X017785Y019248D01*
X017785Y019170D02*
X019285Y019170D01*
X019285Y019091D02*
X017785Y019091D01*
X017785Y019013D02*
X019285Y019013D01*
X019285Y018934D02*
X017785Y018934D01*
X017785Y018856D02*
X019285Y018856D01*
X019285Y018777D02*
X017785Y018777D01*
X017785Y018699D02*
X019285Y018699D01*
X019285Y018620D02*
X017785Y018620D01*
X017785Y018542D02*
X019285Y018542D01*
X019285Y018463D02*
X017785Y018463D01*
X017785Y018385D02*
X019285Y018385D01*
X019285Y018306D02*
X017785Y018306D01*
X017785Y018228D02*
X019285Y018228D01*
X019285Y018149D02*
X017785Y018149D01*
X017785Y018071D02*
X019285Y018071D01*
X019285Y017992D02*
X017785Y017992D01*
X017785Y017914D02*
X019285Y017914D01*
X019285Y017835D02*
X017785Y017835D01*
X017785Y017757D02*
X019285Y017757D01*
X019226Y017678D02*
X017781Y017678D01*
X017749Y017600D02*
X019194Y017600D01*
X019176Y017521D02*
X017673Y017521D01*
X017594Y017443D02*
X019176Y017443D01*
X019197Y017364D02*
X017535Y017364D01*
X017535Y017286D02*
X019230Y017286D01*
X019307Y017207D02*
X017535Y017207D01*
X017535Y017129D02*
X019462Y017129D01*
X019607Y017129D02*
X021212Y017129D01*
X021357Y017129D02*
X021653Y017129D01*
X021685Y017207D02*
X021512Y017207D01*
X021589Y017286D02*
X021685Y017286D01*
X021685Y017364D02*
X021622Y017364D01*
X021643Y017443D02*
X021685Y017443D01*
X021687Y017521D02*
X021643Y017521D01*
X021626Y017600D02*
X021719Y017600D01*
X021785Y017678D02*
X021593Y017678D01*
X021521Y017757D02*
X021785Y017757D01*
X021785Y017835D02*
X021380Y017835D01*
X021190Y017835D02*
X019785Y017835D01*
X019785Y017757D02*
X021048Y017757D01*
X021285Y017487D02*
X019535Y017487D01*
X019762Y017207D02*
X021057Y017207D01*
X020949Y016972D02*
X017535Y016972D01*
X017535Y017050D02*
X021575Y017050D01*
X020838Y016893D02*
X017535Y016893D01*
X017535Y016815D02*
X020299Y016815D01*
X020221Y016736D02*
X017535Y016736D01*
X017535Y016658D02*
X020142Y016658D01*
X020064Y016579D02*
X017535Y016579D01*
X017535Y016501D02*
X020007Y016501D01*
X019985Y016422D02*
X017535Y016422D01*
X017535Y016344D02*
X019985Y016344D01*
X019985Y016265D02*
X017535Y016265D01*
X017535Y016187D02*
X019985Y016187D01*
X019985Y016108D02*
X017535Y016108D01*
X017535Y016030D02*
X020004Y016030D01*
X020057Y015951D02*
X017535Y015951D01*
X017535Y015873D02*
X020135Y015873D01*
X020214Y015794D02*
X017535Y015794D01*
X017535Y015716D02*
X020292Y015716D01*
X021117Y015716D02*
X021952Y015716D01*
X022031Y015637D02*
X017535Y015637D01*
X017535Y015559D02*
X022109Y015559D01*
X022176Y015480D02*
X017535Y015480D01*
X017535Y015402D02*
X022182Y015402D01*
X022214Y015323D02*
X017535Y015323D01*
X017535Y015245D02*
X022270Y015245D01*
X022372Y015166D02*
X017535Y015166D01*
X017535Y015088D02*
X024785Y015088D01*
X024785Y015166D02*
X022698Y015166D01*
X022800Y015245D02*
X024785Y015245D01*
X024785Y015323D02*
X022855Y015323D01*
X022887Y015402D02*
X024785Y015402D01*
X024785Y015480D02*
X022893Y015480D01*
X022893Y015559D02*
X024785Y015559D01*
X024781Y015637D02*
X022860Y015637D01*
X022812Y015716D02*
X024702Y015716D01*
X024624Y015794D02*
X022729Y015794D01*
X022502Y015873D02*
X024561Y015873D01*
X024535Y015951D02*
X022424Y015951D01*
X022681Y016030D02*
X024535Y016030D01*
X024535Y016108D02*
X022760Y016108D01*
X022838Y016187D02*
X024535Y016187D01*
X024535Y016265D02*
X022917Y016265D01*
X022995Y016344D02*
X024535Y016344D01*
X024535Y016422D02*
X023074Y016422D01*
X023108Y016501D02*
X024535Y016501D01*
X024535Y016579D02*
X023115Y016579D01*
X023115Y016658D02*
X024535Y016658D01*
X024535Y016736D02*
X023115Y016736D01*
X023115Y016815D02*
X024535Y016815D01*
X024535Y016893D02*
X023115Y016893D01*
X023115Y016972D02*
X024535Y016972D01*
X024535Y017050D02*
X023115Y017050D01*
X023115Y017129D02*
X024535Y017129D01*
X024535Y017207D02*
X023115Y017207D01*
X023115Y017286D02*
X024535Y017286D01*
X024535Y017364D02*
X023115Y017364D01*
X023115Y017443D02*
X024535Y017443D01*
X024535Y017521D02*
X023088Y017521D01*
X023035Y017600D02*
X024535Y017600D01*
X024535Y017678D02*
X023035Y017678D01*
X023035Y017757D02*
X024535Y017757D01*
X024535Y017835D02*
X023035Y017835D01*
X023035Y017914D02*
X024535Y017914D01*
X024535Y017992D02*
X023035Y017992D01*
X023035Y018071D02*
X024549Y018071D01*
X024594Y018149D02*
X023035Y018149D01*
X023035Y018228D02*
X024672Y018228D01*
X024751Y018306D02*
X023035Y018306D01*
X023035Y018385D02*
X024785Y018385D01*
X024785Y018463D02*
X023035Y018463D01*
X023035Y018542D02*
X024785Y018542D01*
X024785Y018620D02*
X023035Y018620D01*
X023035Y018699D02*
X024785Y018699D01*
X024785Y018777D02*
X023035Y018777D01*
X023035Y018856D02*
X024785Y018856D01*
X024785Y018934D02*
X023035Y018934D01*
X023035Y019013D02*
X024785Y019013D01*
X024785Y019091D02*
X023035Y019091D01*
X023035Y019170D02*
X024785Y019170D01*
X024785Y019248D02*
X023035Y019248D01*
X023035Y019327D02*
X024785Y019327D01*
X024763Y019405D02*
X023035Y019405D01*
X023035Y019484D02*
X024684Y019484D01*
X024606Y019562D02*
X023035Y019562D01*
X023042Y019641D02*
X024554Y019641D01*
X024535Y019719D02*
X023121Y019719D01*
X023199Y019798D02*
X024535Y019798D01*
X024535Y019876D02*
X023278Y019876D01*
X023740Y019955D02*
X024329Y019955D01*
X024182Y020033D02*
X023887Y020033D01*
X023966Y020112D02*
X024103Y020112D01*
X024040Y020190D02*
X024029Y020190D01*
X024009Y020818D02*
X024060Y020818D01*
X024139Y020897D02*
X023931Y020897D01*
X023845Y020975D02*
X024225Y020975D01*
X024414Y021054D02*
X023655Y021054D01*
X023414Y021054D02*
X022655Y021054D01*
X022845Y020975D02*
X023225Y020975D01*
X023139Y020897D02*
X022931Y020897D01*
X023009Y020818D02*
X023060Y020818D01*
X022414Y021054D02*
X021655Y021054D01*
X021845Y020975D02*
X022225Y020975D01*
X022139Y020897D02*
X021931Y020897D01*
X022009Y020818D02*
X022060Y020818D01*
X021414Y021054D02*
X020655Y021054D01*
X020845Y020975D02*
X021225Y020975D01*
X021139Y020897D02*
X020931Y020897D01*
X021009Y020818D02*
X021060Y020818D01*
X020414Y021054D02*
X019655Y021054D01*
X019845Y020975D02*
X020225Y020975D01*
X020139Y020897D02*
X019931Y020897D01*
X020009Y020818D02*
X020060Y020818D01*
X020029Y020190D02*
X020040Y020190D01*
X020103Y020112D02*
X019966Y020112D01*
X019887Y020033D02*
X020182Y020033D01*
X020329Y019955D02*
X019785Y019955D01*
X019785Y019876D02*
X020922Y019876D01*
X021000Y019798D02*
X019785Y019798D01*
X019785Y019719D02*
X021079Y019719D01*
X021157Y019641D02*
X019785Y019641D01*
X019785Y019562D02*
X021236Y019562D01*
X021684Y019484D02*
X019785Y019484D01*
X019785Y019405D02*
X021763Y019405D01*
X021785Y019327D02*
X019785Y019327D01*
X019785Y019248D02*
X021785Y019248D01*
X021785Y019170D02*
X019785Y019170D01*
X019785Y019091D02*
X021785Y019091D01*
X021785Y019013D02*
X019785Y019013D01*
X019785Y018934D02*
X021785Y018934D01*
X021785Y018856D02*
X019785Y018856D01*
X019785Y018777D02*
X021785Y018777D01*
X021785Y018699D02*
X019785Y018699D01*
X019785Y018620D02*
X021785Y018620D01*
X021785Y018542D02*
X019785Y018542D01*
X019785Y018463D02*
X021785Y018463D01*
X021785Y018385D02*
X019785Y018385D01*
X019785Y018306D02*
X021785Y018306D01*
X021785Y018228D02*
X019785Y018228D01*
X019785Y018149D02*
X021785Y018149D01*
X021785Y018071D02*
X019785Y018071D01*
X019785Y017992D02*
X021785Y017992D01*
X021785Y017914D02*
X019785Y017914D01*
X022515Y017117D02*
X022535Y017137D01*
X025035Y017129D02*
X026335Y017129D01*
X026335Y017207D02*
X025035Y017207D01*
X025035Y017286D02*
X026335Y017286D01*
X026335Y017364D02*
X025035Y017364D01*
X025035Y017443D02*
X025072Y017443D01*
X025082Y017433D02*
X025213Y017378D01*
X025356Y017378D01*
X025488Y017433D01*
X025589Y017534D01*
X025643Y017665D01*
X025643Y017742D01*
X025676Y017775D01*
X025676Y017665D01*
X025731Y017534D01*
X025832Y017433D01*
X025963Y017378D01*
X026106Y017378D01*
X026238Y017433D01*
X026335Y017530D01*
X026335Y016487D01*
X026334Y016487D01*
X026292Y016487D01*
X026238Y016541D01*
X026106Y016595D01*
X025963Y016595D01*
X025832Y016541D01*
X025731Y016440D01*
X025676Y016308D01*
X025676Y016165D01*
X025731Y016034D01*
X025832Y015933D01*
X025963Y015878D01*
X026106Y015878D01*
X026236Y015932D01*
X026285Y015883D01*
X026285Y015744D01*
X026238Y015791D01*
X026106Y015845D01*
X025963Y015845D01*
X025832Y015791D01*
X025731Y015690D01*
X025676Y015558D01*
X025676Y015415D01*
X025731Y015284D01*
X025832Y015183D01*
X025963Y015128D01*
X026035Y015128D01*
X026035Y014187D01*
X026073Y014095D01*
X026335Y013833D01*
X026335Y013812D01*
X026288Y013789D01*
X026228Y013745D01*
X026176Y013693D01*
X026133Y013633D01*
X026099Y013567D01*
X026076Y013497D01*
X026065Y013425D01*
X026335Y013425D01*
X026335Y013348D01*
X026065Y013348D01*
X026076Y013277D01*
X026099Y013206D01*
X026133Y013140D01*
X026176Y013080D01*
X026228Y013028D01*
X026288Y012985D01*
X026335Y012961D01*
X026335Y012921D01*
X026212Y012870D01*
X026051Y012710D01*
X025965Y012500D01*
X025965Y012273D01*
X026051Y012064D01*
X026212Y011903D01*
X026252Y011887D01*
X026212Y011870D01*
X026051Y011710D01*
X025965Y011500D01*
X025965Y011273D01*
X026051Y011064D01*
X026212Y010903D01*
X026335Y010853D01*
X026335Y002540D01*
X025997Y002878D01*
X025926Y002949D01*
X025834Y002987D01*
X023888Y002987D01*
X023785Y003090D01*
X023785Y005536D01*
X023747Y005628D01*
X023285Y006090D01*
X023285Y007536D01*
X023275Y007561D01*
X023275Y008134D01*
X023238Y008223D01*
X023171Y008290D01*
X023125Y008336D01*
X023125Y008694D01*
X023088Y008783D01*
X023021Y008850D01*
X023021Y008850D01*
X022808Y009063D01*
X022741Y009130D01*
X022652Y009167D01*
X022475Y009167D01*
X022475Y009987D01*
X022518Y010031D01*
X022555Y010119D01*
X022555Y010127D01*
X023312Y010127D01*
X023401Y010163D01*
X023468Y010231D01*
X023668Y010431D01*
X023705Y010519D01*
X023705Y010914D01*
X023668Y011003D01*
X023601Y011070D01*
X023481Y011190D01*
X023533Y011315D01*
X023533Y011458D01*
X023521Y011487D01*
X024334Y011487D01*
X024426Y011525D01*
X024497Y011595D01*
X024747Y011845D01*
X024785Y011937D01*
X024785Y013133D01*
X025247Y013595D01*
X025285Y013687D01*
X025285Y015786D01*
X025247Y015878D01*
X025176Y015949D01*
X025035Y016090D01*
X025035Y017480D01*
X025082Y017433D01*
X025498Y017443D02*
X025822Y017443D01*
X025743Y017521D02*
X025576Y017521D01*
X025616Y017600D02*
X025703Y017600D01*
X025676Y017678D02*
X025643Y017678D01*
X025658Y017757D02*
X025676Y017757D01*
X026248Y017443D02*
X026335Y017443D01*
X026326Y017521D02*
X026335Y017521D01*
X026335Y017050D02*
X025035Y017050D01*
X025035Y016972D02*
X026335Y016972D01*
X026335Y016893D02*
X025035Y016893D01*
X025035Y016815D02*
X026335Y016815D01*
X026335Y016736D02*
X025035Y016736D01*
X025035Y016658D02*
X026335Y016658D01*
X026335Y016579D02*
X026144Y016579D01*
X026277Y016501D02*
X026335Y016501D01*
X025925Y016579D02*
X025035Y016579D01*
X025035Y016501D02*
X025792Y016501D01*
X025724Y016422D02*
X025035Y016422D01*
X025035Y016344D02*
X025691Y016344D01*
X025676Y016265D02*
X025035Y016265D01*
X025035Y016187D02*
X025676Y016187D01*
X025700Y016108D02*
X025035Y016108D01*
X025095Y016030D02*
X025735Y016030D01*
X025813Y015951D02*
X025174Y015951D01*
X025249Y015873D02*
X026285Y015873D01*
X026285Y015794D02*
X026229Y015794D01*
X025841Y015794D02*
X025281Y015794D01*
X025285Y015716D02*
X025757Y015716D01*
X025709Y015637D02*
X025285Y015637D01*
X025285Y015559D02*
X025677Y015559D01*
X025676Y015480D02*
X025285Y015480D01*
X025285Y015402D02*
X025682Y015402D01*
X025714Y015323D02*
X025285Y015323D01*
X025285Y015245D02*
X025770Y015245D01*
X025872Y015166D02*
X025285Y015166D01*
X025285Y015088D02*
X026035Y015088D01*
X026035Y015009D02*
X025285Y015009D01*
X025285Y014931D02*
X026035Y014931D01*
X026035Y014852D02*
X025285Y014852D01*
X025285Y014774D02*
X026035Y014774D01*
X026035Y014695D02*
X025285Y014695D01*
X025285Y014617D02*
X026035Y014617D01*
X026035Y014538D02*
X025285Y014538D01*
X025285Y014460D02*
X026035Y014460D01*
X026035Y014381D02*
X025285Y014381D01*
X025285Y014303D02*
X026035Y014303D01*
X026035Y014224D02*
X025285Y014224D01*
X025285Y014146D02*
X026052Y014146D01*
X026101Y014067D02*
X025285Y014067D01*
X025285Y013989D02*
X026179Y013989D01*
X026258Y013910D02*
X025285Y013910D01*
X025285Y013832D02*
X026335Y013832D01*
X026240Y013753D02*
X025285Y013753D01*
X025280Y013675D02*
X026163Y013675D01*
X026114Y013596D02*
X025247Y013596D01*
X025169Y013518D02*
X026083Y013518D01*
X026067Y013439D02*
X025091Y013439D01*
X025012Y013361D02*
X026335Y013361D01*
X026075Y013282D02*
X024934Y013282D01*
X024855Y013204D02*
X026100Y013204D01*
X026144Y013125D02*
X024785Y013125D01*
X024785Y013047D02*
X026210Y013047D01*
X026321Y012968D02*
X024785Y012968D01*
X024785Y012890D02*
X026260Y012890D01*
X026153Y012811D02*
X024785Y012811D01*
X024785Y012733D02*
X026075Y012733D01*
X026029Y012654D02*
X024785Y012654D01*
X024785Y012576D02*
X025996Y012576D01*
X025965Y012497D02*
X024785Y012497D01*
X024785Y012419D02*
X025965Y012419D01*
X025965Y012340D02*
X024785Y012340D01*
X024785Y012262D02*
X025969Y012262D01*
X026002Y012183D02*
X024785Y012183D01*
X024785Y012105D02*
X026034Y012105D01*
X026089Y012026D02*
X024785Y012026D01*
X024785Y011948D02*
X026168Y011948D01*
X026211Y011869D02*
X024757Y011869D01*
X024692Y011791D02*
X026133Y011791D01*
X026054Y011712D02*
X024614Y011712D01*
X024535Y011634D02*
X026020Y011634D01*
X025987Y011555D02*
X024457Y011555D01*
X024221Y012026D02*
X022599Y012026D01*
X022520Y012105D02*
X024285Y012105D01*
X024285Y012183D02*
X021075Y012183D01*
X020924Y012262D02*
X024285Y012262D01*
X024285Y012340D02*
X020785Y012340D01*
X020706Y012419D02*
X024285Y012419D01*
X024285Y012497D02*
X016035Y012497D01*
X016035Y012419D02*
X019113Y012419D01*
X019035Y012340D02*
X016035Y012340D01*
X016035Y012262D02*
X018956Y012262D01*
X018878Y012183D02*
X016035Y012183D01*
X016035Y012105D02*
X018799Y012105D01*
X018721Y012026D02*
X016035Y012026D01*
X016035Y011948D02*
X018642Y011948D01*
X018564Y011869D02*
X016035Y011869D01*
X016035Y011791D02*
X018485Y011791D01*
X018541Y011163D02*
X017392Y011163D01*
X017359Y011084D02*
X018510Y011084D01*
X018510Y011006D02*
X017311Y011006D01*
X017224Y010927D02*
X018517Y010927D01*
X018550Y010849D02*
X016035Y010849D01*
X016035Y010927D02*
X016845Y010927D01*
X016759Y011006D02*
X016035Y011006D01*
X016035Y011084D02*
X016710Y011084D01*
X016677Y011163D02*
X016035Y011163D01*
X016035Y011241D02*
X016676Y011241D01*
X016681Y011320D02*
X016035Y011320D01*
X016035Y011398D02*
X016714Y011398D01*
X016768Y011477D02*
X016035Y011477D01*
X016035Y011555D02*
X016867Y011555D01*
X017073Y011628D02*
X017073Y011628D01*
X017078Y011634D02*
X016035Y011634D01*
X016035Y011712D02*
X017176Y011712D01*
X016035Y012576D02*
X024285Y012576D01*
X024285Y012654D02*
X016035Y012654D01*
X016035Y012733D02*
X024285Y012733D01*
X024285Y012811D02*
X016035Y012811D01*
X016035Y012890D02*
X024285Y012890D01*
X024285Y012968D02*
X016035Y012968D01*
X016048Y013047D02*
X024285Y013047D01*
X024285Y013125D02*
X016127Y013125D01*
X016205Y013204D02*
X024285Y013204D01*
X024285Y013282D02*
X016262Y013282D01*
X016285Y013361D02*
X024315Y013361D01*
X024384Y013439D02*
X016285Y013439D01*
X016285Y013518D02*
X024462Y013518D01*
X024541Y013596D02*
X016285Y013596D01*
X016285Y013675D02*
X024619Y013675D01*
X024698Y013753D02*
X016285Y013753D01*
X016285Y013832D02*
X024776Y013832D01*
X024785Y013910D02*
X016285Y013910D01*
X016285Y013989D02*
X024785Y013989D01*
X024785Y014067D02*
X016285Y014067D01*
X016285Y014146D02*
X024785Y014146D01*
X024785Y014224D02*
X016285Y014224D01*
X016285Y014303D02*
X024785Y014303D01*
X024785Y014381D02*
X017363Y014381D01*
X017206Y014381D02*
X016285Y014381D01*
X016285Y014460D02*
X017055Y014460D01*
X016979Y014538D02*
X016285Y014538D01*
X016285Y014617D02*
X016946Y014617D01*
X016926Y014695D02*
X016285Y014695D01*
X016285Y014774D02*
X016926Y014774D01*
X016945Y014852D02*
X016285Y014852D01*
X016285Y014931D02*
X016587Y014931D01*
X016505Y015009D02*
X016285Y015009D01*
X016285Y015088D02*
X016458Y015088D01*
X016426Y015166D02*
X016285Y015166D01*
X016285Y015245D02*
X016426Y015245D01*
X016433Y015323D02*
X016285Y015323D01*
X016285Y015402D02*
X016465Y015402D01*
X016521Y015480D02*
X016285Y015480D01*
X016285Y015559D02*
X016535Y015559D01*
X016535Y015637D02*
X016285Y015637D01*
X016285Y015716D02*
X016535Y015716D01*
X016535Y015794D02*
X016285Y015794D01*
X016285Y015873D02*
X016535Y015873D01*
X016535Y015951D02*
X016285Y015951D01*
X016285Y016030D02*
X016535Y016030D01*
X016535Y016108D02*
X016285Y016108D01*
X016285Y016187D02*
X016535Y016187D01*
X016535Y016265D02*
X016285Y016265D01*
X016285Y016344D02*
X016535Y016344D01*
X016535Y016422D02*
X016285Y016422D01*
X016285Y016501D02*
X016514Y016501D01*
X016462Y016579D02*
X016285Y016579D01*
X016309Y016658D02*
X016429Y016658D01*
X016426Y016736D02*
X016388Y016736D01*
X015535Y016736D02*
X015395Y016736D01*
X015395Y016658D02*
X015535Y016658D01*
X015535Y016579D02*
X015395Y016579D01*
X015395Y016501D02*
X015535Y016501D01*
X015535Y016422D02*
X015395Y016422D01*
X015395Y016344D02*
X015535Y016344D01*
X015535Y016265D02*
X015395Y016265D01*
X015395Y016187D02*
X015535Y016187D01*
X015535Y016108D02*
X015395Y016108D01*
X015395Y016047D02*
X015395Y017453D01*
X015405Y017463D01*
X015405Y017357D01*
X015443Y017265D01*
X015513Y017195D01*
X015535Y017173D01*
X015535Y013590D01*
X015393Y013449D01*
X015323Y013378D01*
X015285Y013286D01*
X015285Y009590D01*
X014905Y009210D01*
X014905Y010146D01*
X014867Y010238D01*
X014785Y010320D01*
X014785Y014883D01*
X014926Y015025D01*
X014997Y015095D01*
X015035Y015187D01*
X015035Y015633D01*
X015286Y015885D01*
X015357Y015955D01*
X015395Y016047D01*
X015388Y016030D02*
X015535Y016030D01*
X015535Y015951D02*
X015353Y015951D01*
X015274Y015873D02*
X015535Y015873D01*
X015535Y015794D02*
X015196Y015794D01*
X015117Y015716D02*
X015535Y015716D01*
X015535Y015637D02*
X015039Y015637D01*
X015035Y015559D02*
X015535Y015559D01*
X015535Y015480D02*
X015035Y015480D01*
X015035Y015402D02*
X015535Y015402D01*
X015535Y015323D02*
X015035Y015323D01*
X015035Y015245D02*
X015535Y015245D01*
X015535Y015166D02*
X015026Y015166D01*
X014989Y015088D02*
X015535Y015088D01*
X015535Y015009D02*
X014911Y015009D01*
X014832Y014931D02*
X015535Y014931D01*
X015535Y014852D02*
X014785Y014852D01*
X014785Y014774D02*
X015535Y014774D01*
X015535Y014695D02*
X014785Y014695D01*
X014785Y014617D02*
X015535Y014617D01*
X015535Y014538D02*
X014785Y014538D01*
X014785Y014460D02*
X015535Y014460D01*
X015535Y014381D02*
X014785Y014381D01*
X014785Y014303D02*
X015535Y014303D01*
X015535Y014224D02*
X014785Y014224D01*
X014785Y014146D02*
X015535Y014146D01*
X015535Y014067D02*
X014785Y014067D01*
X014785Y013989D02*
X015535Y013989D01*
X015535Y013910D02*
X014785Y013910D01*
X014785Y013832D02*
X015535Y013832D01*
X015535Y013753D02*
X014785Y013753D01*
X014785Y013675D02*
X015535Y013675D01*
X015535Y013596D02*
X014785Y013596D01*
X014785Y013518D02*
X015462Y013518D01*
X015393Y013449D02*
X015393Y013449D01*
X015384Y013439D02*
X014785Y013439D01*
X014785Y013361D02*
X015315Y013361D01*
X015285Y013282D02*
X014785Y013282D01*
X014785Y013204D02*
X015285Y013204D01*
X015285Y013125D02*
X014785Y013125D01*
X014785Y013047D02*
X015285Y013047D01*
X015285Y012968D02*
X014785Y012968D01*
X014785Y012890D02*
X015285Y012890D01*
X015285Y012811D02*
X014785Y012811D01*
X014785Y012733D02*
X015285Y012733D01*
X015285Y012654D02*
X014785Y012654D01*
X014785Y012576D02*
X015285Y012576D01*
X015285Y012497D02*
X014785Y012497D01*
X014785Y012419D02*
X015285Y012419D01*
X015285Y012340D02*
X014785Y012340D01*
X014785Y012262D02*
X015285Y012262D01*
X015285Y012183D02*
X014785Y012183D01*
X014785Y012105D02*
X015285Y012105D01*
X015285Y012026D02*
X014785Y012026D01*
X014785Y011948D02*
X015285Y011948D01*
X015285Y011869D02*
X014785Y011869D01*
X014785Y011791D02*
X015285Y011791D01*
X015285Y011712D02*
X014785Y011712D01*
X014785Y011634D02*
X015285Y011634D01*
X015285Y011555D02*
X014785Y011555D01*
X014785Y011477D02*
X015285Y011477D01*
X015285Y011398D02*
X014785Y011398D01*
X014785Y011320D02*
X015285Y011320D01*
X015285Y011241D02*
X014785Y011241D01*
X014785Y011163D02*
X015285Y011163D01*
X015285Y011084D02*
X014785Y011084D01*
X014785Y011006D02*
X015285Y011006D01*
X015285Y010927D02*
X014785Y010927D01*
X014785Y010849D02*
X015285Y010849D01*
X015285Y010770D02*
X014785Y010770D01*
X014785Y010692D02*
X015285Y010692D01*
X015285Y010613D02*
X014785Y010613D01*
X014785Y010535D02*
X015285Y010535D01*
X015285Y010456D02*
X014785Y010456D01*
X014785Y010378D02*
X015285Y010378D01*
X015285Y010299D02*
X014806Y010299D01*
X014874Y010221D02*
X015285Y010221D01*
X015285Y010142D02*
X014905Y010142D01*
X014905Y010064D02*
X015285Y010064D01*
X015285Y009985D02*
X014905Y009985D01*
X014905Y009907D02*
X015285Y009907D01*
X015285Y009828D02*
X014905Y009828D01*
X014905Y009750D02*
X015285Y009750D01*
X015285Y009671D02*
X014905Y009671D01*
X014905Y009593D02*
X015285Y009593D01*
X015209Y009514D02*
X014905Y009514D01*
X014905Y009436D02*
X015130Y009436D01*
X015052Y009357D02*
X014905Y009357D01*
X014905Y009279D02*
X014973Y009279D01*
X015288Y008886D02*
X015535Y008886D01*
X015535Y008808D02*
X015285Y008808D01*
X015285Y008729D02*
X015535Y008729D01*
X015550Y008651D02*
X015285Y008651D01*
X015303Y008572D02*
X015596Y008572D01*
X015674Y008494D02*
X015381Y008494D01*
X015460Y008415D02*
X015753Y008415D01*
X015785Y008337D02*
X015538Y008337D01*
X015617Y008258D02*
X015785Y008258D01*
X015785Y008180D02*
X015695Y008180D01*
X015758Y008101D02*
X015785Y008101D01*
X015785Y008023D02*
X015785Y008023D01*
X015785Y007944D02*
X015785Y007944D01*
X015785Y007866D02*
X015785Y007866D01*
X015785Y007787D02*
X015785Y007787D01*
X015785Y007709D02*
X015785Y007709D01*
X015785Y007630D02*
X015761Y007630D01*
X015785Y007552D02*
X015703Y007552D01*
X015643Y007473D02*
X015785Y007473D01*
X015802Y007395D02*
X015635Y007395D01*
X015602Y007316D02*
X015852Y007316D01*
X015926Y007238D02*
X015543Y007238D01*
X015431Y007159D02*
X015929Y007159D01*
X015961Y007081D02*
X013285Y007081D01*
X013285Y007159D02*
X015139Y007159D01*
X015027Y007238D02*
X013285Y007238D01*
X013285Y007316D02*
X014967Y007316D01*
X014935Y007395D02*
X013285Y007395D01*
X013285Y007473D02*
X014926Y007473D01*
X014926Y007552D02*
X013285Y007552D01*
X013285Y007630D02*
X014956Y007630D01*
X014806Y007709D02*
X013285Y007709D01*
X013285Y007787D02*
X014729Y007787D01*
X014697Y007866D02*
X013285Y007866D01*
X013285Y007944D02*
X014676Y007944D01*
X014645Y008023D02*
X013285Y008023D01*
X013285Y008101D02*
X014570Y008101D01*
X014538Y008180D02*
X013285Y008180D01*
X013285Y008258D02*
X014535Y008258D01*
X014535Y008337D02*
X013285Y008337D01*
X013285Y008415D02*
X014503Y008415D01*
X014513Y008405D02*
X014513Y008405D01*
X014435Y008494D02*
X013285Y008494D01*
X013285Y008572D02*
X014405Y008572D01*
X014405Y008651D02*
X013285Y008651D01*
X013285Y008729D02*
X014405Y008729D01*
X014405Y008808D02*
X013285Y008808D01*
X013285Y008886D02*
X014194Y008886D01*
X014050Y008965D02*
X013285Y008965D01*
X013285Y009043D02*
X013977Y009043D01*
X013944Y009122D02*
X013285Y009122D01*
X013285Y009200D02*
X013926Y009200D01*
X013926Y009279D02*
X013285Y009279D01*
X013285Y009357D02*
X013947Y009357D01*
X013829Y009436D02*
X013285Y009436D01*
X013285Y009514D02*
X013750Y009514D01*
X013706Y009593D02*
X013285Y009593D01*
X013285Y009671D02*
X013360Y009671D01*
X012285Y009828D02*
X008735Y009828D01*
X008706Y009828D02*
X005857Y009828D01*
X005889Y009907D02*
X008343Y009907D01*
X008320Y009916D02*
X008459Y009859D01*
X008610Y009859D01*
X008749Y009916D01*
X008855Y010022D01*
X008913Y010161D01*
X008913Y010312D01*
X008855Y010451D01*
X008815Y010491D01*
X008815Y014042D01*
X008772Y014145D01*
X008522Y014395D01*
X008443Y014474D01*
X008340Y014517D01*
X006762Y014517D01*
X006738Y014541D01*
X006606Y014595D01*
X006463Y014595D01*
X006332Y014541D01*
X006308Y014517D01*
X005151Y014517D01*
X005005Y014663D01*
X005005Y015163D01*
X005143Y015025D01*
X005235Y014987D01*
X005253Y014987D01*
X005284Y014956D01*
X005401Y014908D01*
X005528Y014908D01*
X005645Y014956D01*
X005735Y015046D01*
X005784Y015163D01*
X005784Y015290D01*
X005735Y015407D01*
X005645Y015497D01*
X005528Y015546D01*
X005435Y015546D01*
X005435Y015585D01*
X005455Y015606D01*
X005504Y015723D01*
X005504Y015850D01*
X005455Y015967D01*
X005365Y016057D01*
X005248Y016106D01*
X005121Y016106D01*
X005005Y016057D01*
X005005Y016100D01*
X005029Y016124D01*
X005083Y016255D01*
X005083Y016398D01*
X005029Y016530D01*
X004928Y016631D01*
X004796Y016685D01*
X004653Y016685D01*
X004522Y016631D01*
X004421Y016530D01*
X004366Y016398D01*
X004366Y016255D01*
X004421Y016124D01*
X004445Y016100D01*
X004445Y014491D01*
X004487Y014388D01*
X004566Y014309D01*
X004876Y013999D01*
X004979Y013957D01*
X006308Y013957D01*
X006332Y013933D01*
X006463Y013878D01*
X006606Y013878D01*
X006738Y013933D01*
X006762Y013957D01*
X008169Y013957D01*
X008255Y013871D01*
X008255Y010491D01*
X008214Y010451D01*
X008157Y010312D01*
X008157Y010161D01*
X008214Y010022D01*
X008320Y009916D01*
X008251Y009985D02*
X005893Y009985D01*
X005891Y010064D02*
X008197Y010064D01*
X008165Y010142D02*
X005858Y010142D01*
X005808Y010221D02*
X008157Y010221D01*
X008157Y010299D02*
X005717Y010299D01*
X005353Y010299D02*
X001785Y010299D01*
X001785Y010221D02*
X004420Y010221D01*
X004322Y010142D02*
X001785Y010142D01*
X001785Y010064D02*
X004244Y010064D01*
X004165Y009985D02*
X001785Y009985D01*
X001785Y009907D02*
X004087Y009907D01*
X004041Y009828D02*
X001785Y009828D01*
X001785Y009750D02*
X004025Y009750D01*
X004025Y009671D02*
X001785Y009671D01*
X001785Y009593D02*
X004025Y009593D01*
X004025Y009514D02*
X001785Y009514D01*
X001785Y009436D02*
X004025Y009436D01*
X004025Y009357D02*
X001785Y009357D01*
X001785Y009279D02*
X004025Y009279D01*
X004025Y009200D02*
X001785Y009200D01*
X001785Y009122D02*
X004025Y009122D01*
X004025Y009043D02*
X001785Y009043D01*
X001785Y008965D02*
X004025Y008965D01*
X004001Y008886D02*
X001785Y008886D01*
X001785Y008808D02*
X003969Y008808D01*
X003966Y008729D02*
X001785Y008729D01*
X001785Y008651D02*
X003975Y008651D01*
X004007Y008572D02*
X001785Y008572D01*
X001785Y008494D02*
X004076Y008494D01*
X004493Y008494D02*
X004495Y008494D01*
X004495Y008415D02*
X001785Y008415D01*
X001785Y008337D02*
X004495Y008337D01*
X004495Y008258D02*
X001785Y008258D01*
X001785Y008180D02*
X004495Y008180D01*
X004495Y008101D02*
X001785Y008101D01*
X001785Y008023D02*
X004495Y008023D01*
X004495Y007944D02*
X001785Y007944D01*
X001785Y007866D02*
X004495Y007866D01*
X004495Y007787D02*
X001785Y007787D01*
X001785Y007709D02*
X004495Y007709D01*
X004495Y007630D02*
X001785Y007630D01*
X001785Y007552D02*
X004495Y007552D01*
X004495Y007473D02*
X001785Y007473D01*
X001785Y007395D02*
X004495Y007395D01*
X004495Y007316D02*
X001785Y007316D01*
X001785Y007238D02*
X004495Y007238D01*
X004495Y007159D02*
X001785Y007159D01*
X001785Y007081D02*
X004495Y007081D01*
X004495Y007002D02*
X001785Y007002D01*
X001785Y006924D02*
X004495Y006924D01*
X004495Y006845D02*
X001785Y006845D01*
X001785Y006767D02*
X004495Y006767D01*
X004495Y006688D02*
X001785Y006688D01*
X001785Y006610D02*
X004495Y006610D01*
X004495Y006531D02*
X001785Y006531D01*
X001785Y006453D02*
X004495Y006453D01*
X004495Y006374D02*
X001785Y006374D01*
X001785Y006296D02*
X004495Y006296D01*
X004495Y006217D02*
X001785Y006217D01*
X001785Y006139D02*
X004495Y006139D01*
X004495Y006060D02*
X001785Y006060D01*
X001785Y005982D02*
X004495Y005982D01*
X004495Y005903D02*
X001785Y005903D01*
X001785Y005825D02*
X004495Y005825D01*
X004495Y005746D02*
X001785Y005746D01*
X001785Y005668D02*
X004495Y005668D01*
X004495Y005589D02*
X001785Y005589D01*
X001785Y005511D02*
X004495Y005511D01*
X004495Y005432D02*
X001785Y005432D01*
X001785Y005354D02*
X004495Y005354D01*
X004495Y005275D02*
X001785Y005275D01*
X001785Y005197D02*
X004492Y005197D01*
X004498Y005118D02*
X001785Y005118D01*
X001785Y005040D02*
X004521Y005040D01*
X004557Y004961D02*
X001785Y004961D01*
X001785Y004883D02*
X004616Y004883D01*
X006127Y004490D02*
X001785Y004490D01*
X006533Y002685D02*
X014285Y002685D01*
X014285Y002763D02*
X006723Y002763D01*
X006873Y002842D02*
X014285Y002842D01*
X014248Y002920D02*
X006951Y002920D01*
X007030Y002999D02*
X014169Y002999D01*
X014091Y003077D02*
X007104Y003077D01*
X007137Y003156D02*
X014012Y003156D01*
X013934Y003234D02*
X007169Y003234D01*
X007202Y003313D02*
X013855Y003313D01*
X013777Y003391D02*
X007234Y003391D01*
X007240Y003470D02*
X013698Y003470D01*
X013620Y003548D02*
X007240Y003548D01*
X007240Y003627D02*
X013541Y003627D01*
X013463Y003705D02*
X007240Y003705D01*
X007234Y003784D02*
X013384Y003784D01*
X013306Y003862D02*
X007201Y003862D01*
X007169Y003941D02*
X013227Y003941D01*
X013149Y004019D02*
X007136Y004019D01*
X007104Y004098D02*
X013070Y004098D01*
X012992Y004176D02*
X007028Y004176D01*
X012879Y005746D02*
X013212Y005746D01*
X013707Y005668D02*
X013750Y005668D01*
X013786Y005589D02*
X013829Y005589D01*
X013864Y005511D02*
X013907Y005511D01*
X013943Y005432D02*
X013986Y005432D01*
X014021Y005354D02*
X014064Y005354D01*
X014100Y005275D02*
X014143Y005275D01*
X014178Y005197D02*
X014221Y005197D01*
X014257Y005118D02*
X014300Y005118D01*
X014335Y005040D02*
X014378Y005040D01*
X014414Y004961D02*
X014457Y004961D01*
X014492Y004883D02*
X014535Y004883D01*
X014571Y004804D02*
X014614Y004804D01*
X014649Y004726D02*
X014692Y004726D01*
X014728Y004647D02*
X014771Y004647D01*
X014806Y004569D02*
X014849Y004569D01*
X014885Y004490D02*
X014926Y004490D01*
X015242Y004883D02*
X021940Y004883D01*
X021926Y004961D02*
X015164Y004961D01*
X015085Y005040D02*
X021926Y005040D01*
X021951Y005118D02*
X015007Y005118D01*
X014928Y005197D02*
X021988Y005197D01*
X022045Y005275D02*
X014850Y005275D01*
X014771Y005354D02*
X022045Y005354D01*
X022045Y005432D02*
X014693Y005432D01*
X014614Y005511D02*
X022045Y005511D01*
X022045Y005589D02*
X014536Y005589D01*
X014457Y005668D02*
X022045Y005668D01*
X022045Y005746D02*
X014379Y005746D01*
X014300Y005825D02*
X022045Y005825D01*
X022052Y005903D02*
X014222Y005903D01*
X014143Y005982D02*
X022090Y005982D01*
X022125Y006060D02*
X014065Y006060D01*
X013986Y006139D02*
X022125Y006139D01*
X022125Y006217D02*
X013881Y006217D01*
X013329Y006296D02*
X022125Y006296D01*
X022125Y006374D02*
X013285Y006374D01*
X013285Y006453D02*
X022125Y006453D01*
X022125Y006531D02*
X013285Y006531D01*
X013285Y006610D02*
X022125Y006610D01*
X022125Y006688D02*
X013285Y006688D01*
X013285Y006767D02*
X022125Y006767D01*
X022125Y006845D02*
X013285Y006845D01*
X013285Y006924D02*
X016104Y006924D01*
X016012Y007002D02*
X013285Y007002D01*
X014375Y008886D02*
X014405Y008886D01*
X015366Y008965D02*
X015535Y008965D01*
X015535Y009043D02*
X015445Y009043D01*
X015523Y009122D02*
X015535Y009122D01*
X016035Y009436D02*
X018295Y009436D01*
X018295Y009514D02*
X016035Y009514D01*
X016035Y009593D02*
X018298Y009593D01*
X018331Y009671D02*
X016035Y009671D01*
X016035Y009750D02*
X018408Y009750D01*
X018487Y009828D02*
X016035Y009828D01*
X016035Y009907D02*
X018565Y009907D01*
X018644Y009985D02*
X016035Y009985D01*
X016035Y010064D02*
X018686Y010064D01*
X018696Y010142D02*
X016035Y010142D01*
X016035Y010221D02*
X018729Y010221D01*
X018790Y010299D02*
X016035Y010299D01*
X016035Y010378D02*
X018907Y010378D01*
X019182Y010378D02*
X021885Y010378D01*
X021910Y010456D02*
X016035Y010456D01*
X016035Y010535D02*
X021973Y010535D01*
X022052Y010613D02*
X016035Y010613D01*
X016035Y010692D02*
X018722Y010692D01*
X018609Y010770D02*
X016035Y010770D01*
X016381Y009357D02*
X018295Y009357D01*
X018237Y009279D02*
X016459Y009279D01*
X016285Y008987D02*
X016155Y009077D01*
X016285Y008987D02*
X018285Y008987D01*
X018535Y009237D01*
X018535Y009537D01*
X019045Y010047D01*
X019299Y010299D02*
X021856Y010299D01*
X021825Y010221D02*
X019361Y010221D01*
X019393Y010142D02*
X021825Y010142D01*
X021825Y010064D02*
X019403Y010064D01*
X019403Y009985D02*
X021825Y009985D01*
X021825Y009907D02*
X019375Y009907D01*
X019333Y009828D02*
X021825Y009828D01*
X021825Y009750D02*
X019255Y009750D01*
X019009Y009671D02*
X021825Y009671D01*
X021825Y009593D02*
X018930Y009593D01*
X018852Y009514D02*
X021825Y009514D01*
X021825Y009436D02*
X018775Y009436D01*
X018775Y009357D02*
X021825Y009357D01*
X021825Y009279D02*
X018775Y009279D01*
X018775Y009200D02*
X021825Y009200D01*
X021825Y009122D02*
X018747Y009122D01*
X018681Y009043D02*
X021825Y009043D01*
X021825Y008965D02*
X018602Y008965D01*
X018524Y008886D02*
X021830Y008886D01*
X021864Y008808D02*
X018445Y008808D01*
X016607Y007395D02*
X022125Y007395D01*
X022125Y007473D02*
X016555Y007473D01*
X016461Y007552D02*
X021423Y007552D01*
X021344Y007630D02*
X016285Y007630D01*
X016285Y007709D02*
X021310Y007709D01*
X021286Y007787D02*
X016285Y007787D01*
X016285Y007866D02*
X021286Y007866D01*
X021301Y007944D02*
X016285Y007944D01*
X016285Y008023D02*
X021334Y008023D01*
X021402Y008101D02*
X016285Y008101D01*
X016285Y008180D02*
X021536Y008180D01*
X021731Y008258D02*
X016285Y008258D01*
X016285Y008337D02*
X021831Y008337D01*
X021932Y008415D02*
X016285Y008415D01*
X016285Y008494D02*
X022023Y008494D01*
X022055Y008572D02*
X016270Y008572D01*
X016224Y008651D02*
X022021Y008651D01*
X021943Y008729D02*
X016252Y008729D01*
X016640Y007316D02*
X022125Y007316D01*
X022125Y007238D02*
X016643Y007238D01*
X016641Y007159D02*
X022125Y007159D01*
X022125Y007081D02*
X016608Y007081D01*
X016557Y007002D02*
X022125Y007002D01*
X022125Y006924D02*
X016466Y006924D01*
X015455Y004804D02*
X021972Y004804D01*
X022039Y004726D02*
X015553Y004726D01*
X015606Y004647D02*
X022168Y004647D01*
X022263Y004569D02*
X015639Y004569D01*
X015643Y004490D02*
X022185Y004490D01*
X022106Y004412D02*
X015642Y004412D01*
X015609Y004333D02*
X022028Y004333D01*
X021949Y004255D02*
X015560Y004255D01*
X015075Y003705D02*
X017246Y003705D01*
X017205Y003627D02*
X015154Y003627D01*
X015232Y003548D02*
X017176Y003548D01*
X017176Y003470D02*
X015311Y003470D01*
X015389Y003391D02*
X017186Y003391D01*
X017219Y003313D02*
X015468Y003313D01*
X015546Y003234D02*
X017280Y003234D01*
X017397Y003156D02*
X015625Y003156D01*
X015078Y002685D02*
X014785Y002685D01*
X014785Y002763D02*
X014999Y002763D01*
X014921Y002842D02*
X014785Y002842D01*
X014785Y002920D02*
X014842Y002920D01*
X014785Y002606D02*
X015156Y002606D01*
X015235Y002528D02*
X014785Y002528D01*
X014785Y002449D02*
X015313Y002449D01*
X015232Y001978D02*
X014838Y001978D01*
X014785Y002057D02*
X018956Y002057D01*
X019034Y001978D02*
X016838Y001978D01*
X016928Y001900D02*
X017310Y001900D01*
X017204Y001821D02*
X017006Y001821D01*
X017046Y001743D02*
X017140Y001743D01*
X017098Y001664D02*
X017078Y001664D01*
X017063Y001272D02*
X017117Y001272D01*
X017167Y001193D02*
X017030Y001193D01*
X016969Y001115D02*
X017247Y001115D01*
X017400Y001036D02*
X016890Y001036D01*
X016747Y000958D02*
X019322Y000958D01*
X019179Y001036D02*
X018669Y001036D01*
X018564Y001036D02*
X018506Y001036D01*
X018506Y001017D02*
X018506Y001458D01*
X018065Y001458D01*
X018065Y001450D01*
X018076Y001377D01*
X018099Y001306D01*
X018133Y001240D01*
X018176Y001180D01*
X018228Y001128D01*
X018288Y001085D01*
X018354Y001051D01*
X018425Y001028D01*
X018498Y001017D01*
X018506Y001017D01*
X018506Y001115D02*
X018564Y001115D01*
X018564Y001193D02*
X018506Y001193D01*
X018506Y001272D02*
X018564Y001272D01*
X018564Y001350D02*
X018506Y001350D01*
X018506Y001429D02*
X018564Y001429D01*
X018506Y001507D02*
X017564Y001507D01*
X017564Y001516D02*
X018005Y001516D01*
X018005Y001524D01*
X017993Y001597D01*
X017970Y001667D01*
X017937Y001733D01*
X017893Y001793D01*
X017841Y001845D01*
X017781Y001889D01*
X017715Y001922D01*
X017645Y001945D01*
X017572Y001957D01*
X017564Y001957D01*
X017564Y001516D01*
X017564Y001458D02*
X018005Y001458D01*
X018005Y001450D01*
X017993Y001377D01*
X017970Y001306D01*
X017937Y001240D01*
X017893Y001180D01*
X017841Y001128D01*
X017781Y001085D01*
X017715Y001051D01*
X017645Y001028D01*
X017572Y001017D01*
X017564Y001017D01*
X017564Y001458D01*
X017564Y001429D02*
X017506Y001429D01*
X017506Y001350D02*
X017564Y001350D01*
X017564Y001272D02*
X017506Y001272D01*
X017506Y001193D02*
X017564Y001193D01*
X017564Y001115D02*
X017506Y001115D01*
X017506Y001036D02*
X017564Y001036D01*
X017669Y001036D02*
X018400Y001036D01*
X018247Y001115D02*
X017822Y001115D01*
X017902Y001193D02*
X018167Y001193D01*
X018117Y001272D02*
X017953Y001272D01*
X017984Y001350D02*
X018085Y001350D01*
X018068Y001429D02*
X018001Y001429D01*
X017995Y001586D02*
X018074Y001586D01*
X018098Y001664D02*
X017971Y001664D01*
X017930Y001743D02*
X018140Y001743D01*
X018204Y001821D02*
X017865Y001821D01*
X017759Y001900D02*
X018310Y001900D01*
X018506Y001900D02*
X018564Y001900D01*
X018564Y001821D02*
X018506Y001821D01*
X018506Y001743D02*
X018564Y001743D01*
X018564Y001664D02*
X018506Y001664D01*
X018506Y001586D02*
X018564Y001586D01*
X018759Y001900D02*
X019113Y001900D01*
X019063Y001821D02*
X018865Y001821D01*
X018930Y001743D02*
X019024Y001743D01*
X018991Y001664D02*
X018971Y001664D01*
X018953Y001272D02*
X019007Y001272D01*
X019039Y001193D02*
X018902Y001193D01*
X018822Y001115D02*
X019101Y001115D01*
X019747Y000958D02*
X021322Y000958D01*
X021179Y001036D02*
X019890Y001036D01*
X019969Y001115D02*
X021101Y001115D01*
X021039Y001193D02*
X020030Y001193D01*
X020063Y001272D02*
X021007Y001272D01*
X020974Y001350D02*
X020095Y001350D01*
X020105Y001429D02*
X020965Y001429D01*
X020965Y001507D02*
X020105Y001507D01*
X020105Y001586D02*
X020965Y001586D01*
X020991Y001664D02*
X020078Y001664D01*
X020046Y001743D02*
X021024Y001743D01*
X021063Y001821D02*
X020006Y001821D01*
X019928Y001900D02*
X021142Y001900D01*
X021232Y001978D02*
X019895Y001978D01*
X019895Y002057D02*
X022361Y002057D01*
X022283Y002135D02*
X019863Y002135D01*
X019817Y002214D02*
X022204Y002214D01*
X022232Y001978D02*
X021838Y001978D01*
X021928Y001900D02*
X022142Y001900D01*
X022063Y001821D02*
X022006Y001821D01*
X022030Y001193D02*
X022039Y001193D01*
X022101Y001115D02*
X021969Y001115D01*
X021890Y001036D02*
X022179Y001036D01*
X022322Y000958D02*
X021747Y000958D01*
X022747Y000958D02*
X023322Y000958D01*
X023179Y001036D02*
X022890Y001036D01*
X022969Y001115D02*
X023101Y001115D01*
X023039Y001193D02*
X023030Y001193D01*
X023747Y000958D02*
X024322Y000958D01*
X024179Y001036D02*
X023890Y001036D01*
X023969Y001115D02*
X024101Y001115D01*
X024039Y001193D02*
X024030Y001193D01*
X024747Y000958D02*
X025322Y000958D01*
X025179Y001036D02*
X024890Y001036D01*
X024969Y001115D02*
X025101Y001115D01*
X025039Y001193D02*
X025030Y001193D01*
X025858Y001970D02*
X026018Y001810D01*
X026035Y001769D01*
X026051Y001810D01*
X026205Y001963D01*
X025681Y002487D01*
X023735Y002487D01*
X023643Y002525D01*
X023393Y002775D01*
X023323Y002845D01*
X023285Y002937D01*
X023285Y004673D01*
X023228Y004566D01*
X023228Y004566D01*
X023228Y004566D01*
X023173Y004522D01*
X022926Y004275D01*
X022834Y004237D01*
X022638Y004237D01*
X022176Y003775D01*
X022084Y003737D01*
X017792Y003737D01*
X017792Y003737D01*
X019084Y003737D01*
X019176Y003699D01*
X019247Y003628D01*
X020138Y002737D01*
X022334Y002737D01*
X022426Y002699D01*
X022497Y002628D01*
X022638Y002487D01*
X025334Y002487D01*
X025426Y002449D01*
X025497Y002378D01*
X025497Y002378D01*
X025747Y002128D01*
X025785Y002036D01*
X025785Y002000D01*
X025858Y001970D01*
X025838Y001978D02*
X026190Y001978D01*
X026142Y001900D02*
X025928Y001900D01*
X026006Y001821D02*
X026063Y001821D01*
X026111Y002057D02*
X025776Y002057D01*
X025740Y002135D02*
X026033Y002135D01*
X025954Y002214D02*
X025661Y002214D01*
X025583Y002292D02*
X025876Y002292D01*
X025797Y002371D02*
X025504Y002371D01*
X025425Y002449D02*
X025719Y002449D01*
X026112Y002763D02*
X026335Y002763D01*
X026335Y002685D02*
X026190Y002685D01*
X026269Y002606D02*
X026335Y002606D01*
X026335Y002842D02*
X026033Y002842D01*
X025955Y002920D02*
X026335Y002920D01*
X026335Y002999D02*
X023876Y002999D01*
X023798Y003077D02*
X026335Y003077D01*
X026335Y003156D02*
X023785Y003156D01*
X023785Y003234D02*
X026335Y003234D01*
X026335Y003313D02*
X023785Y003313D01*
X023785Y003391D02*
X026335Y003391D01*
X026335Y003470D02*
X023785Y003470D01*
X023785Y003548D02*
X026335Y003548D01*
X026335Y003627D02*
X023785Y003627D01*
X023785Y003705D02*
X026335Y003705D01*
X026335Y003784D02*
X023785Y003784D01*
X023785Y003862D02*
X026335Y003862D01*
X026335Y003941D02*
X023785Y003941D01*
X023785Y004019D02*
X026335Y004019D01*
X026335Y004098D02*
X023785Y004098D01*
X023785Y004176D02*
X026335Y004176D01*
X026335Y004255D02*
X023785Y004255D01*
X023785Y004333D02*
X026335Y004333D01*
X026335Y004412D02*
X023785Y004412D01*
X023785Y004490D02*
X026335Y004490D01*
X026335Y004569D02*
X023785Y004569D01*
X023785Y004647D02*
X026335Y004647D01*
X026335Y004726D02*
X023785Y004726D01*
X023785Y004804D02*
X026335Y004804D01*
X026335Y004883D02*
X023785Y004883D01*
X023785Y004961D02*
X026335Y004961D01*
X026335Y005040D02*
X023785Y005040D01*
X023785Y005118D02*
X026335Y005118D01*
X026335Y005197D02*
X023785Y005197D01*
X023785Y005275D02*
X026335Y005275D01*
X026335Y005354D02*
X023785Y005354D01*
X023785Y005432D02*
X026335Y005432D01*
X026335Y005511D02*
X023785Y005511D01*
X023763Y005589D02*
X026335Y005589D01*
X026335Y005668D02*
X023707Y005668D01*
X023629Y005746D02*
X026335Y005746D01*
X026335Y005825D02*
X023550Y005825D01*
X023472Y005903D02*
X026335Y005903D01*
X026335Y005982D02*
X023393Y005982D01*
X023315Y006060D02*
X026335Y006060D01*
X026335Y006139D02*
X023285Y006139D01*
X023285Y006217D02*
X026335Y006217D01*
X026335Y006296D02*
X023285Y006296D01*
X023285Y006374D02*
X026335Y006374D01*
X026335Y006453D02*
X023285Y006453D01*
X023285Y006531D02*
X026335Y006531D01*
X026335Y006610D02*
X023285Y006610D01*
X023285Y006688D02*
X026335Y006688D01*
X026335Y006767D02*
X023285Y006767D01*
X023285Y006845D02*
X026335Y006845D01*
X026335Y006924D02*
X023285Y006924D01*
X023285Y007002D02*
X026335Y007002D01*
X026335Y007081D02*
X023285Y007081D01*
X023285Y007159D02*
X026335Y007159D01*
X026335Y007238D02*
X023285Y007238D01*
X023285Y007316D02*
X026335Y007316D01*
X026335Y007395D02*
X023285Y007395D01*
X023285Y007473D02*
X026335Y007473D01*
X026335Y007552D02*
X023278Y007552D01*
X023275Y007630D02*
X026335Y007630D01*
X026335Y007709D02*
X023275Y007709D01*
X023275Y007787D02*
X026335Y007787D01*
X026335Y007866D02*
X023275Y007866D01*
X023275Y007944D02*
X026335Y007944D01*
X026335Y008023D02*
X023275Y008023D01*
X023275Y008101D02*
X026335Y008101D01*
X026335Y008180D02*
X023256Y008180D01*
X023203Y008258D02*
X026335Y008258D01*
X026335Y008337D02*
X023125Y008337D01*
X023125Y008415D02*
X026335Y008415D01*
X026335Y008494D02*
X023125Y008494D01*
X023125Y008572D02*
X026335Y008572D01*
X026335Y008651D02*
X023125Y008651D01*
X023110Y008729D02*
X026335Y008729D01*
X026335Y008808D02*
X023063Y008808D01*
X022985Y008886D02*
X026335Y008886D01*
X026335Y008965D02*
X022906Y008965D01*
X022828Y009043D02*
X026335Y009043D01*
X026335Y009122D02*
X022749Y009122D01*
X022808Y009063D02*
X022808Y009063D01*
X022605Y008927D02*
X022345Y008927D01*
X022235Y009037D01*
X022235Y010087D01*
X022315Y010167D01*
X022315Y010287D01*
X022395Y010367D01*
X023265Y010367D01*
X023465Y010567D01*
X023465Y010867D01*
X023285Y011047D01*
X022995Y011047D01*
X022935Y010987D01*
X022795Y010987D01*
X022675Y010867D01*
X022655Y010867D01*
X022535Y010987D01*
X022285Y010987D01*
X022035Y011237D01*
X020035Y011237D01*
X019785Y011487D01*
X019523Y011241D02*
X019213Y011241D01*
X019188Y011163D02*
X019630Y011163D01*
X019466Y011320D02*
X019292Y011320D01*
X019370Y011398D02*
X019433Y011398D01*
X019220Y011084D02*
X019848Y011084D01*
X019965Y011006D02*
X019220Y011006D01*
X019212Y010927D02*
X022005Y010927D01*
X022081Y010851D02*
X022081Y010851D01*
X022083Y010849D02*
X019179Y010849D01*
X019120Y010770D02*
X022180Y010770D01*
X022130Y010692D02*
X019008Y010692D01*
X021675Y011577D02*
X021685Y011567D01*
X022315Y010537D02*
X022785Y010537D01*
X022975Y010727D01*
X023145Y010727D01*
X023075Y010727D01*
X023508Y011163D02*
X026010Y011163D01*
X025978Y011241D02*
X023502Y011241D01*
X023533Y011320D02*
X025965Y011320D01*
X025965Y011398D02*
X023533Y011398D01*
X023525Y011477D02*
X025965Y011477D01*
X026043Y011084D02*
X023587Y011084D01*
X023665Y011006D02*
X026110Y011006D01*
X026188Y010927D02*
X023699Y010927D01*
X023705Y010849D02*
X026335Y010849D01*
X026335Y010770D02*
X023705Y010770D01*
X023705Y010692D02*
X026335Y010692D01*
X026335Y010613D02*
X023705Y010613D01*
X023705Y010535D02*
X026335Y010535D01*
X026335Y010456D02*
X023679Y010456D01*
X023615Y010378D02*
X026335Y010378D01*
X026335Y010299D02*
X023537Y010299D01*
X023458Y010221D02*
X026335Y010221D01*
X026335Y010142D02*
X023350Y010142D01*
X022532Y010064D02*
X026335Y010064D01*
X026335Y009985D02*
X022475Y009985D01*
X022475Y009907D02*
X026335Y009907D01*
X026335Y009828D02*
X022475Y009828D01*
X022475Y009750D02*
X026335Y009750D01*
X026335Y009671D02*
X022475Y009671D01*
X022475Y009593D02*
X026335Y009593D01*
X026335Y009514D02*
X022475Y009514D01*
X022475Y009436D02*
X026335Y009436D01*
X026335Y009357D02*
X022475Y009357D01*
X022475Y009279D02*
X026335Y009279D01*
X026335Y009200D02*
X022475Y009200D01*
X022605Y008927D02*
X022885Y008647D01*
X022885Y008237D01*
X023035Y008087D01*
X023035Y007487D01*
X022535Y007737D02*
X022365Y007567D01*
X022365Y005917D01*
X022285Y005837D01*
X022285Y004987D01*
X022293Y004599D02*
X022293Y004599D01*
X022578Y004176D02*
X023285Y004176D01*
X023285Y004098D02*
X022499Y004098D01*
X022421Y004019D02*
X023285Y004019D01*
X023285Y003941D02*
X022342Y003941D01*
X022264Y003862D02*
X023285Y003862D01*
X023285Y003784D02*
X022185Y003784D01*
X022878Y004255D02*
X023285Y004255D01*
X023285Y004333D02*
X022985Y004333D01*
X023063Y004412D02*
X023285Y004412D01*
X023285Y004490D02*
X023142Y004490D01*
X023229Y004569D02*
X023285Y004569D01*
X023285Y004647D02*
X023271Y004647D01*
X023285Y003705D02*
X019160Y003705D01*
X019248Y003627D02*
X023285Y003627D01*
X023285Y003548D02*
X019327Y003548D01*
X019405Y003470D02*
X023285Y003470D01*
X023285Y003391D02*
X019484Y003391D01*
X019562Y003313D02*
X023285Y003313D01*
X023285Y003234D02*
X019641Y003234D01*
X019719Y003156D02*
X023285Y003156D01*
X023285Y003077D02*
X019798Y003077D01*
X019876Y002999D02*
X023285Y002999D01*
X023292Y002920D02*
X019955Y002920D01*
X020033Y002842D02*
X023326Y002842D01*
X023405Y002763D02*
X020112Y002763D01*
X019797Y002371D02*
X019660Y002371D01*
X019719Y002449D02*
X019581Y002449D01*
X019640Y002528D02*
X019503Y002528D01*
X019562Y002606D02*
X019424Y002606D01*
X019483Y002685D02*
X019346Y002685D01*
X019405Y002763D02*
X019267Y002763D01*
X019326Y002842D02*
X019189Y002842D01*
X019248Y002920D02*
X019110Y002920D01*
X019169Y002999D02*
X019032Y002999D01*
X019091Y003077D02*
X018903Y003077D01*
X019012Y003156D02*
X017672Y003156D01*
X017789Y003234D02*
X018934Y003234D01*
X018642Y002371D02*
X014785Y002371D01*
X014785Y002292D02*
X018720Y002292D01*
X018799Y002214D02*
X014785Y002214D01*
X014785Y002135D02*
X018877Y002135D01*
X019738Y002292D02*
X019876Y002292D01*
X017564Y001900D02*
X017506Y001900D01*
X017506Y001821D02*
X017564Y001821D01*
X017564Y001743D02*
X017506Y001743D01*
X017506Y001664D02*
X017564Y001664D01*
X017564Y001586D02*
X017506Y001586D01*
X016322Y000958D02*
X015747Y000958D01*
X015890Y001036D02*
X016179Y001036D01*
X016101Y001115D02*
X015969Y001115D01*
X015322Y000958D02*
X014747Y000958D01*
X014890Y001036D02*
X015179Y001036D01*
X015101Y001115D02*
X014969Y001115D01*
X015030Y001193D02*
X015039Y001193D01*
X015006Y001821D02*
X015063Y001821D01*
X015142Y001900D02*
X014928Y001900D01*
X015838Y001978D02*
X016232Y001978D01*
X016142Y001900D02*
X015928Y001900D01*
X022440Y002685D02*
X023483Y002685D01*
X023562Y002606D02*
X022519Y002606D01*
X022597Y002528D02*
X023640Y002528D01*
X022125Y007552D02*
X021867Y007552D01*
X021945Y007630D02*
X022131Y007630D01*
X022167Y007709D02*
X021980Y007709D01*
X022037Y007787D02*
X022246Y007787D01*
X022295Y007866D02*
X022138Y007866D01*
X022239Y007944D02*
X022295Y007944D01*
X022535Y008057D02*
X022535Y007737D01*
X022535Y008057D02*
X022715Y008237D01*
X022715Y008557D01*
X022535Y008737D01*
X022275Y008737D01*
X022065Y008947D01*
X022065Y010177D01*
X022125Y010237D01*
X022125Y010347D01*
X022315Y010537D01*
X024785Y014460D02*
X017515Y014460D01*
X017590Y014538D02*
X024785Y014538D01*
X024785Y014617D02*
X017623Y014617D01*
X017643Y014695D02*
X024785Y014695D01*
X024785Y014774D02*
X017643Y014774D01*
X017625Y014852D02*
X024785Y014852D01*
X024785Y014931D02*
X017592Y014931D01*
X017535Y015009D02*
X024785Y015009D01*
X020843Y019955D02*
X020740Y019955D01*
X024655Y021054D02*
X025414Y021054D01*
X025225Y020975D02*
X024845Y020975D01*
X024931Y020897D02*
X025139Y020897D01*
X025060Y020818D02*
X025009Y020818D01*
X025655Y021054D02*
X026079Y021054D01*
X026000Y020975D02*
X025845Y020975D01*
X025931Y020897D02*
X025965Y020897D01*
X026306Y021132D02*
X008063Y021132D01*
X007955Y021211D02*
X026264Y021211D01*
X015513Y017195D02*
X015513Y017195D01*
X015501Y017207D02*
X015395Y017207D01*
X015395Y017129D02*
X015535Y017129D01*
X015535Y017050D02*
X015395Y017050D01*
X015395Y016972D02*
X015535Y016972D01*
X015535Y016893D02*
X015395Y016893D01*
X015395Y016815D02*
X015535Y016815D01*
X015434Y017286D02*
X015395Y017286D01*
X015395Y017364D02*
X015405Y017364D01*
X015395Y017443D02*
X015405Y017443D01*
X012285Y016579D02*
X011342Y016579D01*
X011354Y016501D02*
X012285Y016501D01*
X012285Y016422D02*
X011353Y016422D01*
X011321Y016344D02*
X012285Y016344D01*
X012285Y016265D02*
X011264Y016265D01*
X011309Y016658D02*
X012260Y016658D01*
X012182Y016736D02*
X011236Y016736D01*
X011221Y016972D02*
X011946Y016972D01*
X012025Y016893D02*
X009187Y016893D01*
X009204Y016972D02*
X010848Y016972D01*
X010103Y017050D02*
X009204Y017050D01*
X009175Y017129D02*
X010025Y017129D01*
X009946Y017207D02*
X009125Y017207D01*
X009021Y017286D02*
X009868Y017286D01*
X009789Y017364D02*
X008484Y017364D01*
X008484Y017286D02*
X008749Y017286D01*
X008466Y017443D02*
X009711Y017443D01*
X009632Y017521D02*
X008431Y017521D01*
X008395Y017600D02*
X009554Y017600D01*
X009475Y017678D02*
X008395Y017678D01*
X008386Y017757D02*
X009397Y017757D01*
X009318Y017835D02*
X008350Y017835D01*
X008403Y017914D02*
X009254Y017914D01*
X009176Y017992D02*
X008466Y017992D01*
X008499Y018071D02*
X009097Y018071D01*
X009050Y018149D02*
X008504Y018149D01*
X008496Y018228D02*
X009035Y018228D01*
X009035Y018306D02*
X008464Y018306D01*
X008435Y018385D02*
X009033Y018385D01*
X008955Y018463D02*
X008435Y018463D01*
X008435Y018542D02*
X008876Y018542D01*
X008798Y018620D02*
X008435Y018620D01*
X008435Y018699D02*
X008719Y018699D01*
X008641Y018777D02*
X008435Y018777D01*
X008435Y018856D02*
X008562Y018856D01*
X008484Y018934D02*
X008435Y018934D01*
X007455Y018856D02*
X006785Y018856D01*
X006785Y018934D02*
X007439Y018934D01*
X007436Y019013D02*
X006785Y019013D01*
X006785Y019091D02*
X007444Y019091D01*
X007455Y018777D02*
X006785Y018777D01*
X006785Y018699D02*
X007455Y018699D01*
X007455Y018620D02*
X006785Y018620D01*
X006785Y018542D02*
X007455Y018542D01*
X007455Y018463D02*
X006785Y018463D01*
X006785Y018385D02*
X007455Y018385D01*
X007455Y018306D02*
X006785Y018306D01*
X006785Y018228D02*
X007455Y018228D01*
X007455Y018149D02*
X006785Y018149D01*
X006785Y018071D02*
X007457Y018071D01*
X007490Y017992D02*
X006785Y017992D01*
X006785Y017914D02*
X007564Y017914D01*
X007643Y017835D02*
X006784Y017835D01*
X006779Y017757D02*
X007721Y017757D01*
X007800Y017678D02*
X006794Y017678D01*
X006794Y017600D02*
X007878Y017600D01*
X007895Y017521D02*
X007373Y017521D01*
X007500Y017443D02*
X007863Y017443D01*
X007846Y017364D02*
X007559Y017364D01*
X007591Y017286D02*
X007846Y017286D01*
X007176Y017521D02*
X006764Y017521D01*
X006712Y017443D02*
X007049Y017443D01*
X006990Y017364D02*
X006602Y017364D01*
X006347Y017364D02*
X005975Y017364D01*
X005975Y017286D02*
X006958Y017286D01*
X006956Y017207D02*
X005975Y017207D01*
X005975Y017129D02*
X006966Y017129D01*
X006998Y017050D02*
X006696Y017050D01*
X006821Y016972D02*
X007068Y016972D01*
X007165Y016893D02*
X006879Y016893D01*
X006912Y016815D02*
X007243Y016815D01*
X006494Y017050D02*
X005975Y017050D01*
X005975Y016972D02*
X006368Y016972D01*
X006310Y016893D02*
X005975Y016893D01*
X005975Y016815D02*
X006277Y016815D01*
X006276Y016736D02*
X005996Y016736D01*
X006028Y016658D02*
X006286Y016658D01*
X006319Y016579D02*
X006044Y016579D01*
X006044Y016501D02*
X006389Y016501D01*
X006496Y016422D02*
X006014Y016422D01*
X005963Y016344D02*
X006574Y016344D01*
X006573Y016345D02*
X006573Y016345D01*
X006666Y016265D02*
X005855Y016265D01*
X005595Y016265D02*
X005083Y016265D01*
X005083Y016344D02*
X005486Y016344D01*
X005435Y016422D02*
X005073Y016422D01*
X005041Y016501D02*
X005406Y016501D01*
X005406Y016579D02*
X004979Y016579D01*
X004862Y016658D02*
X005421Y016658D01*
X005454Y016736D02*
X001785Y016736D01*
X001785Y016658D02*
X004587Y016658D01*
X004470Y016579D02*
X001785Y016579D01*
X001785Y016501D02*
X002833Y016501D01*
X002843Y016510D02*
X002764Y016432D01*
X002722Y016330D01*
X002722Y016219D01*
X002764Y016116D01*
X002843Y016038D01*
X002945Y015995D01*
X003056Y015995D01*
X003159Y016038D01*
X003237Y016116D01*
X003280Y016219D01*
X003280Y016330D01*
X003237Y016432D01*
X003159Y016510D01*
X003056Y016553D01*
X002945Y016553D01*
X002843Y016510D01*
X002760Y016422D02*
X001785Y016422D01*
X001785Y016344D02*
X002728Y016344D01*
X002722Y016265D02*
X001785Y016265D01*
X001785Y016187D02*
X002735Y016187D01*
X002772Y016108D02*
X001785Y016108D01*
X001785Y016030D02*
X002862Y016030D01*
X003139Y016030D02*
X004445Y016030D01*
X004436Y016108D02*
X003229Y016108D01*
X003266Y016187D02*
X004395Y016187D01*
X004366Y016265D02*
X003280Y016265D01*
X003274Y016344D02*
X004366Y016344D01*
X004376Y016422D02*
X003241Y016422D01*
X003168Y016501D02*
X004409Y016501D01*
X005055Y016187D02*
X008783Y016187D01*
X008740Y016108D02*
X005013Y016108D01*
X005393Y016030D02*
X008716Y016030D01*
X008716Y015951D02*
X005462Y015951D01*
X005494Y015873D02*
X008737Y015873D01*
X008776Y015794D02*
X005504Y015794D01*
X005501Y015716D02*
X008855Y015716D01*
X009214Y015716D02*
X011510Y015716D01*
X011583Y015637D02*
X005468Y015637D01*
X005435Y015559D02*
X012285Y015559D01*
X012285Y015637D02*
X011986Y015637D01*
X012059Y015716D02*
X012285Y015716D01*
X012285Y015794D02*
X012092Y015794D01*
X012104Y015873D02*
X012285Y015873D01*
X012285Y015951D02*
X012103Y015951D01*
X012071Y016030D02*
X012285Y016030D01*
X012285Y016108D02*
X012014Y016108D01*
X011894Y016187D02*
X012285Y016187D01*
X012103Y016815D02*
X009154Y016815D01*
X006237Y017443D02*
X005994Y017443D01*
X006073Y017521D02*
X006185Y017521D01*
X005758Y017914D02*
X001785Y017914D01*
X001785Y017992D02*
X005789Y017992D01*
X005821Y018071D02*
X001785Y018071D01*
X001785Y018149D02*
X005896Y018149D01*
X005680Y017835D02*
X001785Y017835D01*
X001785Y017757D02*
X005601Y017757D01*
X005523Y017678D02*
X001785Y017678D01*
X001785Y017600D02*
X005484Y017600D01*
X005475Y017521D02*
X001785Y017521D01*
X001785Y017443D02*
X005475Y017443D01*
X005475Y017364D02*
X001785Y017364D01*
X001785Y017286D02*
X005475Y017286D01*
X005475Y017207D02*
X001785Y017207D01*
X001785Y017129D02*
X005475Y017129D01*
X005475Y017050D02*
X001785Y017050D01*
X001785Y016972D02*
X005475Y016972D01*
X005475Y016893D02*
X001785Y016893D01*
X001785Y016815D02*
X005475Y016815D01*
X004445Y015951D02*
X001785Y015951D01*
X001785Y015873D02*
X004445Y015873D01*
X004445Y015794D02*
X001785Y015794D01*
X001785Y015716D02*
X004445Y015716D01*
X004445Y015637D02*
X001785Y015637D01*
X001785Y015559D02*
X004445Y015559D01*
X004445Y015480D02*
X001785Y015480D01*
X001785Y015402D02*
X004445Y015402D01*
X004445Y015323D02*
X001785Y015323D01*
X001785Y015245D02*
X004445Y015245D01*
X004445Y015166D02*
X001785Y015166D01*
X001785Y015088D02*
X004445Y015088D01*
X004445Y015009D02*
X001785Y015009D01*
X001785Y014931D02*
X002838Y014931D01*
X002843Y014936D02*
X002764Y014857D01*
X002722Y014755D01*
X002722Y014644D01*
X002764Y014541D01*
X002843Y014463D01*
X002945Y014421D01*
X003056Y014421D01*
X003159Y014463D01*
X003237Y014541D01*
X003280Y014644D01*
X003280Y014755D01*
X003237Y014857D01*
X003159Y014936D01*
X003056Y014978D01*
X002945Y014978D01*
X002843Y014936D01*
X002762Y014852D02*
X001785Y014852D01*
X001785Y014774D02*
X002730Y014774D01*
X002722Y014695D02*
X001785Y014695D01*
X001785Y014617D02*
X002733Y014617D01*
X002768Y014538D02*
X001785Y014538D01*
X001785Y014460D02*
X002851Y014460D01*
X003151Y014460D02*
X004458Y014460D01*
X004445Y014538D02*
X003234Y014538D01*
X003268Y014617D02*
X004445Y014617D01*
X004445Y014695D02*
X003280Y014695D01*
X003272Y014774D02*
X004445Y014774D01*
X004445Y014852D02*
X003239Y014852D01*
X003164Y014931D02*
X004445Y014931D01*
X005005Y014931D02*
X005345Y014931D01*
X005180Y015009D02*
X005005Y015009D01*
X005005Y015088D02*
X005080Y015088D01*
X005005Y014852D02*
X012285Y014852D01*
X012285Y014774D02*
X005005Y014774D01*
X005005Y014695D02*
X012285Y014695D01*
X012285Y014617D02*
X005051Y014617D01*
X005129Y014538D02*
X006329Y014538D01*
X006740Y014538D02*
X012285Y014538D01*
X012285Y014460D02*
X008458Y014460D01*
X008536Y014381D02*
X012285Y014381D01*
X012285Y014303D02*
X008615Y014303D01*
X008693Y014224D02*
X012285Y014224D01*
X012285Y014146D02*
X008772Y014146D01*
X008804Y014067D02*
X012285Y014067D01*
X012285Y013989D02*
X008815Y013989D01*
X008815Y013910D02*
X012285Y013910D01*
X012285Y013832D02*
X008815Y013832D01*
X008815Y013753D02*
X012285Y013753D01*
X012285Y013675D02*
X008815Y013675D01*
X008815Y013596D02*
X012285Y013596D01*
X012285Y013518D02*
X008815Y013518D01*
X008815Y013439D02*
X012285Y013439D01*
X012285Y013361D02*
X008815Y013361D01*
X008815Y013282D02*
X012285Y013282D01*
X012285Y013204D02*
X008815Y013204D01*
X008815Y013125D02*
X012285Y013125D01*
X012285Y013047D02*
X008815Y013047D01*
X008815Y012968D02*
X012285Y012968D01*
X012285Y012890D02*
X008815Y012890D01*
X008815Y012811D02*
X012285Y012811D01*
X012285Y012733D02*
X008815Y012733D01*
X008815Y012654D02*
X012285Y012654D01*
X012285Y012576D02*
X008815Y012576D01*
X008815Y012497D02*
X012285Y012497D01*
X012285Y012419D02*
X008815Y012419D01*
X008815Y012340D02*
X012285Y012340D01*
X012285Y012262D02*
X008815Y012262D01*
X008815Y012183D02*
X012228Y012183D01*
X012196Y012105D02*
X008815Y012105D01*
X008815Y012026D02*
X012176Y012026D01*
X012176Y011948D02*
X008815Y011948D01*
X008815Y011869D02*
X012195Y011869D01*
X012228Y011791D02*
X008815Y011791D01*
X008815Y011712D02*
X012285Y011712D01*
X012285Y011634D02*
X008815Y011634D01*
X008815Y011555D02*
X012285Y011555D01*
X012285Y011477D02*
X008815Y011477D01*
X008815Y011398D02*
X012285Y011398D01*
X012285Y011320D02*
X011787Y011320D01*
X011726Y011345D02*
X011583Y011345D01*
X011452Y011291D01*
X011398Y011237D01*
X009892Y011237D01*
X009838Y011291D01*
X009706Y011345D01*
X009563Y011345D01*
X009432Y011291D01*
X009331Y011190D01*
X009276Y011058D01*
X009276Y010915D01*
X009331Y010784D01*
X009432Y010683D01*
X009563Y010628D01*
X009706Y010628D01*
X009838Y010683D01*
X009892Y010737D01*
X011398Y010737D01*
X011452Y010683D01*
X011583Y010628D01*
X011726Y010628D01*
X011858Y010683D01*
X011959Y010784D01*
X012013Y010915D01*
X012013Y011058D01*
X011959Y011190D01*
X011858Y011291D01*
X011726Y011345D01*
X011522Y011320D02*
X009767Y011320D01*
X009887Y011241D02*
X011402Y011241D01*
X011907Y011241D02*
X012285Y011241D01*
X012285Y011163D02*
X011970Y011163D01*
X012002Y011084D02*
X012285Y011084D01*
X012285Y011006D02*
X012013Y011006D01*
X012013Y010927D02*
X012285Y010927D01*
X012285Y010849D02*
X011985Y010849D01*
X011945Y010770D02*
X012285Y010770D01*
X012285Y010692D02*
X011867Y010692D01*
X011443Y010692D02*
X009847Y010692D01*
X009423Y010692D02*
X008815Y010692D01*
X008815Y010770D02*
X009344Y010770D01*
X009304Y010849D02*
X008815Y010849D01*
X008815Y010927D02*
X009276Y010927D01*
X009276Y011006D02*
X008815Y011006D01*
X008815Y011084D02*
X009287Y011084D01*
X009320Y011163D02*
X008815Y011163D01*
X008815Y011241D02*
X009382Y011241D01*
X009502Y011320D02*
X008815Y011320D01*
X008255Y011320D02*
X001785Y011320D01*
X001785Y011398D02*
X008255Y011398D01*
X008255Y011477D02*
X001785Y011477D01*
X001785Y011555D02*
X008255Y011555D01*
X008255Y011634D02*
X001785Y011634D01*
X001785Y011712D02*
X008255Y011712D01*
X008255Y011791D02*
X001785Y011791D01*
X001785Y011869D02*
X008255Y011869D01*
X008255Y011948D02*
X001785Y011948D01*
X001785Y012026D02*
X008255Y012026D01*
X008255Y012105D02*
X001785Y012105D01*
X001785Y012183D02*
X008255Y012183D01*
X008255Y012262D02*
X001785Y012262D01*
X001785Y012340D02*
X008255Y012340D01*
X008255Y012419D02*
X001785Y012419D01*
X001785Y012497D02*
X008255Y012497D01*
X008255Y012576D02*
X001785Y012576D01*
X001785Y012654D02*
X008255Y012654D01*
X008255Y012733D02*
X001785Y012733D01*
X001785Y012811D02*
X008255Y012811D01*
X008255Y012890D02*
X001785Y012890D01*
X001785Y012968D02*
X008255Y012968D01*
X008255Y013047D02*
X001785Y013047D01*
X001785Y013125D02*
X008255Y013125D01*
X008255Y013204D02*
X001785Y013204D01*
X001785Y013282D02*
X008255Y013282D01*
X008255Y013361D02*
X001785Y013361D01*
X001785Y013439D02*
X008255Y013439D01*
X008255Y013518D02*
X001785Y013518D01*
X001785Y013596D02*
X008255Y013596D01*
X008255Y013675D02*
X001785Y013675D01*
X001785Y013753D02*
X008255Y013753D01*
X008255Y013832D02*
X001785Y013832D01*
X001785Y013910D02*
X006386Y013910D01*
X006683Y013910D02*
X008215Y013910D01*
X005752Y015088D02*
X012285Y015088D01*
X012285Y015166D02*
X005784Y015166D01*
X005784Y015245D02*
X012285Y015245D01*
X012285Y015323D02*
X005770Y015323D01*
X005737Y015402D02*
X012285Y015402D01*
X012285Y015480D02*
X005662Y015480D01*
X005698Y015009D02*
X012285Y015009D01*
X012285Y014931D02*
X005584Y014931D01*
X004730Y014146D02*
X001785Y014146D01*
X001785Y014224D02*
X004651Y014224D01*
X004573Y014303D02*
X001785Y014303D01*
X001785Y014381D02*
X004494Y014381D01*
X004808Y014067D02*
X001785Y014067D01*
X001785Y013989D02*
X004902Y013989D01*
X001785Y011241D02*
X008255Y011241D01*
X008255Y011163D02*
X001785Y011163D01*
X001785Y011084D02*
X008255Y011084D01*
X008255Y011006D02*
X001785Y011006D01*
X001785Y010927D02*
X008255Y010927D01*
X008255Y010849D02*
X001785Y010849D01*
X001785Y010770D02*
X008255Y010770D01*
X008255Y010692D02*
X001785Y010692D01*
X001785Y010613D02*
X008255Y010613D01*
X008255Y010535D02*
X001785Y010535D01*
X001785Y010456D02*
X008219Y010456D01*
X008184Y010378D02*
X001785Y010378D01*
X008726Y009907D02*
X012285Y009907D01*
X012285Y009985D02*
X008818Y009985D01*
X008872Y010064D02*
X012285Y010064D01*
X012285Y010142D02*
X008905Y010142D01*
X008913Y010221D02*
X012285Y010221D01*
X012285Y010299D02*
X008913Y010299D01*
X008885Y010378D02*
X012285Y010378D01*
X012285Y010456D02*
X008850Y010456D01*
X008815Y010535D02*
X012285Y010535D01*
X012285Y010613D02*
X008815Y010613D01*
X013508Y010770D02*
X013535Y010770D01*
X006285Y018228D02*
X001785Y018228D01*
X001785Y018306D02*
X006285Y018306D01*
X006285Y018385D02*
X001785Y018385D01*
X001785Y018463D02*
X006285Y018463D01*
X006285Y018542D02*
X001785Y018542D01*
X001785Y018620D02*
X006285Y018620D01*
X006285Y018699D02*
X001785Y018699D01*
X001785Y018777D02*
X006285Y018777D01*
X006285Y018856D02*
X001785Y018856D01*
X001785Y018934D02*
X006285Y018934D01*
X006285Y019013D02*
X001785Y019013D01*
X001785Y019091D02*
X006285Y019091D01*
X006285Y019170D02*
X001785Y019170D01*
X001785Y019248D02*
X006285Y019248D01*
X006305Y019327D02*
X001785Y019327D01*
X001785Y019405D02*
X006360Y019405D01*
X005924Y019484D02*
X001785Y019484D01*
X001785Y019562D02*
X005846Y019562D01*
X005683Y019641D02*
X001785Y019641D01*
X001785Y019719D02*
X005545Y019719D01*
X005475Y019798D02*
X001785Y019798D01*
X001785Y019876D02*
X005442Y019876D01*
X005426Y019955D02*
X001785Y019955D01*
X001785Y020033D02*
X005426Y020033D01*
X005448Y020112D02*
X001785Y020112D01*
X001785Y020190D02*
X005481Y020190D01*
X005560Y020269D02*
X001785Y020269D01*
X001785Y020347D02*
X006705Y020347D01*
X006705Y020426D02*
X001785Y020426D01*
X001785Y020504D02*
X006705Y020504D01*
X006705Y020583D02*
X001785Y020583D01*
X001785Y020661D02*
X006709Y020661D01*
X006741Y020740D02*
X001785Y020740D01*
X001785Y020818D02*
X006774Y020818D01*
X006806Y020897D02*
X001785Y020897D01*
X001785Y020975D02*
X006850Y020975D01*
X006928Y021054D02*
X001797Y021054D01*
X001833Y021132D02*
X007007Y021132D01*
X007114Y021211D02*
X001935Y021211D01*
X006009Y020269D02*
X006727Y020269D01*
X006759Y020190D02*
X006088Y020190D01*
X006121Y020112D02*
X006792Y020112D01*
X006824Y020033D02*
X006143Y020033D01*
X006160Y019955D02*
X006893Y019955D01*
X012218Y020112D02*
X012503Y020112D01*
X012440Y020190D02*
X012300Y020190D01*
X012351Y020269D02*
X012408Y020269D01*
D17*
X011035Y017237D03*
X011035Y016487D03*
X011785Y015887D03*
X009035Y015987D03*
X008885Y016997D03*
X008165Y017337D03*
X008185Y018147D03*
X007755Y019007D03*
X006475Y017657D03*
X006095Y017897D03*
X006595Y016747D03*
X006205Y016517D03*
X005725Y016557D03*
X005595Y015807D03*
X005185Y015787D03*
X005465Y015227D03*
X007275Y017217D03*
X004285Y008737D03*
D18*
X007185Y015137D03*
X007885Y015137D03*
X007885Y015837D03*
X007185Y015837D03*
D19*
X006785Y016487D02*
X006595Y016677D01*
X006595Y016747D01*
X006785Y016487D02*
X011035Y016487D01*
X010785Y017237D02*
X011993Y017237D01*
X012064Y017207D02*
X012535Y016737D01*
X012535Y011987D01*
X012535Y005778D01*
X012523Y005707D02*
X012505Y005707D01*
X012285Y005487D01*
X010785Y005487D01*
X010535Y005237D01*
X010535Y004737D01*
X010785Y004487D01*
X013035Y004487D01*
X014535Y002987D01*
X014535Y001487D01*
X017535Y003487D02*
X019035Y003487D01*
X020035Y002487D01*
X022285Y002487D01*
X022535Y002237D01*
X025285Y002237D01*
X025535Y001987D01*
X025535Y001487D01*
X026535Y001487D02*
X026535Y001987D01*
X025785Y002737D01*
X023785Y002737D01*
X023535Y002987D01*
X023535Y005487D01*
X023035Y005987D01*
X023035Y007487D01*
X022365Y008397D02*
X022375Y008407D01*
X023065Y004987D02*
X023065Y004818D01*
X023005Y004707D02*
X022785Y004487D01*
X022576Y004487D01*
X022505Y004457D02*
X022035Y003987D01*
X015076Y003987D01*
X015005Y004016D02*
X013535Y005487D01*
X012785Y005487D01*
X012593Y005678D01*
X012594Y005678D02*
X012579Y005690D01*
X012561Y005699D01*
X012543Y005705D01*
X012523Y005707D01*
X012506Y005707D02*
X012518Y005722D01*
X012527Y005740D01*
X012533Y005758D01*
X012535Y005778D01*
X013035Y006237D02*
X013035Y010237D01*
X013285Y010487D01*
X013535Y009987D02*
X013785Y010237D01*
X013785Y018237D01*
X013535Y018487D01*
X013535Y019737D01*
X012935Y020337D01*
X012935Y020487D01*
X013935Y020487D02*
X013935Y018587D01*
X014035Y018487D01*
X014035Y009737D01*
X014415Y009987D02*
X014285Y010117D01*
X014285Y018487D01*
X014415Y018617D01*
X014415Y019617D01*
X014935Y020137D01*
X014935Y020487D01*
X015035Y019737D02*
X015285Y019737D01*
X015935Y020387D01*
X015935Y020487D01*
X016035Y019737D02*
X015785Y019737D01*
X015285Y019237D01*
X015285Y017697D01*
X015145Y017557D01*
X015145Y016097D01*
X014785Y015737D01*
X014785Y015237D01*
X014535Y014987D01*
X014535Y010217D01*
X014655Y010097D01*
X014655Y008617D01*
X014785Y008487D01*
X014785Y008237D01*
X015035Y007987D01*
X015535Y007987D02*
X015535Y007737D01*
X015285Y007487D01*
X015535Y007987D02*
X015035Y008487D01*
X015035Y008987D01*
X015535Y009487D01*
X015535Y013237D01*
X015785Y013487D01*
X015785Y017277D01*
X015655Y017407D01*
X015655Y018107D01*
X015785Y018237D01*
X016035Y018237D01*
X016535Y017737D02*
X016785Y017987D01*
X016535Y017737D02*
X016535Y017237D01*
X016035Y016737D01*
X016035Y013387D01*
X015785Y013137D01*
X015785Y008737D01*
X016035Y008487D01*
X016035Y007487D01*
X016285Y007237D01*
X013785Y005987D02*
X013285Y005987D01*
X013035Y006237D01*
X013785Y005987D02*
X015285Y004487D01*
X015076Y003987D02*
X015056Y003989D01*
X015038Y003995D01*
X015020Y004004D01*
X015005Y004016D01*
X014285Y009237D02*
X014415Y009367D01*
X014415Y009987D01*
X017035Y011237D02*
X017285Y011487D01*
X018535Y011487D01*
X019285Y012237D01*
X020535Y012237D01*
X020835Y011937D01*
X020845Y011907D01*
X022365Y011907D01*
X022535Y011737D01*
X024285Y011737D01*
X024535Y011987D01*
X024535Y013237D01*
X025035Y013737D01*
X025035Y015737D01*
X024785Y015987D01*
X024785Y017987D01*
X025035Y018237D01*
X025035Y019487D01*
X024785Y019737D01*
X024785Y020237D01*
X024535Y020487D01*
X025535Y020487D02*
X025785Y020237D01*
X025785Y019737D01*
X026285Y019237D01*
X026285Y018737D01*
X026035Y018487D01*
X025285Y017737D01*
X026035Y017737D02*
X026535Y018237D01*
X026535Y020487D01*
X023535Y020487D02*
X022785Y019737D01*
X022785Y017487D01*
X022865Y017407D01*
X022865Y016567D01*
X022535Y016237D01*
X020635Y016237D01*
X020465Y015897D02*
X020235Y016127D01*
X020235Y016397D01*
X020445Y016607D01*
X020905Y016607D01*
X021035Y016737D01*
X021615Y016737D01*
X021935Y017057D01*
X021935Y017467D01*
X022035Y017567D01*
X022035Y019487D01*
X021785Y019737D01*
X021415Y019737D01*
X020665Y020487D01*
X020535Y020487D01*
X019535Y020487D02*
X019535Y017487D01*
X020465Y015897D02*
X020945Y015897D01*
X021035Y015987D01*
X022035Y015987D01*
X022535Y015487D01*
X022035Y016617D02*
X022035Y016627D01*
X022175Y016767D01*
X022175Y017377D01*
X022285Y017487D01*
X022285Y019737D01*
X021535Y020487D01*
X022535Y020487D02*
X022535Y017137D01*
X026035Y016237D02*
X026285Y016237D01*
X026535Y015987D01*
X026535Y014487D01*
X027535Y013487D01*
X027535Y013387D01*
X027035Y013677D02*
X026725Y013987D01*
X026535Y013987D01*
X026285Y014237D01*
X026285Y015387D01*
X026185Y015487D01*
X026035Y015487D01*
X027035Y013677D02*
X027035Y012737D01*
X027385Y012387D01*
X027535Y012387D01*
X017535Y017737D02*
X017285Y017487D01*
X017285Y014737D01*
X016785Y015237D02*
X016785Y016737D01*
X017535Y017737D02*
X017535Y020087D01*
X017935Y020487D01*
X016935Y020487D02*
X016785Y020487D01*
X016035Y019737D01*
X015035Y019737D02*
X014785Y019487D01*
X014785Y018487D01*
X014535Y018237D01*
X014535Y016487D01*
X014785Y016237D01*
X012064Y017208D02*
X012049Y017220D01*
X012031Y017229D01*
X012013Y017235D01*
X011993Y017237D01*
X011685Y015987D02*
X009035Y015987D01*
X008865Y016977D02*
X007435Y016977D01*
X007275Y017137D01*
X007275Y017217D01*
X008145Y017357D02*
X008145Y017687D01*
X007705Y018127D01*
X007705Y018907D01*
X007755Y019007D01*
X007975Y019397D02*
X006705Y019397D01*
X006535Y019227D01*
X006535Y017887D01*
X006505Y017857D01*
X006505Y017687D01*
X006475Y017657D01*
X006095Y017897D02*
X005725Y017527D01*
X005725Y016557D01*
X005185Y015787D02*
X005185Y015337D01*
X005285Y015237D01*
X005485Y015237D01*
X005495Y015227D01*
X005465Y015227D01*
X008145Y017357D02*
X008165Y017337D01*
X008865Y016977D02*
X008885Y016997D01*
X009535Y017987D02*
X009285Y018237D01*
X009285Y018487D01*
X008115Y019657D01*
X006105Y019657D01*
X005785Y019977D01*
X005785Y019987D01*
X007975Y019397D02*
X008185Y019187D01*
X008185Y018187D01*
X008165Y018167D01*
X008185Y018147D01*
X011685Y015987D02*
X011785Y015887D01*
X011655Y010987D02*
X009635Y010987D01*
X022505Y004458D02*
X022520Y004470D01*
X022538Y004479D01*
X022556Y004485D01*
X022576Y004487D01*
X023005Y004707D02*
X023021Y004722D01*
X023034Y004738D01*
X023046Y004757D01*
X023054Y004776D01*
X023061Y004797D01*
X023064Y004818D01*
D20*
X019535Y001987D02*
X019535Y001487D01*
X019535Y001987D02*
X018785Y002737D01*
X015535Y002737D01*
X013285Y004987D01*
X011035Y004987D01*
X009285Y004987D02*
X009285Y008737D01*
X015535Y001487D02*
X016535Y001487D01*
D21*
X021645Y007837D02*
X022365Y008397D01*
X021675Y011577D02*
X021605Y011587D01*
X008535Y010237D02*
X008535Y013987D01*
X008285Y014237D01*
X006535Y014237D01*
X005035Y014237D01*
X004725Y014547D01*
X004725Y016327D01*
D22*
X018865Y011017D03*
X021675Y011577D03*
D23*
X021685Y011567D02*
X022155Y011567D01*
X022335Y011387D01*
X023175Y011387D01*
X021605Y011587D02*
X021085Y011587D01*
X021015Y011517D01*
X020445Y011517D01*
X020045Y011917D01*
X019465Y011917D01*
X018865Y011317D01*
X018865Y011017D01*
D24*
X007785Y008737D03*
X007035Y008737D03*
X006285Y008737D03*
X005535Y008737D03*
X007785Y007237D03*
X007785Y005737D03*
X007035Y005737D03*
X006285Y005737D03*
X005535Y005737D03*
D25*
X004285Y008737D02*
X004285Y009737D01*
X004535Y009987D01*
X005535Y009987D01*
X010285Y017237D02*
X010785Y017237D01*
X011035Y017237D01*
X010285Y017237D02*
X009535Y017987D01*
D26*
X008535Y010237D03*
X009285Y008737D03*
X009285Y004987D03*
D27*
X011035Y004987D03*
M02*
