%
M48
M72
T01C0.0118
T02C0.0150
T03C0.0157
T04C0.0190
T05C0.0197
T06C0.0236
T07C0.0240
T08C0.0276
T09C0.0315
T10C0.0320
T11C0.0866
T12C0.1024
T13C0.1260
%
T01
X4285Y8737
X5465Y15227
X5185Y15787
X5595Y15807
X5725Y16557
X6205Y16517
X6595Y16747
X7275Y17217
X8165Y17337
X8885Y16997
X9035Y15987
X11035Y16487
X11035Y17237
X11785Y15887
X8185Y18147
X7755Y19007
X6475Y17657
X6095Y17897
T02
X20885Y10137
X20885Y9737
X21285Y9737
X21685Y9737
X21685Y10137
X21285Y10137
X21285Y9337
X21685Y9337
X20885Y9337
X23245Y9707
X23845Y9737
X24095Y10157
X24595Y10157
X24455Y9717
X25025Y9727
X25545Y9737
X25575Y10157
X25095Y10157
X25295Y10657
X25755Y10647
X26225Y10657
X26015Y10147
X26015Y9747
X24815Y10657
X24355Y10777
X23935Y11007
X25285Y11987
X25285Y12987
X25535Y14287
X25535Y14987
X26205Y8787
X26205Y8337
X26205Y7827
X26205Y7317
X26215Y6817
X26205Y6317
X26205Y5837
X24875Y5867
X24435Y5817
X23925Y5817
X23915Y5177
X24435Y5177
X24445Y4547
X24865Y4287
X25215Y3997
X25705Y4037
X26205Y3927
X26195Y4387
X26205Y3417
X26205Y2927
X25675Y3197
X25055Y3217
X24485Y3217
X23925Y3227
X24535Y3857
X23925Y3897
X23915Y4557
X23935Y6577
X24425Y6567
X24895Y6577
X24905Y7327
X24435Y7337
X23935Y7377
X23475Y7917
X23925Y8297
X24345Y8007
X24885Y7877
X24435Y8747
X24005Y8767
T03
X7885Y15137
X7185Y15137
X7185Y15837
X7885Y15837
X3001Y16274
X3001Y14699
T04
X18865Y11017
X21675Y11577
T05
X20845Y11907
X19785Y11487
X20015Y10867
X19045Y10047
X17035Y11237
X14975Y11897
X13285Y10487
X13535Y9987
X14035Y9737
X14285Y9237
X15435Y8587
X16155Y9077
X15035Y7987
X15285Y7487
X16285Y7237
X15435Y6337
X14185Y6337
X14185Y7587
X11685Y7587
X11675Y8727
X11665Y9857
X11655Y10987
X11655Y11977
X12535Y11987
X10185Y13837
X9655Y12367
X9635Y10987
X9665Y10357
X6645Y9997
X5535Y9987
X6275Y11297
X4625Y11257
X4185Y13837
X4345Y15077
X4725Y16327
X4185Y17087
X5305Y17537
X4185Y18587
X2435Y18587
X5785Y19987
X6025Y18987
X11785Y17987
X14785Y16237
X16785Y16737
X16785Y17987
X16035Y18237
X19535Y17487
X20035Y16747
X20635Y16237
X21285Y17487
X22035Y16617
X22515Y17117
X23935Y17437
X25285Y17737
X26035Y17737
X26035Y18487
X26035Y16237
X26035Y15487
X23935Y15487
X22535Y15487
X23935Y14187
X23175Y11387
X22675Y10867
X23145Y10727
X22375Y8407
X21645Y7837
X22285Y4987
X23065Y4987
X20435Y4587
X19785Y3487
X18185Y4587
X17535Y3487
X15285Y4487
X17435Y6337
X11685Y6337
X11045Y1597
X12685Y1587
X9185Y1587
X2185Y7087
X2185Y8587
X6535Y14237
X15265Y14437
X16785Y15237
X17285Y14737
X19015Y15187
X20265Y13937
X17185Y13337
T06
X9285Y8737
X8535Y10237
X9285Y4987
T07
X11035Y4987
T08
X14535Y1487
X15535Y1487
X16535Y1487
X17535Y1487
X18535Y1487
X19535Y1487
X21535Y1487
X22535Y1487
X23535Y1487
X24535Y1487
X25535Y1487
X26535Y1487
X26535Y20487
X25535Y20487
X24535Y20487
X23535Y20487
X22535Y20487
X21535Y20487
X20535Y20487
X19535Y20487
X17935Y20487
X16935Y20487
X15935Y20487
X14935Y20487
X13935Y20487
X12935Y20487
X11935Y20487
X10935Y20487
T09
X26535Y13387
X27535Y13387
X27535Y12387
X26535Y12387
X26535Y11387
X27535Y11387
T10
X7785Y8737
X7035Y8737
X6285Y8737
X5535Y8737
X7785Y7237
X7785Y5737
X7035Y5737
X6285Y5737
X5535Y5737
T11
X5147Y1736
T12
X3966Y3587
X6328Y3587
T13
X7035Y1487
X27535Y3237
X27535Y14737
X7535Y20487
M30
