G75*
%MOIN*%
%OFA0B0*%
%FSLAX24Y24*%
%IPPOS*%
%LPD*%
%AMOC8*
5,1,8,0,0,1.08239X$1,22.5*
%
%ADD10C,0.1340*%
%ADD11R,0.0441X0.0192*%
%ADD12R,0.0192X0.0441*%
%ADD13R,0.1320X0.1320*%
%ADD14R,0.0277X0.0277*%
%ADD15R,0.0552X0.0513*%
%ADD16R,0.0415X0.0946*%
%ADD17R,0.0474X0.0493*%
%ADD18R,0.0950X0.0320*%
%ADD19C,0.0142*%
%ADD20R,0.0395X0.0434*%
%ADD21R,0.0669X0.0787*%
%ADD22R,0.0669X0.1063*%
%ADD23R,0.0867X0.0237*%
%ADD24C,0.0237*%
%ADD25R,0.0960X0.0560*%
%ADD26R,0.0946X0.1497*%
%ADD27R,0.1025X0.1025*%
%ADD28C,0.1504*%
%ADD29C,0.1346*%
%ADD30R,0.0789X0.0710*%
%ADD31R,0.0328X0.0407*%
%ADD32C,0.0820*%
%ADD33R,0.0820X0.0820*%
%ADD34R,0.0986X0.0710*%
%ADD35R,0.1064X0.0552*%
%ADD36R,0.0413X0.0157*%
%ADD37R,0.0197X0.0197*%
%ADD38R,0.1181X0.1181*%
%ADD39R,0.0157X0.0413*%
%ADD40OC8,0.0560*%
%ADD41C,0.0560*%
%ADD42C,0.0436*%
%ADD43C,0.0440*%
D10*
X007035Y001487D03*
X027535Y003237D03*
X027535Y014737D03*
X007535Y020487D03*
D11*
X020280Y010426D03*
X020280Y010229D03*
X020280Y010032D03*
X020280Y009835D03*
X020280Y009638D03*
X020280Y009441D03*
X020280Y009245D03*
X020280Y009048D03*
X022289Y009048D03*
X022289Y009245D03*
X022289Y009441D03*
X022289Y009638D03*
X022289Y009835D03*
X022289Y010032D03*
X022289Y010229D03*
X022289Y010426D03*
D12*
X021974Y010741D03*
X021777Y010741D03*
X021580Y010741D03*
X021383Y010741D03*
X021186Y010741D03*
X020989Y010741D03*
X020793Y010741D03*
X020596Y010741D03*
X020596Y008732D03*
X020793Y008732D03*
X020989Y008732D03*
X021186Y008732D03*
X021383Y008732D03*
X021580Y008732D03*
X021777Y008732D03*
X021974Y008732D03*
D13*
X021285Y009737D03*
D14*
X023485Y008943D03*
X023485Y008510D03*
X024108Y009247D03*
X024541Y009247D03*
X024935Y008943D03*
X024935Y008510D03*
X025395Y008510D03*
X025395Y008943D03*
X025508Y009237D03*
X025941Y009237D03*
X024151Y011827D03*
X023718Y011827D03*
X019001Y011527D03*
X018568Y011527D03*
X014001Y012737D03*
X013568Y012737D03*
X013568Y013737D03*
X014001Y013737D03*
X014001Y014737D03*
X013568Y014737D03*
X013568Y015737D03*
X014001Y015737D03*
X014001Y016737D03*
X013568Y016737D03*
X007381Y013917D03*
X007381Y013487D03*
X006948Y013487D03*
X006948Y013917D03*
X006001Y014457D03*
X005568Y014457D03*
X005568Y014887D03*
X006001Y014887D03*
X007318Y010487D03*
X007751Y010487D03*
X007751Y009487D03*
X007318Y009487D03*
X018885Y007203D03*
X018885Y006770D03*
X020618Y005887D03*
X021051Y005887D03*
X021185Y006770D03*
X021185Y007203D03*
X022095Y007203D03*
X022635Y007203D03*
X022635Y006770D03*
X022095Y006770D03*
X022468Y003237D03*
X022901Y003237D03*
X021101Y003237D03*
X020668Y003237D03*
D15*
X020497Y006642D03*
X020497Y007331D03*
X019572Y007331D03*
X019572Y006642D03*
D16*
X024853Y005087D03*
X025936Y005087D03*
D17*
X025395Y005687D03*
X025395Y004486D03*
D18*
X017605Y008987D03*
X017605Y009487D03*
X017605Y009987D03*
X017605Y010487D03*
X014955Y010487D03*
X014955Y009987D03*
X014955Y009487D03*
X014955Y008987D03*
D19*
X003796Y008653D02*
X003796Y008321D01*
X003464Y008321D01*
X003464Y008653D01*
X003796Y008653D01*
X003796Y008462D02*
X003464Y008462D01*
X003464Y008603D02*
X003796Y008603D01*
X003105Y008653D02*
X003105Y008321D01*
X002773Y008321D01*
X002773Y008653D01*
X003105Y008653D01*
X003105Y008462D02*
X002773Y008462D01*
X002773Y008603D02*
X003105Y008603D01*
X002773Y010071D02*
X002773Y010403D01*
X003105Y010403D01*
X003105Y010071D01*
X002773Y010071D01*
X002773Y010212D02*
X003105Y010212D01*
X003105Y010353D02*
X002773Y010353D01*
X003464Y010403D02*
X003464Y010071D01*
X003464Y010403D02*
X003796Y010403D01*
X003796Y010071D01*
X003464Y010071D01*
X003464Y010212D02*
X003796Y010212D01*
X003796Y010353D02*
X003464Y010353D01*
D20*
X011411Y015380D03*
X012159Y015380D03*
X011785Y014554D03*
X012159Y016343D03*
X011411Y016343D03*
X011785Y017170D03*
D21*
X002135Y016937D03*
X002135Y014036D03*
D22*
X002135Y015487D03*
D23*
X003298Y015487D03*
X003298Y015743D03*
X003298Y015998D03*
X003298Y015231D03*
X003298Y014975D03*
D24*
X003001Y014699D03*
X003001Y016274D03*
D25*
X009255Y008147D03*
X009255Y007237D03*
X009255Y006327D03*
D26*
X006815Y007237D03*
D27*
X008285Y004353D03*
X008285Y002621D03*
D28*
X003966Y003587D03*
X006328Y003587D03*
D29*
X005147Y001736D03*
D30*
X010285Y002935D03*
X010285Y004038D03*
D31*
X009737Y009487D03*
X008832Y009487D03*
D32*
X014535Y001487D03*
X015535Y001487D03*
X016535Y001487D03*
X017535Y001487D03*
X018535Y001487D03*
X019535Y001487D03*
X021535Y001487D03*
X022535Y001487D03*
X023535Y001487D03*
X024535Y001487D03*
X025535Y001487D03*
X026535Y001487D03*
X026535Y011387D03*
X027535Y011387D03*
X027535Y012387D03*
X026535Y012387D03*
X026535Y013387D03*
X027535Y013387D03*
X025535Y020487D03*
X024535Y020487D03*
X023535Y020487D03*
X022535Y020487D03*
X021535Y020487D03*
X020535Y020487D03*
X019535Y020487D03*
X016935Y020487D03*
X015935Y020487D03*
X014935Y020487D03*
X013935Y020487D03*
X012935Y020487D03*
X011935Y020487D03*
X010935Y020487D03*
D33*
X017935Y020487D03*
X026535Y020487D03*
D34*
X004875Y020187D03*
X002394Y020187D03*
D35*
X011785Y004136D03*
X011785Y002837D03*
D36*
X008529Y014896D03*
X008529Y015093D03*
X008529Y015290D03*
X008529Y015487D03*
X008529Y015684D03*
X008529Y015880D03*
X008529Y016077D03*
X006541Y016077D03*
X006541Y015880D03*
X006541Y015684D03*
X006541Y015487D03*
X006541Y015290D03*
X006541Y015093D03*
X006541Y014896D03*
D37*
X006707Y016314D03*
D38*
X007535Y015487D03*
D39*
X007535Y016481D03*
X007731Y016481D03*
X007928Y016481D03*
X008125Y016481D03*
X007338Y016481D03*
X007141Y016481D03*
X006944Y016481D03*
X006944Y014493D03*
X007141Y014493D03*
X007338Y014493D03*
X007535Y014493D03*
X007731Y014493D03*
X007928Y014493D03*
X008125Y014493D03*
D40*
X007785Y008737D03*
X007035Y008737D03*
X006285Y008737D03*
X005535Y008737D03*
X005535Y005737D03*
X006285Y005737D03*
X007035Y005737D03*
X007785Y005737D03*
D41*
X007785Y007237D03*
D42*
X009285Y008737D03*
X008535Y010237D03*
X009285Y004987D03*
D43*
X011035Y004987D03*
M02*
