G75*
%MOIN*%
%OFA0B0*%
%FSLAX24Y24*%
%IPPOS*%
%LPD*%
%AMOC8*
5,1,8,0,0,1.08239X$1,22.5*
%
%ADD10R,0.0361X0.0112*%
%ADD11R,0.0112X0.0361*%
%ADD12R,0.0500X0.0500*%
%ADD13R,0.0197X0.0197*%
%ADD14R,0.0472X0.0433*%
%ADD15R,0.0335X0.0866*%
%ADD16R,0.0394X0.0413*%
%ADD17R,0.0870X0.0240*%
%ADD18C,0.0118*%
%ADD19R,0.0315X0.0354*%
%ADD20R,0.0591X0.0709*%
%ADD21R,0.0276X0.0591*%
%ADD22R,0.0787X0.0157*%
%ADD23R,0.0880X0.0480*%
%ADD24R,0.0866X0.1417*%
%ADD25R,0.0945X0.0945*%
%ADD26R,0.0709X0.0630*%
%ADD27R,0.0248X0.0327*%
%ADD28R,0.0906X0.0630*%
%ADD29R,0.0984X0.0472*%
%ADD30R,0.0220X0.0102*%
%ADD31R,0.0394X0.0394*%
%ADD32R,0.0118X0.0118*%
%ADD33R,0.0102X0.0220*%
D10*
X020280Y009048D03*
X020280Y009245D03*
X020280Y009441D03*
X020280Y009638D03*
X020280Y009835D03*
X020280Y010032D03*
X020280Y010229D03*
X020280Y010426D03*
X022289Y010426D03*
X022289Y010229D03*
X022289Y010032D03*
X022289Y009835D03*
X022289Y009638D03*
X022289Y009441D03*
X022289Y009245D03*
X022289Y009048D03*
D11*
X021974Y008732D03*
X021777Y008732D03*
X021580Y008732D03*
X021383Y008732D03*
X021186Y008732D03*
X020989Y008732D03*
X020793Y008732D03*
X020596Y008732D03*
X020596Y010741D03*
X020793Y010741D03*
X020989Y010741D03*
X021186Y010741D03*
X021383Y010741D03*
X021580Y010741D03*
X021777Y010741D03*
X021974Y010741D03*
D12*
X021585Y010037D03*
X020985Y010037D03*
X020985Y009437D03*
X021585Y009437D03*
D13*
X023485Y008943D03*
X023485Y008510D03*
X024108Y009247D03*
X024541Y009247D03*
X024935Y008943D03*
X024935Y008510D03*
X025395Y008510D03*
X025395Y008943D03*
X025508Y009237D03*
X025941Y009237D03*
X024151Y011827D03*
X023718Y011827D03*
X019001Y011527D03*
X018568Y011527D03*
X014001Y012737D03*
X013568Y012737D03*
X013568Y013737D03*
X014001Y013737D03*
X014001Y014737D03*
X013568Y014737D03*
X013568Y015737D03*
X014001Y015737D03*
X014001Y016737D03*
X013568Y016737D03*
X007381Y013917D03*
X007381Y013487D03*
X006948Y013487D03*
X006948Y013917D03*
X006001Y014457D03*
X005568Y014457D03*
X005568Y014887D03*
X006001Y014887D03*
X007318Y010487D03*
X007751Y010487D03*
X007751Y009487D03*
X007318Y009487D03*
X018885Y007203D03*
X018885Y006770D03*
X020618Y005887D03*
X021051Y005887D03*
X021185Y006770D03*
X021185Y007203D03*
X022095Y007203D03*
X022635Y007203D03*
X022635Y006770D03*
X022095Y006770D03*
X022468Y003237D03*
X022901Y003237D03*
X021101Y003237D03*
X020668Y003237D03*
D14*
X020497Y006642D03*
X020497Y007331D03*
X019572Y007331D03*
X019572Y006642D03*
D15*
X024853Y005087D03*
X025936Y005087D03*
D16*
X025395Y005687D03*
X025395Y004486D03*
D17*
X017605Y008987D03*
X017605Y009487D03*
X017605Y009987D03*
X017605Y010487D03*
X014955Y010487D03*
X014955Y009987D03*
X014955Y009487D03*
X014955Y008987D03*
D18*
X003768Y008625D02*
X003768Y008349D01*
X003492Y008349D01*
X003492Y008625D01*
X003768Y008625D01*
X003768Y008466D02*
X003492Y008466D01*
X003492Y008583D02*
X003768Y008583D01*
X003077Y008625D02*
X003077Y008349D01*
X002801Y008349D01*
X002801Y008625D01*
X003077Y008625D01*
X003077Y008466D02*
X002801Y008466D01*
X002801Y008583D02*
X003077Y008583D01*
X002801Y010099D02*
X002801Y010375D01*
X003077Y010375D01*
X003077Y010099D01*
X002801Y010099D01*
X002801Y010216D02*
X003077Y010216D01*
X003077Y010333D02*
X002801Y010333D01*
X003492Y010375D02*
X003492Y010099D01*
X003492Y010375D02*
X003768Y010375D01*
X003768Y010099D01*
X003492Y010099D01*
X003492Y010216D02*
X003768Y010216D01*
X003768Y010333D02*
X003492Y010333D01*
D19*
X011411Y015380D03*
X012159Y015380D03*
X011785Y014554D03*
X012159Y016343D03*
X011411Y016343D03*
X011785Y017170D03*
D20*
X002135Y016937D03*
X002135Y014036D03*
D21*
X002135Y015487D03*
D22*
X003298Y015487D03*
X003298Y015743D03*
X003298Y015998D03*
X003298Y015231D03*
X003298Y014975D03*
D23*
X009255Y008147D03*
X009255Y007237D03*
X009255Y006327D03*
D24*
X006815Y007237D03*
D25*
X008285Y002621D03*
X008285Y004353D03*
D26*
X010285Y004038D03*
X010285Y002935D03*
D27*
X009737Y009487D03*
X008832Y009487D03*
D28*
X004875Y020187D03*
X002394Y020187D03*
D29*
X011785Y004136D03*
X011785Y002837D03*
D30*
X008440Y014896D03*
X008440Y015093D03*
X008440Y015290D03*
X008440Y015487D03*
X008440Y015684D03*
X008440Y015880D03*
X008440Y016077D03*
X006629Y016077D03*
X006629Y015880D03*
X006629Y015684D03*
X006629Y015487D03*
X006629Y015290D03*
X006629Y015093D03*
X006629Y014896D03*
D31*
X007535Y015487D03*
D32*
X006708Y016313D03*
D33*
X006944Y016392D03*
X007141Y016392D03*
X007338Y016392D03*
X007535Y016392D03*
X007731Y016392D03*
X007928Y016392D03*
X008125Y016392D03*
X008125Y014581D03*
X007928Y014581D03*
X007731Y014581D03*
X007535Y014581D03*
X007338Y014581D03*
X007141Y014581D03*
X006944Y014581D03*
M02*
