%
M48
M72
T01C0.0150
T02C0.0157
T03C0.0190
T04C0.0197
T05C0.0236
T06C0.0240
T07C0.0276
T08C0.0315
T09C0.0320
T10C0.0354
T11C0.0866
T12C0.1024
T13C0.1260
%
T01
X23245Y9707
X23845Y9737
X24095Y10157
X24595Y10157
X24455Y9717
X25025Y9727
X25545Y9737
X25575Y10157
X25095Y10157
X25295Y10657
X25755Y10647
X26225Y10657
X26015Y10147
X26015Y9747
X24815Y10657
X24355Y10777
X23935Y11007
X25285Y11987
X25285Y12987
X25535Y14287
X25535Y14987
X26205Y8787
X26205Y8337
X26205Y7827
X26205Y7317
X26215Y6817
X26205Y6317
X26205Y5837
X24875Y5867
X24435Y5817
X23925Y5817
X23915Y5177
X24435Y5177
X24445Y4547
X24865Y4287
X25215Y3997
X25705Y4037
X26205Y3927
X26195Y4387
X26205Y3417
X26205Y2927
X25675Y3197
X25055Y3217
X24485Y3217
X23925Y3227
X24535Y3857
X23925Y3897
X23915Y4557
X23935Y6577
X24425Y6567
X24895Y6577
X24905Y7327
X24435Y7337
X24885Y7877
X24345Y8007
X23725Y8097
X23375Y7817
X24235Y8647
X23805Y8667
T02
X3001Y14699
X3001Y16274
T03
X18865Y11017
X21675Y11577
T04
X20845Y11907
X19785Y11487
X20015Y10867
X20835Y10187
X21735Y10187
X22675Y10867
X23145Y10727
X23175Y11387
X21735Y9287
X20835Y9287
X22375Y8407
X21645Y7837
X19045Y10047
X17035Y11237
X14975Y11897
X13285Y10487
X13535Y9987
X14035Y9737
X14285Y9237
X15435Y8587
X16155Y9077
X15035Y7987
X15285Y7487
X16285Y7237
X15435Y6337
X14185Y6337
X14185Y7587
X11685Y7587
X11675Y8727
X11665Y9857
X11655Y10987
X11655Y11977
X12535Y11987
X10185Y13837
X9655Y12367
X7915Y12987
X6275Y11297
X6645Y9997
X5535Y9987
X4625Y11257
X4535Y12997
X4185Y13837
X4345Y15077
X6485Y15087
X7535Y15487
X6805Y16037
X9035Y15987
X11035Y17237
X11785Y17987
X11785Y15887
X14785Y16237
X16785Y16737
X16785Y17987
X16035Y18237
X19535Y17487
X20035Y16747
X20635Y16237
X21285Y17487
X22035Y16617
X22515Y17117
X23935Y17437
X25285Y17737
X26035Y17737
X26035Y18487
X26035Y16237
X26035Y15487
X23935Y15487
X22535Y15487
X23935Y14187
X20265Y13937
X19015Y15187
X17285Y14737
X16785Y15237
X15265Y14437
X17185Y13337
X9635Y10987
X9665Y10357
X11685Y6337
X15285Y4487
X17535Y3487
X18185Y4587
X19785Y3487
X20435Y4587
X22285Y4987
X23065Y4987
X17435Y6337
X12685Y1587
X11045Y1597
X9185Y1587
X4285Y6737
X2185Y7087
X2185Y8587
X4185Y17087
X4185Y18587
X2435Y18587
X5785Y19987
X6025Y18987
T05
X8035Y14987
X8535Y10237
X9285Y8737
X9285Y4987
T06
X11035Y4987
T07
X14535Y1487
X15535Y1487
X16535Y1487
X17535Y1487
X18535Y1487
X19535Y1487
X21535Y1487
X22535Y1487
X23535Y1487
X24535Y1487
X25535Y1487
X26535Y1487
X26535Y20487
X25535Y20487
X24535Y20487
X23535Y20487
X22535Y20487
X21535Y20487
X20535Y20487
X19535Y20487
X17935Y20487
X16935Y20487
X15935Y20487
X14935Y20487
X13935Y20487
X12935Y20487
X11935Y20487
X10935Y20487
T08
X26535Y13387
X27535Y13387
X27535Y12387
X26535Y12387
X26535Y11387
X27535Y11387
T09
X7785Y8737
X7035Y8737
X6285Y8737
X5535Y8737
X7785Y7237
X7785Y5737
X7035Y5737
X6285Y5737
X5535Y5737
T10
X21285Y9737
T11
X5147Y1736
T12
X3966Y3587
X6328Y3587
T13
X7035Y1487
X27535Y3237
X27535Y14737
X7535Y20487
M30
