G75*
%MOIN*%
%OFA0B0*%
%FSLAX24Y24*%
%IPPOS*%
%LPD*%
%AMOC8*
5,1,8,0,0,1.08239X$1,22.5*
%
%ADD10OC8,0.0554*%
%ADD11OC8,0.0397*%
%ADD12C,0.1424*%
%ADD13C,0.1266*%
%ADD14C,0.0740*%
%ADD15R,0.0740X0.0740*%
%ADD16C,0.0357*%
%ADD17C,0.0310*%
%ADD18C,0.0080*%
%ADD19C,0.0100*%
%ADD20C,0.0320*%
%ADD21C,0.0160*%
%ADD22C,0.0350*%
%ADD23C,0.0200*%
%ADD24OC8,0.0480*%
%ADD25C,0.0480*%
%ADD26C,0.0120*%
%ADD27C,0.0396*%
%ADD28C,0.0400*%
D10*
X021285Y009737D03*
D11*
X021735Y010187D03*
X020835Y010187D03*
X020835Y009287D03*
X021735Y009287D03*
D12*
X006328Y003587D03*
X003966Y003587D03*
D13*
X005147Y001736D03*
D14*
X014535Y001487D03*
X015535Y001487D03*
X016535Y001487D03*
X017535Y001487D03*
X018535Y001487D03*
X019535Y001487D03*
X021535Y001487D03*
X022535Y001487D03*
X023535Y001487D03*
X024535Y001487D03*
X025535Y001487D03*
X026535Y001487D03*
X026535Y011387D03*
X027535Y011387D03*
X027535Y012387D03*
X026535Y012387D03*
X026535Y013387D03*
X027535Y013387D03*
X025535Y020487D03*
X024535Y020487D03*
X023535Y020487D03*
X022535Y020487D03*
X021535Y020487D03*
X020535Y020487D03*
X019535Y020487D03*
X016935Y020487D03*
X015935Y020487D03*
X014935Y020487D03*
X013935Y020487D03*
X012935Y020487D03*
X011935Y020487D03*
X010935Y020487D03*
D15*
X017935Y020487D03*
X026535Y020487D03*
D16*
X026035Y018487D03*
X026035Y017737D03*
X025285Y017737D03*
X023935Y017437D03*
X022515Y017117D03*
X022035Y016617D03*
X021285Y017487D03*
X020635Y016237D03*
X020035Y016747D03*
X019535Y017487D03*
X019015Y015187D03*
X020265Y013937D03*
X022535Y015487D03*
X023935Y015487D03*
X023935Y014187D03*
X026035Y015487D03*
X026035Y016237D03*
X020845Y011907D03*
X019785Y011487D03*
X020015Y010867D03*
X019045Y010047D03*
X017035Y011237D03*
X014975Y011897D03*
X013285Y010487D03*
X013535Y009987D03*
X014035Y009737D03*
X014285Y009237D03*
X015435Y008587D03*
X016155Y009077D03*
X015035Y007987D03*
X015285Y007487D03*
X016285Y007237D03*
X015435Y006337D03*
X014185Y006337D03*
X014185Y007587D03*
X011685Y007587D03*
X011675Y008727D03*
X011665Y009857D03*
X011655Y010987D03*
X011655Y011977D03*
X012535Y011987D03*
X010185Y013837D03*
X009655Y012367D03*
X007915Y012987D03*
X006275Y011297D03*
X006645Y009997D03*
X005535Y009987D03*
X004625Y011257D03*
X004535Y012997D03*
X004185Y013837D03*
X004345Y015077D03*
X006485Y015087D03*
X007535Y015487D03*
X006805Y016037D03*
X009035Y015987D03*
X011035Y017237D03*
X011785Y017987D03*
X011785Y015887D03*
X014785Y016237D03*
X016785Y016737D03*
X016785Y017987D03*
X016035Y018237D03*
X016785Y015237D03*
X017285Y014737D03*
X017185Y013337D03*
X015265Y014437D03*
X009635Y010987D03*
X009665Y010357D03*
X011685Y006337D03*
X015285Y004487D03*
X017535Y003487D03*
X018185Y004587D03*
X019785Y003487D03*
X020435Y004587D03*
X022285Y004987D03*
X023065Y004987D03*
X021645Y007837D03*
X022375Y008407D03*
X023145Y010727D03*
X022675Y010867D03*
X023175Y011387D03*
X017435Y006337D03*
X012685Y001587D03*
X011045Y001597D03*
X009185Y001587D03*
X004285Y006737D03*
X002185Y007087D03*
X002185Y008587D03*
X004185Y017087D03*
X004185Y018587D03*
X002435Y018587D03*
X005785Y019987D03*
X006025Y018987D03*
D17*
X023245Y009707D03*
X023845Y009737D03*
X024095Y010157D03*
X024595Y010157D03*
X024455Y009717D03*
X025025Y009727D03*
X025545Y009737D03*
X025575Y010157D03*
X025095Y010157D03*
X025295Y010657D03*
X025755Y010647D03*
X026225Y010657D03*
X026015Y010147D03*
X026015Y009747D03*
X024815Y010657D03*
X024355Y010777D03*
X023935Y011007D03*
X025285Y011987D03*
X025285Y012987D03*
X025535Y014287D03*
X025535Y014987D03*
X026205Y008787D03*
X026205Y008337D03*
X026205Y007827D03*
X026205Y007317D03*
X026215Y006817D03*
X026205Y006317D03*
X026205Y005837D03*
X024875Y005867D03*
X024435Y005817D03*
X023925Y005817D03*
X023915Y005177D03*
X024435Y005177D03*
X024445Y004547D03*
X024865Y004287D03*
X025215Y003997D03*
X025705Y004037D03*
X026205Y003927D03*
X026195Y004387D03*
X026205Y003417D03*
X026205Y002927D03*
X025675Y003197D03*
X025055Y003217D03*
X024485Y003217D03*
X023925Y003227D03*
X024535Y003857D03*
X023925Y003897D03*
X023915Y004557D03*
X023935Y006577D03*
X024425Y006567D03*
X024895Y006577D03*
X024905Y007327D03*
X024435Y007337D03*
X024885Y007877D03*
X024345Y008007D03*
X023725Y008097D03*
X023375Y007817D03*
X024235Y008647D03*
X023805Y008667D03*
D18*
X001827Y000848D02*
X001789Y000938D01*
X001785Y000987D01*
X001785Y020987D01*
X001789Y021035D01*
X001827Y021126D01*
X001896Y021195D01*
X001986Y021232D01*
X002035Y021237D01*
X007177Y021237D01*
X007065Y021190D01*
X006831Y020957D01*
X006705Y020652D01*
X006705Y020322D01*
X006831Y020017D01*
X007065Y019783D01*
X007152Y019747D01*
X006392Y019747D01*
X006163Y019976D01*
X006163Y020062D01*
X006105Y020201D01*
X005999Y020307D01*
X005860Y020365D01*
X005709Y020365D01*
X005570Y020307D01*
X005464Y020201D01*
X005406Y020062D01*
X005406Y019911D01*
X005464Y019772D01*
X005570Y019666D01*
X005709Y019608D01*
X005795Y019608D01*
X006137Y019266D01*
X006233Y019227D01*
X008177Y019227D01*
X008275Y019129D01*
X008275Y018435D01*
X008314Y018339D01*
X008887Y017766D01*
X008983Y017727D01*
X009427Y017727D01*
X010064Y017089D01*
X010137Y017016D01*
X010233Y016977D01*
X010759Y016977D01*
X010820Y016916D01*
X010959Y016858D01*
X011110Y016858D01*
X011249Y016916D01*
X011320Y016987D01*
X011931Y016987D01*
X012285Y016633D01*
X012285Y012272D01*
X012214Y012201D01*
X012156Y012062D01*
X012156Y011911D01*
X012214Y011772D01*
X012285Y011701D01*
X012285Y005840D01*
X012181Y005737D01*
X010735Y005737D01*
X010643Y005699D01*
X010573Y005628D01*
X010323Y005378D01*
X010285Y005286D01*
X010285Y004687D01*
X010323Y004595D01*
X010393Y004525D01*
X010643Y004275D01*
X010735Y004237D01*
X012931Y004237D01*
X014285Y002883D01*
X014285Y002000D01*
X014212Y001970D01*
X014051Y001810D01*
X013965Y001600D01*
X013965Y001373D01*
X014051Y001164D01*
X014212Y001003D01*
X014421Y000917D01*
X014648Y000917D01*
X014858Y001003D01*
X015018Y001164D01*
X015035Y001204D01*
X015051Y001164D01*
X015212Y001003D01*
X015421Y000917D01*
X015648Y000917D01*
X015858Y001003D01*
X015981Y001127D01*
X016089Y001127D01*
X016212Y001003D01*
X016421Y000917D01*
X016648Y000917D01*
X016858Y001003D01*
X017018Y001164D01*
X017105Y001373D01*
X017105Y001600D01*
X017018Y001810D01*
X016858Y001970D01*
X016648Y002057D01*
X016421Y002057D01*
X016212Y001970D01*
X016089Y001847D01*
X015981Y001847D01*
X015858Y001970D01*
X015648Y002057D01*
X015421Y002057D01*
X015212Y001970D01*
X015051Y001810D01*
X015035Y001769D01*
X015018Y001810D01*
X014858Y001970D01*
X014785Y002000D01*
X014785Y002978D01*
X015229Y002533D01*
X015331Y002431D01*
X015463Y002377D01*
X018636Y002377D01*
X019127Y001885D01*
X019051Y001810D01*
X018965Y001600D01*
X018965Y001373D01*
X019051Y001164D01*
X019212Y001003D01*
X019421Y000917D01*
X019648Y000917D01*
X019858Y001003D01*
X020018Y001164D01*
X020105Y001373D01*
X020105Y001600D01*
X020018Y001810D01*
X019895Y001933D01*
X019895Y002058D01*
X019840Y002191D01*
X019739Y002292D01*
X018989Y003042D01*
X018856Y003097D01*
X015684Y003097D01*
X015044Y003737D01*
X017249Y003737D01*
X017214Y003701D01*
X017156Y003562D01*
X017156Y003411D01*
X017214Y003272D01*
X017320Y003166D01*
X017459Y003108D01*
X017610Y003108D01*
X017749Y003166D01*
X017820Y003237D01*
X018931Y003237D01*
X019823Y002345D01*
X019893Y002275D01*
X019985Y002237D01*
X022181Y002237D01*
X022379Y002039D01*
X022212Y001970D01*
X022051Y001810D01*
X022035Y001769D01*
X022018Y001810D01*
X021858Y001970D01*
X021648Y002057D01*
X021421Y002057D01*
X021212Y001970D01*
X021051Y001810D01*
X020965Y001600D01*
X020965Y001373D01*
X021051Y001164D01*
X021212Y001003D01*
X021421Y000917D01*
X021648Y000917D01*
X021858Y001003D01*
X022018Y001164D01*
X022035Y001204D01*
X022051Y001164D01*
X022212Y001003D01*
X022421Y000917D01*
X022648Y000917D01*
X022858Y001003D01*
X023018Y001164D01*
X023035Y001204D01*
X023051Y001164D01*
X023212Y001003D01*
X023421Y000917D01*
X023648Y000917D01*
X023858Y001003D01*
X024018Y001164D01*
X024035Y001204D01*
X024051Y001164D01*
X024212Y001003D01*
X024421Y000917D01*
X024648Y000917D01*
X024858Y001003D01*
X025018Y001164D01*
X025035Y001204D01*
X025051Y001164D01*
X025212Y001003D01*
X025421Y000917D01*
X025648Y000917D01*
X025858Y001003D01*
X026018Y001164D01*
X026035Y001204D01*
X026051Y001164D01*
X026212Y001003D01*
X026332Y000954D01*
X026329Y000917D01*
X026311Y000850D01*
X026281Y000787D01*
X026246Y000737D01*
X007393Y000737D01*
X007505Y000783D01*
X007738Y001017D01*
X007865Y001322D01*
X007865Y001652D01*
X007738Y001957D01*
X007505Y002190D01*
X007200Y002317D01*
X006870Y002317D01*
X006565Y002190D01*
X006331Y001957D01*
X006205Y001652D01*
X006205Y001322D01*
X006331Y001017D01*
X006565Y000783D01*
X006677Y000737D01*
X002035Y000737D01*
X001986Y000741D01*
X001896Y000779D01*
X001827Y000848D01*
X001814Y000879D02*
X006468Y000879D01*
X006390Y000958D02*
X001788Y000958D01*
X001785Y001036D02*
X006323Y001036D01*
X006290Y001115D02*
X001785Y001115D01*
X001785Y001193D02*
X006258Y001193D01*
X006225Y001272D02*
X001785Y001272D01*
X001785Y001350D02*
X006205Y001350D01*
X006205Y001429D02*
X001785Y001429D01*
X001785Y001507D02*
X006205Y001507D01*
X006205Y001586D02*
X001785Y001586D01*
X001785Y001664D02*
X006210Y001664D01*
X006242Y001743D02*
X001785Y001743D01*
X001785Y001821D02*
X006275Y001821D01*
X006307Y001900D02*
X001785Y001900D01*
X001785Y001978D02*
X006352Y001978D01*
X006431Y002057D02*
X001785Y002057D01*
X001785Y002135D02*
X006509Y002135D01*
X006621Y002214D02*
X001785Y002214D01*
X001785Y002292D02*
X006811Y002292D01*
X007259Y002292D02*
X014285Y002292D01*
X014285Y002214D02*
X007448Y002214D01*
X007560Y002135D02*
X014285Y002135D01*
X014285Y002057D02*
X007638Y002057D01*
X007717Y001978D02*
X014232Y001978D01*
X014142Y001900D02*
X007762Y001900D01*
X007794Y001821D02*
X014063Y001821D01*
X014024Y001743D02*
X007827Y001743D01*
X007859Y001664D02*
X013991Y001664D01*
X013965Y001586D02*
X007865Y001586D01*
X007865Y001507D02*
X013965Y001507D01*
X013965Y001429D02*
X007865Y001429D01*
X007865Y001350D02*
X013974Y001350D01*
X014007Y001272D02*
X007844Y001272D01*
X007811Y001193D02*
X014039Y001193D01*
X014101Y001115D02*
X007779Y001115D01*
X007746Y001036D02*
X014179Y001036D01*
X014322Y000958D02*
X007679Y000958D01*
X007601Y000879D02*
X026318Y000879D01*
X026322Y000958D02*
X025747Y000958D01*
X025890Y001036D02*
X026179Y001036D01*
X026101Y001115D02*
X025969Y001115D01*
X026030Y001193D02*
X026039Y001193D01*
X026288Y000801D02*
X007522Y000801D01*
X006547Y000801D02*
X001874Y000801D01*
X001785Y002371D02*
X014285Y002371D01*
X014285Y002449D02*
X001785Y002449D01*
X001785Y002528D02*
X014285Y002528D01*
X014285Y002606D02*
X001785Y002606D01*
X001785Y002685D02*
X006123Y002685D01*
X006147Y002675D02*
X006510Y002675D01*
X006845Y002814D01*
X007101Y003070D01*
X007240Y003405D01*
X007240Y003768D01*
X007101Y004103D01*
X006845Y004360D01*
X006510Y004498D01*
X006147Y004498D01*
X005812Y004360D01*
X005555Y004103D01*
X005417Y003768D01*
X005417Y003405D01*
X005555Y003070D01*
X005812Y002814D01*
X006147Y002675D01*
X005934Y002763D02*
X001785Y002763D01*
X001785Y002842D02*
X005784Y002842D01*
X005705Y002920D02*
X001785Y002920D01*
X001785Y002999D02*
X005627Y002999D01*
X005552Y003077D02*
X001785Y003077D01*
X001785Y003156D02*
X005520Y003156D01*
X005487Y003234D02*
X001785Y003234D01*
X001785Y003313D02*
X005455Y003313D01*
X005422Y003391D02*
X001785Y003391D01*
X001785Y003470D02*
X005417Y003470D01*
X005417Y003548D02*
X001785Y003548D01*
X001785Y003627D02*
X005417Y003627D01*
X005417Y003705D02*
X001785Y003705D01*
X001785Y003784D02*
X005423Y003784D01*
X005456Y003862D02*
X001785Y003862D01*
X001785Y003941D02*
X005488Y003941D01*
X005521Y004019D02*
X001785Y004019D01*
X001785Y004098D02*
X005553Y004098D01*
X005628Y004176D02*
X001785Y004176D01*
X001785Y004255D02*
X005707Y004255D01*
X005785Y004333D02*
X001785Y004333D01*
X001785Y004412D02*
X005937Y004412D01*
X006127Y004490D02*
X001785Y004490D01*
X001785Y004569D02*
X010349Y004569D01*
X010301Y004647D02*
X009505Y004647D01*
X009510Y004649D02*
X009622Y004761D01*
X009683Y004907D01*
X009683Y005066D01*
X009645Y005158D01*
X009645Y008565D01*
X009683Y008657D01*
X009683Y008816D01*
X009622Y008962D01*
X009510Y009074D01*
X009364Y009135D01*
X009205Y009135D01*
X009175Y009122D01*
X009175Y009353D01*
X009178Y009366D01*
X009175Y009400D01*
X009175Y009434D01*
X009171Y009444D01*
X009172Y009465D01*
X009165Y009485D01*
X009163Y009505D01*
X009149Y009530D01*
X009148Y009534D01*
X009143Y009561D01*
X009132Y009578D01*
X009126Y009598D01*
X009107Y009618D01*
X009105Y009622D01*
X009094Y009647D01*
X009080Y009662D01*
X009069Y009679D01*
X009046Y009695D01*
X009043Y009698D01*
X009027Y009721D01*
X009010Y009732D01*
X008995Y009746D01*
X008970Y009757D01*
X008966Y009759D01*
X008946Y009778D01*
X008926Y009784D01*
X008909Y009795D01*
X008882Y009800D01*
X008878Y009801D01*
X008853Y009815D01*
X008833Y009817D01*
X008813Y009824D01*
X008792Y009823D01*
X008782Y009827D01*
X008748Y009827D01*
X008714Y009831D01*
X008701Y009827D01*
X005878Y009827D01*
X005913Y009911D01*
X005913Y010062D01*
X005855Y010201D01*
X005749Y010307D01*
X005610Y010365D01*
X005459Y010365D01*
X005320Y010307D01*
X005259Y010247D01*
X004483Y010247D01*
X004387Y010207D01*
X004314Y010134D01*
X004064Y009884D01*
X004025Y009788D01*
X004025Y008844D01*
X003814Y008634D01*
X003775Y008538D01*
X003775Y007435D01*
X003814Y007339D01*
X003887Y007266D01*
X004025Y007129D01*
X004025Y007012D01*
X003964Y006951D01*
X003906Y006812D01*
X003906Y006661D01*
X003964Y006522D01*
X004070Y006416D01*
X004209Y006358D01*
X004360Y006358D01*
X004495Y006414D01*
X004495Y005221D01*
X004491Y005207D01*
X004495Y005173D01*
X004495Y005139D01*
X004499Y005129D01*
X004497Y005108D01*
X004504Y005088D01*
X004507Y005068D01*
X004520Y005044D01*
X004521Y005040D01*
X004526Y005013D01*
X004537Y004995D01*
X004544Y004976D01*
X004562Y004955D01*
X004564Y004951D01*
X004575Y004926D01*
X004589Y004911D01*
X004600Y004894D01*
X004623Y004878D01*
X004626Y004875D01*
X004642Y004852D01*
X004659Y004841D01*
X004674Y004827D01*
X004699Y004816D01*
X004703Y004814D01*
X004724Y004796D01*
X004743Y004789D01*
X004761Y004778D01*
X004788Y004773D01*
X004792Y004772D01*
X004816Y004759D01*
X004836Y004756D01*
X004856Y004749D01*
X004877Y004751D01*
X004887Y004747D01*
X004921Y004747D01*
X004955Y004743D01*
X004969Y004747D01*
X008701Y004747D01*
X008714Y004743D01*
X008748Y004747D01*
X008782Y004747D01*
X008792Y004751D01*
X008813Y004749D01*
X008833Y004756D01*
X008853Y004759D01*
X008878Y004772D01*
X008882Y004773D01*
X008909Y004778D01*
X008926Y004789D01*
X008934Y004792D01*
X008947Y004761D01*
X009059Y004649D01*
X009205Y004589D01*
X009364Y004589D01*
X009510Y004649D01*
X009587Y004726D02*
X010285Y004726D01*
X010285Y004804D02*
X009640Y004804D01*
X009672Y004883D02*
X010285Y004883D01*
X010285Y004961D02*
X009683Y004961D01*
X009683Y005040D02*
X010285Y005040D01*
X010285Y005118D02*
X009661Y005118D01*
X009645Y005197D02*
X010285Y005197D01*
X010285Y005275D02*
X009645Y005275D01*
X009645Y005354D02*
X010313Y005354D01*
X010377Y005432D02*
X009645Y005432D01*
X009645Y005511D02*
X010455Y005511D01*
X010534Y005589D02*
X009645Y005589D01*
X009645Y005668D02*
X010612Y005668D01*
X009645Y005746D02*
X012191Y005746D01*
X012269Y005825D02*
X009645Y005825D01*
X009645Y005903D02*
X012285Y005903D01*
X012285Y005982D02*
X009645Y005982D01*
X009645Y006060D02*
X012285Y006060D01*
X012285Y006139D02*
X009645Y006139D01*
X009645Y006217D02*
X012285Y006217D01*
X012285Y006296D02*
X009645Y006296D01*
X009645Y006374D02*
X012285Y006374D01*
X012285Y006453D02*
X009645Y006453D01*
X009645Y006531D02*
X012285Y006531D01*
X012285Y006610D02*
X009645Y006610D01*
X009645Y006688D02*
X012285Y006688D01*
X012285Y006767D02*
X009645Y006767D01*
X009645Y006845D02*
X012285Y006845D01*
X012285Y006924D02*
X009645Y006924D01*
X009645Y007002D02*
X012285Y007002D01*
X012285Y007081D02*
X009645Y007081D01*
X009645Y007159D02*
X012285Y007159D01*
X012285Y007238D02*
X009645Y007238D01*
X009645Y007316D02*
X012285Y007316D01*
X012285Y007395D02*
X009645Y007395D01*
X009645Y007473D02*
X012285Y007473D01*
X012285Y007552D02*
X009645Y007552D01*
X009645Y007630D02*
X012285Y007630D01*
X012285Y007709D02*
X009645Y007709D01*
X009645Y007787D02*
X012285Y007787D01*
X012285Y007866D02*
X009645Y007866D01*
X009645Y007944D02*
X012285Y007944D01*
X012285Y008023D02*
X009645Y008023D01*
X009645Y008101D02*
X012285Y008101D01*
X012285Y008180D02*
X009645Y008180D01*
X009645Y008258D02*
X012285Y008258D01*
X012285Y008337D02*
X009645Y008337D01*
X009645Y008415D02*
X012285Y008415D01*
X012285Y008494D02*
X009645Y008494D01*
X009647Y008572D02*
X012285Y008572D01*
X012285Y008651D02*
X009680Y008651D01*
X009683Y008729D02*
X012285Y008729D01*
X012285Y008808D02*
X009683Y008808D01*
X009654Y008886D02*
X012285Y008886D01*
X012285Y008965D02*
X009620Y008965D01*
X009541Y009043D02*
X012285Y009043D01*
X012285Y009122D02*
X009395Y009122D01*
X009175Y009200D02*
X012285Y009200D01*
X012285Y009279D02*
X009175Y009279D01*
X009176Y009357D02*
X012285Y009357D01*
X012285Y009436D02*
X009174Y009436D01*
X009158Y009514D02*
X012285Y009514D01*
X012285Y009593D02*
X009127Y009593D01*
X009074Y009671D02*
X012285Y009671D01*
X012285Y009750D02*
X008988Y009750D01*
X008859Y009543D02*
X008891Y009511D01*
X008915Y009473D01*
X008930Y009431D01*
X008935Y009387D01*
X008935Y005187D01*
X008930Y005142D01*
X008915Y005100D01*
X008891Y005062D01*
X008859Y005030D01*
X008821Y005006D01*
X008779Y004992D01*
X008735Y004987D01*
X004935Y004987D01*
X004890Y004992D01*
X004848Y005006D01*
X004810Y005030D01*
X004778Y005062D01*
X004754Y005100D01*
X004740Y005142D01*
X004735Y005187D01*
X004735Y009387D01*
X004740Y009431D01*
X004754Y009473D01*
X004778Y009511D01*
X004810Y009543D01*
X004848Y009567D01*
X004890Y009582D01*
X004935Y009587D01*
X008735Y009587D01*
X008779Y009582D01*
X008821Y009567D01*
X008859Y009543D01*
X008888Y009514D02*
X004781Y009514D01*
X004741Y009436D02*
X008928Y009436D01*
X008935Y009357D02*
X004735Y009357D01*
X004735Y009279D02*
X008935Y009279D01*
X008935Y009200D02*
X004735Y009200D01*
X004735Y009122D02*
X008935Y009122D01*
X008935Y009043D02*
X004735Y009043D01*
X004735Y008965D02*
X008935Y008965D01*
X008935Y008886D02*
X004735Y008886D01*
X004735Y008808D02*
X008935Y008808D01*
X008935Y008729D02*
X004735Y008729D01*
X004735Y008651D02*
X008935Y008651D01*
X008935Y008572D02*
X004735Y008572D01*
X004735Y008494D02*
X008935Y008494D01*
X008935Y008415D02*
X004735Y008415D01*
X004735Y008337D02*
X008935Y008337D01*
X008935Y008258D02*
X004735Y008258D01*
X004735Y008180D02*
X008935Y008180D01*
X008935Y008101D02*
X004735Y008101D01*
X004735Y008023D02*
X008935Y008023D01*
X008935Y007944D02*
X004735Y007944D01*
X004735Y007866D02*
X008935Y007866D01*
X008935Y007787D02*
X004735Y007787D01*
X004735Y007709D02*
X008935Y007709D01*
X008935Y007630D02*
X004735Y007630D01*
X004735Y007552D02*
X008935Y007552D01*
X008935Y007473D02*
X004735Y007473D01*
X004735Y007395D02*
X008935Y007395D01*
X008935Y007316D02*
X004735Y007316D01*
X004735Y007238D02*
X008935Y007238D01*
X008935Y007159D02*
X004735Y007159D01*
X004735Y007081D02*
X008935Y007081D01*
X008935Y007002D02*
X004735Y007002D01*
X004735Y006924D02*
X008935Y006924D01*
X008935Y006845D02*
X004735Y006845D01*
X004735Y006767D02*
X008935Y006767D01*
X008935Y006688D02*
X004735Y006688D01*
X004735Y006610D02*
X008935Y006610D01*
X008935Y006531D02*
X004735Y006531D01*
X004735Y006453D02*
X008935Y006453D01*
X008935Y006374D02*
X004735Y006374D01*
X004735Y006296D02*
X008935Y006296D01*
X008935Y006217D02*
X004735Y006217D01*
X004735Y006139D02*
X008935Y006139D01*
X008935Y006060D02*
X004735Y006060D01*
X004735Y005982D02*
X008935Y005982D01*
X008935Y005903D02*
X004735Y005903D01*
X004735Y005825D02*
X008935Y005825D01*
X008935Y005746D02*
X004735Y005746D01*
X004735Y005668D02*
X008935Y005668D01*
X008935Y005589D02*
X004735Y005589D01*
X004735Y005511D02*
X008935Y005511D01*
X008935Y005432D02*
X004735Y005432D01*
X004735Y005354D02*
X008935Y005354D01*
X008935Y005275D02*
X004735Y005275D01*
X004735Y005197D02*
X008935Y005197D01*
X008921Y005118D02*
X004748Y005118D01*
X004801Y005040D02*
X008869Y005040D01*
X008983Y004726D02*
X001785Y004726D01*
X001785Y004804D02*
X004714Y004804D01*
X004616Y004883D02*
X001785Y004883D01*
X001785Y004961D02*
X004557Y004961D01*
X004521Y005040D02*
X001785Y005040D01*
X001785Y005118D02*
X004498Y005118D01*
X004492Y005197D02*
X001785Y005197D01*
X001785Y005275D02*
X004495Y005275D01*
X004495Y005354D02*
X001785Y005354D01*
X001785Y005432D02*
X004495Y005432D01*
X004495Y005511D02*
X001785Y005511D01*
X001785Y005589D02*
X004495Y005589D01*
X004495Y005668D02*
X001785Y005668D01*
X001785Y005746D02*
X004495Y005746D01*
X004495Y005825D02*
X001785Y005825D01*
X001785Y005903D02*
X004495Y005903D01*
X004495Y005982D02*
X001785Y005982D01*
X001785Y006060D02*
X004495Y006060D01*
X004495Y006139D02*
X001785Y006139D01*
X001785Y006217D02*
X004495Y006217D01*
X004495Y006296D02*
X001785Y006296D01*
X001785Y006374D02*
X004171Y006374D01*
X004033Y006453D02*
X001785Y006453D01*
X001785Y006531D02*
X003960Y006531D01*
X003928Y006610D02*
X001785Y006610D01*
X001785Y006688D02*
X003906Y006688D01*
X003906Y006767D02*
X001785Y006767D01*
X001785Y006845D02*
X003920Y006845D01*
X003953Y006924D02*
X001785Y006924D01*
X001785Y007002D02*
X004015Y007002D01*
X004025Y007081D02*
X001785Y007081D01*
X001785Y007159D02*
X003994Y007159D01*
X003916Y007238D02*
X001785Y007238D01*
X001785Y007316D02*
X003837Y007316D01*
X003791Y007395D02*
X001785Y007395D01*
X001785Y007473D02*
X003775Y007473D01*
X003775Y007552D02*
X001785Y007552D01*
X001785Y007630D02*
X003775Y007630D01*
X003775Y007709D02*
X001785Y007709D01*
X001785Y007787D02*
X003775Y007787D01*
X003775Y007866D02*
X001785Y007866D01*
X001785Y007944D02*
X003775Y007944D01*
X003775Y008023D02*
X001785Y008023D01*
X001785Y008101D02*
X003775Y008101D01*
X003775Y008180D02*
X001785Y008180D01*
X001785Y008258D02*
X003775Y008258D01*
X003775Y008337D02*
X001785Y008337D01*
X001785Y008415D02*
X003775Y008415D01*
X003775Y008494D02*
X001785Y008494D01*
X001785Y008572D02*
X003789Y008572D01*
X003831Y008651D02*
X001785Y008651D01*
X001785Y008729D02*
X003909Y008729D01*
X003988Y008808D02*
X001785Y008808D01*
X001785Y008886D02*
X004025Y008886D01*
X004025Y008965D02*
X001785Y008965D01*
X001785Y009043D02*
X004025Y009043D01*
X004025Y009122D02*
X001785Y009122D01*
X001785Y009200D02*
X004025Y009200D01*
X004025Y009279D02*
X001785Y009279D01*
X001785Y009357D02*
X004025Y009357D01*
X004025Y009436D02*
X001785Y009436D01*
X001785Y009514D02*
X004025Y009514D01*
X004025Y009593D02*
X001785Y009593D01*
X001785Y009671D02*
X004025Y009671D01*
X004025Y009750D02*
X001785Y009750D01*
X001785Y009828D02*
X004041Y009828D01*
X004087Y009907D02*
X001785Y009907D01*
X001785Y009985D02*
X004165Y009985D01*
X004244Y010064D02*
X001785Y010064D01*
X001785Y010142D02*
X004322Y010142D01*
X004420Y010221D02*
X001785Y010221D01*
X001785Y010299D02*
X005312Y010299D01*
X005757Y010299D02*
X008137Y010299D01*
X008137Y010316D02*
X008137Y010157D01*
X008197Y010011D01*
X008309Y009899D01*
X008455Y009839D01*
X008614Y009839D01*
X008760Y009899D01*
X008872Y010011D01*
X008933Y010157D01*
X008933Y010316D01*
X008872Y010462D01*
X008815Y010520D01*
X008815Y014542D01*
X008772Y014645D01*
X008693Y014724D01*
X008433Y014985D01*
X008433Y015066D01*
X008372Y015212D01*
X008260Y015324D01*
X008114Y015385D01*
X007955Y015385D01*
X007891Y015358D01*
X007913Y015411D01*
X007913Y015562D01*
X007855Y015701D01*
X007749Y015807D01*
X007610Y015865D01*
X007459Y015865D01*
X007320Y015807D01*
X007214Y015701D01*
X007156Y015562D01*
X007156Y015462D01*
X007031Y015337D01*
X006770Y015337D01*
X006699Y015407D01*
X006560Y015465D01*
X006409Y015465D01*
X006270Y015407D01*
X006164Y015301D01*
X006106Y015162D01*
X006106Y015011D01*
X006164Y014872D01*
X006270Y014766D01*
X006409Y014708D01*
X006560Y014708D01*
X006699Y014766D01*
X006770Y014837D01*
X007184Y014837D01*
X007276Y014875D01*
X007347Y014945D01*
X007510Y015108D01*
X007610Y015108D01*
X007663Y015130D01*
X007637Y015066D01*
X007637Y014907D01*
X007697Y014761D01*
X007809Y014649D01*
X007955Y014589D01*
X008037Y014589D01*
X008255Y014371D01*
X008255Y013155D01*
X008235Y013201D01*
X008129Y013307D01*
X007990Y013365D01*
X007839Y013365D01*
X007700Y013307D01*
X007640Y013247D01*
X004811Y013256D01*
X004749Y013317D01*
X004610Y013375D01*
X004459Y013375D01*
X004320Y013317D01*
X004214Y013211D01*
X004156Y013072D01*
X004156Y012921D01*
X004214Y012782D01*
X004320Y012676D01*
X004459Y012618D01*
X004610Y012618D01*
X004749Y012676D01*
X004809Y012736D01*
X007639Y012727D01*
X007700Y012666D01*
X007839Y012608D01*
X007990Y012608D01*
X008129Y012666D01*
X008235Y012772D01*
X008255Y012819D01*
X008255Y010520D01*
X008197Y010462D01*
X008137Y010316D01*
X008162Y010378D02*
X001785Y010378D01*
X001785Y010456D02*
X008195Y010456D01*
X008255Y010535D02*
X001785Y010535D01*
X001785Y010613D02*
X008255Y010613D01*
X008255Y010692D02*
X001785Y010692D01*
X001785Y010770D02*
X008255Y010770D01*
X008255Y010849D02*
X001785Y010849D01*
X001785Y010927D02*
X008255Y010927D01*
X008255Y011006D02*
X001785Y011006D01*
X001785Y011084D02*
X008255Y011084D01*
X008255Y011163D02*
X001785Y011163D01*
X001785Y011241D02*
X008255Y011241D01*
X008255Y011320D02*
X001785Y011320D01*
X001785Y011398D02*
X008255Y011398D01*
X008255Y011477D02*
X001785Y011477D01*
X001785Y011555D02*
X008255Y011555D01*
X008255Y011634D02*
X001785Y011634D01*
X001785Y011712D02*
X008255Y011712D01*
X008255Y011791D02*
X001785Y011791D01*
X001785Y011869D02*
X008255Y011869D01*
X008255Y011948D02*
X001785Y011948D01*
X001785Y012026D02*
X008255Y012026D01*
X008255Y012105D02*
X001785Y012105D01*
X001785Y012183D02*
X008255Y012183D01*
X008255Y012262D02*
X001785Y012262D01*
X001785Y012340D02*
X008255Y012340D01*
X008255Y012419D02*
X001785Y012419D01*
X001785Y012497D02*
X008255Y012497D01*
X008255Y012576D02*
X001785Y012576D01*
X001785Y012654D02*
X004373Y012654D01*
X004263Y012733D02*
X001785Y012733D01*
X001785Y012811D02*
X004202Y012811D01*
X004169Y012890D02*
X001785Y012890D01*
X001785Y012968D02*
X004156Y012968D01*
X004156Y013047D02*
X001785Y013047D01*
X001785Y013125D02*
X004178Y013125D01*
X004211Y013204D02*
X001785Y013204D01*
X001785Y013282D02*
X004285Y013282D01*
X004425Y013361D02*
X001785Y013361D01*
X001785Y013439D02*
X008255Y013439D01*
X008255Y013361D02*
X008001Y013361D01*
X007829Y013361D02*
X004645Y013361D01*
X004784Y013282D02*
X007675Y013282D01*
X008154Y013282D02*
X008255Y013282D01*
X008255Y013204D02*
X008233Y013204D01*
X008255Y013518D02*
X001785Y013518D01*
X001785Y013596D02*
X008255Y013596D01*
X008255Y013675D02*
X001785Y013675D01*
X001785Y013753D02*
X008255Y013753D01*
X008255Y013832D02*
X001785Y013832D01*
X001785Y013910D02*
X008255Y013910D01*
X008255Y013989D02*
X001785Y013989D01*
X001785Y014067D02*
X008255Y014067D01*
X008255Y014146D02*
X001785Y014146D01*
X001785Y014224D02*
X008255Y014224D01*
X008255Y014303D02*
X001785Y014303D01*
X001785Y014381D02*
X008244Y014381D01*
X008166Y014460D02*
X003151Y014460D01*
X003159Y014463D02*
X003237Y014541D01*
X003280Y014644D01*
X003280Y014755D01*
X003237Y014857D01*
X003159Y014936D01*
X003056Y014978D01*
X002945Y014978D01*
X002843Y014936D01*
X002764Y014857D01*
X002722Y014755D01*
X002722Y014644D01*
X002764Y014541D01*
X002843Y014463D01*
X002945Y014421D01*
X003056Y014421D01*
X003159Y014463D01*
X003234Y014538D02*
X008087Y014538D01*
X007887Y014617D02*
X003268Y014617D01*
X003280Y014695D02*
X007763Y014695D01*
X007692Y014774D02*
X006707Y014774D01*
X007222Y014852D02*
X007659Y014852D01*
X007637Y014931D02*
X007332Y014931D01*
X007411Y015009D02*
X007637Y015009D01*
X007646Y015088D02*
X007489Y015088D01*
X007096Y015402D02*
X006705Y015402D01*
X007156Y015480D02*
X001785Y015480D01*
X001785Y015402D02*
X006265Y015402D01*
X006186Y015323D02*
X001785Y015323D01*
X001785Y015245D02*
X006141Y015245D01*
X006108Y015166D02*
X001785Y015166D01*
X001785Y015088D02*
X006106Y015088D01*
X006107Y015009D02*
X001785Y015009D01*
X001785Y014931D02*
X002838Y014931D01*
X002762Y014852D02*
X001785Y014852D01*
X001785Y014774D02*
X002730Y014774D01*
X002722Y014695D02*
X001785Y014695D01*
X001785Y014617D02*
X002733Y014617D01*
X002768Y014538D02*
X001785Y014538D01*
X001785Y014460D02*
X002851Y014460D01*
X003272Y014774D02*
X006262Y014774D01*
X006184Y014852D02*
X003239Y014852D01*
X003164Y014931D02*
X006140Y014931D01*
X007156Y015559D02*
X001785Y015559D01*
X001785Y015637D02*
X007187Y015637D01*
X007229Y015716D02*
X001785Y015716D01*
X001785Y015794D02*
X007307Y015794D01*
X007762Y015794D02*
X008705Y015794D01*
X008714Y015772D02*
X008820Y015666D01*
X008959Y015608D01*
X009110Y015608D01*
X009249Y015666D01*
X009320Y015737D01*
X011437Y015737D01*
X011464Y015672D01*
X011570Y015566D01*
X011709Y015508D01*
X011860Y015508D01*
X011999Y015566D01*
X012105Y015672D01*
X012163Y015811D01*
X012163Y015962D01*
X012105Y016101D01*
X011999Y016207D01*
X011860Y016265D01*
X011709Y016265D01*
X011641Y016237D01*
X009320Y016237D01*
X009249Y016307D01*
X009110Y016365D01*
X008959Y016365D01*
X008820Y016307D01*
X008714Y016201D01*
X008656Y016062D01*
X008656Y015911D01*
X008714Y015772D01*
X008770Y015716D02*
X007841Y015716D01*
X007882Y015637D02*
X008889Y015637D01*
X009180Y015637D02*
X011499Y015637D01*
X011446Y015716D02*
X009299Y015716D01*
X008672Y015873D02*
X001785Y015873D01*
X001785Y015951D02*
X008656Y015951D01*
X008656Y016030D02*
X003139Y016030D01*
X003159Y016038D02*
X003237Y016116D01*
X003280Y016219D01*
X003280Y016330D01*
X003237Y016432D01*
X003159Y016510D01*
X003056Y016553D01*
X002945Y016553D01*
X002843Y016510D01*
X002764Y016432D01*
X002722Y016330D01*
X002722Y016219D01*
X002764Y016116D01*
X002843Y016038D01*
X002945Y015995D01*
X003056Y015995D01*
X003159Y016038D01*
X003229Y016108D02*
X008675Y016108D01*
X008708Y016187D02*
X003266Y016187D01*
X003280Y016265D02*
X008778Y016265D01*
X008908Y016344D02*
X003274Y016344D01*
X003241Y016422D02*
X012285Y016422D01*
X012285Y016344D02*
X009162Y016344D01*
X009291Y016265D02*
X012285Y016265D01*
X012285Y016187D02*
X012020Y016187D01*
X012098Y016108D02*
X012285Y016108D01*
X012285Y016030D02*
X012135Y016030D01*
X012163Y015951D02*
X012285Y015951D01*
X012285Y015873D02*
X012163Y015873D01*
X012156Y015794D02*
X012285Y015794D01*
X012285Y015716D02*
X012123Y015716D01*
X012070Y015637D02*
X012285Y015637D01*
X012285Y015559D02*
X011982Y015559D01*
X012285Y015480D02*
X007913Y015480D01*
X007909Y015402D02*
X012285Y015402D01*
X012285Y015323D02*
X008261Y015323D01*
X008340Y015245D02*
X012285Y015245D01*
X012285Y015166D02*
X008391Y015166D01*
X008424Y015088D02*
X012285Y015088D01*
X012285Y015009D02*
X008433Y015009D01*
X008487Y014931D02*
X012285Y014931D01*
X012285Y014852D02*
X008565Y014852D01*
X008644Y014774D02*
X012285Y014774D01*
X012285Y014695D02*
X008722Y014695D01*
X008693Y014724D02*
X008693Y014724D01*
X008784Y014617D02*
X012285Y014617D01*
X012285Y014538D02*
X008815Y014538D01*
X008815Y014460D02*
X012285Y014460D01*
X012285Y014381D02*
X008815Y014381D01*
X008815Y014303D02*
X012285Y014303D01*
X012285Y014224D02*
X008815Y014224D01*
X008815Y014146D02*
X012285Y014146D01*
X012285Y014067D02*
X008815Y014067D01*
X008815Y013989D02*
X012285Y013989D01*
X012285Y013910D02*
X008815Y013910D01*
X008815Y013832D02*
X012285Y013832D01*
X012285Y013753D02*
X008815Y013753D01*
X008815Y013675D02*
X012285Y013675D01*
X012285Y013596D02*
X008815Y013596D01*
X008815Y013518D02*
X012285Y013518D01*
X012285Y013439D02*
X008815Y013439D01*
X008815Y013361D02*
X012285Y013361D01*
X012285Y013282D02*
X008815Y013282D01*
X008815Y013204D02*
X012285Y013204D01*
X012285Y013125D02*
X008815Y013125D01*
X008815Y013047D02*
X012285Y013047D01*
X012285Y012968D02*
X008815Y012968D01*
X008815Y012890D02*
X012285Y012890D01*
X012285Y012811D02*
X008815Y012811D01*
X008815Y012733D02*
X012285Y012733D01*
X012285Y012654D02*
X008815Y012654D01*
X008815Y012576D02*
X012285Y012576D01*
X012285Y012497D02*
X008815Y012497D01*
X008815Y012419D02*
X012285Y012419D01*
X012285Y012340D02*
X008815Y012340D01*
X008815Y012262D02*
X012275Y012262D01*
X012206Y012183D02*
X008815Y012183D01*
X008815Y012105D02*
X012174Y012105D01*
X012156Y012026D02*
X008815Y012026D01*
X008815Y011948D02*
X012156Y011948D01*
X012174Y011869D02*
X008815Y011869D01*
X008815Y011791D02*
X012206Y011791D01*
X012274Y011712D02*
X008815Y011712D01*
X008815Y011634D02*
X012285Y011634D01*
X012285Y011555D02*
X008815Y011555D01*
X008815Y011477D02*
X012285Y011477D01*
X012285Y011398D02*
X008815Y011398D01*
X008815Y011320D02*
X009450Y011320D01*
X009420Y011307D02*
X009314Y011201D01*
X009256Y011062D01*
X009256Y010911D01*
X009314Y010772D01*
X009420Y010666D01*
X009559Y010608D01*
X009710Y010608D01*
X009849Y010666D01*
X009920Y010737D01*
X011369Y010737D01*
X011440Y010666D01*
X011579Y010608D01*
X011730Y010608D01*
X011869Y010666D01*
X011975Y010772D01*
X012033Y010911D01*
X012033Y011062D01*
X011975Y011201D01*
X011869Y011307D01*
X011730Y011365D01*
X011579Y011365D01*
X011440Y011307D01*
X011369Y011237D01*
X009920Y011237D01*
X009849Y011307D01*
X009710Y011365D01*
X009559Y011365D01*
X009420Y011307D01*
X009354Y011241D02*
X008815Y011241D01*
X008815Y011163D02*
X009298Y011163D01*
X009265Y011084D02*
X008815Y011084D01*
X008815Y011006D02*
X009256Y011006D01*
X009256Y010927D02*
X008815Y010927D01*
X008815Y010849D02*
X009282Y010849D01*
X009316Y010770D02*
X008815Y010770D01*
X008815Y010692D02*
X009394Y010692D01*
X009547Y010613D02*
X008815Y010613D01*
X008815Y010535D02*
X012285Y010535D01*
X012285Y010613D02*
X011742Y010613D01*
X011895Y010692D02*
X012285Y010692D01*
X012285Y010770D02*
X011973Y010770D01*
X012007Y010849D02*
X012285Y010849D01*
X012285Y010927D02*
X012033Y010927D01*
X012033Y011006D02*
X012285Y011006D01*
X012285Y011084D02*
X012024Y011084D01*
X011991Y011163D02*
X012285Y011163D01*
X012285Y011241D02*
X011935Y011241D01*
X011840Y011320D02*
X012285Y011320D01*
X012785Y011320D02*
X013535Y011320D01*
X013535Y011398D02*
X012785Y011398D01*
X012785Y011477D02*
X013535Y011477D01*
X013535Y011555D02*
X012785Y011555D01*
X012785Y011634D02*
X013535Y011634D01*
X013535Y011712D02*
X012795Y011712D01*
X012785Y011701D02*
X012855Y011772D01*
X012913Y011911D01*
X012913Y012062D01*
X012855Y012201D01*
X012785Y012272D01*
X012785Y016786D01*
X012747Y016878D01*
X012276Y017349D01*
X012275Y017350D01*
X012206Y017419D01*
X012206Y017419D01*
X012191Y017433D01*
X012063Y017487D01*
X011320Y017487D01*
X011249Y017557D01*
X011110Y017615D01*
X010959Y017615D01*
X010820Y017557D01*
X010759Y017497D01*
X010392Y017497D01*
X009682Y018207D01*
X009586Y018247D01*
X009142Y018247D01*
X008795Y018594D01*
X008795Y019288D01*
X008755Y019384D01*
X008682Y019457D01*
X008432Y019707D01*
X008336Y019747D01*
X007917Y019747D01*
X008005Y019783D01*
X008238Y020017D01*
X008365Y020322D01*
X008365Y020652D01*
X008238Y020957D01*
X008005Y021190D01*
X007893Y021237D01*
X018945Y021237D01*
X018581Y020873D01*
X018545Y020784D01*
X018545Y019939D01*
X018581Y019851D01*
X018649Y019783D01*
X018795Y019637D01*
X018795Y016939D01*
X018831Y016851D01*
X018899Y016783D01*
X020331Y015351D01*
X020399Y015283D01*
X020487Y015247D01*
X022239Y015247D01*
X022320Y015166D01*
X017535Y015166D01*
X017535Y015088D02*
X024785Y015088D01*
X024785Y015166D02*
X022749Y015166D01*
X022855Y015272D01*
X022913Y015411D01*
X022913Y015562D01*
X022855Y015701D01*
X022749Y015807D01*
X022610Y015865D01*
X022459Y015865D01*
X022320Y015807D01*
X022239Y015727D01*
X020634Y015727D01*
X020462Y015898D01*
X020559Y015858D01*
X020710Y015858D01*
X020849Y015916D01*
X020920Y015987D01*
X022584Y015987D01*
X022676Y016025D01*
X022747Y016095D01*
X023247Y016595D01*
X023285Y016687D01*
X023285Y019383D01*
X023747Y019845D01*
X023785Y019937D01*
X023785Y019973D01*
X023858Y020003D01*
X024018Y020164D01*
X024035Y020204D01*
X024051Y020164D01*
X024212Y020003D01*
X024421Y019917D01*
X024535Y019917D01*
X024535Y019687D01*
X024573Y019595D01*
X024785Y019383D01*
X024785Y018340D01*
X024643Y018199D01*
X024573Y018128D01*
X024535Y018036D01*
X024535Y015937D01*
X024573Y015845D01*
X024785Y015633D01*
X024785Y013840D01*
X024393Y013449D01*
X024323Y013378D01*
X024285Y013286D01*
X024285Y012090D01*
X024181Y011987D01*
X022638Y011987D01*
X022506Y012119D01*
X022414Y012157D01*
X021130Y012157D01*
X021059Y012227D01*
X020920Y012285D01*
X020840Y012285D01*
X020676Y012449D01*
X020584Y012487D01*
X019235Y012487D01*
X019143Y012449D01*
X019073Y012378D01*
X018431Y011737D01*
X017235Y011737D01*
X017143Y011699D01*
X017073Y011628D01*
X017060Y011615D01*
X016959Y011615D01*
X016820Y011557D01*
X016714Y011451D01*
X016656Y011312D01*
X016656Y011161D01*
X016714Y011022D01*
X016820Y010916D01*
X016959Y010858D01*
X017110Y010858D01*
X017249Y010916D01*
X017355Y011022D01*
X017413Y011161D01*
X017413Y011237D01*
X018554Y011237D01*
X018547Y011229D01*
X018490Y011091D01*
X018490Y010942D01*
X018547Y010804D01*
X018652Y010699D01*
X018790Y010642D01*
X018939Y010642D01*
X019077Y010699D01*
X019183Y010804D01*
X019240Y010942D01*
X019240Y011091D01*
X019188Y011216D01*
X019406Y011434D01*
X019406Y011411D01*
X019464Y011272D01*
X019570Y011166D01*
X019709Y011108D01*
X019824Y011108D01*
X019831Y011101D01*
X019899Y011033D01*
X019987Y010997D01*
X021935Y010997D01*
X022149Y010783D01*
X022216Y010755D01*
X022179Y010740D01*
X022111Y010673D01*
X021921Y010483D01*
X021885Y010394D01*
X021885Y010336D01*
X021861Y010313D01*
X021825Y010224D01*
X021825Y008899D01*
X021861Y008811D01*
X021929Y008743D01*
X022053Y008619D01*
X021996Y008482D01*
X021996Y008465D01*
X021675Y008215D01*
X021569Y008215D01*
X021430Y008157D01*
X021324Y008051D01*
X021266Y007912D01*
X021266Y007761D01*
X021324Y007622D01*
X021430Y007516D01*
X021569Y007458D01*
X021720Y007458D01*
X021859Y007516D01*
X021965Y007622D01*
X022023Y007761D01*
X022023Y007776D01*
X022295Y007988D01*
X022295Y007836D01*
X022229Y007770D01*
X022161Y007703D01*
X022125Y007614D01*
X022125Y006016D01*
X022081Y005973D01*
X022045Y005884D01*
X022045Y005282D01*
X021964Y005201D01*
X021906Y005062D01*
X021906Y004911D01*
X021964Y004772D01*
X022070Y004666D01*
X022209Y004608D01*
X022303Y004608D01*
X022296Y004602D01*
X022293Y004599D01*
X021931Y004237D01*
X015570Y004237D01*
X015605Y004272D01*
X015663Y004411D01*
X015663Y004562D01*
X015605Y004701D01*
X015499Y004807D01*
X015360Y004865D01*
X015260Y004865D01*
X013997Y006128D01*
X013926Y006199D01*
X013834Y006237D01*
X013388Y006237D01*
X013285Y006340D01*
X013285Y009701D01*
X013320Y009666D01*
X013459Y009608D01*
X013610Y009608D01*
X013668Y009632D01*
X013714Y009522D01*
X013820Y009416D01*
X013930Y009370D01*
X013906Y009312D01*
X013906Y009161D01*
X013964Y009022D01*
X014070Y008916D01*
X014209Y008858D01*
X014360Y008858D01*
X014405Y008877D01*
X014405Y008567D01*
X014443Y008475D01*
X014513Y008405D01*
X014535Y008383D01*
X014535Y008187D01*
X014573Y008095D01*
X014643Y008025D01*
X014656Y008012D01*
X014656Y007911D01*
X014714Y007772D01*
X014820Y007666D01*
X014930Y007620D01*
X014906Y007562D01*
X014906Y007411D01*
X014964Y007272D01*
X015070Y007166D01*
X015209Y007108D01*
X015360Y007108D01*
X015499Y007166D01*
X015605Y007272D01*
X015663Y007411D01*
X015663Y007512D01*
X015747Y007595D01*
X015785Y007687D01*
X015785Y008036D01*
X015747Y008128D01*
X015676Y008199D01*
X015285Y008590D01*
X015285Y008883D01*
X015535Y009133D01*
X015535Y008687D01*
X015573Y008595D01*
X015785Y008383D01*
X015785Y007437D01*
X015823Y007345D01*
X015906Y007262D01*
X015906Y007161D01*
X015964Y007022D01*
X016070Y006916D01*
X016209Y006858D01*
X016360Y006858D01*
X016499Y006916D01*
X016605Y007022D01*
X016663Y007161D01*
X016663Y007312D01*
X016605Y007451D01*
X016499Y007557D01*
X016360Y007615D01*
X016285Y007615D01*
X016285Y008536D01*
X016247Y008628D01*
X016177Y008698D01*
X016230Y008698D01*
X016347Y008747D01*
X018332Y008747D01*
X018421Y008783D01*
X018671Y009033D01*
X018738Y009101D01*
X018775Y009189D01*
X018775Y009437D01*
X019006Y009668D01*
X019120Y009668D01*
X019259Y009726D01*
X019365Y009832D01*
X019423Y009971D01*
X019423Y010122D01*
X019365Y010261D01*
X019259Y010367D01*
X019120Y010425D01*
X018969Y010425D01*
X018830Y010367D01*
X018724Y010261D01*
X018666Y010122D01*
X018666Y010008D01*
X018331Y009673D01*
X018295Y009584D01*
X018295Y009336D01*
X018185Y009227D01*
X016502Y009227D01*
X016475Y009291D01*
X016369Y009397D01*
X016230Y009455D01*
X016079Y009455D01*
X016035Y009437D01*
X016035Y013033D01*
X016247Y013245D01*
X016285Y013337D01*
X016285Y016633D01*
X016406Y016755D01*
X016406Y016661D01*
X016464Y016522D01*
X016535Y016451D01*
X016535Y015522D01*
X016464Y015451D01*
X016406Y015312D01*
X016406Y015161D01*
X016464Y015022D01*
X016570Y014916D01*
X016709Y014858D01*
X016860Y014858D01*
X016939Y014891D01*
X016906Y014812D01*
X016906Y014661D01*
X016964Y014522D01*
X017070Y014416D01*
X017209Y014358D01*
X017360Y014358D01*
X017499Y014416D01*
X017605Y014522D01*
X017663Y014661D01*
X017663Y014812D01*
X017605Y014951D01*
X017535Y015022D01*
X017535Y017383D01*
X017747Y017595D01*
X017785Y017687D01*
X017785Y019917D01*
X018387Y019917D01*
X018505Y020034D01*
X018505Y020940D01*
X018387Y021057D01*
X017482Y021057D01*
X017365Y020940D01*
X017365Y020863D01*
X017258Y020970D01*
X017048Y021057D01*
X016821Y021057D01*
X016612Y020970D01*
X016451Y020810D01*
X016435Y020769D01*
X016418Y020810D01*
X016258Y020970D01*
X016048Y021057D01*
X015821Y021057D01*
X015612Y020970D01*
X015451Y020810D01*
X015435Y020769D01*
X015418Y020810D01*
X015258Y020970D01*
X015048Y021057D01*
X014821Y021057D01*
X014612Y020970D01*
X014451Y020810D01*
X014435Y020769D01*
X014418Y020810D01*
X014258Y020970D01*
X014048Y021057D01*
X013821Y021057D01*
X013612Y020970D01*
X013451Y020810D01*
X013435Y020769D01*
X013418Y020810D01*
X013258Y020970D01*
X013048Y021057D01*
X012821Y021057D01*
X012612Y020970D01*
X012451Y020810D01*
X012365Y020600D01*
X012365Y020373D01*
X012451Y020164D01*
X012612Y020003D01*
X012821Y019917D01*
X013001Y019917D01*
X013285Y019633D01*
X013285Y018437D01*
X013323Y018345D01*
X013393Y018275D01*
X013535Y018133D01*
X013535Y010772D01*
X013499Y010807D01*
X013360Y010865D01*
X013209Y010865D01*
X013070Y010807D01*
X012964Y010701D01*
X012906Y010562D01*
X012906Y010462D01*
X012823Y010378D01*
X012785Y010286D01*
X012785Y006187D01*
X012823Y006095D01*
X012893Y006025D01*
X013143Y005775D01*
X013235Y005737D01*
X013681Y005737D01*
X014906Y004512D01*
X014906Y004469D01*
X013676Y005699D01*
X013584Y005737D01*
X012888Y005737D01*
X012805Y005820D01*
X012805Y005820D01*
X012785Y005840D01*
X012785Y011701D01*
X012863Y011791D02*
X013535Y011791D01*
X013535Y011869D02*
X012896Y011869D01*
X012913Y011948D02*
X013535Y011948D01*
X013535Y012026D02*
X012913Y012026D01*
X012895Y012105D02*
X013535Y012105D01*
X013535Y012183D02*
X012863Y012183D01*
X012795Y012262D02*
X013535Y012262D01*
X013535Y012340D02*
X012785Y012340D01*
X012785Y012419D02*
X013535Y012419D01*
X013535Y012497D02*
X012785Y012497D01*
X012785Y012576D02*
X013535Y012576D01*
X013535Y012654D02*
X012785Y012654D01*
X012785Y012733D02*
X013535Y012733D01*
X013535Y012811D02*
X012785Y012811D01*
X012785Y012890D02*
X013535Y012890D01*
X013535Y012968D02*
X012785Y012968D01*
X012785Y013047D02*
X013535Y013047D01*
X013535Y013125D02*
X012785Y013125D01*
X012785Y013204D02*
X013535Y013204D01*
X013535Y013282D02*
X012785Y013282D01*
X012785Y013361D02*
X013535Y013361D01*
X013535Y013439D02*
X012785Y013439D01*
X012785Y013518D02*
X013535Y013518D01*
X013535Y013596D02*
X012785Y013596D01*
X012785Y013675D02*
X013535Y013675D01*
X013535Y013753D02*
X012785Y013753D01*
X012785Y013832D02*
X013535Y013832D01*
X013535Y013910D02*
X012785Y013910D01*
X012785Y013989D02*
X013535Y013989D01*
X013535Y014067D02*
X012785Y014067D01*
X012785Y014146D02*
X013535Y014146D01*
X013535Y014224D02*
X012785Y014224D01*
X012785Y014303D02*
X013535Y014303D01*
X013535Y014381D02*
X012785Y014381D01*
X012785Y014460D02*
X013535Y014460D01*
X013535Y014538D02*
X012785Y014538D01*
X012785Y014617D02*
X013535Y014617D01*
X013535Y014695D02*
X012785Y014695D01*
X012785Y014774D02*
X013535Y014774D01*
X013535Y014852D02*
X012785Y014852D01*
X012785Y014931D02*
X013535Y014931D01*
X013535Y015009D02*
X012785Y015009D01*
X012785Y015088D02*
X013535Y015088D01*
X013535Y015166D02*
X012785Y015166D01*
X012785Y015245D02*
X013535Y015245D01*
X013535Y015323D02*
X012785Y015323D01*
X012785Y015402D02*
X013535Y015402D01*
X013535Y015480D02*
X012785Y015480D01*
X012785Y015559D02*
X013535Y015559D01*
X013535Y015637D02*
X012785Y015637D01*
X012785Y015716D02*
X013535Y015716D01*
X013535Y015794D02*
X012785Y015794D01*
X012785Y015873D02*
X013535Y015873D01*
X013535Y015951D02*
X012785Y015951D01*
X012785Y016030D02*
X013535Y016030D01*
X013535Y016108D02*
X012785Y016108D01*
X012785Y016187D02*
X013535Y016187D01*
X013535Y016265D02*
X012785Y016265D01*
X012785Y016344D02*
X013535Y016344D01*
X013535Y016422D02*
X012785Y016422D01*
X012785Y016501D02*
X013535Y016501D01*
X013535Y016579D02*
X012785Y016579D01*
X012785Y016658D02*
X013535Y016658D01*
X013535Y016736D02*
X012785Y016736D01*
X012773Y016815D02*
X013535Y016815D01*
X013535Y016893D02*
X012732Y016893D01*
X012653Y016972D02*
X013535Y016972D01*
X013535Y017050D02*
X012575Y017050D01*
X012496Y017129D02*
X013535Y017129D01*
X013535Y017207D02*
X012418Y017207D01*
X012339Y017286D02*
X013535Y017286D01*
X013535Y017364D02*
X012261Y017364D01*
X012191Y017433D02*
X012191Y017433D01*
X012169Y017443D02*
X013535Y017443D01*
X013535Y017521D02*
X011285Y017521D01*
X011147Y017600D02*
X013535Y017600D01*
X013535Y017678D02*
X010211Y017678D01*
X010289Y017600D02*
X010922Y017600D01*
X010784Y017521D02*
X010368Y017521D01*
X010025Y017129D02*
X001785Y017129D01*
X001785Y017207D02*
X009946Y017207D01*
X009868Y017286D02*
X001785Y017286D01*
X001785Y017364D02*
X009789Y017364D01*
X009711Y017443D02*
X001785Y017443D01*
X001785Y017521D02*
X009632Y017521D01*
X009554Y017600D02*
X001785Y017600D01*
X001785Y017678D02*
X009475Y017678D01*
X009818Y018071D02*
X013535Y018071D01*
X013535Y017992D02*
X009897Y017992D01*
X009975Y017914D02*
X013535Y017914D01*
X013535Y017835D02*
X010054Y017835D01*
X010132Y017757D02*
X013535Y017757D01*
X013519Y018149D02*
X009740Y018149D01*
X009632Y018228D02*
X013440Y018228D01*
X013362Y018306D02*
X009083Y018306D01*
X009004Y018385D02*
X013306Y018385D01*
X013285Y018463D02*
X008926Y018463D01*
X008847Y018542D02*
X013285Y018542D01*
X013285Y018620D02*
X008795Y018620D01*
X008795Y018699D02*
X013285Y018699D01*
X013285Y018777D02*
X008795Y018777D01*
X008795Y018856D02*
X013285Y018856D01*
X013285Y018934D02*
X008795Y018934D01*
X008795Y019013D02*
X013285Y019013D01*
X013285Y019091D02*
X008795Y019091D01*
X008795Y019170D02*
X013285Y019170D01*
X013285Y019248D02*
X008795Y019248D01*
X008779Y019327D02*
X013285Y019327D01*
X013285Y019405D02*
X008734Y019405D01*
X008682Y019457D02*
X008682Y019457D01*
X008655Y019484D02*
X013285Y019484D01*
X013285Y019562D02*
X008577Y019562D01*
X008498Y019641D02*
X013277Y019641D01*
X013199Y019719D02*
X008403Y019719D01*
X008176Y019955D02*
X012729Y019955D01*
X012582Y020033D02*
X008245Y020033D01*
X008278Y020112D02*
X012503Y020112D01*
X012440Y020190D02*
X008310Y020190D01*
X008343Y020269D02*
X012408Y020269D01*
X012375Y020347D02*
X008365Y020347D01*
X008365Y020426D02*
X012365Y020426D01*
X012365Y020504D02*
X008365Y020504D01*
X008365Y020583D02*
X012365Y020583D01*
X012390Y020661D02*
X008361Y020661D01*
X008328Y020740D02*
X012423Y020740D01*
X012460Y020818D02*
X008296Y020818D01*
X008263Y020897D02*
X012539Y020897D01*
X012625Y020975D02*
X008220Y020975D01*
X008141Y021054D02*
X012814Y021054D01*
X013055Y021054D02*
X013814Y021054D01*
X013625Y020975D02*
X013245Y020975D01*
X013331Y020897D02*
X013539Y020897D01*
X013460Y020818D02*
X013409Y020818D01*
X013935Y020487D02*
X013935Y020387D01*
X014409Y020818D02*
X014460Y020818D01*
X014539Y020897D02*
X014331Y020897D01*
X014245Y020975D02*
X014625Y020975D01*
X014814Y021054D02*
X014055Y021054D01*
X015055Y021054D02*
X015814Y021054D01*
X015625Y020975D02*
X015245Y020975D01*
X015331Y020897D02*
X015539Y020897D01*
X015460Y020818D02*
X015409Y020818D01*
X016055Y021054D02*
X016814Y021054D01*
X016625Y020975D02*
X016245Y020975D01*
X016331Y020897D02*
X016539Y020897D01*
X016460Y020818D02*
X016409Y020818D01*
X017055Y021054D02*
X017479Y021054D01*
X017400Y020975D02*
X017245Y020975D01*
X017331Y020897D02*
X017365Y020897D01*
X018390Y021054D02*
X018762Y021054D01*
X018684Y020975D02*
X018469Y020975D01*
X018505Y020897D02*
X018605Y020897D01*
X018559Y020818D02*
X018505Y020818D01*
X018505Y020740D02*
X018545Y020740D01*
X018545Y020661D02*
X018505Y020661D01*
X018505Y020583D02*
X018545Y020583D01*
X018545Y020504D02*
X018505Y020504D01*
X018505Y020426D02*
X018545Y020426D01*
X018545Y020347D02*
X018505Y020347D01*
X018505Y020269D02*
X018545Y020269D01*
X018545Y020190D02*
X018505Y020190D01*
X018505Y020112D02*
X018545Y020112D01*
X018545Y020033D02*
X018504Y020033D01*
X018545Y019955D02*
X018426Y019955D01*
X018571Y019876D02*
X017785Y019876D01*
X017785Y019798D02*
X018634Y019798D01*
X018649Y019783D02*
X018649Y019783D01*
X018713Y019719D02*
X017785Y019719D01*
X017785Y019641D02*
X018791Y019641D01*
X018795Y019562D02*
X017785Y019562D01*
X017785Y019484D02*
X018795Y019484D01*
X018795Y019405D02*
X017785Y019405D01*
X017785Y019327D02*
X018795Y019327D01*
X018795Y019248D02*
X017785Y019248D01*
X017785Y019170D02*
X018795Y019170D01*
X018795Y019091D02*
X017785Y019091D01*
X017785Y019013D02*
X018795Y019013D01*
X018795Y018934D02*
X017785Y018934D01*
X017785Y018856D02*
X018795Y018856D01*
X018795Y018777D02*
X017785Y018777D01*
X017785Y018699D02*
X018795Y018699D01*
X018795Y018620D02*
X017785Y018620D01*
X017785Y018542D02*
X018795Y018542D01*
X018795Y018463D02*
X017785Y018463D01*
X017785Y018385D02*
X018795Y018385D01*
X018795Y018306D02*
X017785Y018306D01*
X017785Y018228D02*
X018795Y018228D01*
X018795Y018149D02*
X017785Y018149D01*
X017785Y018071D02*
X018795Y018071D01*
X018795Y017992D02*
X017785Y017992D01*
X017785Y017914D02*
X018795Y017914D01*
X018795Y017835D02*
X017785Y017835D01*
X017785Y017757D02*
X018795Y017757D01*
X018795Y017678D02*
X017781Y017678D01*
X017749Y017600D02*
X018795Y017600D01*
X018795Y017521D02*
X017673Y017521D01*
X017594Y017443D02*
X018795Y017443D01*
X018795Y017364D02*
X017535Y017364D01*
X017535Y017286D02*
X018795Y017286D01*
X018795Y017207D02*
X017535Y017207D01*
X017535Y017129D02*
X018795Y017129D01*
X018795Y017050D02*
X017535Y017050D01*
X017535Y016972D02*
X018795Y016972D01*
X018814Y016893D02*
X017535Y016893D01*
X017535Y016815D02*
X018867Y016815D01*
X018899Y016783D02*
X018899Y016783D01*
X018946Y016736D02*
X017535Y016736D01*
X017535Y016658D02*
X019024Y016658D01*
X019103Y016579D02*
X017535Y016579D01*
X017535Y016501D02*
X019181Y016501D01*
X019260Y016422D02*
X017535Y016422D01*
X017535Y016344D02*
X019338Y016344D01*
X019417Y016265D02*
X017535Y016265D01*
X017535Y016187D02*
X019495Y016187D01*
X019574Y016108D02*
X017535Y016108D01*
X017535Y016030D02*
X019652Y016030D01*
X019731Y015951D02*
X017535Y015951D01*
X017535Y015873D02*
X019809Y015873D01*
X019888Y015794D02*
X017535Y015794D01*
X017535Y015716D02*
X019966Y015716D01*
X020045Y015637D02*
X017535Y015637D01*
X017535Y015559D02*
X020123Y015559D01*
X020202Y015480D02*
X017535Y015480D01*
X017535Y015402D02*
X020280Y015402D01*
X020331Y015351D02*
X020331Y015351D01*
X020359Y015323D02*
X017535Y015323D01*
X017535Y015245D02*
X022241Y015245D01*
X022320Y015166D02*
X022459Y015108D01*
X022610Y015108D01*
X022749Y015166D01*
X022828Y015245D02*
X024785Y015245D01*
X024785Y015323D02*
X022877Y015323D01*
X022909Y015402D02*
X024785Y015402D01*
X024785Y015480D02*
X022913Y015480D01*
X022913Y015559D02*
X024785Y015559D01*
X024781Y015637D02*
X022882Y015637D01*
X022841Y015716D02*
X024702Y015716D01*
X024624Y015794D02*
X022762Y015794D01*
X022535Y015487D02*
X020535Y015487D01*
X019035Y016987D01*
X019035Y019737D01*
X018785Y019987D01*
X018785Y020737D01*
X019195Y021147D01*
X020095Y021147D01*
X020535Y020707D01*
X020535Y020487D01*
X020740Y019955D02*
X021329Y019955D01*
X021421Y019917D02*
X021535Y019917D01*
X021535Y019687D01*
X021573Y019595D01*
X021785Y019383D01*
X021785Y016902D01*
X021714Y016831D01*
X021656Y016692D01*
X021656Y016541D01*
X021679Y016487D01*
X020920Y016487D01*
X020849Y016557D01*
X020710Y016615D01*
X020559Y016615D01*
X020420Y016557D01*
X020314Y016451D01*
X020256Y016312D01*
X020256Y016161D01*
X020296Y016064D01*
X019275Y017086D01*
X019275Y017211D01*
X019320Y017166D01*
X019459Y017108D01*
X019610Y017108D01*
X019749Y017166D01*
X019830Y017247D01*
X020989Y017247D01*
X021070Y017166D01*
X021209Y017108D01*
X021360Y017108D01*
X021499Y017166D01*
X021605Y017272D01*
X021663Y017411D01*
X021663Y017562D01*
X021605Y017701D01*
X021499Y017807D01*
X021360Y017865D01*
X021209Y017865D01*
X021070Y017807D01*
X020989Y017727D01*
X019830Y017727D01*
X019785Y017772D01*
X019785Y019973D01*
X019858Y020003D01*
X020018Y020164D01*
X020035Y020204D01*
X020051Y020164D01*
X020212Y020003D01*
X020421Y019917D01*
X020648Y019917D01*
X020858Y020003D01*
X021018Y020164D01*
X021035Y020204D01*
X021051Y020164D01*
X021212Y020003D01*
X021421Y019917D01*
X021535Y019876D02*
X019785Y019876D01*
X019785Y019798D02*
X021535Y019798D01*
X021535Y019719D02*
X019785Y019719D01*
X019785Y019641D02*
X021554Y019641D01*
X021606Y019562D02*
X019785Y019562D01*
X019785Y019484D02*
X021684Y019484D01*
X021763Y019405D02*
X019785Y019405D01*
X019785Y019327D02*
X021785Y019327D01*
X021785Y019248D02*
X019785Y019248D01*
X019785Y019170D02*
X021785Y019170D01*
X021785Y019091D02*
X019785Y019091D01*
X019785Y019013D02*
X021785Y019013D01*
X021785Y018934D02*
X019785Y018934D01*
X019785Y018856D02*
X021785Y018856D01*
X021785Y018777D02*
X019785Y018777D01*
X019785Y018699D02*
X021785Y018699D01*
X021785Y018620D02*
X019785Y018620D01*
X019785Y018542D02*
X021785Y018542D01*
X021785Y018463D02*
X019785Y018463D01*
X019785Y018385D02*
X021785Y018385D01*
X021785Y018306D02*
X019785Y018306D01*
X019785Y018228D02*
X021785Y018228D01*
X021785Y018149D02*
X019785Y018149D01*
X019785Y018071D02*
X021785Y018071D01*
X021785Y017992D02*
X019785Y017992D01*
X019785Y017914D02*
X021785Y017914D01*
X021785Y017835D02*
X021432Y017835D01*
X021550Y017757D02*
X021785Y017757D01*
X021785Y017678D02*
X021615Y017678D01*
X021647Y017600D02*
X021785Y017600D01*
X021785Y017521D02*
X021663Y017521D01*
X021663Y017443D02*
X021785Y017443D01*
X021785Y017364D02*
X021644Y017364D01*
X021611Y017286D02*
X021785Y017286D01*
X021785Y017207D02*
X021540Y017207D01*
X021409Y017129D02*
X021785Y017129D01*
X021785Y017050D02*
X019311Y017050D01*
X019275Y017129D02*
X019410Y017129D01*
X019279Y017207D02*
X019275Y017207D01*
X019389Y016972D02*
X021785Y016972D01*
X021776Y016893D02*
X019468Y016893D01*
X019546Y016815D02*
X021707Y016815D01*
X021675Y016736D02*
X019625Y016736D01*
X019703Y016658D02*
X021656Y016658D01*
X021656Y016579D02*
X020797Y016579D01*
X020906Y016501D02*
X021673Y016501D01*
X021160Y017129D02*
X019659Y017129D01*
X019790Y017207D02*
X021029Y017207D01*
X021285Y017487D02*
X019535Y017487D01*
X019800Y017757D02*
X021020Y017757D01*
X021137Y017835D02*
X019785Y017835D01*
X019782Y016579D02*
X020473Y016579D01*
X020364Y016501D02*
X019860Y016501D01*
X019939Y016422D02*
X020302Y016422D01*
X020269Y016344D02*
X020017Y016344D01*
X020096Y016265D02*
X020256Y016265D01*
X020256Y016187D02*
X020174Y016187D01*
X020253Y016108D02*
X020278Y016108D01*
X020488Y015873D02*
X020524Y015873D01*
X020567Y015794D02*
X022307Y015794D01*
X022681Y016030D02*
X024535Y016030D01*
X024535Y016108D02*
X022760Y016108D01*
X022838Y016187D02*
X024535Y016187D01*
X024535Y016265D02*
X022917Y016265D01*
X022995Y016344D02*
X024535Y016344D01*
X024535Y016422D02*
X023074Y016422D01*
X023152Y016501D02*
X024535Y016501D01*
X024535Y016579D02*
X023231Y016579D01*
X023273Y016658D02*
X024535Y016658D01*
X024535Y016736D02*
X023285Y016736D01*
X023285Y016815D02*
X024535Y016815D01*
X024535Y016893D02*
X023285Y016893D01*
X023285Y016972D02*
X024535Y016972D01*
X024535Y017050D02*
X023285Y017050D01*
X023285Y017129D02*
X024535Y017129D01*
X024535Y017207D02*
X023285Y017207D01*
X023285Y017286D02*
X024535Y017286D01*
X024535Y017364D02*
X023285Y017364D01*
X023285Y017443D02*
X024535Y017443D01*
X024535Y017521D02*
X023285Y017521D01*
X023285Y017600D02*
X024535Y017600D01*
X024535Y017678D02*
X023285Y017678D01*
X023285Y017757D02*
X024535Y017757D01*
X024535Y017835D02*
X023285Y017835D01*
X023285Y017914D02*
X024535Y017914D01*
X024535Y017992D02*
X023285Y017992D01*
X023285Y018071D02*
X024549Y018071D01*
X024594Y018149D02*
X023285Y018149D01*
X023285Y018228D02*
X024672Y018228D01*
X024751Y018306D02*
X023285Y018306D01*
X023285Y018385D02*
X024785Y018385D01*
X024785Y018463D02*
X023285Y018463D01*
X023285Y018542D02*
X024785Y018542D01*
X024785Y018620D02*
X023285Y018620D01*
X023285Y018699D02*
X024785Y018699D01*
X024785Y018777D02*
X023285Y018777D01*
X023285Y018856D02*
X024785Y018856D01*
X024785Y018934D02*
X023285Y018934D01*
X023285Y019013D02*
X024785Y019013D01*
X024785Y019091D02*
X023285Y019091D01*
X023285Y019170D02*
X024785Y019170D01*
X024785Y019248D02*
X023285Y019248D01*
X023285Y019327D02*
X024785Y019327D01*
X024763Y019405D02*
X023307Y019405D01*
X023385Y019484D02*
X024684Y019484D01*
X024606Y019562D02*
X023464Y019562D01*
X023542Y019641D02*
X024554Y019641D01*
X024535Y019719D02*
X023621Y019719D01*
X023699Y019798D02*
X024535Y019798D01*
X024535Y019876D02*
X023759Y019876D01*
X023785Y019955D02*
X024329Y019955D01*
X024182Y020033D02*
X023887Y020033D01*
X023966Y020112D02*
X024103Y020112D01*
X024040Y020190D02*
X024029Y020190D01*
X021182Y020033D02*
X020887Y020033D01*
X020966Y020112D02*
X021103Y020112D01*
X021040Y020190D02*
X021029Y020190D01*
X020329Y019955D02*
X019785Y019955D01*
X019887Y020033D02*
X020182Y020033D01*
X020103Y020112D02*
X019966Y020112D01*
X020029Y020190D02*
X020040Y020190D01*
X018841Y021132D02*
X008063Y021132D01*
X007955Y021211D02*
X018919Y021211D01*
X015405Y017463D02*
X015405Y017456D01*
X015405Y017357D01*
X015443Y017265D01*
X015535Y017173D01*
X015535Y013590D01*
X015393Y013449D01*
X015323Y013378D01*
X015285Y013286D01*
X015285Y009590D01*
X014905Y009210D01*
X014905Y010146D01*
X014867Y010238D01*
X014785Y010320D01*
X014785Y014883D01*
X014926Y015025D01*
X014926Y015025D01*
X014997Y015095D01*
X015035Y015187D01*
X015035Y015633D01*
X015286Y015885D01*
X015286Y015885D01*
X015357Y015955D01*
X015395Y016047D01*
X015395Y017453D01*
X015405Y017463D01*
X015405Y017443D02*
X015395Y017443D01*
X015395Y017364D02*
X015405Y017364D01*
X015395Y017286D02*
X015434Y017286D01*
X015395Y017207D02*
X015501Y017207D01*
X015535Y017129D02*
X015395Y017129D01*
X015395Y017050D02*
X015535Y017050D01*
X015535Y016972D02*
X015395Y016972D01*
X015395Y016893D02*
X015535Y016893D01*
X015535Y016815D02*
X015395Y016815D01*
X015395Y016736D02*
X015535Y016736D01*
X015535Y016658D02*
X015395Y016658D01*
X015395Y016579D02*
X015535Y016579D01*
X015535Y016501D02*
X015395Y016501D01*
X015395Y016422D02*
X015535Y016422D01*
X015535Y016344D02*
X015395Y016344D01*
X015395Y016265D02*
X015535Y016265D01*
X015535Y016187D02*
X015395Y016187D01*
X015395Y016108D02*
X015535Y016108D01*
X015535Y016030D02*
X015388Y016030D01*
X015353Y015951D02*
X015535Y015951D01*
X015535Y015873D02*
X015274Y015873D01*
X015196Y015794D02*
X015535Y015794D01*
X015535Y015716D02*
X015117Y015716D01*
X015039Y015637D02*
X015535Y015637D01*
X015535Y015559D02*
X015035Y015559D01*
X015035Y015480D02*
X015535Y015480D01*
X015535Y015402D02*
X015035Y015402D01*
X015035Y015323D02*
X015535Y015323D01*
X015535Y015245D02*
X015035Y015245D01*
X015026Y015166D02*
X015535Y015166D01*
X015535Y015088D02*
X014989Y015088D01*
X014911Y015009D02*
X015535Y015009D01*
X015535Y014931D02*
X014832Y014931D01*
X014785Y014852D02*
X015535Y014852D01*
X015535Y014774D02*
X014785Y014774D01*
X014785Y014695D02*
X015535Y014695D01*
X015535Y014617D02*
X014785Y014617D01*
X014785Y014538D02*
X015535Y014538D01*
X015535Y014460D02*
X014785Y014460D01*
X014785Y014381D02*
X015535Y014381D01*
X015535Y014303D02*
X014785Y014303D01*
X014785Y014224D02*
X015535Y014224D01*
X015535Y014146D02*
X014785Y014146D01*
X014785Y014067D02*
X015535Y014067D01*
X015535Y013989D02*
X014785Y013989D01*
X014785Y013910D02*
X015535Y013910D01*
X015535Y013832D02*
X014785Y013832D01*
X014785Y013753D02*
X015535Y013753D01*
X015535Y013675D02*
X014785Y013675D01*
X014785Y013596D02*
X015535Y013596D01*
X015462Y013518D02*
X014785Y013518D01*
X014785Y013439D02*
X015384Y013439D01*
X015315Y013361D02*
X014785Y013361D01*
X014785Y013282D02*
X015285Y013282D01*
X015285Y013204D02*
X014785Y013204D01*
X014785Y013125D02*
X015285Y013125D01*
X015285Y013047D02*
X014785Y013047D01*
X014785Y012968D02*
X015285Y012968D01*
X015285Y012890D02*
X014785Y012890D01*
X014785Y012811D02*
X015285Y012811D01*
X015285Y012733D02*
X014785Y012733D01*
X014785Y012654D02*
X015285Y012654D01*
X015285Y012576D02*
X014785Y012576D01*
X014785Y012497D02*
X015285Y012497D01*
X015285Y012419D02*
X014785Y012419D01*
X014785Y012340D02*
X015285Y012340D01*
X015285Y012262D02*
X014785Y012262D01*
X014785Y012183D02*
X015285Y012183D01*
X015285Y012105D02*
X014785Y012105D01*
X014785Y012026D02*
X015285Y012026D01*
X015285Y011948D02*
X014785Y011948D01*
X014785Y011869D02*
X015285Y011869D01*
X015285Y011791D02*
X014785Y011791D01*
X014785Y011712D02*
X015285Y011712D01*
X015285Y011634D02*
X014785Y011634D01*
X014785Y011555D02*
X015285Y011555D01*
X015285Y011477D02*
X014785Y011477D01*
X014785Y011398D02*
X015285Y011398D01*
X015285Y011320D02*
X014785Y011320D01*
X014785Y011241D02*
X015285Y011241D01*
X015285Y011163D02*
X014785Y011163D01*
X014785Y011084D02*
X015285Y011084D01*
X015285Y011006D02*
X014785Y011006D01*
X014785Y010927D02*
X015285Y010927D01*
X015285Y010849D02*
X014785Y010849D01*
X014785Y010770D02*
X015285Y010770D01*
X015285Y010692D02*
X014785Y010692D01*
X014785Y010613D02*
X015285Y010613D01*
X015285Y010535D02*
X014785Y010535D01*
X014785Y010456D02*
X015285Y010456D01*
X015285Y010378D02*
X014785Y010378D01*
X014806Y010299D02*
X015285Y010299D01*
X015285Y010221D02*
X014874Y010221D01*
X014905Y010142D02*
X015285Y010142D01*
X015285Y010064D02*
X014905Y010064D01*
X014905Y009985D02*
X015285Y009985D01*
X015285Y009907D02*
X014905Y009907D01*
X014905Y009828D02*
X015285Y009828D01*
X015285Y009750D02*
X014905Y009750D01*
X014905Y009671D02*
X015285Y009671D01*
X015285Y009593D02*
X014905Y009593D01*
X014905Y009514D02*
X015209Y009514D01*
X015130Y009436D02*
X014905Y009436D01*
X014905Y009357D02*
X015052Y009357D01*
X014973Y009279D02*
X014905Y009279D01*
X015288Y008886D02*
X015535Y008886D01*
X015535Y008808D02*
X015285Y008808D01*
X015285Y008729D02*
X015535Y008729D01*
X015550Y008651D02*
X015285Y008651D01*
X015303Y008572D02*
X015596Y008572D01*
X015674Y008494D02*
X015381Y008494D01*
X015460Y008415D02*
X015753Y008415D01*
X015785Y008337D02*
X015538Y008337D01*
X015617Y008258D02*
X015785Y008258D01*
X015785Y008180D02*
X015695Y008180D01*
X015758Y008101D02*
X015785Y008101D01*
X015785Y008023D02*
X015785Y008023D01*
X015785Y007944D02*
X015785Y007944D01*
X015785Y007866D02*
X015785Y007866D01*
X015785Y007787D02*
X015785Y007787D01*
X015785Y007709D02*
X015785Y007709D01*
X015785Y007630D02*
X015761Y007630D01*
X015785Y007552D02*
X015703Y007552D01*
X015663Y007473D02*
X015785Y007473D01*
X015802Y007395D02*
X015656Y007395D01*
X015624Y007316D02*
X015852Y007316D01*
X015906Y007238D02*
X015571Y007238D01*
X015483Y007159D02*
X015907Y007159D01*
X015940Y007081D02*
X013285Y007081D01*
X013285Y007159D02*
X015086Y007159D01*
X014998Y007238D02*
X013285Y007238D01*
X013285Y007316D02*
X014946Y007316D01*
X014913Y007395D02*
X013285Y007395D01*
X013285Y007473D02*
X014906Y007473D01*
X014906Y007552D02*
X013285Y007552D01*
X013285Y007630D02*
X014906Y007630D01*
X014777Y007709D02*
X013285Y007709D01*
X013285Y007787D02*
X014708Y007787D01*
X014675Y007866D02*
X013285Y007866D01*
X013285Y007944D02*
X014656Y007944D01*
X014645Y008023D02*
X013285Y008023D01*
X013285Y008101D02*
X014570Y008101D01*
X014538Y008180D02*
X013285Y008180D01*
X013285Y008258D02*
X014535Y008258D01*
X014535Y008337D02*
X013285Y008337D01*
X013285Y008415D02*
X014503Y008415D01*
X014435Y008494D02*
X013285Y008494D01*
X013285Y008572D02*
X014405Y008572D01*
X014405Y008651D02*
X013285Y008651D01*
X013285Y008729D02*
X014405Y008729D01*
X014405Y008808D02*
X013285Y008808D01*
X013285Y008886D02*
X014142Y008886D01*
X014021Y008965D02*
X013285Y008965D01*
X013285Y009043D02*
X013955Y009043D01*
X013923Y009122D02*
X013285Y009122D01*
X013285Y009200D02*
X013906Y009200D01*
X013906Y009279D02*
X013285Y009279D01*
X013285Y009357D02*
X013925Y009357D01*
X013800Y009436D02*
X013285Y009436D01*
X013285Y009514D02*
X013722Y009514D01*
X013685Y009593D02*
X013285Y009593D01*
X013285Y009671D02*
X013315Y009671D01*
X012785Y009671D02*
X012785Y009671D01*
X012785Y009593D02*
X012785Y009593D01*
X012785Y009514D02*
X012785Y009514D01*
X012785Y009436D02*
X012785Y009436D01*
X012785Y009357D02*
X012785Y009357D01*
X012785Y009279D02*
X012785Y009279D01*
X012785Y009200D02*
X012785Y009200D01*
X012785Y009122D02*
X012785Y009122D01*
X012785Y009043D02*
X012785Y009043D01*
X012785Y008965D02*
X012785Y008965D01*
X012785Y008886D02*
X012785Y008886D01*
X012785Y008808D02*
X012785Y008808D01*
X012785Y008729D02*
X012785Y008729D01*
X012785Y008651D02*
X012785Y008651D01*
X012785Y008572D02*
X012785Y008572D01*
X012785Y008494D02*
X012785Y008494D01*
X012785Y008415D02*
X012785Y008415D01*
X012785Y008337D02*
X012785Y008337D01*
X012785Y008258D02*
X012785Y008258D01*
X012785Y008180D02*
X012785Y008180D01*
X012785Y008101D02*
X012785Y008101D01*
X012785Y008023D02*
X012785Y008023D01*
X012785Y007944D02*
X012785Y007944D01*
X012785Y007866D02*
X012785Y007866D01*
X012785Y007787D02*
X012785Y007787D01*
X012785Y007709D02*
X012785Y007709D01*
X012785Y007630D02*
X012785Y007630D01*
X012785Y007552D02*
X012785Y007552D01*
X012785Y007473D02*
X012785Y007473D01*
X012785Y007395D02*
X012785Y007395D01*
X012785Y007316D02*
X012785Y007316D01*
X012785Y007238D02*
X012785Y007238D01*
X012785Y007159D02*
X012785Y007159D01*
X012785Y007081D02*
X012785Y007081D01*
X012785Y007002D02*
X012785Y007002D01*
X012785Y006924D02*
X012785Y006924D01*
X012785Y006845D02*
X012785Y006845D01*
X012785Y006767D02*
X012785Y006767D01*
X012785Y006688D02*
X012785Y006688D01*
X012785Y006610D02*
X012785Y006610D01*
X012785Y006531D02*
X012785Y006531D01*
X012785Y006453D02*
X012785Y006453D01*
X012785Y006374D02*
X012785Y006374D01*
X012785Y006296D02*
X012785Y006296D01*
X012785Y006217D02*
X012785Y006217D01*
X012785Y006139D02*
X012805Y006139D01*
X012785Y006060D02*
X012858Y006060D01*
X012785Y005982D02*
X012936Y005982D01*
X013015Y005903D02*
X012785Y005903D01*
X012800Y005825D02*
X013093Y005825D01*
X013212Y005746D02*
X012879Y005746D01*
X013329Y006296D02*
X022125Y006296D01*
X022125Y006374D02*
X013285Y006374D01*
X013285Y006453D02*
X022125Y006453D01*
X022125Y006531D02*
X013285Y006531D01*
X013285Y006610D02*
X022125Y006610D01*
X022125Y006688D02*
X013285Y006688D01*
X013285Y006767D02*
X022125Y006767D01*
X022125Y006845D02*
X013285Y006845D01*
X013285Y006924D02*
X016062Y006924D01*
X015984Y007002D02*
X013285Y007002D01*
X013881Y006217D02*
X022125Y006217D01*
X022125Y006139D02*
X013986Y006139D01*
X014065Y006060D02*
X022125Y006060D01*
X022090Y005982D02*
X014143Y005982D01*
X014222Y005903D02*
X022052Y005903D01*
X022045Y005825D02*
X014300Y005825D01*
X014379Y005746D02*
X022045Y005746D01*
X022045Y005668D02*
X014457Y005668D01*
X014536Y005589D02*
X022045Y005589D01*
X022045Y005511D02*
X014614Y005511D01*
X014693Y005432D02*
X022045Y005432D01*
X022045Y005354D02*
X014771Y005354D01*
X014850Y005275D02*
X022038Y005275D01*
X021962Y005197D02*
X014928Y005197D01*
X015007Y005118D02*
X021930Y005118D01*
X021906Y005040D02*
X015085Y005040D01*
X015164Y004961D02*
X021906Y004961D01*
X021918Y004883D02*
X015242Y004883D01*
X015502Y004804D02*
X021951Y004804D01*
X022010Y004726D02*
X015581Y004726D01*
X015628Y004647D02*
X022115Y004647D01*
X022263Y004569D02*
X015660Y004569D01*
X015663Y004490D02*
X022185Y004490D01*
X022106Y004412D02*
X015663Y004412D01*
X015631Y004333D02*
X022028Y004333D01*
X021949Y004255D02*
X015588Y004255D01*
X014906Y004490D02*
X014885Y004490D01*
X014849Y004569D02*
X014806Y004569D01*
X014771Y004647D02*
X014728Y004647D01*
X014692Y004726D02*
X014649Y004726D01*
X014614Y004804D02*
X014571Y004804D01*
X014535Y004883D02*
X014492Y004883D01*
X014457Y004961D02*
X014414Y004961D01*
X014378Y005040D02*
X014335Y005040D01*
X014300Y005118D02*
X014257Y005118D01*
X014221Y005197D02*
X014178Y005197D01*
X014143Y005275D02*
X014100Y005275D01*
X014064Y005354D02*
X014021Y005354D01*
X013986Y005432D02*
X013943Y005432D01*
X013907Y005511D02*
X013864Y005511D01*
X013829Y005589D02*
X013786Y005589D01*
X013750Y005668D02*
X013707Y005668D01*
X012992Y004176D02*
X007028Y004176D01*
X007104Y004098D02*
X013070Y004098D01*
X013149Y004019D02*
X007136Y004019D01*
X007169Y003941D02*
X013227Y003941D01*
X013306Y003862D02*
X007201Y003862D01*
X007234Y003784D02*
X013384Y003784D01*
X013463Y003705D02*
X007240Y003705D01*
X007240Y003627D02*
X013541Y003627D01*
X013620Y003548D02*
X007240Y003548D01*
X007240Y003470D02*
X013698Y003470D01*
X013777Y003391D02*
X007234Y003391D01*
X007202Y003313D02*
X013855Y003313D01*
X013934Y003234D02*
X007169Y003234D01*
X007137Y003156D02*
X014012Y003156D01*
X014091Y003077D02*
X007104Y003077D01*
X007030Y002999D02*
X014169Y002999D01*
X014248Y002920D02*
X006951Y002920D01*
X006873Y002842D02*
X014285Y002842D01*
X014285Y002763D02*
X006723Y002763D01*
X006533Y002685D02*
X014285Y002685D01*
X014785Y002685D02*
X015078Y002685D01*
X015156Y002606D02*
X014785Y002606D01*
X014785Y002528D02*
X015235Y002528D01*
X015313Y002449D02*
X014785Y002449D01*
X014785Y002371D02*
X018642Y002371D01*
X018720Y002292D02*
X014785Y002292D01*
X014785Y002214D02*
X018799Y002214D01*
X018877Y002135D02*
X014785Y002135D01*
X014785Y002057D02*
X018956Y002057D01*
X019034Y001978D02*
X016838Y001978D01*
X016928Y001900D02*
X019113Y001900D01*
X019063Y001821D02*
X017006Y001821D01*
X017046Y001743D02*
X019024Y001743D01*
X018991Y001664D02*
X017078Y001664D01*
X017105Y001586D02*
X018965Y001586D01*
X018965Y001507D02*
X017105Y001507D01*
X017105Y001429D02*
X018965Y001429D01*
X018974Y001350D02*
X017095Y001350D01*
X017063Y001272D02*
X019007Y001272D01*
X019039Y001193D02*
X017030Y001193D01*
X016969Y001115D02*
X019101Y001115D01*
X019179Y001036D02*
X016890Y001036D01*
X016747Y000958D02*
X019322Y000958D01*
X019747Y000958D02*
X021322Y000958D01*
X021179Y001036D02*
X019890Y001036D01*
X019969Y001115D02*
X021101Y001115D01*
X021039Y001193D02*
X020030Y001193D01*
X020063Y001272D02*
X021007Y001272D01*
X020974Y001350D02*
X020095Y001350D01*
X020105Y001429D02*
X020965Y001429D01*
X020965Y001507D02*
X020105Y001507D01*
X020105Y001586D02*
X020965Y001586D01*
X020991Y001664D02*
X020078Y001664D01*
X020046Y001743D02*
X021024Y001743D01*
X021063Y001821D02*
X020006Y001821D01*
X019928Y001900D02*
X021142Y001900D01*
X021232Y001978D02*
X019895Y001978D01*
X019895Y002057D02*
X022361Y002057D01*
X022283Y002135D02*
X019863Y002135D01*
X019817Y002214D02*
X022204Y002214D01*
X022232Y001978D02*
X021838Y001978D01*
X021928Y001900D02*
X022142Y001900D01*
X022063Y001821D02*
X022006Y001821D01*
X022030Y001193D02*
X022039Y001193D01*
X022101Y001115D02*
X021969Y001115D01*
X021890Y001036D02*
X022179Y001036D01*
X022322Y000958D02*
X021747Y000958D01*
X022747Y000958D02*
X023322Y000958D01*
X023179Y001036D02*
X022890Y001036D01*
X022969Y001115D02*
X023101Y001115D01*
X023039Y001193D02*
X023030Y001193D01*
X023747Y000958D02*
X024322Y000958D01*
X024179Y001036D02*
X023890Y001036D01*
X023969Y001115D02*
X024101Y001115D01*
X024039Y001193D02*
X024030Y001193D01*
X024747Y000958D02*
X025322Y000958D01*
X025179Y001036D02*
X024890Y001036D01*
X024969Y001115D02*
X025101Y001115D01*
X025039Y001193D02*
X025030Y001193D01*
X025858Y001970D02*
X026018Y001810D01*
X026035Y001769D01*
X026051Y001810D01*
X026205Y001963D01*
X025681Y002487D01*
X023735Y002487D01*
X023643Y002525D01*
X023393Y002775D01*
X023393Y002775D01*
X023323Y002845D01*
X023285Y002937D01*
X023285Y004671D01*
X023283Y004670D01*
X023228Y004566D01*
X023228Y004566D01*
X023228Y004566D01*
X023173Y004522D01*
X022926Y004275D01*
X022834Y004237D01*
X022638Y004237D01*
X022176Y003775D01*
X022084Y003737D01*
X017820Y003737D01*
X017820Y003737D01*
X019084Y003737D01*
X019176Y003699D01*
X019247Y003628D01*
X019247Y003628D01*
X020138Y002737D01*
X022334Y002737D01*
X022426Y002699D01*
X022497Y002628D01*
X022638Y002487D01*
X025334Y002487D01*
X025426Y002449D01*
X025497Y002378D01*
X025747Y002128D01*
X025785Y002036D01*
X025785Y002000D01*
X025858Y001970D01*
X025838Y001978D02*
X026190Y001978D01*
X026142Y001900D02*
X025928Y001900D01*
X026006Y001821D02*
X026063Y001821D01*
X026111Y002057D02*
X025776Y002057D01*
X025740Y002135D02*
X026033Y002135D01*
X025954Y002214D02*
X025661Y002214D01*
X025583Y002292D02*
X025876Y002292D01*
X025797Y002371D02*
X025504Y002371D01*
X025425Y002449D02*
X025719Y002449D01*
X026112Y002763D02*
X026335Y002763D01*
X026335Y002685D02*
X026190Y002685D01*
X026269Y002606D02*
X026335Y002606D01*
X026335Y002540D02*
X025997Y002878D01*
X025997Y002878D01*
X025926Y002949D01*
X025834Y002987D01*
X023888Y002987D01*
X023785Y003090D01*
X023785Y005536D01*
X023747Y005628D01*
X023285Y006090D01*
X023285Y007536D01*
X023275Y007561D01*
X023275Y008134D01*
X023238Y008223D01*
X023171Y008290D01*
X023125Y008336D01*
X023125Y008694D01*
X023088Y008783D01*
X023021Y008850D01*
X022741Y009130D01*
X022652Y009167D01*
X022475Y009167D01*
X022475Y009987D01*
X022518Y010031D01*
X022555Y010119D01*
X022555Y010127D01*
X023312Y010127D01*
X023401Y010163D01*
X023468Y010231D01*
X023668Y010431D01*
X023705Y010519D01*
X023705Y010914D01*
X023668Y011003D01*
X023601Y011070D01*
X023496Y011174D01*
X023553Y011311D01*
X023553Y011462D01*
X023543Y011487D01*
X024334Y011487D01*
X024426Y011525D01*
X024497Y011595D01*
X024747Y011845D01*
X024785Y011937D01*
X024785Y013133D01*
X025247Y013595D01*
X025285Y013687D01*
X025285Y015786D01*
X025247Y015878D01*
X025176Y015949D01*
X025035Y016090D01*
X025035Y017451D01*
X025070Y017416D01*
X025209Y017358D01*
X025360Y017358D01*
X025499Y017416D01*
X025605Y017522D01*
X025660Y017653D01*
X025714Y017522D01*
X025820Y017416D01*
X025959Y017358D01*
X026110Y017358D01*
X026249Y017416D01*
X026335Y017501D01*
X026335Y016487D01*
X026334Y016487D01*
X026320Y016487D01*
X026249Y016557D01*
X026110Y016615D01*
X025959Y016615D01*
X025820Y016557D01*
X025714Y016451D01*
X025656Y016312D01*
X025656Y016161D01*
X025714Y016022D01*
X025820Y015916D01*
X025951Y015862D01*
X025820Y015807D01*
X025714Y015701D01*
X025656Y015562D01*
X025656Y015411D01*
X025714Y015272D01*
X025820Y015166D01*
X025285Y015166D01*
X025285Y015088D02*
X026035Y015088D01*
X026035Y015108D02*
X026035Y014187D01*
X026073Y014095D01*
X026335Y013833D01*
X026335Y012921D01*
X026212Y012870D01*
X026051Y012710D01*
X025965Y012500D01*
X025965Y012273D01*
X026051Y012064D01*
X026212Y011903D01*
X026252Y011887D01*
X026212Y011870D01*
X026051Y011710D01*
X025965Y011500D01*
X025965Y011273D01*
X026051Y011064D01*
X026212Y010903D01*
X026335Y010853D01*
X026335Y002540D01*
X026335Y002842D02*
X026033Y002842D01*
X025955Y002920D02*
X026335Y002920D01*
X026335Y002999D02*
X023876Y002999D01*
X023798Y003077D02*
X026335Y003077D01*
X026335Y003156D02*
X023785Y003156D01*
X023785Y003234D02*
X026335Y003234D01*
X026335Y003313D02*
X023785Y003313D01*
X023785Y003391D02*
X026335Y003391D01*
X026335Y003470D02*
X023785Y003470D01*
X023785Y003548D02*
X026335Y003548D01*
X026335Y003627D02*
X023785Y003627D01*
X023785Y003705D02*
X026335Y003705D01*
X026335Y003784D02*
X023785Y003784D01*
X023785Y003862D02*
X026335Y003862D01*
X026335Y003941D02*
X023785Y003941D01*
X023785Y004019D02*
X026335Y004019D01*
X026335Y004098D02*
X023785Y004098D01*
X023785Y004176D02*
X026335Y004176D01*
X026335Y004255D02*
X023785Y004255D01*
X023785Y004333D02*
X026335Y004333D01*
X026335Y004412D02*
X023785Y004412D01*
X023785Y004490D02*
X026335Y004490D01*
X026335Y004569D02*
X023785Y004569D01*
X023785Y004647D02*
X026335Y004647D01*
X026335Y004726D02*
X023785Y004726D01*
X023785Y004804D02*
X026335Y004804D01*
X026335Y004883D02*
X023785Y004883D01*
X023785Y004961D02*
X026335Y004961D01*
X026335Y005040D02*
X023785Y005040D01*
X023785Y005118D02*
X026335Y005118D01*
X026335Y005197D02*
X023785Y005197D01*
X023785Y005275D02*
X026335Y005275D01*
X026335Y005354D02*
X023785Y005354D01*
X023785Y005432D02*
X026335Y005432D01*
X026335Y005511D02*
X023785Y005511D01*
X023763Y005589D02*
X026335Y005589D01*
X026335Y005668D02*
X023707Y005668D01*
X023629Y005746D02*
X026335Y005746D01*
X026335Y005825D02*
X023550Y005825D01*
X023472Y005903D02*
X026335Y005903D01*
X026335Y005982D02*
X023393Y005982D01*
X023315Y006060D02*
X026335Y006060D01*
X026335Y006139D02*
X023285Y006139D01*
X023285Y006217D02*
X026335Y006217D01*
X026335Y006296D02*
X023285Y006296D01*
X023285Y006374D02*
X026335Y006374D01*
X026335Y006453D02*
X023285Y006453D01*
X023285Y006531D02*
X026335Y006531D01*
X026335Y006610D02*
X023285Y006610D01*
X023285Y006688D02*
X026335Y006688D01*
X026335Y006767D02*
X023285Y006767D01*
X023285Y006845D02*
X026335Y006845D01*
X026335Y006924D02*
X023285Y006924D01*
X023285Y007002D02*
X026335Y007002D01*
X026335Y007081D02*
X023285Y007081D01*
X023285Y007159D02*
X026335Y007159D01*
X026335Y007238D02*
X023285Y007238D01*
X023285Y007316D02*
X026335Y007316D01*
X026335Y007395D02*
X023285Y007395D01*
X023285Y007473D02*
X026335Y007473D01*
X026335Y007552D02*
X023278Y007552D01*
X023275Y007630D02*
X026335Y007630D01*
X026335Y007709D02*
X023275Y007709D01*
X023275Y007787D02*
X026335Y007787D01*
X026335Y007866D02*
X023275Y007866D01*
X023275Y007944D02*
X026335Y007944D01*
X026335Y008023D02*
X023275Y008023D01*
X023275Y008101D02*
X026335Y008101D01*
X026335Y008180D02*
X023256Y008180D01*
X023203Y008258D02*
X026335Y008258D01*
X026335Y008337D02*
X023125Y008337D01*
X023125Y008415D02*
X026335Y008415D01*
X026335Y008494D02*
X023125Y008494D01*
X023125Y008572D02*
X026335Y008572D01*
X026335Y008651D02*
X023125Y008651D01*
X023110Y008729D02*
X026335Y008729D01*
X026335Y008808D02*
X023063Y008808D01*
X022985Y008886D02*
X026335Y008886D01*
X026335Y008965D02*
X022906Y008965D01*
X022828Y009043D02*
X026335Y009043D01*
X026335Y009122D02*
X022749Y009122D01*
X022605Y008927D02*
X022345Y008927D01*
X022235Y009037D01*
X022235Y010087D01*
X022315Y010167D01*
X022315Y010287D01*
X022395Y010367D01*
X023265Y010367D01*
X023465Y010567D01*
X023465Y010867D01*
X023285Y011047D01*
X022995Y011047D01*
X022935Y010987D01*
X022795Y010987D01*
X022675Y010867D01*
X022655Y010867D01*
X022535Y010987D01*
X022285Y010987D01*
X022035Y011237D01*
X020035Y011237D01*
X019785Y011487D01*
X019444Y011320D02*
X019292Y011320D01*
X019370Y011398D02*
X019412Y011398D01*
X019495Y011241D02*
X019213Y011241D01*
X019210Y011163D02*
X019578Y011163D01*
X019848Y011084D02*
X019240Y011084D01*
X019240Y011006D02*
X019965Y011006D01*
X019233Y010927D02*
X022005Y010927D01*
X022083Y010849D02*
X019201Y010849D01*
X019149Y010770D02*
X022180Y010770D01*
X022130Y010692D02*
X019060Y010692D01*
X018669Y010692D02*
X016035Y010692D01*
X016035Y010770D02*
X018581Y010770D01*
X018528Y010849D02*
X016035Y010849D01*
X016035Y010927D02*
X016809Y010927D01*
X016730Y011006D02*
X016035Y011006D01*
X016035Y011084D02*
X016688Y011084D01*
X016656Y011163D02*
X016035Y011163D01*
X016035Y011241D02*
X016656Y011241D01*
X016659Y011320D02*
X016035Y011320D01*
X016035Y011398D02*
X016692Y011398D01*
X016740Y011477D02*
X016035Y011477D01*
X016035Y011555D02*
X016818Y011555D01*
X017078Y011634D02*
X016035Y011634D01*
X016035Y011712D02*
X017176Y011712D01*
X017413Y011163D02*
X018519Y011163D01*
X018490Y011084D02*
X017381Y011084D01*
X017339Y011006D02*
X018490Y011006D01*
X018496Y010927D02*
X017260Y010927D01*
X016035Y010613D02*
X022052Y010613D01*
X021973Y010535D02*
X016035Y010535D01*
X016035Y010456D02*
X021910Y010456D01*
X021885Y010378D02*
X019234Y010378D01*
X019327Y010299D02*
X021856Y010299D01*
X021825Y010221D02*
X019382Y010221D01*
X019415Y010142D02*
X021825Y010142D01*
X021825Y010064D02*
X019423Y010064D01*
X019423Y009985D02*
X021825Y009985D01*
X021825Y009907D02*
X019396Y009907D01*
X019361Y009828D02*
X021825Y009828D01*
X021825Y009750D02*
X019283Y009750D01*
X019127Y009671D02*
X021825Y009671D01*
X021825Y009593D02*
X018930Y009593D01*
X018852Y009514D02*
X021825Y009514D01*
X021825Y009436D02*
X018775Y009436D01*
X018775Y009357D02*
X021825Y009357D01*
X021825Y009279D02*
X018775Y009279D01*
X018775Y009200D02*
X021825Y009200D01*
X021825Y009122D02*
X018747Y009122D01*
X018681Y009043D02*
X021825Y009043D01*
X021825Y008965D02*
X018602Y008965D01*
X018524Y008886D02*
X021830Y008886D01*
X021864Y008808D02*
X018445Y008808D01*
X018285Y008987D02*
X018535Y009237D01*
X018535Y009537D01*
X019045Y010047D01*
X018762Y010299D02*
X016035Y010299D01*
X016035Y010221D02*
X018707Y010221D01*
X018675Y010142D02*
X016035Y010142D01*
X016035Y010064D02*
X018666Y010064D01*
X018644Y009985D02*
X016035Y009985D01*
X016035Y009907D02*
X018565Y009907D01*
X018487Y009828D02*
X016035Y009828D01*
X016035Y009750D02*
X018408Y009750D01*
X018331Y009671D02*
X016035Y009671D01*
X016035Y009593D02*
X018298Y009593D01*
X018295Y009514D02*
X016035Y009514D01*
X016277Y009436D02*
X018295Y009436D01*
X018295Y009357D02*
X016409Y009357D01*
X016481Y009279D02*
X018237Y009279D01*
X018285Y008987D02*
X016285Y008987D01*
X016155Y009077D01*
X016305Y008729D02*
X021943Y008729D01*
X022021Y008651D02*
X016224Y008651D01*
X016270Y008572D02*
X022034Y008572D01*
X022001Y008494D02*
X016285Y008494D01*
X016285Y008415D02*
X021932Y008415D01*
X021831Y008337D02*
X016285Y008337D01*
X016285Y008258D02*
X021731Y008258D01*
X021484Y008180D02*
X016285Y008180D01*
X016285Y008101D02*
X021374Y008101D01*
X021312Y008023D02*
X016285Y008023D01*
X016285Y007944D02*
X021280Y007944D01*
X021266Y007866D02*
X016285Y007866D01*
X016285Y007787D02*
X021266Y007787D01*
X021288Y007709D02*
X016285Y007709D01*
X016285Y007630D02*
X021321Y007630D01*
X021394Y007552D02*
X016505Y007552D01*
X016583Y007473D02*
X021533Y007473D01*
X021756Y007473D02*
X022125Y007473D01*
X022125Y007395D02*
X016629Y007395D01*
X016661Y007316D02*
X022125Y007316D01*
X022125Y007238D02*
X016663Y007238D01*
X016662Y007159D02*
X022125Y007159D01*
X022125Y007081D02*
X016630Y007081D01*
X016585Y007002D02*
X022125Y007002D01*
X022125Y006924D02*
X016507Y006924D01*
X015535Y008965D02*
X015366Y008965D01*
X015445Y009043D02*
X015535Y009043D01*
X015523Y009122D02*
X015535Y009122D01*
X016035Y010378D02*
X018855Y010378D01*
X018485Y011791D02*
X016035Y011791D01*
X016035Y011869D02*
X018564Y011869D01*
X018642Y011948D02*
X016035Y011948D01*
X016035Y012026D02*
X018721Y012026D01*
X018799Y012105D02*
X016035Y012105D01*
X016035Y012183D02*
X018878Y012183D01*
X018956Y012262D02*
X016035Y012262D01*
X016035Y012340D02*
X019035Y012340D01*
X019113Y012419D02*
X016035Y012419D01*
X016035Y012497D02*
X024285Y012497D01*
X024285Y012419D02*
X020706Y012419D01*
X020785Y012340D02*
X024285Y012340D01*
X024285Y012262D02*
X020976Y012262D01*
X021103Y012183D02*
X024285Y012183D01*
X024285Y012105D02*
X022520Y012105D01*
X022599Y012026D02*
X024221Y012026D01*
X024614Y011712D02*
X026054Y011712D01*
X026020Y011634D02*
X024535Y011634D01*
X024457Y011555D02*
X025987Y011555D01*
X025965Y011477D02*
X023547Y011477D01*
X023553Y011398D02*
X025965Y011398D01*
X025965Y011320D02*
X023553Y011320D01*
X023524Y011241D02*
X025978Y011241D01*
X026010Y011163D02*
X023508Y011163D01*
X023587Y011084D02*
X026043Y011084D01*
X026110Y011006D02*
X023665Y011006D01*
X023699Y010927D02*
X026188Y010927D01*
X026335Y010849D02*
X023705Y010849D01*
X023705Y010770D02*
X026335Y010770D01*
X026335Y010692D02*
X023705Y010692D01*
X023705Y010613D02*
X026335Y010613D01*
X026335Y010535D02*
X023705Y010535D01*
X023679Y010456D02*
X026335Y010456D01*
X026335Y010378D02*
X023615Y010378D01*
X023537Y010299D02*
X026335Y010299D01*
X026335Y010221D02*
X023458Y010221D01*
X023350Y010142D02*
X026335Y010142D01*
X026335Y010064D02*
X022532Y010064D01*
X022475Y009985D02*
X026335Y009985D01*
X026335Y009907D02*
X022475Y009907D01*
X022475Y009828D02*
X026335Y009828D01*
X026335Y009750D02*
X022475Y009750D01*
X022475Y009671D02*
X026335Y009671D01*
X026335Y009593D02*
X022475Y009593D01*
X022475Y009514D02*
X026335Y009514D01*
X026335Y009436D02*
X022475Y009436D01*
X022475Y009357D02*
X026335Y009357D01*
X026335Y009279D02*
X022475Y009279D01*
X022475Y009200D02*
X026335Y009200D01*
X023035Y008087D02*
X023035Y007487D01*
X022535Y007737D02*
X022365Y007567D01*
X022365Y005917D01*
X022285Y005837D01*
X022285Y004987D01*
X022293Y004599D02*
X022293Y004599D01*
X022578Y004176D02*
X023285Y004176D01*
X023285Y004098D02*
X022499Y004098D01*
X022421Y004019D02*
X023285Y004019D01*
X023285Y003941D02*
X022342Y003941D01*
X022264Y003862D02*
X023285Y003862D01*
X023285Y003784D02*
X022185Y003784D01*
X022878Y004255D02*
X023285Y004255D01*
X023285Y004333D02*
X022985Y004333D01*
X023063Y004412D02*
X023285Y004412D01*
X023285Y004490D02*
X023142Y004490D01*
X023229Y004569D02*
X023285Y004569D01*
X023285Y004647D02*
X023271Y004647D01*
X023285Y003705D02*
X019160Y003705D01*
X019248Y003627D02*
X023285Y003627D01*
X023285Y003548D02*
X019327Y003548D01*
X019405Y003470D02*
X023285Y003470D01*
X023285Y003391D02*
X019484Y003391D01*
X019562Y003313D02*
X023285Y003313D01*
X023285Y003234D02*
X019641Y003234D01*
X019719Y003156D02*
X023285Y003156D01*
X023285Y003077D02*
X019798Y003077D01*
X019876Y002999D02*
X023285Y002999D01*
X023292Y002920D02*
X019955Y002920D01*
X020033Y002842D02*
X023326Y002842D01*
X023405Y002763D02*
X020112Y002763D01*
X019797Y002371D02*
X019660Y002371D01*
X019719Y002449D02*
X019581Y002449D01*
X019640Y002528D02*
X019503Y002528D01*
X019562Y002606D02*
X019424Y002606D01*
X019483Y002685D02*
X019346Y002685D01*
X019405Y002763D02*
X019267Y002763D01*
X019326Y002842D02*
X019189Y002842D01*
X019248Y002920D02*
X019110Y002920D01*
X019169Y002999D02*
X019032Y002999D01*
X019091Y003077D02*
X018903Y003077D01*
X019012Y003156D02*
X017724Y003156D01*
X017817Y003234D02*
X018934Y003234D01*
X019738Y002292D02*
X019876Y002292D01*
X019823Y002345D02*
X019823Y002345D01*
X017345Y003156D02*
X015625Y003156D01*
X015546Y003234D02*
X017252Y003234D01*
X017197Y003313D02*
X015468Y003313D01*
X015389Y003391D02*
X017165Y003391D01*
X017156Y003470D02*
X015311Y003470D01*
X015232Y003548D02*
X017156Y003548D01*
X017183Y003627D02*
X015154Y003627D01*
X015075Y003705D02*
X017218Y003705D01*
X016232Y001978D02*
X015838Y001978D01*
X015928Y001900D02*
X016142Y001900D01*
X016101Y001115D02*
X015969Y001115D01*
X015890Y001036D02*
X016179Y001036D01*
X016322Y000958D02*
X015747Y000958D01*
X015322Y000958D02*
X014747Y000958D01*
X014890Y001036D02*
X015179Y001036D01*
X015101Y001115D02*
X014969Y001115D01*
X015030Y001193D02*
X015039Y001193D01*
X015006Y001821D02*
X015063Y001821D01*
X015142Y001900D02*
X014928Y001900D01*
X014838Y001978D02*
X015232Y001978D01*
X014999Y002763D02*
X014785Y002763D01*
X014785Y002842D02*
X014921Y002842D01*
X014842Y002920D02*
X014785Y002920D01*
X010691Y004255D02*
X006950Y004255D01*
X006871Y004333D02*
X010585Y004333D01*
X010506Y004412D02*
X006719Y004412D01*
X006530Y004490D02*
X010428Y004490D01*
X009064Y004647D02*
X001785Y004647D01*
X004398Y006374D02*
X004495Y006374D01*
X005879Y009828D02*
X008706Y009828D01*
X008735Y009828D02*
X012285Y009828D01*
X012285Y009907D02*
X008768Y009907D01*
X008846Y009985D02*
X012285Y009985D01*
X012285Y010064D02*
X008894Y010064D01*
X008926Y010142D02*
X012285Y010142D01*
X012285Y010221D02*
X008933Y010221D01*
X008933Y010299D02*
X012285Y010299D01*
X012285Y010378D02*
X008907Y010378D01*
X008875Y010456D02*
X012285Y010456D01*
X012785Y010456D02*
X012901Y010456D01*
X012906Y010535D02*
X012785Y010535D01*
X012785Y010613D02*
X012927Y010613D01*
X012960Y010692D02*
X012785Y010692D01*
X012785Y010770D02*
X013033Y010770D01*
X013170Y010849D02*
X012785Y010849D01*
X012785Y010927D02*
X013535Y010927D01*
X013535Y010849D02*
X013399Y010849D01*
X013535Y011006D02*
X012785Y011006D01*
X012785Y011084D02*
X013535Y011084D01*
X013535Y011163D02*
X012785Y011163D01*
X012785Y011241D02*
X013535Y011241D01*
X012822Y010378D02*
X012785Y010378D01*
X012785Y010299D02*
X012790Y010299D01*
X012785Y010221D02*
X012785Y010221D01*
X012785Y010142D02*
X012785Y010142D01*
X012785Y010064D02*
X012785Y010064D01*
X012785Y009985D02*
X012785Y009985D01*
X012785Y009907D02*
X012785Y009907D01*
X012785Y009828D02*
X012785Y009828D01*
X012785Y009750D02*
X012785Y009750D01*
X011567Y010613D02*
X009722Y010613D01*
X009875Y010692D02*
X011414Y010692D01*
X011374Y011241D02*
X009915Y011241D01*
X009820Y011320D02*
X011470Y011320D01*
X008302Y009907D02*
X005911Y009907D01*
X005913Y009985D02*
X008223Y009985D01*
X008175Y010064D02*
X005912Y010064D01*
X005880Y010142D02*
X008143Y010142D01*
X008137Y010221D02*
X005836Y010221D01*
X005874Y012733D02*
X004806Y012733D01*
X004697Y012654D02*
X007728Y012654D01*
X008101Y012654D02*
X008255Y012654D01*
X008255Y012733D02*
X008196Y012733D01*
X008252Y012811D02*
X008255Y012811D01*
X007913Y015559D02*
X011588Y015559D01*
X012285Y016501D02*
X003168Y016501D01*
X002833Y016501D02*
X001785Y016501D01*
X001785Y016579D02*
X012285Y016579D01*
X012260Y016658D02*
X001785Y016658D01*
X001785Y016736D02*
X012182Y016736D01*
X012103Y016815D02*
X001785Y016815D01*
X001785Y016893D02*
X010875Y016893D01*
X010764Y016972D02*
X001785Y016972D01*
X001785Y017050D02*
X010103Y017050D01*
X010064Y017089D02*
X010064Y017089D01*
X011194Y016893D02*
X012025Y016893D01*
X011946Y016972D02*
X011305Y016972D01*
X008910Y017757D02*
X001785Y017757D01*
X001785Y017835D02*
X008818Y017835D01*
X008740Y017914D02*
X001785Y017914D01*
X001785Y017992D02*
X008661Y017992D01*
X008583Y018071D02*
X001785Y018071D01*
X001785Y018149D02*
X008504Y018149D01*
X008426Y018228D02*
X001785Y018228D01*
X001785Y018306D02*
X008347Y018306D01*
X008295Y018385D02*
X001785Y018385D01*
X001785Y018463D02*
X008275Y018463D01*
X008275Y018542D02*
X001785Y018542D01*
X001785Y018620D02*
X008275Y018620D01*
X008275Y018699D02*
X001785Y018699D01*
X001785Y018777D02*
X008275Y018777D01*
X008275Y018856D02*
X001785Y018856D01*
X001785Y018934D02*
X008275Y018934D01*
X008275Y019013D02*
X001785Y019013D01*
X001785Y019091D02*
X008275Y019091D01*
X008234Y019170D02*
X001785Y019170D01*
X001785Y019248D02*
X006181Y019248D01*
X006077Y019327D02*
X001785Y019327D01*
X001785Y019405D02*
X005998Y019405D01*
X005920Y019484D02*
X001785Y019484D01*
X001785Y019562D02*
X005841Y019562D01*
X005631Y019641D02*
X001785Y019641D01*
X001785Y019719D02*
X005517Y019719D01*
X005453Y019798D02*
X001785Y019798D01*
X001785Y019876D02*
X005421Y019876D01*
X005406Y019955D02*
X001785Y019955D01*
X001785Y020033D02*
X005406Y020033D01*
X005427Y020112D02*
X001785Y020112D01*
X001785Y020190D02*
X005459Y020190D01*
X005532Y020269D02*
X001785Y020269D01*
X001785Y020347D02*
X005666Y020347D01*
X005903Y020347D02*
X006705Y020347D01*
X006705Y020426D02*
X001785Y020426D01*
X001785Y020504D02*
X006705Y020504D01*
X006705Y020583D02*
X001785Y020583D01*
X001785Y020661D02*
X006709Y020661D01*
X006741Y020740D02*
X001785Y020740D01*
X001785Y020818D02*
X006774Y020818D01*
X006806Y020897D02*
X001785Y020897D01*
X001785Y020975D02*
X006850Y020975D01*
X006928Y021054D02*
X001797Y021054D01*
X001833Y021132D02*
X007007Y021132D01*
X007114Y021211D02*
X001935Y021211D01*
X006038Y020269D02*
X006727Y020269D01*
X006759Y020190D02*
X006110Y020190D01*
X006142Y020112D02*
X006792Y020112D01*
X006824Y020033D02*
X006163Y020033D01*
X006184Y019955D02*
X006893Y019955D01*
X006971Y019876D02*
X006263Y019876D01*
X006341Y019798D02*
X007050Y019798D01*
X008019Y019798D02*
X013120Y019798D01*
X013042Y019876D02*
X008098Y019876D01*
X002760Y016422D02*
X001785Y016422D01*
X001785Y016344D02*
X002728Y016344D01*
X002722Y016265D02*
X001785Y016265D01*
X001785Y016187D02*
X002735Y016187D01*
X002772Y016108D02*
X001785Y016108D01*
X001785Y016030D02*
X002862Y016030D01*
X016048Y013047D02*
X024285Y013047D01*
X024285Y013125D02*
X016127Y013125D01*
X016205Y013204D02*
X024285Y013204D01*
X024285Y013282D02*
X016262Y013282D01*
X016285Y013361D02*
X024315Y013361D01*
X024384Y013439D02*
X016285Y013439D01*
X016285Y013518D02*
X024462Y013518D01*
X024541Y013596D02*
X016285Y013596D01*
X016285Y013675D02*
X024619Y013675D01*
X024698Y013753D02*
X016285Y013753D01*
X016285Y013832D02*
X024776Y013832D01*
X024785Y013910D02*
X016285Y013910D01*
X016285Y013989D02*
X024785Y013989D01*
X024785Y014067D02*
X016285Y014067D01*
X016285Y014146D02*
X024785Y014146D01*
X024785Y014224D02*
X016285Y014224D01*
X016285Y014303D02*
X024785Y014303D01*
X024785Y014381D02*
X017415Y014381D01*
X017543Y014460D02*
X024785Y014460D01*
X024785Y014538D02*
X017612Y014538D01*
X017645Y014617D02*
X024785Y014617D01*
X024785Y014695D02*
X017663Y014695D01*
X017663Y014774D02*
X024785Y014774D01*
X024785Y014852D02*
X017646Y014852D01*
X017614Y014931D02*
X024785Y014931D01*
X024785Y015009D02*
X017547Y015009D01*
X016923Y014852D02*
X016285Y014852D01*
X016285Y014774D02*
X016906Y014774D01*
X016906Y014695D02*
X016285Y014695D01*
X016285Y014617D02*
X016925Y014617D01*
X016957Y014538D02*
X016285Y014538D01*
X016285Y014460D02*
X017026Y014460D01*
X017154Y014381D02*
X016285Y014381D01*
X016285Y014931D02*
X016555Y014931D01*
X016477Y015009D02*
X016285Y015009D01*
X016285Y015088D02*
X016437Y015088D01*
X016406Y015166D02*
X016285Y015166D01*
X016285Y015245D02*
X016406Y015245D01*
X016411Y015323D02*
X016285Y015323D01*
X016285Y015402D02*
X016443Y015402D01*
X016493Y015480D02*
X016285Y015480D01*
X016285Y015559D02*
X016535Y015559D01*
X016535Y015637D02*
X016285Y015637D01*
X016285Y015716D02*
X016535Y015716D01*
X016535Y015794D02*
X016285Y015794D01*
X016285Y015873D02*
X016535Y015873D01*
X016535Y015951D02*
X016285Y015951D01*
X016285Y016030D02*
X016535Y016030D01*
X016535Y016108D02*
X016285Y016108D01*
X016285Y016187D02*
X016535Y016187D01*
X016535Y016265D02*
X016285Y016265D01*
X016285Y016344D02*
X016535Y016344D01*
X016535Y016422D02*
X016285Y016422D01*
X016285Y016501D02*
X016485Y016501D01*
X016440Y016579D02*
X016285Y016579D01*
X016309Y016658D02*
X016408Y016658D01*
X016406Y016736D02*
X016388Y016736D01*
X020745Y015873D02*
X024561Y015873D01*
X024535Y015951D02*
X020884Y015951D01*
X022515Y017117D02*
X022535Y017137D01*
X025035Y017129D02*
X026335Y017129D01*
X026335Y017207D02*
X025035Y017207D01*
X025035Y017286D02*
X026335Y017286D01*
X026335Y017364D02*
X026124Y017364D01*
X026276Y017443D02*
X026335Y017443D01*
X025945Y017364D02*
X025374Y017364D01*
X025526Y017443D02*
X025793Y017443D01*
X025715Y017521D02*
X025604Y017521D01*
X025638Y017600D02*
X025682Y017600D01*
X025195Y017364D02*
X025035Y017364D01*
X025035Y017443D02*
X025043Y017443D01*
X025035Y017050D02*
X026335Y017050D01*
X026335Y016972D02*
X025035Y016972D01*
X025035Y016893D02*
X026335Y016893D01*
X026335Y016815D02*
X025035Y016815D01*
X025035Y016736D02*
X026335Y016736D01*
X026335Y016658D02*
X025035Y016658D01*
X025035Y016579D02*
X025873Y016579D01*
X025764Y016501D02*
X025035Y016501D01*
X025035Y016422D02*
X025702Y016422D01*
X025669Y016344D02*
X025035Y016344D01*
X025035Y016265D02*
X025656Y016265D01*
X025656Y016187D02*
X025035Y016187D01*
X025035Y016108D02*
X025678Y016108D01*
X025711Y016030D02*
X025095Y016030D01*
X025174Y015951D02*
X025785Y015951D01*
X025807Y015794D02*
X025281Y015794D01*
X025285Y015716D02*
X025729Y015716D01*
X025687Y015637D02*
X025285Y015637D01*
X025285Y015559D02*
X025656Y015559D01*
X025656Y015480D02*
X025285Y015480D01*
X025285Y015402D02*
X025660Y015402D01*
X025693Y015323D02*
X025285Y015323D01*
X025285Y015245D02*
X025741Y015245D01*
X025820Y015166D02*
X025959Y015108D01*
X026035Y015108D01*
X026035Y015009D02*
X025285Y015009D01*
X025285Y014931D02*
X026035Y014931D01*
X026035Y014852D02*
X025285Y014852D01*
X025285Y014774D02*
X026035Y014774D01*
X026035Y014695D02*
X025285Y014695D01*
X025285Y014617D02*
X026035Y014617D01*
X026035Y014538D02*
X025285Y014538D01*
X025285Y014460D02*
X026035Y014460D01*
X026035Y014381D02*
X025285Y014381D01*
X025285Y014303D02*
X026035Y014303D01*
X026035Y014224D02*
X025285Y014224D01*
X025285Y014146D02*
X026052Y014146D01*
X026101Y014067D02*
X025285Y014067D01*
X025285Y013989D02*
X026179Y013989D01*
X026258Y013910D02*
X025285Y013910D01*
X025285Y013832D02*
X026335Y013832D01*
X026335Y013753D02*
X025285Y013753D01*
X025280Y013675D02*
X026335Y013675D01*
X026335Y013596D02*
X025247Y013596D01*
X025169Y013518D02*
X026335Y013518D01*
X026335Y013439D02*
X025091Y013439D01*
X025012Y013361D02*
X026335Y013361D01*
X026335Y013282D02*
X024934Y013282D01*
X024855Y013204D02*
X026335Y013204D01*
X026335Y013125D02*
X024785Y013125D01*
X024785Y013047D02*
X026335Y013047D01*
X026335Y012968D02*
X024785Y012968D01*
X024785Y012890D02*
X026260Y012890D01*
X026153Y012811D02*
X024785Y012811D01*
X024785Y012733D02*
X026075Y012733D01*
X026029Y012654D02*
X024785Y012654D01*
X024785Y012576D02*
X025996Y012576D01*
X025965Y012497D02*
X024785Y012497D01*
X024785Y012419D02*
X025965Y012419D01*
X025965Y012340D02*
X024785Y012340D01*
X024785Y012262D02*
X025969Y012262D01*
X026002Y012183D02*
X024785Y012183D01*
X024785Y012105D02*
X026034Y012105D01*
X026089Y012026D02*
X024785Y012026D01*
X024785Y011948D02*
X026168Y011948D01*
X026211Y011869D02*
X024757Y011869D01*
X024692Y011791D02*
X026133Y011791D01*
X024285Y012576D02*
X016035Y012576D01*
X016035Y012654D02*
X024285Y012654D01*
X024285Y012733D02*
X016035Y012733D01*
X016035Y012811D02*
X024285Y012811D01*
X024285Y012890D02*
X016035Y012890D01*
X016035Y012968D02*
X024285Y012968D01*
X021685Y011567D02*
X021675Y011577D01*
X022315Y010537D02*
X022785Y010537D01*
X022975Y010727D01*
X023145Y010727D01*
X023075Y010727D01*
X022315Y010537D02*
X022125Y010347D01*
X022125Y010237D01*
X022065Y010177D01*
X022065Y008947D01*
X022275Y008737D01*
X022535Y008737D01*
X022715Y008557D01*
X022715Y008237D01*
X022535Y008057D01*
X022535Y007737D01*
X022295Y007866D02*
X022138Y007866D01*
X022239Y007944D02*
X022295Y007944D01*
X022246Y007787D02*
X022037Y007787D01*
X022001Y007709D02*
X022167Y007709D01*
X022131Y007630D02*
X021969Y007630D01*
X021895Y007552D02*
X022125Y007552D01*
X022885Y008237D02*
X023035Y008087D01*
X022885Y008237D02*
X022885Y008647D01*
X022605Y008927D01*
X022440Y002685D02*
X023483Y002685D01*
X023562Y002606D02*
X022519Y002606D01*
X022597Y002528D02*
X023640Y002528D01*
X025249Y015873D02*
X025924Y015873D01*
X026306Y016501D02*
X026335Y016501D01*
X026335Y016579D02*
X026197Y016579D01*
D19*
X026285Y016237D02*
X026035Y016237D01*
X026285Y016237D02*
X026535Y015987D01*
X026535Y014487D01*
X027535Y013487D01*
X027535Y013387D01*
X027035Y013677D02*
X026725Y013987D01*
X026535Y013987D01*
X026285Y014237D01*
X026285Y015387D01*
X026185Y015487D01*
X026035Y015487D01*
X025035Y015737D02*
X025035Y013737D01*
X024535Y013237D01*
X024535Y011987D01*
X024285Y011737D01*
X022535Y011737D01*
X022365Y011907D01*
X020845Y011907D01*
X020835Y011937D01*
X020535Y012237D01*
X019285Y012237D01*
X018535Y011487D01*
X017285Y011487D01*
X017035Y011237D01*
X015535Y009487D02*
X015035Y008987D01*
X015035Y008487D01*
X015535Y007987D01*
X015535Y007737D01*
X015285Y007487D01*
X015035Y007987D02*
X014785Y008237D01*
X014785Y008487D01*
X014655Y008617D01*
X014655Y010097D01*
X014535Y010217D01*
X014535Y014987D01*
X014785Y015237D01*
X014785Y015737D01*
X015145Y016097D01*
X015145Y017557D01*
X015285Y017697D01*
X015285Y019237D01*
X015785Y019737D01*
X016035Y019737D01*
X016785Y020487D01*
X016935Y020487D01*
X017535Y020087D02*
X017535Y017737D01*
X017285Y017487D01*
X017285Y014737D01*
X016785Y015237D02*
X016785Y016737D01*
X016535Y017237D02*
X016035Y016737D01*
X016035Y013387D01*
X015785Y013137D01*
X015785Y008737D01*
X016035Y008487D01*
X016035Y007487D01*
X016285Y007237D01*
X013785Y005987D02*
X013285Y005987D01*
X013035Y006237D01*
X013035Y010237D01*
X013285Y010487D01*
X013535Y009987D02*
X013785Y010237D01*
X013785Y018237D01*
X013535Y018487D01*
X013535Y019737D01*
X012935Y020337D01*
X012935Y020487D01*
X013935Y020487D02*
X013935Y018587D01*
X014035Y018487D01*
X014035Y009737D01*
X014415Y009987D02*
X014285Y010117D01*
X014285Y018487D01*
X014415Y018617D01*
X014415Y019617D01*
X014935Y020137D01*
X014935Y020487D01*
X015035Y019737D02*
X015285Y019737D01*
X015935Y020387D01*
X015935Y020487D01*
X015035Y019737D02*
X014785Y019487D01*
X014785Y018487D01*
X014535Y018237D01*
X014535Y016487D01*
X014785Y016237D01*
X015785Y017277D02*
X015785Y013487D01*
X015535Y013237D01*
X015535Y009487D01*
X014415Y009367D02*
X014285Y009237D01*
X014415Y009367D02*
X014415Y009987D01*
X012535Y011987D02*
X012535Y016737D01*
X012064Y017207D01*
X011993Y017237D02*
X010785Y017237D01*
X011993Y017237D02*
X012013Y017235D01*
X012031Y017229D01*
X012049Y017220D01*
X012064Y017208D01*
X011685Y015987D02*
X009035Y015987D01*
X007535Y015487D02*
X007135Y015087D01*
X006485Y015087D01*
X011685Y015987D02*
X011785Y015887D01*
X015655Y017407D02*
X015785Y017277D01*
X015655Y017407D02*
X015655Y018107D01*
X015785Y018237D01*
X016035Y018237D01*
X016535Y017737D02*
X016785Y017987D01*
X016535Y017737D02*
X016535Y017237D01*
X019535Y017487D02*
X019535Y020487D01*
X017935Y020487D02*
X017535Y020087D01*
X021535Y020487D02*
X021785Y020237D01*
X021785Y019737D01*
X022035Y019487D01*
X022035Y016617D01*
X022535Y016237D02*
X020635Y016237D01*
X022535Y016237D02*
X023035Y016737D01*
X023035Y019487D01*
X023535Y019987D01*
X023535Y020487D01*
X022535Y020487D02*
X022535Y017137D01*
X024785Y017987D02*
X024785Y015987D01*
X025035Y015737D01*
X025285Y017737D02*
X026035Y018487D01*
X026285Y018737D01*
X026285Y019237D01*
X025785Y019737D01*
X025785Y020237D01*
X025535Y020487D01*
X024785Y020237D02*
X024785Y019737D01*
X025035Y019487D01*
X025035Y018237D01*
X024785Y017987D01*
X026035Y017737D02*
X026535Y018237D01*
X026535Y020487D01*
X024785Y020237D02*
X024535Y020487D01*
X027035Y013677D02*
X027035Y012737D01*
X027385Y012387D01*
X027535Y012387D01*
X022375Y008407D02*
X022365Y008397D01*
X023035Y007487D02*
X023035Y005987D01*
X023535Y005487D01*
X023535Y002987D01*
X023785Y002737D01*
X025785Y002737D01*
X026535Y001987D01*
X026535Y001487D01*
X025535Y001487D02*
X025535Y001987D01*
X025285Y002237D01*
X022535Y002237D01*
X022285Y002487D01*
X020035Y002487D01*
X019035Y003487D01*
X017535Y003487D01*
X015285Y004487D02*
X013785Y005987D01*
X013535Y005487D02*
X015005Y004016D01*
X015076Y003987D02*
X022035Y003987D01*
X022505Y004457D01*
X022576Y004487D02*
X022785Y004487D01*
X023005Y004707D01*
X023065Y004818D02*
X023065Y004987D01*
X023064Y004818D02*
X023061Y004797D01*
X023054Y004776D01*
X023046Y004757D01*
X023034Y004738D01*
X023021Y004722D01*
X023005Y004707D01*
X022576Y004487D02*
X022556Y004485D01*
X022538Y004479D01*
X022520Y004470D01*
X022505Y004458D01*
X015076Y003987D02*
X015056Y003989D01*
X015038Y003995D01*
X015020Y004004D01*
X015005Y004016D01*
X014535Y002987D02*
X013035Y004487D01*
X010785Y004487D01*
X010535Y004737D01*
X010535Y005237D01*
X010785Y005487D01*
X012285Y005487D01*
X012505Y005707D01*
X012523Y005707D01*
X012535Y005778D02*
X012535Y011987D01*
X011655Y010987D02*
X009635Y010987D01*
X012535Y005778D02*
X012533Y005758D01*
X012527Y005740D01*
X012518Y005722D01*
X012506Y005707D01*
X012593Y005678D02*
X012785Y005487D01*
X013535Y005487D01*
X012594Y005678D02*
X012579Y005690D01*
X012561Y005699D01*
X012543Y005705D01*
X012523Y005707D01*
X014535Y002987D02*
X014535Y001487D01*
D20*
X015535Y001487D02*
X016535Y001487D01*
X015535Y002737D02*
X018785Y002737D01*
X019535Y001987D01*
X019535Y001487D01*
X015535Y002737D02*
X013285Y004987D01*
X011035Y004987D01*
X009285Y004987D02*
X009285Y008737D01*
D21*
X008535Y010237D02*
X008535Y014487D01*
X008035Y014987D01*
X021605Y011587D02*
X021675Y011577D01*
X022365Y008397D02*
X021645Y007837D01*
D22*
X018865Y011017D03*
X021675Y011577D03*
D23*
X021685Y011567D02*
X022155Y011567D01*
X022335Y011387D01*
X023175Y011387D01*
X021605Y011587D02*
X021085Y011587D01*
X021015Y011517D01*
X020445Y011517D01*
X020045Y011917D01*
X019465Y011917D01*
X018865Y011317D01*
X018865Y011017D01*
D24*
X007785Y008737D03*
X007035Y008737D03*
X006285Y008737D03*
X005535Y008737D03*
X005535Y005737D03*
X006285Y005737D03*
X007035Y005737D03*
X007785Y005737D03*
D25*
X007785Y007237D03*
D26*
X004285Y007237D02*
X004285Y006737D01*
X004285Y007237D02*
X004035Y007487D01*
X004035Y008487D01*
X004285Y008737D01*
X004285Y009737D01*
X004535Y009987D01*
X005535Y009987D01*
X004535Y012997D02*
X007915Y012987D01*
X010285Y017237D02*
X010785Y017237D01*
X011035Y017237D01*
X010285Y017237D02*
X009535Y017987D01*
X009035Y017987D01*
X008535Y018487D01*
X008535Y019237D01*
X008285Y019487D01*
X006285Y019487D01*
X005785Y019987D01*
D27*
X008035Y014987D03*
X008535Y010237D03*
X009285Y008737D03*
X009285Y004987D03*
D28*
X011035Y004987D03*
M02*
