G75*
%MOIN*%
%OFA0B0*%
%FSLAX24Y24*%
%IPPOS*%
%LPD*%
%AMOC8*
5,1,8,0,0,1.08239X$1,22.5*
%
%ADD10R,0.1300X0.1300*%
%ADD11R,0.0400X0.0112*%
%ADD12R,0.0112X0.0400*%
%ADD13R,0.0433X0.0394*%
%ADD14R,0.0472X0.0433*%
%ADD15R,0.0394X0.0433*%
%ADD16R,0.0335X0.0866*%
%ADD17R,0.0394X0.0413*%
%ADD18R,0.0870X0.0240*%
%ADD19C,0.0118*%
%ADD20R,0.0315X0.0354*%
%ADD21R,0.0157X0.0591*%
%ADD22R,0.0591X0.0709*%
%ADD23R,0.0276X0.0591*%
%ADD24R,0.0787X0.0157*%
%ADD25R,0.0880X0.0480*%
%ADD26R,0.0866X0.1417*%
%ADD27R,0.0945X0.0945*%
%ADD28R,0.0709X0.0630*%
%ADD29R,0.0248X0.0327*%
%ADD30R,0.0906X0.0630*%
D10*
X021285Y009737D03*
X021285Y009737D03*
D11*
X022309Y009835D03*
X022309Y009638D03*
X022309Y009441D03*
X022309Y009245D03*
X022309Y009048D03*
X022309Y010032D03*
X022309Y010229D03*
X022309Y010426D03*
X020260Y010426D03*
X020260Y010229D03*
X020260Y010032D03*
X020260Y009835D03*
X020260Y009638D03*
X020260Y009441D03*
X020260Y009245D03*
X020260Y009048D03*
D12*
X020596Y008712D03*
X020793Y008712D03*
X020989Y008712D03*
X021186Y008712D03*
X021383Y008712D03*
X021580Y008712D03*
X021777Y008712D03*
X021974Y008712D03*
X021974Y010761D03*
X021777Y010761D03*
X021580Y010761D03*
X021383Y010761D03*
X021186Y010761D03*
X020989Y010761D03*
X020793Y010761D03*
X020596Y010761D03*
D13*
X019119Y011527D03*
X018450Y011527D03*
X014119Y012737D03*
X013450Y012737D03*
X013450Y013737D03*
X014119Y013737D03*
X014119Y014737D03*
X013450Y014737D03*
X013450Y015737D03*
X014119Y015737D03*
X014119Y016737D03*
X013450Y016737D03*
X007869Y012487D03*
X007200Y012487D03*
X006269Y013037D03*
X005600Y013037D03*
X007200Y011487D03*
X007869Y011487D03*
X007869Y010487D03*
X007200Y010487D03*
X007200Y009487D03*
X007869Y009487D03*
X006239Y017877D03*
X005570Y017877D03*
X020500Y005887D03*
X021169Y005887D03*
X021219Y003237D03*
X020550Y003237D03*
X022350Y003237D03*
X023019Y003237D03*
X023990Y009247D03*
X024659Y009247D03*
X025390Y009237D03*
X026059Y009237D03*
X024269Y011827D03*
X023600Y011827D03*
D14*
X020497Y007331D03*
X020497Y006642D03*
X019572Y006642D03*
X019572Y007331D03*
D15*
X018885Y007321D03*
X018885Y006652D03*
X021185Y006652D03*
X021185Y007321D03*
X022095Y007321D03*
X022635Y007321D03*
X022635Y006652D03*
X022095Y006652D03*
X023265Y008432D03*
X023265Y009101D03*
X024755Y009091D03*
X025395Y009115D03*
X025395Y008446D03*
X024755Y008422D03*
D16*
X024853Y005087D03*
X025936Y005087D03*
D17*
X025395Y005687D03*
X025395Y004486D03*
D18*
X017605Y008987D03*
X017605Y009487D03*
X017605Y009987D03*
X017605Y010487D03*
X014955Y010487D03*
X014955Y009987D03*
X014955Y009487D03*
X014955Y008987D03*
D19*
X003768Y009349D02*
X003768Y009625D01*
X003768Y009349D02*
X003492Y009349D01*
X003492Y009625D01*
X003768Y009625D01*
X003768Y009466D02*
X003492Y009466D01*
X003492Y009583D02*
X003768Y009583D01*
X003077Y009625D02*
X003077Y009349D01*
X002801Y009349D01*
X002801Y009625D01*
X003077Y009625D01*
X003077Y009466D02*
X002801Y009466D01*
X002801Y009583D02*
X003077Y009583D01*
X003077Y010849D02*
X003077Y011125D01*
X003077Y010849D02*
X002801Y010849D01*
X002801Y011125D01*
X003077Y011125D01*
X003077Y010966D02*
X002801Y010966D01*
X002801Y011083D02*
X003077Y011083D01*
X003768Y011125D02*
X003768Y010849D01*
X003492Y010849D01*
X003492Y011125D01*
X003768Y011125D01*
X003768Y010966D02*
X003492Y010966D01*
X003492Y011083D02*
X003768Y011083D01*
X003768Y008125D02*
X003768Y007849D01*
X003492Y007849D01*
X003492Y008125D01*
X003768Y008125D01*
X003768Y007966D02*
X003492Y007966D01*
X003492Y008083D02*
X003768Y008083D01*
X003077Y008125D02*
X003077Y007849D01*
X002801Y007849D01*
X002801Y008125D01*
X003077Y008125D01*
X003077Y007966D02*
X002801Y007966D01*
X002801Y008083D02*
X003077Y008083D01*
X003077Y006625D02*
X003077Y006349D01*
X002801Y006349D01*
X002801Y006625D01*
X003077Y006625D01*
X003077Y006466D02*
X002801Y006466D01*
X002801Y006583D02*
X003077Y006583D01*
X003768Y006625D02*
X003768Y006349D01*
X003492Y006349D01*
X003492Y006625D01*
X003768Y006625D01*
X003768Y006466D02*
X003492Y006466D01*
X003492Y006583D02*
X003768Y006583D01*
D20*
X011785Y014554D03*
X012159Y015380D03*
X011411Y015380D03*
X011411Y016343D03*
X012159Y016343D03*
X011785Y017170D03*
D21*
X009198Y016914D03*
X008942Y016914D03*
X008686Y016914D03*
X008430Y016914D03*
X008174Y016914D03*
X007919Y016914D03*
X007663Y016914D03*
X007407Y016914D03*
X007151Y016914D03*
X006895Y016914D03*
X006639Y016914D03*
X006383Y016914D03*
X006127Y016914D03*
X005871Y016914D03*
X005871Y014060D03*
X006127Y014060D03*
X006383Y014060D03*
X006639Y014060D03*
X006895Y014060D03*
X007151Y014060D03*
X007407Y014060D03*
X007663Y014060D03*
X007919Y014060D03*
X008174Y014060D03*
X008430Y014060D03*
X008686Y014060D03*
X008942Y014060D03*
X009198Y014060D03*
D22*
X002135Y014036D03*
X002135Y016937D03*
D23*
X002135Y015487D03*
D24*
X003298Y015487D03*
X003298Y015743D03*
X003298Y015998D03*
X003298Y015231D03*
X003298Y014975D03*
D25*
X009255Y008147D03*
X009255Y007237D03*
X009255Y006327D03*
D26*
X006815Y007237D03*
D27*
X008285Y002621D03*
X008285Y004353D03*
D28*
X010285Y004038D03*
X010285Y002935D03*
X011785Y002935D03*
X011785Y004038D03*
D29*
X009737Y009487D03*
X008832Y009487D03*
D30*
X004875Y020187D03*
X002394Y020187D03*
M02*
