G75*
%MOIN*%
%OFA0B0*%
%FSLAX24Y24*%
%IPPOS*%
%LPD*%
%AMOC8*
5,1,8,0,0,1.08239X$1,22.5*
%
%ADD10C,0.1340*%
%ADD11R,0.1300X0.1300*%
%ADD12R,0.0480X0.0192*%
%ADD13R,0.0192X0.0480*%
%ADD14R,0.0513X0.0474*%
%ADD15R,0.0552X0.0513*%
%ADD16R,0.0474X0.0513*%
%ADD17R,0.0415X0.0946*%
%ADD18R,0.0474X0.0493*%
%ADD19R,0.0950X0.0320*%
%ADD20C,0.0142*%
%ADD21R,0.0395X0.0434*%
%ADD22R,0.0237X0.0671*%
%ADD23R,0.0669X0.0787*%
%ADD24R,0.0669X0.1063*%
%ADD25R,0.0867X0.0237*%
%ADD26C,0.0237*%
%ADD27R,0.0960X0.0560*%
%ADD28R,0.0946X0.1497*%
%ADD29R,0.1025X0.1025*%
%ADD30C,0.1504*%
%ADD31C,0.1346*%
%ADD32R,0.0789X0.0710*%
%ADD33R,0.0328X0.0407*%
%ADD34C,0.0820*%
%ADD35R,0.0820X0.0820*%
%ADD36R,0.0986X0.0710*%
%ADD37OC8,0.0560*%
%ADD38C,0.0560*%
%ADD39C,0.0476*%
%ADD40C,0.0480*%
D10*
X007035Y001487D03*
X027535Y003237D03*
X027535Y014737D03*
X007535Y020487D03*
D11*
X021285Y009737D03*
X021285Y009737D03*
D12*
X022309Y009835D03*
X022309Y009638D03*
X022309Y009441D03*
X022309Y009245D03*
X022309Y009048D03*
X022309Y010032D03*
X022309Y010229D03*
X022309Y010426D03*
X020260Y010426D03*
X020260Y010229D03*
X020260Y010032D03*
X020260Y009835D03*
X020260Y009638D03*
X020260Y009441D03*
X020260Y009245D03*
X020260Y009048D03*
D13*
X020596Y008712D03*
X020793Y008712D03*
X020989Y008712D03*
X021186Y008712D03*
X021383Y008712D03*
X021580Y008712D03*
X021777Y008712D03*
X021974Y008712D03*
X021974Y010761D03*
X021777Y010761D03*
X021580Y010761D03*
X021383Y010761D03*
X021186Y010761D03*
X020989Y010761D03*
X020793Y010761D03*
X020596Y010761D03*
D14*
X019119Y011527D03*
X018450Y011527D03*
X014119Y012737D03*
X013450Y012737D03*
X013450Y013737D03*
X014119Y013737D03*
X014119Y014737D03*
X013450Y014737D03*
X013450Y015737D03*
X014119Y015737D03*
X014119Y016737D03*
X013450Y016737D03*
X007869Y012487D03*
X007200Y012487D03*
X006269Y013037D03*
X005600Y013037D03*
X007200Y011487D03*
X007869Y011487D03*
X007869Y010487D03*
X007200Y010487D03*
X007200Y009487D03*
X007869Y009487D03*
X006239Y017877D03*
X005570Y017877D03*
X020500Y005887D03*
X021169Y005887D03*
X021219Y003237D03*
X020550Y003237D03*
X022350Y003237D03*
X023019Y003237D03*
X023990Y009247D03*
X024659Y009247D03*
X025390Y009237D03*
X026059Y009237D03*
X024269Y011827D03*
X023600Y011827D03*
D15*
X020497Y007331D03*
X020497Y006642D03*
X019572Y006642D03*
X019572Y007331D03*
D16*
X018885Y007321D03*
X018885Y006652D03*
X021185Y006652D03*
X021185Y007321D03*
X022095Y007321D03*
X022635Y007321D03*
X022635Y006652D03*
X022095Y006652D03*
X023265Y008432D03*
X023265Y009101D03*
X024755Y009091D03*
X025395Y009115D03*
X025395Y008446D03*
X024755Y008422D03*
D17*
X024853Y005087D03*
X025936Y005087D03*
D18*
X025395Y005687D03*
X025395Y004486D03*
D19*
X017605Y008987D03*
X017605Y009487D03*
X017605Y009987D03*
X017605Y010487D03*
X014955Y010487D03*
X014955Y009987D03*
X014955Y009487D03*
X014955Y008987D03*
D20*
X003796Y009321D02*
X003796Y009653D01*
X003796Y009321D02*
X003464Y009321D01*
X003464Y009653D01*
X003796Y009653D01*
X003796Y009462D02*
X003464Y009462D01*
X003464Y009603D02*
X003796Y009603D01*
X003105Y009653D02*
X003105Y009321D01*
X002773Y009321D01*
X002773Y009653D01*
X003105Y009653D01*
X003105Y009462D02*
X002773Y009462D01*
X002773Y009603D02*
X003105Y009603D01*
X003105Y010821D02*
X003105Y011153D01*
X003105Y010821D02*
X002773Y010821D01*
X002773Y011153D01*
X003105Y011153D01*
X003105Y010962D02*
X002773Y010962D01*
X002773Y011103D02*
X003105Y011103D01*
X003796Y011153D02*
X003796Y010821D01*
X003464Y010821D01*
X003464Y011153D01*
X003796Y011153D01*
X003796Y010962D02*
X003464Y010962D01*
X003464Y011103D02*
X003796Y011103D01*
X003796Y008153D02*
X003796Y007821D01*
X003464Y007821D01*
X003464Y008153D01*
X003796Y008153D01*
X003796Y007962D02*
X003464Y007962D01*
X003464Y008103D02*
X003796Y008103D01*
X003105Y008153D02*
X003105Y007821D01*
X002773Y007821D01*
X002773Y008153D01*
X003105Y008153D01*
X003105Y007962D02*
X002773Y007962D01*
X002773Y008103D02*
X003105Y008103D01*
X003105Y006653D02*
X003105Y006321D01*
X002773Y006321D01*
X002773Y006653D01*
X003105Y006653D01*
X003105Y006462D02*
X002773Y006462D01*
X002773Y006603D02*
X003105Y006603D01*
X003796Y006653D02*
X003796Y006321D01*
X003464Y006321D01*
X003464Y006653D01*
X003796Y006653D01*
X003796Y006462D02*
X003464Y006462D01*
X003464Y006603D02*
X003796Y006603D01*
D21*
X011785Y014554D03*
X012159Y015380D03*
X011411Y015380D03*
X011411Y016343D03*
X012159Y016343D03*
X011785Y017170D03*
D22*
X009198Y016914D03*
X008942Y016914D03*
X008686Y016914D03*
X008430Y016914D03*
X008174Y016914D03*
X007919Y016914D03*
X007663Y016914D03*
X007407Y016914D03*
X007151Y016914D03*
X006895Y016914D03*
X006639Y016914D03*
X006383Y016914D03*
X006127Y016914D03*
X005871Y016914D03*
X005871Y014060D03*
X006127Y014060D03*
X006383Y014060D03*
X006639Y014060D03*
X006895Y014060D03*
X007151Y014060D03*
X007407Y014060D03*
X007663Y014060D03*
X007919Y014060D03*
X008174Y014060D03*
X008430Y014060D03*
X008686Y014060D03*
X008942Y014060D03*
X009198Y014060D03*
D23*
X002135Y014036D03*
X002135Y016937D03*
D24*
X002135Y015487D03*
D25*
X003298Y015487D03*
X003298Y015743D03*
X003298Y015998D03*
X003298Y015231D03*
X003298Y014975D03*
D26*
X003001Y014699D03*
X003001Y016274D03*
D27*
X009255Y008147D03*
X009255Y007237D03*
X009255Y006327D03*
D28*
X006815Y007237D03*
D29*
X008285Y004353D03*
X008285Y002621D03*
D30*
X003966Y003587D03*
X006328Y003587D03*
D31*
X005147Y001736D03*
D32*
X010285Y002935D03*
X010285Y004038D03*
X011785Y004038D03*
X011785Y002935D03*
D33*
X009737Y009487D03*
X008832Y009487D03*
D34*
X014535Y001487D03*
X015535Y001487D03*
X016535Y001487D03*
X017535Y001487D03*
X018535Y001487D03*
X019535Y001487D03*
X021535Y001487D03*
X022535Y001487D03*
X023535Y001487D03*
X024535Y001487D03*
X025535Y001487D03*
X026535Y001487D03*
X026535Y011387D03*
X027535Y011387D03*
X027535Y012387D03*
X026535Y012387D03*
X026535Y013387D03*
X027535Y013387D03*
X025535Y020487D03*
X024535Y020487D03*
X023535Y020487D03*
X022535Y020487D03*
X021535Y020487D03*
X020535Y020487D03*
X019535Y020487D03*
X016935Y020487D03*
X015935Y020487D03*
X014935Y020487D03*
X013935Y020487D03*
X012935Y020487D03*
X011935Y020487D03*
X010935Y020487D03*
D35*
X017935Y020487D03*
X026535Y020487D03*
D36*
X004875Y020187D03*
X002394Y020187D03*
D37*
X005535Y008737D03*
X006285Y008737D03*
X007035Y008737D03*
X007785Y008737D03*
X007785Y005737D03*
X007035Y005737D03*
X006285Y005737D03*
X005535Y005737D03*
D38*
X007785Y007237D03*
D39*
X009285Y008737D03*
X008535Y010237D03*
X008035Y014987D03*
X009285Y004987D03*
D40*
X011035Y004987D03*
M02*
