%
M48
M72
T01C0.0118
T02C0.0150
T03C0.0157
T04C0.0197
T05C0.0236
T06C0.0240
T07C0.0276
T08C0.0315
T09C0.0320
T10C0.0866
T11C0.1024
T12C0.1260
%
T01
X9175Y1587
X11025Y1587
X12675Y1587
X15975Y4457
X16875Y4457
X17775Y4457
X18585Y4837
X21585Y6187
X22285Y5937
X22805Y5937
X22805Y5477
X21785Y3587
X20285Y1987
X24135Y2687
X20235Y7537
X20235Y8037
X21235Y7737
X22285Y7737
X23335Y7737
X23335Y8687
X22285Y8687
X21235Y8687
X20585Y10937
X19835Y10987
X19785Y11487
X20845Y11907
X20885Y13147
X19885Y14297
X19535Y15197
X20635Y16237
X20035Y16747
X19535Y17487
X18185Y16397
X16785Y16737
X16785Y17987
X16035Y18237
X14785Y16237
X16785Y15237
X17285Y14737
X16775Y13557
X17325Y12957
X17925Y12357
X17035Y11237
X16575Y10237
X16575Y9037
X17775Y9037
X17825Y7587
X16575Y7587
X14785Y7437
X13575Y7587
X13575Y8737
X14435Y9287
X12935Y10437
X11655Y10987
X11625Y11987
X12535Y11987
X10175Y13837
X9675Y12337
X9635Y10987
X9665Y10357
X11625Y9887
X11675Y8737
X11675Y7587
X11675Y6387
X13575Y6387
X6645Y9997
X5535Y9987
X5465Y11217
X6645Y11217
X5465Y12517
X4185Y12517
X3245Y11887
X4185Y11217
X2175Y12537
X4185Y13837
X4185Y15077
X5185Y15787
X5595Y15807
X5465Y15227
X5725Y16557
X6205Y16517
X6595Y16747
X7275Y17217
X8165Y17337
X8885Y16997
X9035Y15987
X7885Y15837
X7185Y15837
X7195Y15137
X7885Y15137
X11035Y16487
X11035Y17237
X11785Y15887
X15265Y14437
X21285Y17487
X22035Y16617
X22515Y17117
X23935Y17437
X25285Y17737
X26035Y17737
X26035Y18487
X26035Y16237
X26035Y15487
X25535Y14987
X25535Y14287
X24135Y15297
X24085Y14247
X24085Y12997
X22985Y12647
X25285Y12987
X25285Y11987
X22535Y15487
X8185Y18147
X7755Y19007
X6025Y18987
X5785Y19987
X4185Y18587
X5305Y17537
X6095Y17897
X6475Y17657
X4185Y17087
X2175Y18587
X4285Y8737
X2175Y8587
X2175Y7007
X3245Y7007
T02
X23575Y3087
X24145Y3207
T03
X3001Y14699
X3001Y16274
T04
X4725Y16327
X6535Y14237
T05
X8535Y10237
X9285Y8737
X9285Y4987
X18685Y10987
X19651Y9993
X20438Y9993
X21226Y9993
X22013Y9993
X22800Y9993
X23588Y9993
X24375Y9993
X25163Y9993
X25163Y4481
X24375Y4481
X23588Y4481
X22800Y4481
X22013Y4481
X21226Y4481
X20438Y4481
X19651Y4481
T06
X11035Y4987
T07
X14535Y1487
X15535Y1487
X16535Y1487
X17535Y1487
X18535Y1487
X19535Y1487
X21535Y1487
X22535Y1487
X23535Y1487
X24535Y1487
X25535Y1487
X26535Y1487
X26535Y20487
X25535Y20487
X24535Y20487
X23535Y20487
X22535Y20487
X21535Y20487
X20535Y20487
X19535Y20487
X17935Y20487
X16935Y20487
X15935Y20487
X14935Y20487
X13935Y20487
X12935Y20487
X11935Y20487
X10935Y20487
T08
X26535Y13387
X27535Y13387
X27535Y12387
X26535Y12387
X26535Y11387
X27535Y11387
T09
X7785Y8737
X7035Y8737
X6285Y8737
X5535Y8737
X7785Y7237
X7785Y5737
X7035Y5737
X6285Y5737
X5535Y5737
T10
X5147Y1736
T11
X3966Y3587
X6328Y3587
T12
X7035Y1487
X27535Y3237
X27535Y14737
X7535Y20487
M30
