G75*
%MOIN*%
%OFA0B0*%
%FSLAX24Y24*%
%IPPOS*%
%LPD*%
%AMOC8*
5,1,8,0,0,1.08239X$1,22.5*
%
%ADD10C,0.0100*%
%ADD11C,0.0000*%
%ADD12C,0.0040*%
%ADD13C,0.0050*%
%ADD14C,0.0030*%
%ADD15C,0.0080*%
%ADD16C,0.0110*%
%ADD17R,0.0180X0.0300*%
%ADD18C,0.0120*%
%ADD19C,0.0240*%
%ADD20R,0.0118X0.0008*%
%ADD21R,0.0071X0.0008*%
%ADD22R,0.0472X0.0008*%
%ADD23R,0.0386X0.0008*%
%ADD24R,0.0457X0.0008*%
%ADD25R,0.0126X0.0008*%
%ADD26R,0.0134X0.0008*%
%ADD27R,0.0079X0.0008*%
%ADD28R,0.0512X0.0008*%
%ADD29R,0.0409X0.0008*%
%ADD30R,0.0480X0.0008*%
%ADD31R,0.0535X0.0008*%
%ADD32R,0.0433X0.0008*%
%ADD33R,0.0504X0.0008*%
%ADD34R,0.0528X0.0008*%
%ADD35R,0.0094X0.0008*%
%ADD36R,0.0551X0.0008*%
%ADD37R,0.0449X0.0008*%
%ADD38R,0.0520X0.0008*%
%ADD39R,0.0087X0.0008*%
%ADD40R,0.0543X0.0008*%
%ADD41R,0.0559X0.0008*%
%ADD42R,0.0102X0.0008*%
%ADD43R,0.0465X0.0008*%
%ADD44R,0.0110X0.0008*%
%ADD45R,0.0567X0.0008*%
%ADD46R,0.0488X0.0008*%
%ADD47R,0.0197X0.0008*%
%ADD48R,0.0024X0.0008*%
%ADD49R,0.0008X0.0008*%
%ADD50R,0.0031X0.0008*%
%ADD51R,0.0150X0.0008*%
%ADD52R,0.0142X0.0008*%
%ADD53R,0.0157X0.0008*%
%ADD54R,0.0165X0.0008*%
%ADD55R,0.0181X0.0008*%
%ADD56R,0.0173X0.0008*%
%ADD57R,0.0189X0.0008*%
%ADD58R,0.0205X0.0008*%
%ADD59R,0.0213X0.0008*%
%ADD60R,0.0220X0.0008*%
%ADD61R,0.0236X0.0008*%
%ADD62R,0.0228X0.0008*%
%ADD63R,0.0244X0.0008*%
%ADD64R,0.0260X0.0008*%
%ADD65R,0.0252X0.0008*%
%ADD66R,0.0268X0.0008*%
%ADD67R,0.0047X0.0008*%
%ADD68R,0.0063X0.0008*%
%ADD69R,0.0016X0.0008*%
%ADD70R,0.0307X0.0008*%
%ADD71R,0.0299X0.0008*%
%ADD72R,0.0339X0.0008*%
%ADD73R,0.0394X0.0008*%
%ADD74R,0.0417X0.0008*%
%ADD75R,0.0591X0.0008*%
%ADD76R,0.0583X0.0008*%
%ADD77R,0.0654X0.0008*%
%ADD78R,0.0669X0.0008*%
%ADD79R,0.0724X0.0008*%
%ADD80R,0.0756X0.0008*%
%ADD81R,0.0795X0.0008*%
%ADD82R,0.0843X0.0008*%
%ADD83R,0.0882X0.0008*%
%ADD84R,0.0874X0.0008*%
%ADD85R,0.0913X0.0008*%
%ADD86R,0.0969X0.0008*%
%ADD87R,0.0976X0.0008*%
%ADD88R,0.1008X0.0008*%
%ADD89R,0.1055X0.0008*%
%ADD90R,0.1063X0.0008*%
%ADD91R,0.0496X0.0008*%
%ADD92R,0.1102X0.0008*%
%ADD93R,0.1126X0.0008*%
%ADD94R,0.1173X0.0008*%
%ADD95R,0.1236X0.0008*%
%ADD96R,0.1252X0.0008*%
%ADD97R,0.1299X0.0008*%
%ADD98R,0.1339X0.0008*%
%ADD99R,0.1394X0.0008*%
%ADD100R,0.1409X0.0008*%
%ADD101R,0.1465X0.0008*%
%ADD102R,0.1504X0.0008*%
%ADD103R,0.1559X0.0008*%
%ADD104R,0.1583X0.0008*%
%ADD105R,0.1630X0.0008*%
%ADD106R,0.1677X0.0008*%
%ADD107R,0.1724X0.0008*%
%ADD108R,0.1764X0.0008*%
%ADD109R,0.1795X0.0008*%
%ADD110R,0.1819X0.0008*%
%ADD111R,0.1882X0.0008*%
%ADD112R,0.1890X0.0008*%
%ADD113R,0.1921X0.0008*%
%ADD114R,0.1937X0.0008*%
%ADD115R,0.1984X0.0008*%
%ADD116R,0.2008X0.0008*%
%ADD117R,0.2016X0.0008*%
%ADD118R,0.2055X0.0008*%
%ADD119R,0.2087X0.0008*%
%ADD120R,0.2591X0.0008*%
%ADD121R,0.2575X0.0008*%
%ADD122R,0.2559X0.0008*%
%ADD123R,0.2551X0.0008*%
%ADD124R,0.2543X0.0008*%
%ADD125R,0.0425X0.0008*%
%ADD126R,0.2520X0.0008*%
%ADD127R,0.2496X0.0008*%
%ADD128R,0.0378X0.0008*%
%ADD129R,0.2472X0.0008*%
%ADD130R,0.0354X0.0008*%
%ADD131R,0.2449X0.0008*%
%ADD132R,0.2441X0.0008*%
%ADD133R,0.0315X0.0008*%
%ADD134R,0.2417X0.0008*%
%ADD135R,0.0291X0.0008*%
%ADD136R,0.2394X0.0008*%
%ADD137R,0.0283X0.0008*%
%ADD138R,0.2378X0.0008*%
%ADD139R,0.2354X0.0008*%
%ADD140R,0.2346X0.0008*%
%ADD141R,0.1024X0.0008*%
%ADD142R,0.1150X0.0008*%
%ADD143R,0.0992X0.0008*%
%ADD144R,0.0780X0.0008*%
%ADD145R,0.0803X0.0008*%
%ADD146R,0.0709X0.0008*%
%ADD147R,0.0039X0.0008*%
%ADD148R,0.0701X0.0008*%
%ADD149R,0.0677X0.0008*%
%ADD150R,0.0717X0.0008*%
%ADD151R,0.0764X0.0008*%
%ADD152R,0.0646X0.0008*%
%ADD153R,0.0630X0.0008*%
%ADD154R,0.0614X0.0008*%
%ADD155R,0.1087X0.0008*%
%ADD156R,0.0606X0.0008*%
%ADD157R,0.1134X0.0008*%
%ADD158R,0.0575X0.0008*%
%ADD159R,0.1157X0.0008*%
%ADD160R,0.1205X0.0008*%
%ADD161R,0.1220X0.0008*%
%ADD162R,0.1244X0.0008*%
%ADD163R,0.1260X0.0008*%
%ADD164R,0.1276X0.0008*%
%ADD165R,0.1283X0.0008*%
%ADD166R,0.1323X0.0008*%
%ADD167R,0.1346X0.0008*%
%ADD168R,0.1362X0.0008*%
%ADD169R,0.1370X0.0008*%
%ADD170R,0.1386X0.0008*%
%ADD171R,0.1402X0.0008*%
%ADD172R,0.1417X0.0008*%
%ADD173R,0.1433X0.0008*%
%ADD174R,0.1441X0.0008*%
%ADD175R,0.1449X0.0008*%
%ADD176R,0.1457X0.0008*%
%ADD177R,0.1307X0.0008*%
%ADD178R,0.0598X0.0008*%
%ADD179R,0.1228X0.0008*%
%ADD180R,0.1181X0.0008*%
%ADD181R,0.0622X0.0008*%
%ADD182R,0.0638X0.0008*%
%ADD183R,0.0685X0.0008*%
%ADD184R,0.1110X0.0008*%
%ADD185R,0.0748X0.0008*%
%ADD186R,0.1071X0.0008*%
%ADD187R,0.0740X0.0008*%
%ADD188R,0.0819X0.0008*%
%ADD189R,0.1016X0.0008*%
%ADD190R,0.0772X0.0008*%
%ADD191R,0.0827X0.0008*%
%ADD192R,0.0929X0.0008*%
%ADD193R,0.0835X0.0008*%
%ADD194R,0.0693X0.0008*%
%ADD195R,0.0850X0.0008*%
%ADD196R,0.0858X0.0008*%
%ADD197R,0.0866X0.0008*%
%ADD198R,0.0890X0.0008*%
%ADD199R,0.0898X0.0008*%
%ADD200R,0.0906X0.0008*%
%ADD201R,0.0921X0.0008*%
%ADD202R,0.0937X0.0008*%
%ADD203R,0.0945X0.0008*%
%ADD204R,0.0953X0.0008*%
%ADD205R,0.0984X0.0008*%
%ADD206R,0.1000X0.0008*%
%ADD207R,0.1047X0.0008*%
%ADD208R,0.1094X0.0008*%
%ADD209R,0.0323X0.0008*%
%ADD210R,0.2512X0.0008*%
%ADD211R,0.2606X0.0008*%
%ADD212R,0.2583X0.0008*%
%ADD213R,0.2094X0.0008*%
%ADD214R,0.2063X0.0008*%
%ADD215R,0.1976X0.0008*%
%ADD216R,0.1913X0.0008*%
%ADD217R,0.1898X0.0008*%
%ADD218R,0.1811X0.0008*%
%ADD219R,0.1748X0.0008*%
%ADD220R,0.1661X0.0008*%
%ADD221R,0.1654X0.0008*%
%ADD222R,0.1646X0.0008*%
%ADD223R,0.1551X0.0008*%
%ADD224R,0.1496X0.0008*%
%ADD225R,0.1472X0.0008*%
%ADD226R,0.1425X0.0008*%
%ADD227R,0.0331X0.0008*%
%ADD228R,0.4794X0.0006*%
%ADD229R,0.4907X0.0006*%
%ADD230R,0.4970X0.0006*%
%ADD231R,0.5020X0.0006*%
%ADD232R,0.5071X0.0006*%
%ADD233R,0.5121X0.0006*%
%ADD234R,0.5159X0.0006*%
%ADD235R,0.5184X0.0006*%
%ADD236R,0.5222X0.0006*%
%ADD237R,0.5247X0.0006*%
%ADD238R,0.5285X0.0006*%
%ADD239R,0.5310X0.0006*%
%ADD240R,0.5335X0.0006*%
%ADD241R,0.5361X0.0006*%
%ADD242R,0.5386X0.0006*%
%ADD243R,0.5411X0.0006*%
%ADD244R,0.5424X0.0006*%
%ADD245R,0.5449X0.0006*%
%ADD246R,0.5474X0.0006*%
%ADD247R,0.5487X0.0006*%
%ADD248R,0.5512X0.0006*%
%ADD249R,0.5524X0.0006*%
%ADD250R,0.5537X0.0006*%
%ADD251R,0.5562X0.0006*%
%ADD252R,0.5575X0.0006*%
%ADD253R,0.5587X0.0006*%
%ADD254R,0.5613X0.0006*%
%ADD255R,0.5625X0.0006*%
%ADD256R,0.5638X0.0006*%
%ADD257R,0.5650X0.0006*%
%ADD258R,0.5663X0.0006*%
%ADD259R,0.5688X0.0006*%
%ADD260R,0.5701X0.0006*%
%ADD261R,0.5713X0.0006*%
%ADD262R,0.5726X0.0006*%
%ADD263R,0.5739X0.0006*%
%ADD264R,0.5751X0.0006*%
%ADD265R,0.5764X0.0006*%
%ADD266R,0.5776X0.0006*%
%ADD267R,0.5789X0.0006*%
%ADD268R,0.5802X0.0006*%
%ADD269R,0.5814X0.0006*%
%ADD270R,0.5827X0.0006*%
%ADD271R,0.5839X0.0006*%
%ADD272R,0.5852X0.0006*%
%ADD273R,0.0391X0.0006*%
%ADD274R,0.0561X0.0006*%
%ADD275R,0.0397X0.0006*%
%ADD276R,0.0252X0.0006*%
%ADD277R,0.0265X0.0006*%
%ADD278R,0.0403X0.0006*%
%ADD279R,0.0328X0.0006*%
%ADD280R,0.0422X0.0006*%
%ADD281R,0.0384X0.0006*%
%ADD282R,0.0246X0.0006*%
%ADD283R,0.0359X0.0006*%
%ADD284R,0.0302X0.0006*%
%ADD285R,0.0416X0.0006*%
%ADD286R,0.0233X0.0006*%
%ADD287R,0.0283X0.0006*%
%ADD288R,0.0409X0.0006*%
%ADD289R,0.0220X0.0006*%
%ADD290R,0.0309X0.0006*%
%ADD291R,0.0277X0.0006*%
%ADD292R,0.0214X0.0006*%
%ADD293R,0.0290X0.0006*%
%ADD294R,0.0271X0.0006*%
%ADD295R,0.0208X0.0006*%
%ADD296R,0.0258X0.0006*%
%ADD297R,0.0428X0.0006*%
%ADD298R,0.0378X0.0006*%
%ADD299R,0.0435X0.0006*%
%ADD300R,0.0372X0.0006*%
%ADD301R,0.0441X0.0006*%
%ADD302R,0.0365X0.0006*%
%ADD303R,0.0447X0.0006*%
%ADD304R,0.0605X0.0006*%
%ADD305R,0.0321X0.0006*%
%ADD306R,0.0353X0.0006*%
%ADD307R,0.0454X0.0006*%
%ADD308R,0.0346X0.0006*%
%ADD309R,0.0460X0.0006*%
%ADD310R,0.0340X0.0006*%
%ADD311R,0.0334X0.0006*%
%ADD312R,0.0466X0.0006*%
%ADD313R,0.0472X0.0006*%
%ADD314R,0.0315X0.0006*%
%ADD315R,0.0479X0.0006*%
%ADD316R,0.0485X0.0006*%
%ADD317R,0.0296X0.0006*%
%ADD318R,0.0491X0.0006*%
%ADD319R,0.0498X0.0006*%
%ADD320R,0.0504X0.0006*%
%ADD321R,0.0510X0.0006*%
%ADD322R,0.0517X0.0006*%
%ADD323R,0.0239X0.0006*%
%ADD324R,0.0227X0.0006*%
%ADD325R,0.0523X0.0006*%
%ADD326R,0.0529X0.0006*%
%ADD327R,0.0202X0.0006*%
%ADD328R,0.0195X0.0006*%
%ADD329R,0.0189X0.0006*%
%ADD330R,0.0535X0.0006*%
%ADD331R,0.0183X0.0006*%
%ADD332R,0.0176X0.0006*%
%ADD333R,0.0170X0.0006*%
%ADD334R,0.0164X0.0006*%
%ADD335R,0.0006X0.0006*%
%ADD336R,0.0542X0.0006*%
%ADD337R,0.0157X0.0006*%
%ADD338R,0.0013X0.0006*%
%ADD339R,0.0151X0.0006*%
%ADD340R,0.0145X0.0006*%
%ADD341R,0.0019X0.0006*%
%ADD342R,0.0025X0.0006*%
%ADD343R,0.0743X0.0006*%
%ADD344R,0.0139X0.0006*%
%ADD345R,0.0132X0.0006*%
%ADD346R,0.0031X0.0006*%
%ADD347R,0.0126X0.0006*%
%ADD348R,0.0038X0.0006*%
%ADD349R,0.0548X0.0006*%
%ADD350R,0.0120X0.0006*%
%ADD351R,0.0044X0.0006*%
%ADD352R,0.0113X0.0006*%
%ADD353R,0.0050X0.0006*%
%ADD354R,0.0107X0.0006*%
%ADD355R,0.0057X0.0006*%
%ADD356R,0.0101X0.0006*%
%ADD357R,0.0094X0.0006*%
%ADD358R,0.0063X0.0006*%
%ADD359R,0.0069X0.0006*%
%ADD360R,0.0088X0.0006*%
%ADD361R,0.0082X0.0006*%
%ADD362R,0.0076X0.0006*%
%ADD363R,0.0611X0.0006*%
%ADD364R,0.0624X0.0006*%
%ADD365R,0.0630X0.0006*%
%ADD366R,0.0643X0.0006*%
%ADD367R,0.0655X0.0006*%
%ADD368R,0.0680X0.0006*%
%ADD369R,0.5877X0.0006*%
%ADD370R,0.5865X0.0006*%
%ADD371R,0.5676X0.0006*%
%ADD372R,0.5600X0.0006*%
%ADD373R,0.5550X0.0006*%
%ADD374R,0.5499X0.0006*%
%ADD375R,0.5461X0.0006*%
%ADD376R,0.5436X0.0006*%
%ADD377R,0.5398X0.0006*%
%ADD378R,0.5373X0.0006*%
%ADD379R,0.5348X0.0006*%
%ADD380R,0.5323X0.0006*%
%ADD381R,0.5298X0.0006*%
%ADD382R,0.5260X0.0006*%
%ADD383R,0.5235X0.0006*%
%ADD384R,0.5197X0.0006*%
%ADD385R,0.5172X0.0006*%
%ADD386R,0.5134X0.0006*%
%ADD387R,0.5096X0.0006*%
%ADD388R,0.5046X0.0006*%
%ADD389R,0.4995X0.0006*%
%ADD390R,0.4932X0.0006*%
%ADD391R,0.4857X0.0006*%
%ADD392R,0.0018X0.0350*%
%ADD393R,0.0018X0.0203*%
%ADD394R,0.0018X0.0350*%
%ADD395R,0.0018X0.0203*%
%ADD396R,0.0018X0.0350*%
%ADD397R,0.0018X0.0203*%
%ADD398R,0.0018X0.1124*%
%ADD399R,0.0018X0.1106*%
%ADD400R,0.0018X0.1124*%
%ADD401R,0.0018X0.1106*%
%ADD402R,0.0018X0.1124*%
%ADD403R,0.0018X0.1106*%
%ADD404R,0.0018X0.0203*%
%ADD405R,0.0018X0.0203*%
%ADD406R,0.0018X0.0203*%
%ADD407R,0.0018X0.1862*%
%ADD408R,0.0018X0.1014*%
%ADD409R,0.0018X0.1014*%
%ADD410R,0.0018X0.1862*%
%ADD411R,0.0018X0.1014*%
%ADD412R,0.0018X0.1014*%
%ADD413R,0.0018X0.1862*%
%ADD414R,0.0018X0.1014*%
%ADD415R,0.0018X0.1014*%
D10*
X001535Y000987D02*
X001535Y020987D01*
X001537Y021031D01*
X001543Y021074D01*
X001552Y021116D01*
X001565Y021158D01*
X001582Y021198D01*
X001602Y021237D01*
X001625Y021274D01*
X001652Y021308D01*
X001681Y021341D01*
X001714Y021370D01*
X001748Y021397D01*
X001785Y021420D01*
X001824Y021440D01*
X001864Y021457D01*
X001906Y021470D01*
X001948Y021479D01*
X001991Y021485D01*
X002035Y021487D01*
X026935Y021487D01*
X027535Y020887D01*
X027535Y016487D01*
X028535Y015487D01*
X028535Y002487D01*
X027535Y001487D01*
X027535Y000887D01*
X027533Y000848D01*
X027527Y000809D01*
X027518Y000771D01*
X027505Y000734D01*
X027488Y000698D01*
X027468Y000665D01*
X027444Y000633D01*
X027418Y000604D01*
X027389Y000578D01*
X027357Y000554D01*
X027324Y000534D01*
X027288Y000517D01*
X027251Y000504D01*
X027213Y000495D01*
X027174Y000489D01*
X027135Y000487D01*
X002035Y000487D01*
X001991Y000489D01*
X001948Y000495D01*
X001906Y000504D01*
X001864Y000517D01*
X001824Y000534D01*
X001785Y000554D01*
X001748Y000577D01*
X001714Y000604D01*
X001681Y000633D01*
X001652Y000666D01*
X001625Y000700D01*
X001602Y000737D01*
X001582Y000776D01*
X001565Y000816D01*
X001552Y000858D01*
X001543Y000900D01*
X001537Y000943D01*
X001535Y000987D01*
X025235Y018787D02*
X025335Y018787D01*
X025435Y018887D01*
X025535Y018887D01*
X025485Y018837D02*
X025435Y018887D01*
X025535Y018987D01*
X025685Y018837D01*
X025485Y018837D01*
X025335Y018787D02*
X025835Y018787D01*
X025535Y019087D01*
X025235Y018787D01*
X026235Y019087D02*
X026335Y019087D01*
X026435Y018987D01*
X026535Y018987D01*
X026485Y019037D02*
X026435Y018987D01*
X026535Y018887D01*
X026685Y019037D01*
X026485Y019037D01*
X026335Y019087D02*
X026835Y019087D01*
X026535Y018787D01*
X026235Y019087D01*
D11*
X026905Y014737D02*
X026907Y014787D01*
X026913Y014837D01*
X026923Y014886D01*
X026937Y014934D01*
X026954Y014981D01*
X026975Y015026D01*
X027000Y015070D01*
X027028Y015111D01*
X027060Y015150D01*
X027094Y015187D01*
X027131Y015221D01*
X027171Y015251D01*
X027213Y015278D01*
X027257Y015302D01*
X027303Y015323D01*
X027350Y015339D01*
X027398Y015352D01*
X027448Y015361D01*
X027497Y015366D01*
X027548Y015367D01*
X027598Y015364D01*
X027647Y015357D01*
X027696Y015346D01*
X027744Y015331D01*
X027790Y015313D01*
X027835Y015291D01*
X027878Y015265D01*
X027919Y015236D01*
X027958Y015204D01*
X027994Y015169D01*
X028026Y015131D01*
X028056Y015091D01*
X028083Y015048D01*
X028106Y015004D01*
X028125Y014958D01*
X028141Y014910D01*
X028153Y014861D01*
X028161Y014812D01*
X028165Y014762D01*
X028165Y014712D01*
X028161Y014662D01*
X028153Y014613D01*
X028141Y014564D01*
X028125Y014516D01*
X028106Y014470D01*
X028083Y014426D01*
X028056Y014383D01*
X028026Y014343D01*
X027994Y014305D01*
X027958Y014270D01*
X027919Y014238D01*
X027878Y014209D01*
X027835Y014183D01*
X027790Y014161D01*
X027744Y014143D01*
X027696Y014128D01*
X027647Y014117D01*
X027598Y014110D01*
X027548Y014107D01*
X027497Y014108D01*
X027448Y014113D01*
X027398Y014122D01*
X027350Y014135D01*
X027303Y014151D01*
X027257Y014172D01*
X027213Y014196D01*
X027171Y014223D01*
X027131Y014253D01*
X027094Y014287D01*
X027060Y014324D01*
X027028Y014363D01*
X027000Y014404D01*
X026975Y014448D01*
X026954Y014493D01*
X026937Y014540D01*
X026923Y014588D01*
X026913Y014637D01*
X026907Y014687D01*
X026905Y014737D01*
X026905Y003237D02*
X026907Y003287D01*
X026913Y003337D01*
X026923Y003386D01*
X026937Y003434D01*
X026954Y003481D01*
X026975Y003526D01*
X027000Y003570D01*
X027028Y003611D01*
X027060Y003650D01*
X027094Y003687D01*
X027131Y003721D01*
X027171Y003751D01*
X027213Y003778D01*
X027257Y003802D01*
X027303Y003823D01*
X027350Y003839D01*
X027398Y003852D01*
X027448Y003861D01*
X027497Y003866D01*
X027548Y003867D01*
X027598Y003864D01*
X027647Y003857D01*
X027696Y003846D01*
X027744Y003831D01*
X027790Y003813D01*
X027835Y003791D01*
X027878Y003765D01*
X027919Y003736D01*
X027958Y003704D01*
X027994Y003669D01*
X028026Y003631D01*
X028056Y003591D01*
X028083Y003548D01*
X028106Y003504D01*
X028125Y003458D01*
X028141Y003410D01*
X028153Y003361D01*
X028161Y003312D01*
X028165Y003262D01*
X028165Y003212D01*
X028161Y003162D01*
X028153Y003113D01*
X028141Y003064D01*
X028125Y003016D01*
X028106Y002970D01*
X028083Y002926D01*
X028056Y002883D01*
X028026Y002843D01*
X027994Y002805D01*
X027958Y002770D01*
X027919Y002738D01*
X027878Y002709D01*
X027835Y002683D01*
X027790Y002661D01*
X027744Y002643D01*
X027696Y002628D01*
X027647Y002617D01*
X027598Y002610D01*
X027548Y002607D01*
X027497Y002608D01*
X027448Y002613D01*
X027398Y002622D01*
X027350Y002635D01*
X027303Y002651D01*
X027257Y002672D01*
X027213Y002696D01*
X027171Y002723D01*
X027131Y002753D01*
X027094Y002787D01*
X027060Y002824D01*
X027028Y002863D01*
X027000Y002904D01*
X026975Y002948D01*
X026954Y002993D01*
X026937Y003040D01*
X026923Y003088D01*
X026913Y003137D01*
X026907Y003187D01*
X026905Y003237D01*
X006405Y001487D02*
X006407Y001537D01*
X006413Y001587D01*
X006423Y001636D01*
X006437Y001684D01*
X006454Y001731D01*
X006475Y001776D01*
X006500Y001820D01*
X006528Y001861D01*
X006560Y001900D01*
X006594Y001937D01*
X006631Y001971D01*
X006671Y002001D01*
X006713Y002028D01*
X006757Y002052D01*
X006803Y002073D01*
X006850Y002089D01*
X006898Y002102D01*
X006948Y002111D01*
X006997Y002116D01*
X007048Y002117D01*
X007098Y002114D01*
X007147Y002107D01*
X007196Y002096D01*
X007244Y002081D01*
X007290Y002063D01*
X007335Y002041D01*
X007378Y002015D01*
X007419Y001986D01*
X007458Y001954D01*
X007494Y001919D01*
X007526Y001881D01*
X007556Y001841D01*
X007583Y001798D01*
X007606Y001754D01*
X007625Y001708D01*
X007641Y001660D01*
X007653Y001611D01*
X007661Y001562D01*
X007665Y001512D01*
X007665Y001462D01*
X007661Y001412D01*
X007653Y001363D01*
X007641Y001314D01*
X007625Y001266D01*
X007606Y001220D01*
X007583Y001176D01*
X007556Y001133D01*
X007526Y001093D01*
X007494Y001055D01*
X007458Y001020D01*
X007419Y000988D01*
X007378Y000959D01*
X007335Y000933D01*
X007290Y000911D01*
X007244Y000893D01*
X007196Y000878D01*
X007147Y000867D01*
X007098Y000860D01*
X007048Y000857D01*
X006997Y000858D01*
X006948Y000863D01*
X006898Y000872D01*
X006850Y000885D01*
X006803Y000901D01*
X006757Y000922D01*
X006713Y000946D01*
X006671Y000973D01*
X006631Y001003D01*
X006594Y001037D01*
X006560Y001074D01*
X006528Y001113D01*
X006500Y001154D01*
X006475Y001198D01*
X006454Y001243D01*
X006437Y001290D01*
X006423Y001338D01*
X006413Y001387D01*
X006407Y001437D01*
X006405Y001487D01*
X002922Y014699D02*
X002924Y014717D01*
X002930Y014733D01*
X002939Y014748D01*
X002952Y014761D01*
X002967Y014770D01*
X002983Y014776D01*
X003001Y014778D01*
X003019Y014776D01*
X003035Y014770D01*
X003050Y014761D01*
X003063Y014748D01*
X003072Y014733D01*
X003078Y014717D01*
X003080Y014699D01*
X003078Y014681D01*
X003072Y014665D01*
X003063Y014650D01*
X003050Y014637D01*
X003035Y014628D01*
X003019Y014622D01*
X003001Y014620D01*
X002983Y014622D01*
X002967Y014628D01*
X002952Y014637D01*
X002939Y014650D01*
X002930Y014665D01*
X002924Y014681D01*
X002922Y014699D01*
X002922Y016274D02*
X002924Y016292D01*
X002930Y016308D01*
X002939Y016323D01*
X002952Y016336D01*
X002967Y016345D01*
X002983Y016351D01*
X003001Y016353D01*
X003019Y016351D01*
X003035Y016345D01*
X003050Y016336D01*
X003063Y016323D01*
X003072Y016308D01*
X003078Y016292D01*
X003080Y016274D01*
X003078Y016256D01*
X003072Y016240D01*
X003063Y016225D01*
X003050Y016212D01*
X003035Y016203D01*
X003019Y016197D01*
X003001Y016195D01*
X002983Y016197D01*
X002967Y016203D01*
X002952Y016212D01*
X002939Y016225D01*
X002930Y016240D01*
X002924Y016256D01*
X002922Y016274D01*
X006905Y020487D02*
X006907Y020537D01*
X006913Y020587D01*
X006923Y020636D01*
X006937Y020684D01*
X006954Y020731D01*
X006975Y020776D01*
X007000Y020820D01*
X007028Y020861D01*
X007060Y020900D01*
X007094Y020937D01*
X007131Y020971D01*
X007171Y021001D01*
X007213Y021028D01*
X007257Y021052D01*
X007303Y021073D01*
X007350Y021089D01*
X007398Y021102D01*
X007448Y021111D01*
X007497Y021116D01*
X007548Y021117D01*
X007598Y021114D01*
X007647Y021107D01*
X007696Y021096D01*
X007744Y021081D01*
X007790Y021063D01*
X007835Y021041D01*
X007878Y021015D01*
X007919Y020986D01*
X007958Y020954D01*
X007994Y020919D01*
X008026Y020881D01*
X008056Y020841D01*
X008083Y020798D01*
X008106Y020754D01*
X008125Y020708D01*
X008141Y020660D01*
X008153Y020611D01*
X008161Y020562D01*
X008165Y020512D01*
X008165Y020462D01*
X008161Y020412D01*
X008153Y020363D01*
X008141Y020314D01*
X008125Y020266D01*
X008106Y020220D01*
X008083Y020176D01*
X008056Y020133D01*
X008026Y020093D01*
X007994Y020055D01*
X007958Y020020D01*
X007919Y019988D01*
X007878Y019959D01*
X007835Y019933D01*
X007790Y019911D01*
X007744Y019893D01*
X007696Y019878D01*
X007647Y019867D01*
X007598Y019860D01*
X007548Y019857D01*
X007497Y019858D01*
X007448Y019863D01*
X007398Y019872D01*
X007350Y019885D01*
X007303Y019901D01*
X007257Y019922D01*
X007213Y019946D01*
X007171Y019973D01*
X007131Y020003D01*
X007094Y020037D01*
X007060Y020074D01*
X007028Y020113D01*
X007000Y020154D01*
X006975Y020198D01*
X006954Y020243D01*
X006937Y020290D01*
X006923Y020338D01*
X006913Y020387D01*
X006907Y020437D01*
X006905Y020487D01*
D12*
X004251Y019317D02*
X003944Y019317D01*
X004098Y019317D02*
X004098Y018857D01*
X003791Y018933D02*
X003714Y018857D01*
X003561Y018857D01*
X003484Y018933D01*
X003330Y018857D02*
X003177Y019010D01*
X003254Y019010D02*
X003023Y019010D01*
X003023Y018857D02*
X003023Y019317D01*
X003254Y019317D01*
X003330Y019240D01*
X003330Y019087D01*
X003254Y019010D01*
X003484Y019164D02*
X003561Y019087D01*
X003714Y019087D01*
X003791Y019010D01*
X003791Y018933D01*
X003791Y019240D02*
X003714Y019317D01*
X003561Y019317D01*
X003484Y019240D01*
X003484Y019164D01*
X010055Y016707D02*
X010055Y016507D01*
X010155Y016507D01*
X010188Y016540D01*
X010188Y016673D01*
X010155Y016707D01*
X010055Y016707D01*
X010276Y016707D02*
X010409Y016707D01*
X010342Y016707D02*
X010342Y016507D01*
X010497Y016507D02*
X010497Y016707D01*
X010597Y016707D01*
X010630Y016673D01*
X010630Y016607D01*
X010597Y016573D01*
X010497Y016573D01*
X010563Y016573D02*
X010630Y016507D01*
X010597Y015707D02*
X010530Y015707D01*
X010497Y015673D01*
X010497Y015640D01*
X010530Y015607D01*
X010597Y015607D01*
X010630Y015573D01*
X010630Y015540D01*
X010597Y015507D01*
X010530Y015507D01*
X010497Y015540D01*
X010342Y015507D02*
X010342Y015707D01*
X010276Y015707D02*
X010409Y015707D01*
X010597Y015707D02*
X010630Y015673D01*
X010188Y015673D02*
X010188Y015607D01*
X010155Y015573D01*
X010055Y015573D01*
X010055Y015507D02*
X010055Y015707D01*
X010155Y015707D01*
X010188Y015673D01*
X010121Y015573D02*
X010188Y015507D01*
X010731Y018525D02*
X011038Y018525D01*
X011115Y018602D01*
X011115Y018756D01*
X011038Y018832D01*
X010884Y018832D01*
X010884Y018679D01*
X010731Y018832D02*
X010654Y018756D01*
X010654Y018602D01*
X010731Y018525D01*
X010654Y018986D02*
X011115Y019293D01*
X010654Y019293D01*
X010654Y019446D02*
X010654Y019676D01*
X010731Y019753D01*
X011038Y019753D01*
X011115Y019676D01*
X011115Y019446D01*
X010654Y019446D01*
X010654Y018986D02*
X011115Y018986D01*
X011654Y018986D02*
X012115Y019293D01*
X011654Y019293D01*
X011654Y019446D02*
X011654Y019676D01*
X011731Y019753D01*
X012038Y019753D01*
X012115Y019676D01*
X012115Y019446D01*
X011654Y019446D01*
X011654Y018986D02*
X012115Y018986D01*
X012038Y018832D02*
X011884Y018832D01*
X011884Y018679D01*
X011731Y018832D02*
X011654Y018756D01*
X011654Y018602D01*
X011731Y018525D01*
X012038Y018525D01*
X012115Y018602D01*
X012115Y018756D01*
X012038Y018832D01*
X012654Y019139D02*
X013115Y019139D01*
X013115Y018986D02*
X013115Y019293D01*
X013038Y019446D02*
X013115Y019523D01*
X013115Y019676D01*
X013038Y019753D01*
X012961Y019753D01*
X012884Y019676D01*
X012884Y019600D01*
X012884Y019676D02*
X012808Y019753D01*
X012731Y019753D01*
X012654Y019676D01*
X012654Y019523D01*
X012731Y019446D01*
X012654Y019139D02*
X012808Y018986D01*
X013654Y019139D02*
X013808Y018986D01*
X013654Y019139D02*
X014115Y019139D01*
X014115Y018986D02*
X014115Y019293D01*
X014115Y019446D02*
X013808Y019753D01*
X013731Y019753D01*
X013654Y019676D01*
X013654Y019523D01*
X013731Y019446D01*
X014115Y019446D02*
X014115Y019753D01*
X014654Y019600D02*
X014808Y019446D01*
X014654Y019600D02*
X015115Y019600D01*
X015115Y019753D02*
X015115Y019446D01*
X015115Y019293D02*
X015115Y018986D01*
X015115Y019139D02*
X014654Y019139D01*
X014808Y018986D01*
X015654Y019139D02*
X016115Y019139D01*
X016115Y018986D02*
X016115Y019293D01*
X016038Y019446D02*
X015731Y019753D01*
X016038Y019753D01*
X016115Y019676D01*
X016115Y019523D01*
X016038Y019446D01*
X015731Y019446D01*
X015654Y019523D01*
X015654Y019676D01*
X015731Y019753D01*
X015654Y019139D02*
X015808Y018986D01*
X016654Y019523D02*
X016731Y019446D01*
X016808Y019446D01*
X016884Y019523D01*
X016884Y019753D01*
X016731Y019753D02*
X017038Y019753D01*
X017115Y019676D01*
X017115Y019523D01*
X017038Y019446D01*
X016654Y019523D02*
X016654Y019676D01*
X016731Y019753D01*
X017654Y019676D02*
X017731Y019753D01*
X017808Y019753D01*
X017884Y019676D01*
X017884Y019523D01*
X017808Y019446D01*
X017731Y019446D01*
X017654Y019523D01*
X017654Y019676D01*
X017884Y019676D02*
X017961Y019753D01*
X018038Y019753D01*
X018115Y019676D01*
X018115Y019523D01*
X018038Y019446D01*
X017961Y019446D01*
X017884Y019523D01*
X019254Y019446D02*
X019254Y019753D01*
X019331Y019753D01*
X019638Y019446D01*
X019715Y019446D01*
X020254Y019753D02*
X020331Y019600D01*
X020484Y019446D01*
X020484Y019676D01*
X020561Y019753D01*
X020638Y019753D01*
X020715Y019676D01*
X020715Y019523D01*
X020638Y019446D01*
X020484Y019446D01*
X021254Y019446D02*
X021484Y019446D01*
X021408Y019600D01*
X021408Y019676D01*
X021484Y019753D01*
X021638Y019753D01*
X021715Y019676D01*
X021715Y019523D01*
X021638Y019446D01*
X021254Y019446D02*
X021254Y019753D01*
X022254Y019676D02*
X022484Y019446D01*
X022484Y019753D01*
X022254Y019676D02*
X022715Y019676D01*
X023254Y019676D02*
X023331Y019753D01*
X023408Y019753D01*
X023484Y019676D01*
X023561Y019753D01*
X023638Y019753D01*
X023715Y019676D01*
X023715Y019523D01*
X023638Y019446D01*
X023484Y019600D02*
X023484Y019676D01*
X023254Y019676D02*
X023254Y019523D01*
X023331Y019446D01*
X024254Y019523D02*
X024331Y019446D01*
X024254Y019523D02*
X024254Y019676D01*
X024331Y019753D01*
X024408Y019753D01*
X024715Y019446D01*
X024715Y019753D01*
X025254Y019600D02*
X025715Y019600D01*
X025715Y019753D02*
X025715Y019446D01*
X025408Y019446D02*
X025254Y019600D01*
X026254Y019676D02*
X026331Y019753D01*
X026638Y019446D01*
X026715Y019523D01*
X026715Y019676D01*
X026638Y019753D01*
X026331Y019753D01*
X026254Y019676D02*
X026254Y019523D01*
X026331Y019446D01*
X026638Y019446D01*
X026715Y018553D02*
X026254Y018246D01*
X026331Y018093D02*
X026484Y018093D01*
X026561Y018016D01*
X026561Y017786D01*
X026561Y017939D02*
X026715Y018093D01*
X026715Y018246D02*
X026254Y018553D01*
X025815Y018553D02*
X025354Y018246D01*
X025354Y018093D02*
X025354Y017786D01*
X025354Y017939D02*
X025815Y017939D01*
X025815Y018246D02*
X025354Y018553D01*
X026254Y018016D02*
X026254Y017786D01*
X026715Y017786D01*
X026331Y018093D02*
X026254Y018016D01*
X009035Y004377D02*
X009035Y002597D01*
X007535Y002597D02*
X007535Y004377D01*
X014304Y003384D02*
X014304Y003077D01*
X014304Y003231D02*
X014765Y003231D01*
X014688Y002924D02*
X014765Y002847D01*
X014765Y002694D01*
X014688Y002617D01*
X014765Y002464D02*
X014611Y002310D01*
X014611Y002387D02*
X014611Y002157D01*
X014765Y002157D02*
X014304Y002157D01*
X014304Y002387D01*
X014381Y002464D01*
X014534Y002464D01*
X014611Y002387D01*
X014458Y002617D02*
X014534Y002694D01*
X014534Y002847D01*
X014611Y002924D01*
X014688Y002924D01*
X014381Y002924D02*
X014304Y002847D01*
X014304Y002694D01*
X014381Y002617D01*
X014458Y002617D01*
X015304Y002617D02*
X015611Y002617D01*
X015765Y002771D01*
X015611Y002924D01*
X015304Y002924D01*
X015381Y003077D02*
X015304Y003154D01*
X015304Y003308D01*
X015381Y003384D01*
X015458Y003384D01*
X015534Y003308D01*
X015611Y003384D01*
X015688Y003384D01*
X015765Y003308D01*
X015765Y003154D01*
X015688Y003077D01*
X015534Y003231D02*
X015534Y003308D01*
X016304Y003308D02*
X016304Y003154D01*
X016381Y003077D01*
X016304Y002924D02*
X016611Y002924D01*
X016765Y002771D01*
X016611Y002617D01*
X016304Y002617D01*
X016381Y002464D02*
X016458Y002464D01*
X016534Y002387D01*
X016611Y002464D01*
X016688Y002464D01*
X016765Y002387D01*
X016765Y002233D01*
X016688Y002157D01*
X016534Y002310D02*
X016534Y002387D01*
X016381Y002464D02*
X016304Y002387D01*
X016304Y002233D01*
X016381Y002157D01*
X015765Y002233D02*
X015765Y002387D01*
X015688Y002464D01*
X015611Y002464D01*
X015534Y002387D01*
X015534Y002310D01*
X015534Y002387D02*
X015458Y002464D01*
X015381Y002464D01*
X015304Y002387D01*
X015304Y002233D01*
X015381Y002157D01*
X015688Y002157D02*
X015765Y002233D01*
X016688Y003077D02*
X016765Y003154D01*
X016765Y003308D01*
X016688Y003384D01*
X016611Y003384D01*
X016534Y003308D01*
X016534Y003231D01*
X016534Y003308D02*
X016458Y003384D01*
X016381Y003384D01*
X016304Y003308D01*
X017304Y003308D02*
X017304Y003077D01*
X017765Y003077D01*
X017765Y003308D01*
X017688Y003384D01*
X017381Y003384D01*
X017304Y003308D01*
X017304Y002924D02*
X017765Y002924D01*
X017304Y002617D01*
X017765Y002617D01*
X017688Y002464D02*
X017534Y002464D01*
X017534Y002310D01*
X017381Y002157D02*
X017688Y002157D01*
X017765Y002233D01*
X017765Y002387D01*
X017688Y002464D01*
X017381Y002464D02*
X017304Y002387D01*
X017304Y002233D01*
X017381Y002157D01*
X018304Y002233D02*
X018381Y002157D01*
X018688Y002157D01*
X018765Y002233D01*
X018765Y002387D01*
X018688Y002464D01*
X018534Y002464D01*
X018534Y002310D01*
X018381Y002464D02*
X018304Y002387D01*
X018304Y002233D01*
X018304Y002617D02*
X018765Y002924D01*
X018304Y002924D01*
X018304Y003077D02*
X018304Y003308D01*
X018381Y003384D01*
X018688Y003384D01*
X018765Y003308D01*
X018765Y003077D01*
X018304Y003077D01*
X018304Y002617D02*
X018765Y002617D01*
X019304Y002617D02*
X019304Y002771D01*
X019304Y002694D02*
X019765Y002694D01*
X019765Y002617D02*
X019765Y002771D01*
X019765Y002924D02*
X019304Y002924D01*
X019765Y003231D01*
X019304Y003231D01*
X019304Y002464D02*
X019611Y002464D01*
X019765Y002310D01*
X019611Y002157D01*
X019304Y002157D01*
X021304Y002310D02*
X021458Y002157D01*
X021765Y002157D01*
X021534Y002157D02*
X021534Y002464D01*
X021458Y002464D02*
X021765Y002464D01*
X021688Y002617D02*
X021381Y002617D01*
X021304Y002694D01*
X021304Y002847D01*
X021381Y002924D01*
X021688Y002617D01*
X021765Y002694D01*
X021765Y002847D01*
X021688Y002924D01*
X021381Y002924D01*
X021458Y002464D02*
X021304Y002310D01*
X022304Y002157D02*
X022765Y002464D01*
X022304Y002464D01*
X022381Y002617D02*
X022304Y002694D01*
X022304Y002847D01*
X022381Y002924D01*
X022688Y002924D02*
X022765Y002847D01*
X022765Y002694D01*
X022688Y002617D01*
X022381Y002617D01*
X022304Y002157D02*
X022765Y002157D01*
X023304Y002183D02*
X023381Y002107D01*
X023458Y002107D01*
X023534Y002183D01*
X023534Y002337D01*
X023611Y002414D01*
X023688Y002414D01*
X023765Y002337D01*
X023765Y002183D01*
X023688Y002107D01*
X023304Y002183D02*
X023304Y002337D01*
X023381Y002414D01*
X023304Y002567D02*
X023304Y002797D01*
X023381Y002874D01*
X023688Y002874D01*
X023765Y002797D01*
X023765Y002567D01*
X023304Y002567D01*
X023304Y003027D02*
X023304Y003258D01*
X023381Y003334D01*
X023688Y003334D01*
X023765Y003258D01*
X023765Y003027D01*
X023304Y003027D01*
X023381Y003488D02*
X023304Y003565D01*
X023304Y003718D01*
X023381Y003795D01*
X023458Y003795D01*
X023534Y003718D01*
X023611Y003795D01*
X023688Y003795D01*
X023765Y003718D01*
X023765Y003565D01*
X023688Y003488D01*
X023534Y003641D02*
X023534Y003718D01*
X024304Y003718D02*
X024304Y003565D01*
X024381Y003488D01*
X024381Y003334D02*
X024304Y003258D01*
X024304Y003027D01*
X024765Y003027D01*
X024765Y003258D01*
X024688Y003334D01*
X024381Y003334D01*
X024304Y003718D02*
X024381Y003795D01*
X024458Y003795D01*
X024765Y003488D01*
X024765Y003795D01*
X025304Y003308D02*
X025381Y003384D01*
X025688Y003077D01*
X025765Y003154D01*
X025765Y003308D01*
X025688Y003384D01*
X025381Y003384D01*
X025304Y003308D02*
X025304Y003154D01*
X025381Y003077D01*
X025688Y003077D01*
X025688Y002924D02*
X025765Y002847D01*
X025765Y002694D01*
X025688Y002617D01*
X025688Y002464D02*
X025765Y002387D01*
X025765Y002233D01*
X025688Y002157D01*
X025381Y002157D01*
X025304Y002233D01*
X025304Y002387D01*
X025381Y002464D01*
X025381Y002617D02*
X025458Y002617D01*
X025534Y002694D01*
X025534Y002847D01*
X025611Y002924D01*
X025688Y002924D01*
X025381Y002924D02*
X025304Y002847D01*
X025304Y002694D01*
X025381Y002617D01*
X024765Y002567D02*
X024765Y002797D01*
X024688Y002874D01*
X024381Y002874D01*
X024304Y002797D01*
X024304Y002567D01*
X024765Y002567D01*
X024688Y002414D02*
X024765Y002337D01*
X024765Y002183D01*
X024688Y002107D01*
X024534Y002183D02*
X024458Y002107D01*
X024381Y002107D01*
X024304Y002183D01*
X024304Y002337D01*
X024381Y002414D01*
X024534Y002337D02*
X024611Y002414D01*
X024688Y002414D01*
X024534Y002337D02*
X024534Y002183D01*
X026304Y002157D02*
X026765Y002157D01*
X026765Y002464D01*
X026765Y002617D02*
X026304Y002617D01*
X026765Y002924D01*
X026304Y002924D01*
X026304Y002464D02*
X026304Y002157D01*
X026534Y002157D02*
X026534Y002310D01*
D13*
X028509Y004087D02*
X028509Y010386D01*
X019060Y010386D01*
X019060Y004087D01*
X028509Y004087D01*
X025278Y009402D02*
X025280Y009435D01*
X025286Y009467D01*
X025295Y009499D01*
X025309Y009529D01*
X025325Y009557D01*
X025345Y009583D01*
X025368Y009607D01*
X025394Y009628D01*
X025422Y009645D01*
X025452Y009660D01*
X025483Y009670D01*
X025515Y009677D01*
X025548Y009680D01*
X025581Y009679D01*
X025613Y009674D01*
X025645Y009665D01*
X025676Y009653D01*
X025704Y009637D01*
X025731Y009618D01*
X025755Y009596D01*
X025777Y009571D01*
X025795Y009543D01*
X025810Y009514D01*
X025822Y009483D01*
X025830Y009451D01*
X025834Y009418D01*
X025834Y009386D01*
X025830Y009353D01*
X025822Y009321D01*
X025810Y009290D01*
X025795Y009261D01*
X025777Y009233D01*
X025755Y009208D01*
X025731Y009186D01*
X025704Y009167D01*
X025676Y009151D01*
X025645Y009139D01*
X025613Y009130D01*
X025581Y009125D01*
X025548Y009124D01*
X025515Y009127D01*
X025483Y009134D01*
X025452Y009144D01*
X025422Y009159D01*
X025394Y009176D01*
X025368Y009197D01*
X025345Y009221D01*
X025325Y009247D01*
X025309Y009275D01*
X025295Y009305D01*
X025286Y009337D01*
X025280Y009369D01*
X025278Y009402D01*
X025644Y011012D02*
X025599Y011057D01*
X025599Y011147D01*
X025644Y011192D01*
X025689Y011192D01*
X025735Y011147D01*
X025780Y011192D01*
X025825Y011192D01*
X025870Y011147D01*
X025870Y011057D01*
X025825Y011012D01*
X025735Y011102D02*
X025735Y011147D01*
X025780Y011306D02*
X025870Y011396D01*
X025780Y011486D01*
X025599Y011486D01*
X025644Y011601D02*
X025599Y011646D01*
X025599Y011736D01*
X025644Y011781D01*
X025689Y011781D01*
X025735Y011736D01*
X025780Y011781D01*
X025825Y011781D01*
X025870Y011736D01*
X025870Y011646D01*
X025825Y011601D01*
X025735Y011691D02*
X025735Y011736D01*
X025609Y012042D02*
X025609Y012177D01*
X025654Y012222D01*
X025835Y012222D01*
X025880Y012177D01*
X025880Y012042D01*
X025609Y012042D01*
X025654Y012336D02*
X025835Y012336D01*
X025880Y012381D01*
X025880Y012471D01*
X025835Y012516D01*
X025880Y012631D02*
X025609Y012631D01*
X025609Y012766D01*
X025654Y012811D01*
X025835Y012811D01*
X025880Y012766D01*
X025880Y012631D01*
X025654Y012516D02*
X025609Y012471D01*
X025609Y012381D01*
X025654Y012336D01*
X025654Y013022D02*
X025835Y013022D01*
X025880Y013067D01*
X025880Y013157D01*
X025835Y013202D01*
X025745Y013202D01*
X025745Y013112D01*
X025654Y013202D02*
X025609Y013157D01*
X025609Y013067D01*
X025654Y013022D01*
X025609Y013316D02*
X025880Y013496D01*
X025609Y013496D01*
X025609Y013611D02*
X025609Y013746D01*
X025654Y013791D01*
X025835Y013791D01*
X025880Y013746D01*
X025880Y013611D01*
X025609Y013611D01*
X025609Y013316D02*
X025880Y013316D01*
X028139Y013357D02*
X028184Y013402D01*
X028275Y013402D01*
X028320Y013357D01*
X028320Y013222D01*
X028410Y013222D02*
X028139Y013222D01*
X028139Y013357D01*
X028139Y013516D02*
X028139Y013606D01*
X028139Y013561D02*
X028410Y013561D01*
X028410Y013516D02*
X028410Y013606D01*
X028410Y013402D02*
X028320Y013312D01*
X028275Y012841D02*
X028320Y012796D01*
X028320Y012661D01*
X028410Y012661D02*
X028139Y012661D01*
X028139Y012796D01*
X028184Y012841D01*
X028275Y012841D01*
X028320Y012751D02*
X028410Y012841D01*
X028365Y012546D02*
X028410Y012501D01*
X028410Y012411D01*
X028365Y012366D01*
X028275Y012411D02*
X028275Y012501D01*
X028320Y012546D01*
X028365Y012546D01*
X028275Y012411D02*
X028229Y012366D01*
X028184Y012366D01*
X028139Y012411D01*
X028139Y012501D01*
X028184Y012546D01*
X028184Y012252D02*
X028139Y012207D01*
X028139Y012072D01*
X028410Y012072D01*
X028410Y012207D01*
X028365Y012252D01*
X028184Y012252D01*
X028184Y011801D02*
X028139Y011756D01*
X028139Y011666D01*
X028184Y011621D01*
X028229Y011621D01*
X028275Y011666D01*
X028275Y011756D01*
X028320Y011801D01*
X028365Y011801D01*
X028410Y011756D01*
X028410Y011666D01*
X028365Y011621D01*
X028410Y011416D02*
X028139Y011416D01*
X028139Y011326D02*
X028139Y011506D01*
X028184Y011212D02*
X028139Y011167D01*
X028139Y011077D01*
X028184Y011032D01*
X028365Y011032D01*
X028410Y011077D01*
X028410Y011167D01*
X028365Y011212D01*
X025780Y011306D02*
X025599Y011306D01*
X004816Y019596D02*
X004816Y019754D01*
X004816Y019596D02*
X004811Y019576D01*
X004802Y019557D01*
X004791Y019540D01*
X004776Y019525D01*
X004759Y019513D01*
X004740Y019504D01*
X004720Y019498D01*
X004699Y019496D01*
X004678Y019498D01*
X002552Y019498D01*
X002535Y019499D01*
X002518Y019504D01*
X002503Y019511D01*
X002489Y019521D01*
X002477Y019533D01*
X002467Y019547D01*
X002460Y019562D01*
X002455Y019579D01*
X002454Y019596D01*
X002454Y019754D01*
X003044Y019891D02*
X003044Y020482D01*
X004225Y020482D01*
X004225Y019891D01*
X003044Y019891D01*
X002454Y020620D02*
X002454Y020777D01*
X002455Y020794D01*
X002460Y020811D01*
X002467Y020826D01*
X002477Y020840D01*
X002489Y020852D01*
X002503Y020862D01*
X002518Y020869D01*
X002535Y020874D01*
X002552Y020875D01*
X002552Y020876D02*
X004717Y020876D01*
X004717Y020875D02*
X004734Y020874D01*
X004751Y020869D01*
X004766Y020862D01*
X004780Y020852D01*
X004792Y020840D01*
X004802Y020826D01*
X004809Y020811D01*
X004814Y020794D01*
X004815Y020777D01*
X004816Y020777D02*
X004816Y020620D01*
D14*
X012749Y018580D02*
X012996Y018333D01*
X012934Y018395D02*
X013120Y018580D01*
X013120Y018602D02*
X012873Y018849D01*
X012873Y018602D02*
X013120Y018849D01*
X013749Y018580D02*
X013749Y018456D01*
X013749Y018518D02*
X014120Y018518D01*
X014120Y018456D02*
X014120Y018580D01*
X014120Y018602D02*
X013873Y018849D01*
X013873Y018602D02*
X014120Y018849D01*
X014749Y018519D02*
X014811Y018580D01*
X015058Y018580D01*
X015120Y018519D01*
X015120Y018395D01*
X015058Y018333D01*
X014811Y018333D01*
X014749Y018395D01*
X014749Y018519D01*
X014873Y018602D02*
X015120Y018849D01*
X015120Y018602D02*
X014873Y018849D01*
X014749Y018212D02*
X015120Y018212D01*
X015120Y017965D02*
X014749Y017965D01*
X014873Y018088D01*
X014749Y018212D01*
X014120Y018335D02*
X013749Y018335D01*
X013873Y018211D01*
X013749Y018088D01*
X014120Y018088D01*
X013120Y018027D02*
X013120Y018150D01*
X013058Y018212D01*
X013120Y018333D02*
X012749Y018333D01*
X012811Y018212D02*
X012749Y018150D01*
X012749Y018027D01*
X012811Y017965D01*
X013058Y017965D01*
X013120Y018027D01*
X013058Y017844D02*
X013120Y017782D01*
X013120Y017658D01*
X013058Y017597D01*
X012934Y017658D02*
X012934Y017782D01*
X012996Y017844D01*
X013058Y017844D01*
X012934Y017658D02*
X012873Y017597D01*
X012811Y017597D01*
X012749Y017658D01*
X012749Y017782D01*
X012811Y017844D01*
X015873Y018602D02*
X016120Y018849D01*
X016120Y018602D02*
X015873Y018849D01*
X016649Y018833D02*
X017020Y018833D01*
X017020Y019080D01*
X016958Y018712D02*
X017020Y018650D01*
X017020Y018527D01*
X016958Y018465D01*
X016711Y018465D01*
X016649Y018527D01*
X016649Y018650D01*
X016711Y018712D01*
X016711Y018344D02*
X016649Y018282D01*
X016649Y018158D01*
X016711Y018097D01*
X016773Y018097D01*
X016834Y018158D01*
X016834Y018282D01*
X016896Y018344D01*
X016958Y018344D01*
X017020Y018282D01*
X017020Y018158D01*
X016958Y018097D01*
X017649Y018158D02*
X017711Y018097D01*
X017773Y018097D01*
X017834Y018158D01*
X017834Y018282D01*
X017896Y018344D01*
X017958Y018344D01*
X018020Y018282D01*
X018020Y018158D01*
X017958Y018097D01*
X017649Y018158D02*
X017649Y018282D01*
X017711Y018344D01*
X017649Y018465D02*
X017649Y018650D01*
X017711Y018712D01*
X017958Y018712D01*
X018020Y018650D01*
X018020Y018465D01*
X017649Y018465D01*
X017773Y018833D02*
X017649Y018957D01*
X017773Y019080D01*
X018020Y019080D01*
X017834Y019080D02*
X017834Y018833D01*
X017773Y018833D02*
X018020Y018833D01*
X019690Y018502D02*
X019690Y018132D01*
X019813Y018132D01*
X019935Y018132D02*
X020182Y018379D01*
X019935Y018379D02*
X020182Y018132D01*
X020672Y018255D02*
X020919Y018255D01*
X020919Y018379D02*
X020672Y018379D01*
X021408Y018502D02*
X021408Y018132D01*
X021408Y018255D02*
X021594Y018255D01*
X021655Y018317D01*
X021655Y018440D01*
X021594Y018502D01*
X021408Y018502D01*
X021532Y018255D02*
X021655Y018132D01*
X021777Y018193D02*
X021777Y018317D01*
X021838Y018379D01*
X021962Y018379D01*
X022024Y018317D01*
X022024Y018255D01*
X021777Y018255D01*
X021777Y018193D02*
X021838Y018132D01*
X021962Y018132D01*
X022145Y018132D02*
X022330Y018132D01*
X022392Y018193D01*
X022330Y018255D01*
X022207Y018255D01*
X022145Y018317D01*
X022207Y018379D01*
X022392Y018379D01*
X022513Y018379D02*
X022637Y018379D01*
X022575Y018440D02*
X022575Y018193D01*
X022637Y018132D01*
X022759Y018132D02*
X022759Y018379D01*
X022882Y018379D02*
X022944Y018379D01*
X022882Y018379D02*
X022759Y018255D01*
X023066Y018132D02*
X023189Y018132D01*
X023128Y018132D02*
X023128Y018379D01*
X023066Y018379D01*
X023128Y018502D02*
X023128Y018564D01*
X023373Y018379D02*
X023311Y018317D01*
X023311Y018193D01*
X023373Y018132D01*
X023558Y018132D01*
X023741Y018193D02*
X023803Y018132D01*
X023741Y018193D02*
X023741Y018440D01*
X023680Y018379D02*
X023803Y018379D01*
X023925Y018317D02*
X023987Y018379D01*
X024110Y018379D01*
X024172Y018317D01*
X024172Y018255D01*
X023925Y018255D01*
X023925Y018193D02*
X023925Y018317D01*
X023925Y018193D02*
X023987Y018132D01*
X024110Y018132D01*
X024294Y018193D02*
X024294Y018317D01*
X024355Y018379D01*
X024540Y018379D01*
X024540Y018502D02*
X024540Y018132D01*
X024355Y018132D01*
X024294Y018193D01*
X024662Y018132D02*
X024785Y018132D01*
X024785Y018502D01*
X024662Y018502D01*
X024720Y019002D02*
X024473Y019249D01*
X024473Y019002D02*
X024720Y019249D01*
X023680Y019249D02*
X023433Y019002D01*
X023680Y019002D02*
X023433Y019249D01*
X023373Y018379D02*
X023558Y018379D01*
X019813Y018502D02*
X019690Y018502D01*
D15*
X019785Y019987D02*
X019285Y019987D01*
X019035Y020237D01*
X019035Y020737D01*
X019285Y020987D01*
X019785Y020987D01*
X020035Y020737D01*
X020285Y020987D01*
X020785Y020987D01*
X021035Y020737D01*
X021285Y020987D01*
X021785Y020987D01*
X022035Y020737D01*
X022285Y020987D01*
X022785Y020987D01*
X023035Y020737D01*
X023285Y020987D01*
X023785Y020987D01*
X024035Y020737D01*
X024285Y020987D01*
X024785Y020987D01*
X025035Y020737D01*
X025285Y020987D01*
X025785Y020987D01*
X026035Y020737D01*
X026285Y020987D01*
X026785Y020987D01*
X027035Y020737D01*
X027035Y020237D01*
X026785Y019987D01*
X026285Y019987D01*
X026035Y020237D01*
X025785Y019987D01*
X025285Y019987D01*
X025035Y020237D01*
X024785Y019987D01*
X024285Y019987D01*
X024035Y020237D01*
X023785Y019987D01*
X023285Y019987D01*
X023035Y020237D01*
X022785Y019987D01*
X022285Y019987D01*
X022035Y020237D01*
X021785Y019987D01*
X021285Y019987D01*
X021035Y020237D01*
X020785Y019987D01*
X020285Y019987D01*
X020035Y020237D01*
X019785Y019987D01*
X018435Y020237D02*
X018185Y019987D01*
X017685Y019987D01*
X017435Y020237D01*
X017185Y019987D01*
X016685Y019987D01*
X016435Y020237D01*
X016185Y019987D01*
X015685Y019987D01*
X015435Y020237D01*
X015185Y019987D01*
X014685Y019987D01*
X014435Y020237D01*
X014185Y019987D01*
X013685Y019987D01*
X013435Y020237D01*
X013185Y019987D01*
X012685Y019987D01*
X012435Y020237D01*
X012185Y019987D01*
X011685Y019987D01*
X011435Y020237D01*
X011185Y019987D01*
X010685Y019987D01*
X010435Y020237D01*
X010435Y020737D01*
X010685Y020987D01*
X011185Y020987D01*
X011435Y020737D01*
X011685Y020987D01*
X012185Y020987D01*
X012435Y020737D01*
X012685Y020987D01*
X013185Y020987D01*
X013435Y020737D01*
X013685Y020987D01*
X014185Y020987D01*
X014435Y020737D01*
X014685Y020987D01*
X015185Y020987D01*
X015435Y020737D01*
X015685Y020987D01*
X016185Y020987D01*
X016435Y020737D01*
X016685Y020987D01*
X017185Y020987D01*
X017435Y020737D01*
X017685Y020987D01*
X018185Y020987D01*
X018435Y020737D01*
X018435Y020237D01*
X012336Y017012D02*
X012336Y016697D01*
X012336Y017012D02*
X012100Y017012D01*
X011470Y017012D02*
X011233Y017012D01*
X011233Y016697D01*
X011233Y015026D02*
X011233Y014711D01*
X011470Y014711D01*
X012100Y014711D02*
X012336Y014711D01*
X012336Y015026D01*
X008480Y014739D02*
X008480Y014542D01*
X008243Y014542D01*
X006787Y014542D02*
X006590Y014542D01*
X006590Y014739D01*
X008283Y016432D02*
X008480Y016432D01*
X008480Y016235D01*
X003806Y011047D02*
X003595Y011047D01*
X003595Y010627D01*
X003595Y010767D02*
X003806Y010767D01*
X003876Y010837D01*
X003876Y010977D01*
X003806Y011047D01*
X003415Y010977D02*
X003345Y011047D01*
X003205Y011047D01*
X003135Y010977D01*
X003135Y010907D01*
X003205Y010837D01*
X003345Y010837D01*
X003415Y010767D01*
X003415Y010697D01*
X003345Y010627D01*
X003205Y010627D01*
X003135Y010697D01*
X002955Y010627D02*
X002675Y010627D01*
X002675Y011047D01*
X002955Y011047D01*
X002815Y010837D02*
X002675Y010837D01*
X003352Y010418D02*
X003352Y010237D01*
X003230Y010145D01*
X003352Y010056D02*
X003352Y010237D01*
X003346Y010247D02*
X003230Y010323D01*
X003135Y009297D02*
X003135Y008877D01*
X003275Y009017D01*
X003415Y008877D01*
X003415Y009297D01*
X003595Y009297D02*
X003595Y008877D01*
X003595Y009017D02*
X003806Y009017D01*
X003876Y009087D01*
X003876Y009227D01*
X003806Y009297D01*
X003595Y009297D01*
X003736Y009017D02*
X003876Y008877D01*
X003340Y008579D02*
X003218Y008487D01*
X003218Y008668D01*
X003218Y008487D02*
X003218Y008306D01*
X003340Y008401D02*
X003224Y008477D01*
X002885Y009017D02*
X002675Y009017D01*
X002675Y008877D02*
X002675Y009297D01*
X002885Y009297D01*
X002955Y009227D01*
X002955Y009087D01*
X002885Y009017D01*
X007385Y008527D02*
X007385Y005947D01*
X008685Y005947D01*
X008685Y008527D01*
X007385Y008527D01*
X008930Y009231D02*
X009481Y009231D01*
X009481Y009743D01*
X008930Y009743D01*
X009481Y009743D02*
X009639Y009743D01*
X009639Y009231D02*
X009481Y009231D01*
X006328Y005358D02*
X006328Y004532D01*
X006328Y005358D02*
X002116Y005358D01*
X002116Y001815D01*
X004202Y001815D01*
X006053Y001815D02*
X006328Y001815D01*
X006328Y002642D01*
X007891Y003234D02*
X008678Y003234D01*
X008285Y003774D01*
X007891Y003234D01*
X007891Y003774D02*
X008678Y003774D01*
X011174Y003880D02*
X011174Y004353D01*
X011174Y003880D01*
X011269Y003726D02*
X012291Y003726D01*
X012395Y003880D02*
X012395Y004353D01*
X012257Y004510D01*
X011293Y004510D01*
X011174Y004353D01*
X012235Y005087D02*
X018185Y005087D01*
X018285Y001987D02*
X018785Y001987D01*
X019035Y001737D01*
X019285Y001987D01*
X019785Y001987D01*
X020035Y001737D01*
X020035Y001237D01*
X019785Y000987D01*
X019285Y000987D01*
X019035Y001237D01*
X018785Y000987D01*
X018285Y000987D01*
X018035Y001237D01*
X017785Y000987D01*
X017285Y000987D01*
X017035Y001237D01*
X016785Y000987D01*
X016285Y000987D01*
X016035Y001237D01*
X015785Y000987D01*
X015285Y000987D01*
X015035Y001237D01*
X014785Y000987D01*
X014285Y000987D01*
X014035Y001237D01*
X014035Y001737D01*
X014285Y001987D01*
X014785Y001987D01*
X015035Y001737D01*
X015285Y001987D01*
X015785Y001987D01*
X016035Y001737D01*
X016285Y001987D01*
X016785Y001987D01*
X017035Y001737D01*
X017285Y001987D01*
X017785Y001987D01*
X018035Y001737D01*
X018285Y001987D01*
X021035Y001737D02*
X021035Y001237D01*
X021285Y000987D01*
X021785Y000987D01*
X022035Y001237D01*
X022285Y000987D01*
X022785Y000987D01*
X023035Y001237D01*
X023285Y000987D01*
X023785Y000987D01*
X024035Y001237D01*
X024285Y000987D01*
X024785Y000987D01*
X025035Y001237D01*
X025285Y000987D01*
X025785Y000987D01*
X026035Y001237D01*
X026285Y000987D01*
X026785Y000987D01*
X027035Y001237D01*
X027035Y001737D01*
X026785Y001987D01*
X026285Y001987D01*
X026035Y001737D01*
X025785Y001987D01*
X025285Y001987D01*
X025035Y001737D01*
X024785Y001987D01*
X024285Y001987D01*
X024035Y001737D01*
X023785Y001987D01*
X023285Y001987D01*
X023035Y001737D01*
X022785Y001987D01*
X022285Y001987D01*
X022035Y001737D01*
X021785Y001987D01*
X021285Y001987D01*
X021035Y001737D01*
X012415Y002463D02*
X011174Y002463D01*
X011174Y003132D01*
X012415Y003132D02*
X012415Y002463D01*
X026035Y011137D02*
X026035Y011637D01*
X026285Y011887D01*
X027785Y011887D01*
X028035Y011637D01*
X028035Y011137D01*
X027785Y010887D01*
X026285Y010887D01*
X026035Y011137D01*
X026285Y011887D02*
X026035Y012137D01*
X026035Y012637D01*
X026285Y012887D01*
X027785Y012887D01*
X028035Y012637D01*
X028035Y012137D01*
X027785Y011887D01*
X027785Y012887D02*
X028035Y013137D01*
X028035Y013637D01*
X027785Y013887D01*
X026285Y013887D01*
X026035Y013637D01*
X026035Y013137D01*
X026285Y012887D01*
X025903Y013137D02*
X025903Y013637D01*
D16*
X018534Y005735D02*
X018239Y005735D01*
X018141Y005637D01*
X018141Y005440D01*
X018239Y005342D01*
X018534Y005342D01*
X018534Y005243D02*
X018534Y005735D01*
X018534Y005243D02*
X018436Y005145D01*
X018337Y005145D01*
X017899Y005735D02*
X017800Y005735D01*
X017603Y005539D01*
X017603Y005735D02*
X017603Y005342D01*
X017353Y005440D02*
X017353Y005637D01*
X017254Y005735D01*
X017057Y005735D01*
X016959Y005637D01*
X016959Y005440D01*
X017057Y005342D01*
X017254Y005342D01*
X017353Y005440D01*
X016735Y005440D02*
X016735Y005342D01*
X016637Y005342D01*
X016637Y005440D01*
X016735Y005440D01*
X016386Y005440D02*
X016287Y005342D01*
X016091Y005342D01*
X015992Y005440D01*
X015992Y005637D01*
X016091Y005735D01*
X016287Y005735D01*
X016386Y005637D01*
X016386Y005440D01*
X015741Y005342D02*
X015741Y005637D01*
X015643Y005735D01*
X015348Y005735D01*
X015348Y005342D01*
X015115Y005342D02*
X014918Y005342D01*
X015016Y005342D02*
X015016Y005735D01*
X014918Y005735D01*
X015016Y005932D02*
X015016Y006031D01*
X014667Y005735D02*
X014667Y005342D01*
X014372Y005342D01*
X014273Y005440D01*
X014273Y005735D01*
X014022Y005735D02*
X013727Y005735D01*
X013629Y005637D01*
X013629Y005440D01*
X013727Y005342D01*
X014022Y005342D01*
X014022Y005932D01*
X013378Y005637D02*
X013378Y005440D01*
X013279Y005342D01*
X013083Y005342D01*
X012984Y005440D01*
X012984Y005637D01*
X013083Y005735D01*
X013279Y005735D01*
X013378Y005637D01*
X012733Y005637D02*
X012733Y005342D01*
X012340Y005342D02*
X012340Y005735D01*
X012635Y005735D01*
X012733Y005637D01*
D17*
X007535Y009487D03*
X007535Y010487D03*
X013715Y014887D03*
X013715Y015587D03*
X013715Y016287D03*
X013715Y016987D03*
X021005Y003237D03*
X022805Y003237D03*
D18*
X003316Y013912D02*
X003316Y014306D01*
X003316Y013912D02*
X002922Y013912D01*
X001741Y013912D02*
X001347Y013912D01*
X003316Y016668D02*
X003316Y017061D01*
X003309Y017059D02*
X002922Y017059D01*
X002922Y017061D01*
X001741Y017061D02*
X001347Y017061D01*
D19*
X005765Y014847D02*
X005767Y014855D01*
X005772Y014862D01*
X005779Y014866D01*
X005787Y014867D01*
X005795Y014864D01*
X005801Y014859D01*
X005805Y014851D01*
X005805Y014843D01*
X005801Y014835D01*
X005795Y014830D01*
X005787Y014827D01*
X005779Y014828D01*
X005772Y014832D01*
X005767Y014839D01*
X005765Y014847D01*
X005765Y014417D02*
X005767Y014425D01*
X005772Y014432D01*
X005779Y014436D01*
X005787Y014437D01*
X005795Y014434D01*
X005801Y014429D01*
X005805Y014421D01*
X005805Y014413D01*
X005801Y014405D01*
X005795Y014400D01*
X005787Y014397D01*
X005779Y014398D01*
X005772Y014402D01*
X005767Y014409D01*
X005765Y014417D01*
X007145Y013917D02*
X007147Y013925D01*
X007152Y013932D01*
X007159Y013936D01*
X007167Y013937D01*
X007175Y013934D01*
X007181Y013929D01*
X007185Y013921D01*
X007185Y013913D01*
X007181Y013905D01*
X007175Y013900D01*
X007167Y013897D01*
X007159Y013898D01*
X007152Y013902D01*
X007147Y013909D01*
X007145Y013917D01*
X007145Y013487D02*
X007147Y013495D01*
X007152Y013502D01*
X007159Y013506D01*
X007167Y013507D01*
X007175Y013504D01*
X007181Y013499D01*
X007185Y013491D01*
X007185Y013483D01*
X007181Y013475D01*
X007175Y013470D01*
X007167Y013467D01*
X007159Y013468D01*
X007152Y013472D01*
X007147Y013479D01*
X007145Y013487D01*
X017715Y010087D02*
X017717Y010095D01*
X017722Y010102D01*
X017729Y010106D01*
X017737Y010107D01*
X017745Y010104D01*
X017751Y010099D01*
X017755Y010091D01*
X017755Y010083D01*
X017751Y010075D01*
X017745Y010070D01*
X017737Y010067D01*
X017729Y010068D01*
X017722Y010072D01*
X017717Y010079D01*
X017715Y010087D01*
X018415Y010087D02*
X018417Y010095D01*
X018422Y010102D01*
X018429Y010106D01*
X018437Y010107D01*
X018445Y010104D01*
X018451Y010099D01*
X018455Y010091D01*
X018455Y010083D01*
X018451Y010075D01*
X018445Y010070D01*
X018437Y010067D01*
X018429Y010068D01*
X018422Y010072D01*
X018417Y010079D01*
X018415Y010087D01*
D20*
X015013Y014004D03*
X015013Y014130D03*
X015013Y014146D03*
X015013Y014178D03*
X015013Y014225D03*
X015013Y014304D03*
X015013Y014319D03*
X015013Y014335D03*
X015013Y014351D03*
X015013Y014367D03*
X015013Y014453D03*
X015013Y014469D03*
X015013Y014485D03*
X015013Y014500D03*
X015005Y014760D03*
X015415Y014682D03*
X015415Y014666D03*
X015415Y014650D03*
X015415Y014634D03*
X015415Y014619D03*
X015415Y014603D03*
X015415Y014587D03*
X015415Y014493D03*
X015415Y014477D03*
X015415Y014461D03*
X015415Y014445D03*
X015415Y014398D03*
X015415Y014382D03*
X015415Y014367D03*
X015415Y014083D03*
X015422Y014075D03*
X015722Y014067D03*
X015722Y014083D03*
X015722Y014154D03*
X015722Y014170D03*
X015722Y014185D03*
X015722Y014201D03*
X015722Y014225D03*
X015722Y014241D03*
X015722Y014422D03*
X015722Y014516D03*
X015722Y014563D03*
X015722Y014579D03*
X015722Y014650D03*
X015722Y014729D03*
X015722Y014752D03*
X016155Y014682D03*
X016155Y014666D03*
X016155Y014650D03*
X016155Y014634D03*
X016155Y014619D03*
X016155Y014603D03*
X016155Y014587D03*
X016155Y014571D03*
X016155Y014556D03*
X016155Y014540D03*
X016155Y014524D03*
X016155Y014508D03*
X016155Y014493D03*
X016155Y014477D03*
X016155Y014461D03*
X016155Y014445D03*
X016155Y014430D03*
X016155Y014367D03*
X016155Y014335D03*
X016155Y014272D03*
X016155Y014256D03*
X016155Y014241D03*
X016155Y014209D03*
X016155Y014193D03*
X016155Y014178D03*
X016155Y014162D03*
X016155Y014146D03*
X016155Y014130D03*
X016155Y014115D03*
X016155Y014099D03*
X016155Y014067D03*
X016462Y014083D03*
X016462Y014146D03*
X016462Y014382D03*
X016462Y014540D03*
X016462Y014579D03*
X016462Y014666D03*
X016462Y014705D03*
X016462Y014745D03*
X016840Y014626D03*
X016840Y014548D03*
X016840Y014532D03*
X016840Y014516D03*
X016840Y014493D03*
X016840Y014477D03*
X016840Y014461D03*
X016840Y014406D03*
X016840Y014335D03*
X016840Y014319D03*
X016840Y014209D03*
X016840Y014146D03*
X016840Y014130D03*
X017541Y014107D03*
X017541Y014209D03*
X017541Y014335D03*
X017541Y014430D03*
X017541Y014674D03*
X017541Y014729D03*
X017541Y014760D03*
X017541Y014800D03*
X018155Y014752D03*
X018564Y014075D03*
X015981Y016044D03*
D21*
X014989Y014815D03*
X015438Y014004D03*
X018588Y014004D03*
X018186Y017784D03*
X016084Y017784D03*
D22*
X016481Y017453D03*
X016481Y017445D03*
X016647Y017359D03*
X016647Y017351D03*
X016733Y017304D03*
X016765Y017280D03*
X016812Y017256D03*
X017253Y016248D03*
X016828Y015666D03*
X016828Y015658D03*
X016765Y015634D03*
X016560Y015516D03*
X016481Y015469D03*
X016387Y015414D03*
X016387Y015406D03*
X015702Y015469D03*
X015600Y015524D03*
X015600Y015532D03*
X015458Y015611D03*
X015419Y015634D03*
X015371Y015658D03*
X015371Y015666D03*
X015206Y017162D03*
X015371Y017256D03*
X015458Y017304D03*
X015489Y017327D03*
X015584Y017374D03*
X019127Y016461D03*
X019127Y016453D03*
X019127Y016256D03*
X019127Y016248D03*
X019127Y016241D03*
X019088Y014004D03*
X015938Y014004D03*
D23*
X016596Y014004D03*
X016588Y014815D03*
X016092Y015217D03*
X018194Y015217D03*
D24*
X019072Y014815D03*
X017340Y014004D03*
X016623Y014036D03*
X015174Y015776D03*
X015174Y015784D03*
X015174Y017138D03*
X017245Y016406D03*
X017245Y016398D03*
X017245Y016390D03*
X017245Y016382D03*
X017245Y016374D03*
X017245Y016367D03*
X017245Y016359D03*
X017245Y016351D03*
X017245Y016343D03*
X017245Y016335D03*
X017245Y016327D03*
X017245Y016319D03*
X017245Y016311D03*
X017245Y016304D03*
X017245Y016296D03*
X017245Y016288D03*
X017245Y016280D03*
X019135Y016272D03*
X019135Y016264D03*
X019135Y016430D03*
X019135Y016445D03*
D25*
X018190Y017768D03*
X018190Y017776D03*
X016096Y017776D03*
X016096Y017768D03*
X015985Y016036D03*
X016151Y014752D03*
X016159Y014745D03*
X016151Y014737D03*
X016159Y014729D03*
X016151Y014721D03*
X016159Y014713D03*
X016151Y014705D03*
X016159Y014697D03*
X016151Y014414D03*
X016159Y014406D03*
X016151Y014398D03*
X016159Y014390D03*
X016151Y014382D03*
X016159Y014359D03*
X016151Y014351D03*
X016159Y014319D03*
X016151Y014311D03*
X016159Y014304D03*
X016151Y014296D03*
X016159Y014288D03*
X016151Y014225D03*
X016151Y014091D03*
X016159Y014075D03*
X016458Y014067D03*
X016458Y014107D03*
X016458Y014122D03*
X016458Y014162D03*
X016458Y014178D03*
X016466Y014193D03*
X016458Y014201D03*
X016458Y014217D03*
X016466Y014225D03*
X016458Y014241D03*
X016458Y014256D03*
X016466Y014264D03*
X016458Y014272D03*
X016458Y014288D03*
X016458Y014311D03*
X016458Y014327D03*
X016466Y014335D03*
X016458Y014343D03*
X016458Y014367D03*
X016458Y014398D03*
X016458Y014422D03*
X016458Y014430D03*
X016458Y014445D03*
X016466Y014453D03*
X016458Y014469D03*
X016458Y014477D03*
X016466Y014493D03*
X016458Y014500D03*
X016458Y014508D03*
X016458Y014524D03*
X016458Y014556D03*
X016458Y014571D03*
X016458Y014595D03*
X016466Y014603D03*
X016458Y014611D03*
X016458Y014626D03*
X016458Y014634D03*
X016466Y014642D03*
X016458Y014650D03*
X016458Y014682D03*
X016458Y014689D03*
X016458Y014721D03*
X016458Y014729D03*
X016836Y014721D03*
X016836Y014705D03*
X016844Y014697D03*
X016836Y014689D03*
X016844Y014682D03*
X016836Y014674D03*
X016844Y014666D03*
X016836Y014658D03*
X016844Y014650D03*
X016836Y014642D03*
X016844Y014634D03*
X016836Y014611D03*
X016844Y014603D03*
X016836Y014595D03*
X016844Y014587D03*
X016836Y014579D03*
X016844Y014571D03*
X016836Y014563D03*
X016836Y014445D03*
X016844Y014437D03*
X016836Y014430D03*
X016844Y014422D03*
X016836Y014414D03*
X016844Y014390D03*
X016836Y014382D03*
X016844Y014374D03*
X016836Y014367D03*
X016844Y014359D03*
X016836Y014351D03*
X016836Y014304D03*
X016844Y014296D03*
X016836Y014288D03*
X016844Y014280D03*
X016836Y014272D03*
X016844Y014264D03*
X016836Y014256D03*
X016844Y014248D03*
X016836Y014241D03*
X016844Y014233D03*
X016836Y014225D03*
X016844Y014193D03*
X016836Y014185D03*
X016844Y014178D03*
X016836Y014170D03*
X016844Y014162D03*
X016836Y014115D03*
X016844Y014107D03*
X016836Y014099D03*
X017143Y014099D03*
X017143Y014107D03*
X017143Y014115D03*
X017143Y014122D03*
X017143Y014130D03*
X017143Y014138D03*
X017143Y014146D03*
X017143Y014154D03*
X017143Y014162D03*
X017143Y014170D03*
X017143Y014178D03*
X017143Y014185D03*
X017143Y014193D03*
X017143Y014201D03*
X017143Y014209D03*
X017143Y014217D03*
X017143Y014225D03*
X017143Y014233D03*
X017143Y014241D03*
X017143Y014248D03*
X017143Y014256D03*
X017143Y014264D03*
X017143Y014272D03*
X017143Y014280D03*
X017143Y014288D03*
X017143Y014296D03*
X017143Y014304D03*
X017143Y014311D03*
X017143Y014319D03*
X017143Y014327D03*
X017143Y014335D03*
X017143Y014343D03*
X017143Y014351D03*
X017143Y014359D03*
X017143Y014367D03*
X017143Y014374D03*
X017143Y014382D03*
X017143Y014390D03*
X017143Y014398D03*
X017143Y014406D03*
X017143Y014414D03*
X017143Y014422D03*
X017143Y014430D03*
X017143Y014437D03*
X017143Y014445D03*
X017143Y014453D03*
X017143Y014461D03*
X017143Y014469D03*
X017143Y014477D03*
X017143Y014485D03*
X017143Y014493D03*
X017143Y014500D03*
X017143Y014508D03*
X017143Y014516D03*
X017143Y014524D03*
X017143Y014532D03*
X017143Y014540D03*
X017143Y014548D03*
X017143Y014556D03*
X017143Y014563D03*
X017143Y014571D03*
X017143Y014579D03*
X017143Y014587D03*
X017143Y014595D03*
X017143Y014603D03*
X017143Y014611D03*
X017143Y014619D03*
X017143Y014626D03*
X017143Y014634D03*
X017143Y014642D03*
X017143Y014650D03*
X017143Y014658D03*
X017143Y014666D03*
X017143Y014674D03*
X017143Y014682D03*
X017143Y014689D03*
X017143Y014697D03*
X017143Y014705D03*
X017143Y014713D03*
X017143Y014721D03*
X017143Y014729D03*
X017143Y014737D03*
X017143Y014745D03*
X017143Y014752D03*
X017143Y014760D03*
X017143Y014768D03*
X017143Y014776D03*
X017143Y014784D03*
X017143Y014792D03*
X017143Y014800D03*
X017143Y014808D03*
X017143Y014815D03*
X017537Y014815D03*
X017537Y014808D03*
X017537Y014784D03*
X017537Y014776D03*
X017537Y014752D03*
X017537Y014745D03*
X017537Y014721D03*
X017537Y014713D03*
X017544Y014705D03*
X017537Y014697D03*
X017537Y014689D03*
X017537Y014682D03*
X017537Y014658D03*
X017537Y014650D03*
X017537Y014634D03*
X017537Y014626D03*
X017544Y014619D03*
X017537Y014611D03*
X017537Y014603D03*
X017537Y014595D03*
X017537Y014587D03*
X017537Y014579D03*
X017544Y014571D03*
X017537Y014563D03*
X017537Y014556D03*
X017537Y014540D03*
X017537Y014532D03*
X017537Y014524D03*
X017544Y014516D03*
X017537Y014508D03*
X017537Y014500D03*
X017537Y014493D03*
X017544Y014485D03*
X017537Y014477D03*
X017537Y014469D03*
X017537Y014461D03*
X017537Y014445D03*
X017537Y014437D03*
X017537Y014414D03*
X017537Y014406D03*
X017537Y014398D03*
X017544Y014390D03*
X017537Y014382D03*
X017537Y014374D03*
X017537Y014367D03*
X017537Y014351D03*
X017537Y014343D03*
X017537Y014319D03*
X017537Y014311D03*
X017537Y014304D03*
X017537Y014296D03*
X017537Y014280D03*
X017537Y014272D03*
X017537Y014264D03*
X017544Y014256D03*
X017537Y014248D03*
X017537Y014233D03*
X017537Y014225D03*
X017537Y014217D03*
X017537Y014193D03*
X017537Y014185D03*
X017537Y014178D03*
X017537Y014170D03*
X017537Y014154D03*
X017537Y014146D03*
X017544Y014138D03*
X017537Y014130D03*
X017537Y014122D03*
X017537Y014099D03*
X017537Y014091D03*
X017537Y014083D03*
X017537Y014067D03*
X017844Y014067D03*
X017844Y014060D03*
X017844Y014052D03*
X017844Y014044D03*
X017844Y014036D03*
X017844Y014028D03*
X017844Y014020D03*
X017844Y014012D03*
X017844Y014004D03*
X017844Y014075D03*
X017844Y014083D03*
X017844Y014091D03*
X017844Y014099D03*
X017844Y014107D03*
X017844Y014115D03*
X017844Y014122D03*
X017844Y014130D03*
X017844Y014138D03*
X017844Y014146D03*
X017844Y014154D03*
X017844Y014162D03*
X017844Y014170D03*
X017844Y014178D03*
X017844Y014185D03*
X017844Y014193D03*
X017844Y014201D03*
X017844Y014209D03*
X017844Y014217D03*
X017844Y014225D03*
X017844Y014233D03*
X017844Y014241D03*
X017844Y014248D03*
X017844Y014256D03*
X017844Y014264D03*
X017844Y014272D03*
X017844Y014280D03*
X017844Y014288D03*
X017844Y014296D03*
X017844Y014304D03*
X017844Y014311D03*
X017844Y014319D03*
X017844Y014327D03*
X017844Y014335D03*
X017844Y014343D03*
X017844Y014351D03*
X017844Y014359D03*
X017844Y014367D03*
X017844Y014374D03*
X017844Y014382D03*
X017844Y014390D03*
X017844Y014398D03*
X017844Y014406D03*
X017844Y014414D03*
X017844Y014422D03*
X017844Y014430D03*
X017844Y014437D03*
X017844Y014445D03*
X017844Y014453D03*
X017844Y014461D03*
X017844Y014469D03*
X017844Y014477D03*
X017844Y014485D03*
X017844Y014493D03*
X017844Y014500D03*
X017844Y014508D03*
X017844Y014516D03*
X017844Y014524D03*
X017844Y014532D03*
X017844Y014540D03*
X017844Y014548D03*
X017844Y014556D03*
X017844Y014563D03*
X017844Y014571D03*
X017844Y014579D03*
X017844Y014587D03*
X017844Y014595D03*
X017844Y014603D03*
X017844Y014611D03*
X017844Y014619D03*
X017844Y014626D03*
X017844Y014634D03*
X017844Y014642D03*
X017844Y014650D03*
X017844Y014658D03*
X017844Y014666D03*
X017844Y014674D03*
X017844Y014682D03*
X017844Y014689D03*
X017844Y014697D03*
X017844Y014705D03*
X017844Y014713D03*
X017844Y014721D03*
X017844Y014729D03*
X017844Y014737D03*
X017844Y014745D03*
X017844Y014752D03*
X017844Y014760D03*
X017844Y014768D03*
X017844Y014776D03*
X017844Y014784D03*
X017844Y014792D03*
X017844Y014800D03*
X017844Y014808D03*
X017844Y014815D03*
X018159Y014745D03*
X018159Y014737D03*
X018159Y014508D03*
X018159Y014500D03*
X018159Y014493D03*
X018159Y014485D03*
X018159Y014477D03*
X018159Y014469D03*
X018159Y014461D03*
X018159Y014453D03*
X018159Y014445D03*
X018159Y014437D03*
X018159Y014430D03*
X018159Y014422D03*
X018159Y014414D03*
X018159Y014406D03*
X018159Y014398D03*
X018159Y014390D03*
X018159Y014382D03*
X018159Y014374D03*
X018159Y014367D03*
X018159Y014359D03*
X018159Y014351D03*
X018159Y014343D03*
X018159Y014335D03*
X018159Y014327D03*
X018159Y014319D03*
X018159Y014311D03*
X018159Y014304D03*
X018159Y014296D03*
X018159Y014288D03*
X018159Y014280D03*
X018159Y014272D03*
X018159Y014264D03*
X018159Y014256D03*
X018159Y014248D03*
X018159Y014241D03*
X018159Y014233D03*
X018159Y014225D03*
X018159Y014217D03*
X018159Y014209D03*
X018159Y014201D03*
X018159Y014193D03*
X018159Y014185D03*
X018159Y014178D03*
X018159Y014170D03*
X018159Y014162D03*
X018159Y014154D03*
X018159Y014146D03*
X018159Y014138D03*
X018159Y014130D03*
X018159Y014122D03*
X018159Y014115D03*
X018159Y014107D03*
X018159Y014099D03*
X018159Y014091D03*
X018159Y014083D03*
X018159Y014075D03*
X018159Y014067D03*
X018159Y014060D03*
X018159Y014052D03*
X018159Y014044D03*
X018159Y014036D03*
X018159Y014028D03*
X018159Y014020D03*
X018159Y014012D03*
X018159Y014004D03*
X018560Y014083D03*
X018560Y014091D03*
X018560Y014311D03*
X018560Y014319D03*
X018560Y014327D03*
X018560Y014335D03*
X018560Y014343D03*
X018560Y014351D03*
X018560Y014359D03*
X018560Y014367D03*
X018560Y014374D03*
X018560Y014382D03*
X018560Y014390D03*
X018560Y014398D03*
X018560Y014406D03*
X018560Y014414D03*
X018560Y014422D03*
X018560Y014430D03*
X018560Y014437D03*
X018560Y014445D03*
X018560Y014453D03*
X018560Y014461D03*
X018560Y014469D03*
X018560Y014477D03*
X018560Y014485D03*
X018560Y014493D03*
X018560Y014500D03*
X018560Y014508D03*
X018560Y014516D03*
X018560Y014524D03*
X018560Y014532D03*
X018560Y014540D03*
X018560Y014548D03*
X018560Y014556D03*
X018560Y014563D03*
X018560Y014571D03*
X018560Y014579D03*
X018560Y014587D03*
X018560Y014595D03*
X018560Y014603D03*
X018560Y014611D03*
X018560Y014619D03*
X018560Y014626D03*
X018560Y014634D03*
X018560Y014642D03*
X018560Y014650D03*
X018560Y014658D03*
X018560Y014666D03*
X018560Y014674D03*
X018560Y014682D03*
X018560Y014689D03*
X018560Y014697D03*
X018560Y014705D03*
X018560Y014713D03*
X018560Y014721D03*
X018560Y014729D03*
X018560Y014737D03*
X018560Y014745D03*
X018560Y014752D03*
X018560Y014760D03*
X018560Y014768D03*
X018560Y014776D03*
X018560Y014784D03*
X018560Y014792D03*
X018560Y014800D03*
X018560Y014808D03*
X018560Y014815D03*
X018867Y014752D03*
X018867Y014745D03*
X018867Y014737D03*
X018867Y014729D03*
X018867Y014721D03*
X018867Y014713D03*
X018867Y014705D03*
X018867Y014697D03*
X018867Y014689D03*
X018867Y014682D03*
X018867Y014674D03*
X018867Y014666D03*
X018867Y014658D03*
X018867Y014650D03*
X018867Y014642D03*
X018867Y014634D03*
X018867Y014626D03*
X018867Y014619D03*
X018867Y014611D03*
X018867Y014603D03*
X018867Y014595D03*
X018867Y014587D03*
X018867Y014579D03*
X018867Y014571D03*
X018867Y014563D03*
X018867Y014556D03*
X018867Y014548D03*
X018867Y014540D03*
X018867Y014532D03*
X018867Y014524D03*
X018867Y014516D03*
X018867Y014508D03*
X018867Y014500D03*
X018867Y014493D03*
X018867Y014485D03*
X018867Y014477D03*
X018867Y014469D03*
X018867Y014461D03*
X018867Y014453D03*
X018867Y014445D03*
X018867Y014437D03*
X018867Y014430D03*
X018867Y014422D03*
X018867Y014414D03*
X018867Y014406D03*
X018867Y014398D03*
X018867Y014390D03*
X018867Y014382D03*
X018867Y014374D03*
X018867Y014367D03*
X018867Y014359D03*
X018867Y014351D03*
X018867Y014343D03*
X018867Y014335D03*
X018867Y014327D03*
X018867Y014319D03*
X018867Y014311D03*
X018867Y014304D03*
X018867Y014296D03*
X018867Y014288D03*
X018867Y014280D03*
X018867Y014272D03*
X018867Y014264D03*
X018867Y014256D03*
X018867Y014248D03*
X018867Y014241D03*
X018867Y014233D03*
X018867Y014225D03*
X018867Y014217D03*
X018867Y014209D03*
X018867Y014201D03*
X018867Y014193D03*
X018867Y014185D03*
X018867Y014178D03*
X018867Y014170D03*
X018867Y014162D03*
X018867Y014154D03*
X018867Y014146D03*
X018867Y014138D03*
X018867Y014130D03*
X018867Y014122D03*
X018867Y014115D03*
X018867Y014107D03*
X018867Y014099D03*
X018867Y014091D03*
X018867Y014083D03*
X018867Y014075D03*
X018867Y014067D03*
X019300Y014067D03*
X019300Y014075D03*
X019300Y014083D03*
X019300Y014091D03*
X019300Y014099D03*
X019300Y014107D03*
X019300Y014115D03*
X019300Y014122D03*
X019300Y014130D03*
X019300Y014138D03*
X019300Y014146D03*
X019300Y014154D03*
X019300Y014162D03*
X019300Y014170D03*
X019300Y014178D03*
X019300Y014185D03*
X019300Y014193D03*
X019300Y014201D03*
X019300Y014209D03*
X019300Y014217D03*
X019300Y014225D03*
X019300Y014233D03*
X019300Y014241D03*
X019300Y014248D03*
X019300Y014256D03*
X019300Y014264D03*
X019300Y014272D03*
X019300Y014280D03*
X019300Y014288D03*
X019300Y014296D03*
X019300Y014304D03*
X019300Y014311D03*
X019300Y014319D03*
X019300Y014327D03*
X019300Y014335D03*
X019300Y014343D03*
X019300Y014351D03*
X019300Y014359D03*
X019300Y014367D03*
X019300Y014374D03*
X019300Y014382D03*
X019300Y014390D03*
X019300Y014398D03*
X019300Y014406D03*
X019300Y014414D03*
X019300Y014422D03*
X019300Y014430D03*
X019300Y014437D03*
X019300Y014445D03*
X019300Y014453D03*
X019300Y014461D03*
X019300Y014469D03*
X019300Y014477D03*
X019300Y014485D03*
X019300Y014493D03*
X019300Y014500D03*
X019300Y014508D03*
X019300Y014516D03*
X019300Y014524D03*
X019300Y014532D03*
X019300Y014540D03*
X019300Y014548D03*
X019300Y014556D03*
X019300Y014563D03*
X019300Y014571D03*
X019300Y014579D03*
X019300Y014587D03*
X019300Y014595D03*
X019300Y014603D03*
X019300Y014611D03*
X019300Y014619D03*
X019300Y014626D03*
X019300Y014634D03*
X019300Y014642D03*
X019300Y014650D03*
X019300Y014658D03*
X019300Y014666D03*
X019300Y014674D03*
X019300Y014682D03*
X019300Y014689D03*
X019300Y014697D03*
X019300Y014705D03*
X019300Y014713D03*
X019300Y014721D03*
X019300Y014729D03*
X019300Y014737D03*
X019300Y014745D03*
X019300Y014752D03*
X017143Y014091D03*
X017143Y014083D03*
X017143Y014075D03*
X017143Y014067D03*
X015726Y014107D03*
X015718Y014115D03*
X015726Y014122D03*
X015726Y014130D03*
X015718Y014138D03*
X015718Y014099D03*
X015718Y014217D03*
X015726Y014256D03*
X015718Y014264D03*
X015726Y014272D03*
X015718Y014280D03*
X015726Y014288D03*
X015718Y014296D03*
X015726Y014304D03*
X015718Y014311D03*
X015726Y014319D03*
X015718Y014327D03*
X015726Y014335D03*
X015718Y014343D03*
X015726Y014359D03*
X015718Y014367D03*
X015718Y014374D03*
X015726Y014382D03*
X015718Y014390D03*
X015726Y014398D03*
X015718Y014406D03*
X015718Y014437D03*
X015726Y014445D03*
X015718Y014453D03*
X015726Y014461D03*
X015718Y014469D03*
X015726Y014477D03*
X015718Y014485D03*
X015726Y014493D03*
X015718Y014500D03*
X015726Y014524D03*
X015718Y014532D03*
X015718Y014540D03*
X015726Y014548D03*
X015718Y014556D03*
X015718Y014595D03*
X015726Y014603D03*
X015718Y014611D03*
X015726Y014619D03*
X015718Y014626D03*
X015726Y014634D03*
X015718Y014642D03*
X015726Y014666D03*
X015718Y014674D03*
X015726Y014682D03*
X015718Y014689D03*
X015726Y014697D03*
X015718Y014705D03*
X015726Y014713D03*
X015718Y014721D03*
X015726Y014737D03*
X015718Y014745D03*
X015419Y014745D03*
X015411Y014752D03*
X015419Y014760D03*
X015411Y014768D03*
X015419Y014776D03*
X015411Y014784D03*
X015419Y014792D03*
X015411Y014800D03*
X015419Y014808D03*
X015411Y014815D03*
X015411Y014737D03*
X015419Y014729D03*
X015411Y014721D03*
X015419Y014713D03*
X015411Y014705D03*
X015419Y014697D03*
X015419Y014571D03*
X015411Y014563D03*
X015419Y014556D03*
X015411Y014548D03*
X015419Y014540D03*
X015411Y014524D03*
X015419Y014516D03*
X015411Y014508D03*
X015419Y014430D03*
X015411Y014422D03*
X015419Y014414D03*
X015411Y014351D03*
X015419Y014343D03*
X015411Y014335D03*
X015419Y014327D03*
X015411Y014319D03*
X015419Y014311D03*
X015277Y014311D03*
X015222Y014398D03*
X015017Y014390D03*
X015009Y014382D03*
X015009Y014398D03*
X015017Y014406D03*
X015009Y014414D03*
X015017Y014422D03*
X015009Y014430D03*
X015017Y014437D03*
X015009Y014508D03*
X015017Y014288D03*
X015009Y014280D03*
X015017Y014272D03*
X015009Y014264D03*
X015017Y014256D03*
X015009Y014248D03*
X015017Y014241D03*
X015009Y014217D03*
X015017Y014209D03*
X015009Y014193D03*
X015017Y014170D03*
X015009Y014162D03*
X015017Y014115D03*
X015009Y014107D03*
X015017Y014099D03*
X015009Y014091D03*
X015017Y014083D03*
X015009Y014075D03*
X015017Y014060D03*
X015009Y014052D03*
X015017Y014044D03*
X015009Y014036D03*
X015017Y014028D03*
X015009Y014020D03*
X015017Y014737D03*
X015009Y014745D03*
D26*
X015013Y014729D03*
X015021Y014721D03*
X015155Y014500D03*
X015163Y014493D03*
X015170Y014477D03*
X015178Y014469D03*
X015186Y014453D03*
X015194Y014445D03*
X015194Y014437D03*
X015202Y014430D03*
X015210Y014414D03*
X015218Y014406D03*
X015226Y014390D03*
X015233Y014382D03*
X015233Y014374D03*
X015241Y014367D03*
X015249Y014359D03*
X015249Y014351D03*
X015257Y014343D03*
X015257Y014335D03*
X015265Y014327D03*
X015273Y014319D03*
X015415Y014359D03*
X015415Y014374D03*
X015415Y014390D03*
X015415Y014406D03*
X015415Y014437D03*
X015415Y014453D03*
X015415Y014469D03*
X015415Y014485D03*
X015415Y014500D03*
X015415Y014532D03*
X015415Y014579D03*
X015415Y014595D03*
X015415Y014611D03*
X015415Y014626D03*
X015415Y014642D03*
X015415Y014658D03*
X015415Y014674D03*
X015415Y014689D03*
X015722Y014658D03*
X015722Y014587D03*
X015722Y014571D03*
X015722Y014508D03*
X015722Y014430D03*
X015722Y014414D03*
X015722Y014351D03*
X015722Y014248D03*
X015722Y014233D03*
X015722Y014209D03*
X015722Y014193D03*
X015722Y014178D03*
X015722Y014162D03*
X015722Y014146D03*
X015722Y014091D03*
X015722Y014075D03*
X015415Y014091D03*
X015415Y014099D03*
X015407Y014107D03*
X015013Y014122D03*
X015013Y014138D03*
X015013Y014154D03*
X015013Y014185D03*
X015013Y014201D03*
X015013Y014233D03*
X015013Y014296D03*
X015013Y014311D03*
X015013Y014327D03*
X015013Y014343D03*
X015013Y014359D03*
X015013Y014374D03*
X015013Y014445D03*
X015013Y014461D03*
X015013Y014477D03*
X015013Y014493D03*
X015013Y014067D03*
X015013Y014012D03*
X016155Y014083D03*
X016155Y014107D03*
X016155Y014122D03*
X016155Y014138D03*
X016155Y014154D03*
X016155Y014170D03*
X016155Y014185D03*
X016155Y014201D03*
X016155Y014217D03*
X016155Y014233D03*
X016155Y014248D03*
X016155Y014264D03*
X016155Y014280D03*
X016155Y014327D03*
X016155Y014343D03*
X016155Y014374D03*
X016155Y014422D03*
X016155Y014437D03*
X016155Y014453D03*
X016155Y014469D03*
X016155Y014485D03*
X016155Y014500D03*
X016155Y014516D03*
X016155Y014532D03*
X016155Y014548D03*
X016155Y014563D03*
X016155Y014579D03*
X016155Y014595D03*
X016155Y014611D03*
X016155Y014626D03*
X016155Y014642D03*
X016155Y014658D03*
X016155Y014674D03*
X016155Y014689D03*
X016462Y014697D03*
X016462Y014713D03*
X016462Y014737D03*
X016462Y014752D03*
X016462Y014674D03*
X016462Y014658D03*
X016462Y014619D03*
X016462Y014587D03*
X016462Y014563D03*
X016462Y014548D03*
X016462Y014532D03*
X016462Y014516D03*
X016462Y014485D03*
X016462Y014461D03*
X016462Y014437D03*
X016462Y014414D03*
X016462Y014406D03*
X016462Y014390D03*
X016462Y014374D03*
X016462Y014359D03*
X016462Y014351D03*
X016462Y014319D03*
X016462Y014304D03*
X016462Y014296D03*
X016462Y014280D03*
X016462Y014248D03*
X016462Y014233D03*
X016462Y014209D03*
X016462Y014185D03*
X016462Y014170D03*
X016462Y014154D03*
X016462Y014138D03*
X016462Y014130D03*
X016462Y014115D03*
X016462Y014099D03*
X016462Y014091D03*
X016462Y014075D03*
X016832Y014075D03*
X016832Y014083D03*
X016840Y014091D03*
X016840Y014122D03*
X016840Y014138D03*
X016840Y014154D03*
X016840Y014201D03*
X016840Y014217D03*
X016840Y014311D03*
X016840Y014327D03*
X016840Y014343D03*
X016840Y014398D03*
X016840Y014453D03*
X016840Y014469D03*
X016840Y014485D03*
X016840Y014500D03*
X016840Y014508D03*
X016840Y014524D03*
X016840Y014540D03*
X016840Y014556D03*
X016840Y014619D03*
X016840Y014713D03*
X016832Y014729D03*
X016100Y015146D03*
X017541Y014792D03*
X017541Y014768D03*
X017541Y014737D03*
X017541Y014666D03*
X017541Y014642D03*
X017541Y014548D03*
X017541Y014453D03*
X017541Y014422D03*
X017541Y014359D03*
X017541Y014327D03*
X017541Y014288D03*
X017541Y014241D03*
X017541Y014201D03*
X017541Y014162D03*
X017541Y014115D03*
X017541Y014075D03*
X017533Y014060D03*
X018296Y014508D03*
X018304Y014500D03*
X018312Y014485D03*
X018320Y014477D03*
X018320Y014469D03*
X018328Y014461D03*
X018336Y014445D03*
X018344Y014437D03*
X018352Y014422D03*
X018359Y014414D03*
X018359Y014406D03*
X018367Y014398D03*
X018375Y014382D03*
X018383Y014374D03*
X018391Y014367D03*
X018391Y014359D03*
X018399Y014351D03*
X018399Y014343D03*
X018407Y014335D03*
X018415Y014327D03*
X018415Y014319D03*
X018422Y014311D03*
X018556Y014099D03*
X018163Y014721D03*
X018163Y014729D03*
D27*
X018135Y014808D03*
X018135Y014815D03*
X018584Y014020D03*
X018584Y014012D03*
X018300Y016036D03*
X018300Y016044D03*
X015442Y014012D03*
X015434Y014020D03*
D28*
X015942Y014012D03*
X017273Y016185D03*
X017273Y016508D03*
X016068Y016839D03*
X019107Y016209D03*
X019107Y016201D03*
X019107Y016193D03*
X019076Y014808D03*
X019084Y014012D03*
D29*
X016600Y014012D03*
X016600Y014808D03*
X015127Y015823D03*
X015127Y015831D03*
X015127Y017091D03*
X016064Y016878D03*
X016096Y017689D03*
D30*
X016092Y017666D03*
X015808Y017508D03*
X015667Y017422D03*
X015604Y017390D03*
X015588Y017382D03*
X015556Y017367D03*
X015391Y017272D03*
X015328Y017233D03*
X015257Y017185D03*
X015186Y017154D03*
X016415Y017485D03*
X016438Y017477D03*
X016438Y017469D03*
X016462Y017461D03*
X016596Y017390D03*
X016604Y017382D03*
X016604Y017374D03*
X016627Y017367D03*
X016667Y017343D03*
X016674Y017335D03*
X016714Y017319D03*
X016714Y017311D03*
X016832Y017248D03*
X016856Y017233D03*
X016879Y017225D03*
X017257Y016241D03*
X016879Y015697D03*
X016856Y015682D03*
X016793Y015642D03*
X016737Y015611D03*
X016714Y015603D03*
X016667Y015579D03*
X016643Y015563D03*
X016604Y015540D03*
X016588Y015532D03*
X016588Y015524D03*
X016438Y015445D03*
X016415Y015437D03*
X016415Y015430D03*
X016092Y015256D03*
X015808Y015406D03*
X015667Y015493D03*
X015627Y015516D03*
X015580Y015540D03*
X015556Y015548D03*
X015556Y015556D03*
X015438Y015619D03*
X015438Y015626D03*
X015391Y015642D03*
X015391Y015650D03*
X015304Y015697D03*
X015210Y015752D03*
X015210Y015760D03*
X016635Y014768D03*
X016635Y014052D03*
X017336Y014012D03*
X018194Y015256D03*
X019123Y016233D03*
X019123Y016485D03*
X018194Y017666D03*
D31*
X018198Y017650D03*
X017285Y016532D03*
X017285Y016162D03*
X019080Y014800D03*
X015938Y014020D03*
D32*
X016611Y014020D03*
X016611Y014800D03*
D33*
X017340Y014020D03*
X017269Y016193D03*
X017269Y016201D03*
X017269Y016209D03*
X017269Y016469D03*
X017269Y016477D03*
X017269Y016485D03*
X017269Y016500D03*
X019111Y016185D03*
X015623Y017406D03*
X015348Y017248D03*
X015348Y017241D03*
D34*
X017281Y016524D03*
X017281Y016178D03*
X017281Y016170D03*
X019100Y016170D03*
X019100Y016178D03*
X019100Y016532D03*
X019084Y014020D03*
X017344Y014044D03*
D35*
X018143Y014784D03*
X018143Y014792D03*
X018576Y014044D03*
X018576Y014036D03*
X017899Y016060D03*
X017899Y016067D03*
X015001Y014784D03*
X014993Y014800D03*
X015434Y014028D03*
D36*
X015938Y014028D03*
X015938Y014036D03*
X015938Y014052D03*
X015938Y014768D03*
X015938Y014784D03*
X015938Y014792D03*
X016096Y015264D03*
X017293Y016146D03*
X017293Y016154D03*
X017293Y016540D03*
X017293Y016548D03*
X018190Y015264D03*
X019080Y014792D03*
X019088Y016146D03*
X019088Y016154D03*
X019088Y016540D03*
D37*
X019139Y016422D03*
X019139Y016414D03*
X019139Y016406D03*
X019139Y016398D03*
X019139Y016390D03*
X019139Y016382D03*
X019139Y016374D03*
X019139Y016367D03*
X019139Y016359D03*
X019139Y016351D03*
X019139Y016343D03*
X019139Y016335D03*
X019139Y016327D03*
X019139Y016319D03*
X019139Y016311D03*
X019139Y016304D03*
X019139Y016296D03*
X019139Y016288D03*
X017241Y016414D03*
X016076Y016863D03*
X015155Y017122D03*
X015155Y017130D03*
X015147Y017115D03*
X015147Y015808D03*
X015147Y015800D03*
X015155Y015792D03*
X015919Y014815D03*
X016619Y014792D03*
X016619Y014028D03*
D38*
X017340Y014028D03*
X017340Y014036D03*
X017340Y014052D03*
X015930Y014808D03*
X017277Y016516D03*
X019104Y016516D03*
X019104Y016524D03*
D39*
X018194Y015138D03*
X018139Y014800D03*
X018580Y014028D03*
X016092Y015138D03*
X015926Y014760D03*
X014997Y014792D03*
X014989Y014808D03*
X015430Y014036D03*
D40*
X015934Y014800D03*
X019084Y014028D03*
X019092Y016162D03*
X016100Y017650D03*
D41*
X016084Y016831D03*
X016084Y016823D03*
X016076Y016815D03*
X017296Y016571D03*
X017296Y016563D03*
X017296Y016556D03*
X017296Y016138D03*
X018194Y015272D03*
X019084Y014784D03*
X019084Y014776D03*
X019084Y014768D03*
X019084Y014060D03*
X019084Y014052D03*
X019084Y014044D03*
X019084Y014036D03*
X016092Y015272D03*
X015934Y014044D03*
X019084Y016548D03*
D42*
X018147Y014776D03*
X018572Y014052D03*
X015430Y014044D03*
X015422Y014052D03*
X015005Y014768D03*
D43*
X016092Y015241D03*
X016092Y015248D03*
X016627Y014784D03*
X016635Y014776D03*
X016635Y014044D03*
X018194Y015241D03*
X018194Y015248D03*
X017249Y016256D03*
X017249Y016264D03*
X017249Y016272D03*
X017249Y016422D03*
X017249Y016430D03*
X017249Y016437D03*
X018194Y017674D03*
X019131Y016437D03*
X019131Y016280D03*
X016092Y017674D03*
X015493Y017335D03*
X015289Y017209D03*
D44*
X015001Y014776D03*
X015009Y014752D03*
X015419Y014067D03*
X015426Y014060D03*
X018151Y014760D03*
X018151Y014768D03*
X018568Y014067D03*
X018568Y014060D03*
D45*
X015938Y014060D03*
X015938Y014776D03*
X019080Y016138D03*
X019080Y016556D03*
D46*
X019119Y016477D03*
X019119Y016469D03*
X018190Y017658D03*
X016883Y017217D03*
X016836Y017241D03*
X016796Y017264D03*
X016796Y017272D03*
X016749Y017288D03*
X016749Y017296D03*
X016678Y017327D03*
X016560Y017398D03*
X016560Y017406D03*
X016544Y017414D03*
X016521Y017422D03*
X016521Y017430D03*
X016379Y017508D03*
X016096Y017658D03*
X015796Y017500D03*
X015796Y017493D03*
X015773Y017485D03*
X015710Y017453D03*
X015710Y017445D03*
X015686Y017437D03*
X015663Y017430D03*
X015639Y017414D03*
X015544Y017359D03*
X015544Y017351D03*
X015474Y017319D03*
X015474Y017311D03*
X015426Y017280D03*
X015387Y017264D03*
X015308Y017225D03*
X015308Y017217D03*
X015269Y017201D03*
X015269Y017193D03*
X015222Y017178D03*
X015222Y017170D03*
X015182Y017146D03*
X016072Y016855D03*
X017261Y016461D03*
X017261Y016453D03*
X017261Y016445D03*
X017261Y016233D03*
X017261Y016225D03*
X017261Y016217D03*
X016891Y015713D03*
X016891Y015705D03*
X016859Y015689D03*
X016796Y015650D03*
X016749Y015626D03*
X016749Y015619D03*
X016710Y015595D03*
X016663Y015571D03*
X016631Y015556D03*
X016631Y015548D03*
X016544Y015508D03*
X016544Y015500D03*
X016521Y015493D03*
X016497Y015485D03*
X016497Y015477D03*
X016403Y015422D03*
X015804Y015414D03*
X015773Y015430D03*
X015773Y015437D03*
X015749Y015445D03*
X015726Y015453D03*
X015726Y015461D03*
X015686Y015477D03*
X015686Y015485D03*
X015639Y015500D03*
X015639Y015508D03*
X015544Y015563D03*
X015521Y015571D03*
X015521Y015579D03*
X015497Y015587D03*
X015474Y015595D03*
X015474Y015603D03*
X015332Y015682D03*
X015332Y015689D03*
X015293Y015705D03*
X015293Y015713D03*
X015245Y015729D03*
X015245Y015737D03*
X015222Y015745D03*
X015182Y015768D03*
X016639Y014060D03*
D47*
X017178Y014060D03*
X018194Y014626D03*
X018525Y014201D03*
X016785Y014760D03*
X015383Y014193D03*
X015375Y014201D03*
X015044Y014634D03*
D48*
X017296Y014060D03*
X017328Y014060D03*
X017359Y014060D03*
X017407Y014060D03*
X018391Y016036D03*
X018391Y016044D03*
D49*
X019312Y014815D03*
X017383Y014060D03*
X015706Y016682D03*
D50*
X017726Y016083D03*
X017726Y016075D03*
X015859Y014760D03*
X017442Y014060D03*
D51*
X016816Y014067D03*
X015407Y014115D03*
X015399Y014138D03*
X015021Y014713D03*
X018170Y014705D03*
X018170Y014697D03*
X018548Y014130D03*
X018548Y014122D03*
X019289Y014760D03*
D52*
X018552Y014115D03*
X018552Y014107D03*
X018371Y014390D03*
X018348Y014430D03*
X018332Y014453D03*
X018308Y014493D03*
X018167Y014713D03*
X018198Y015146D03*
X016828Y014737D03*
X016466Y014760D03*
X015403Y014122D03*
X015206Y014422D03*
X015182Y014461D03*
X015167Y014485D03*
X015151Y014508D03*
X015025Y014705D03*
D53*
X015025Y014697D03*
X015025Y014689D03*
X015033Y014682D03*
X015403Y014130D03*
X016820Y014745D03*
X018174Y014689D03*
X018174Y014682D03*
X018544Y014138D03*
X018883Y014760D03*
X018190Y017760D03*
X016088Y017760D03*
D54*
X018186Y017752D03*
X016367Y016052D03*
X015706Y016091D03*
X016808Y014752D03*
X015399Y014146D03*
X015391Y014154D03*
X015037Y014666D03*
X018178Y014674D03*
X018541Y014154D03*
X018541Y014146D03*
D55*
X018533Y014170D03*
X018533Y014178D03*
X018186Y014650D03*
X019060Y014760D03*
X015745Y014760D03*
X015383Y014185D03*
X015391Y014162D03*
X015044Y014642D03*
X015037Y014650D03*
D56*
X015041Y014658D03*
X015033Y014674D03*
X015387Y014170D03*
X016096Y015154D03*
X016096Y015162D03*
X018190Y015162D03*
X018190Y015154D03*
X018182Y014666D03*
X018182Y014658D03*
X018537Y014162D03*
X016088Y017752D03*
D57*
X016371Y016060D03*
X016127Y014760D03*
X015387Y014178D03*
X015048Y014626D03*
X018190Y014634D03*
X018190Y014642D03*
X018529Y014193D03*
X018529Y014185D03*
D58*
X018521Y014209D03*
X018521Y014217D03*
X018198Y014611D03*
X018198Y014619D03*
X015379Y014209D03*
X015371Y014217D03*
X015056Y014611D03*
X015048Y014619D03*
D59*
X015052Y014603D03*
X015060Y014595D03*
X015367Y014225D03*
X015997Y016052D03*
X018202Y014603D03*
X018202Y014595D03*
X018517Y014225D03*
D60*
X018513Y014233D03*
X018513Y014241D03*
X018206Y014587D03*
X018190Y015170D03*
X016096Y015170D03*
X015064Y014579D03*
X015363Y014241D03*
X015371Y014233D03*
X016056Y016918D03*
X016096Y017745D03*
X018190Y017745D03*
D61*
X018214Y014563D03*
X018505Y014264D03*
X018505Y014256D03*
X015363Y014256D03*
X015363Y014248D03*
X015356Y014264D03*
X015064Y014571D03*
D62*
X015068Y014563D03*
X015060Y014587D03*
X018210Y014579D03*
X018210Y014571D03*
X018509Y014248D03*
D63*
X018501Y014272D03*
X018501Y014280D03*
X018218Y014548D03*
X018218Y014556D03*
X015359Y014272D03*
X015352Y014280D03*
X015076Y014548D03*
X015068Y014556D03*
X015044Y015934D03*
X015044Y015941D03*
X015044Y015949D03*
X015044Y015957D03*
X015044Y015965D03*
X015044Y015973D03*
X015044Y015981D03*
X015044Y015989D03*
X015044Y015997D03*
X015044Y016004D03*
X015044Y016012D03*
X015044Y016020D03*
X015044Y016028D03*
X015044Y016036D03*
X015044Y016044D03*
X015044Y016052D03*
X015044Y016060D03*
X015044Y016067D03*
X015044Y016075D03*
X015044Y016083D03*
X015044Y016091D03*
X015044Y016099D03*
X015044Y016107D03*
X015044Y016115D03*
X015044Y016122D03*
X015044Y016130D03*
X015044Y016138D03*
X015044Y016146D03*
X015044Y016154D03*
X015044Y016162D03*
X015044Y016170D03*
X015044Y016178D03*
X015044Y016185D03*
X015044Y016193D03*
X015044Y016201D03*
X015044Y016209D03*
X015044Y016217D03*
X015044Y016225D03*
X015044Y016233D03*
X015044Y016241D03*
X015044Y016248D03*
X015044Y016256D03*
X015044Y016264D03*
X015044Y016272D03*
X015044Y016280D03*
X015044Y016288D03*
X015044Y016296D03*
X015044Y016304D03*
X015044Y016311D03*
X015044Y016319D03*
X015044Y016327D03*
X015044Y016335D03*
X015044Y016343D03*
X015044Y016351D03*
X015044Y016359D03*
X015044Y016367D03*
X015044Y016374D03*
X015044Y016382D03*
X015044Y016390D03*
X015044Y016398D03*
X015044Y016406D03*
X015044Y016414D03*
X015044Y016422D03*
X015044Y016430D03*
X015044Y016437D03*
X015044Y016445D03*
X015044Y016453D03*
X015044Y016461D03*
X015044Y016469D03*
X015044Y016477D03*
X015044Y016485D03*
X015044Y016493D03*
X015044Y016500D03*
X015044Y016508D03*
X015044Y016516D03*
X015044Y016524D03*
X015044Y016532D03*
X015044Y016540D03*
X015044Y016548D03*
X015044Y016556D03*
X015044Y016563D03*
X015044Y016571D03*
X015044Y016579D03*
X015044Y016587D03*
X015044Y016595D03*
X015044Y016603D03*
X015044Y016611D03*
X015044Y016619D03*
X015044Y016626D03*
X015044Y016634D03*
X015044Y016642D03*
X015044Y016650D03*
X015044Y016658D03*
X015044Y016666D03*
X015044Y016674D03*
X015044Y016682D03*
X015044Y016689D03*
X015044Y016697D03*
X015044Y016705D03*
X015044Y016713D03*
X015044Y016721D03*
X015044Y016729D03*
X015044Y016737D03*
X015044Y016745D03*
X015044Y016752D03*
X015044Y016760D03*
X015044Y016768D03*
X015044Y016776D03*
X015044Y016784D03*
X015044Y016792D03*
X015044Y016800D03*
X015044Y016808D03*
X015044Y016815D03*
X015044Y016823D03*
X015044Y016831D03*
X015044Y016839D03*
X015044Y016847D03*
X015044Y016855D03*
X015044Y016863D03*
X015044Y016871D03*
X015044Y016878D03*
X015044Y016886D03*
X015044Y016894D03*
X015044Y016902D03*
X015044Y016910D03*
X015044Y016918D03*
X015044Y016926D03*
X015044Y016934D03*
X015044Y016941D03*
X015044Y016949D03*
X015044Y016957D03*
X015044Y016965D03*
X015044Y016973D03*
X015044Y016981D03*
X015044Y016989D03*
D64*
X015052Y016997D03*
X015052Y017004D03*
X015052Y017012D03*
X016100Y017729D03*
X016100Y017737D03*
X015052Y015926D03*
X015052Y015918D03*
X015052Y015910D03*
X015084Y014516D03*
X015344Y014304D03*
X015352Y014296D03*
X015352Y014288D03*
X018226Y014516D03*
X018226Y014524D03*
X018493Y014304D03*
X018493Y014296D03*
D65*
X018497Y014288D03*
X018222Y014532D03*
X018222Y014540D03*
X016348Y016067D03*
X016072Y016910D03*
X018198Y017737D03*
X015072Y014540D03*
X015080Y014532D03*
D66*
X015080Y014524D03*
X016096Y015178D03*
X016096Y015185D03*
X018190Y015185D03*
X018190Y015178D03*
X018198Y017729D03*
D67*
X016143Y016926D03*
X016245Y016060D03*
X015718Y016083D03*
X016001Y014760D03*
X019182Y014760D03*
D68*
X016647Y014760D03*
X016576Y014760D03*
D69*
X016159Y014815D03*
X018450Y016808D03*
X016182Y016918D03*
D70*
X016100Y017721D03*
X016100Y015193D03*
D71*
X018198Y015193D03*
X018198Y017721D03*
D72*
X016100Y017705D03*
X016076Y016894D03*
X015092Y017052D03*
X015092Y017060D03*
X015092Y015863D03*
X016092Y015209D03*
X016092Y015201D03*
X018194Y015201D03*
X018194Y015209D03*
D73*
X018190Y015225D03*
X016096Y015225D03*
D74*
X016092Y015233D03*
X018194Y015233D03*
X018194Y017682D03*
X018194Y017689D03*
X016092Y017682D03*
D75*
X016076Y016800D03*
X016100Y015280D03*
X019068Y016115D03*
X019068Y016122D03*
X019068Y016130D03*
D76*
X019072Y016571D03*
X018190Y017634D03*
X017308Y016579D03*
X016072Y016808D03*
X016096Y017634D03*
X018198Y015280D03*
D77*
X018194Y015288D03*
X018194Y015296D03*
X017344Y016091D03*
X016092Y015296D03*
X016092Y015288D03*
D78*
X016092Y015304D03*
X016076Y016745D03*
X016076Y016752D03*
X016076Y016760D03*
X016076Y016768D03*
X016092Y017619D03*
X018194Y017619D03*
X019029Y016083D03*
X018194Y015304D03*
D79*
X018190Y015311D03*
X018190Y015319D03*
X016096Y015319D03*
X016096Y015311D03*
X016096Y017603D03*
X018190Y017603D03*
D80*
X018190Y017595D03*
X016088Y017595D03*
X016088Y017587D03*
X016088Y015327D03*
X018190Y015327D03*
D81*
X018194Y015335D03*
X018194Y015343D03*
X017415Y016067D03*
X016037Y016674D03*
X016092Y017579D03*
X018194Y017579D03*
X016092Y015343D03*
X016092Y015335D03*
D82*
X016092Y015351D03*
X017438Y016737D03*
X018194Y017563D03*
X018194Y017571D03*
X018942Y016713D03*
X018942Y016705D03*
X018942Y016697D03*
X018194Y015351D03*
X016092Y017563D03*
X016092Y017571D03*
D83*
X017458Y016768D03*
X018190Y015367D03*
X016088Y015367D03*
X016088Y015359D03*
D84*
X017454Y016752D03*
X018926Y016752D03*
X018926Y016760D03*
X018186Y015359D03*
D85*
X018190Y015374D03*
X017474Y016815D03*
X016096Y015374D03*
D86*
X016100Y015382D03*
X017501Y016052D03*
X016100Y017532D03*
D87*
X017505Y016855D03*
X017505Y016847D03*
X018198Y017532D03*
X018198Y015390D03*
X018198Y015382D03*
X016096Y015390D03*
D88*
X016096Y015398D03*
X018190Y015398D03*
X018190Y017516D03*
X018190Y017524D03*
X016096Y017524D03*
X016096Y017516D03*
D89*
X016080Y016107D03*
X018190Y015406D03*
X018836Y016871D03*
X018836Y016878D03*
X018190Y017508D03*
D90*
X016052Y016642D03*
X018194Y015414D03*
D91*
X019115Y016217D03*
X019115Y016225D03*
X019115Y016493D03*
X019115Y016500D03*
X019115Y016508D03*
X017265Y016493D03*
X016895Y017209D03*
X016501Y017437D03*
X016399Y017493D03*
X016399Y017500D03*
X015753Y017477D03*
X015753Y017469D03*
X015730Y017461D03*
X015619Y017398D03*
X015517Y017343D03*
X015430Y017296D03*
X015430Y017288D03*
X016068Y016847D03*
X015352Y015674D03*
X015265Y015721D03*
X015793Y015422D03*
X016470Y015453D03*
X016470Y015461D03*
X016682Y015587D03*
X016840Y015674D03*
D92*
X018190Y015422D03*
D93*
X018194Y015430D03*
X018194Y015437D03*
X018194Y017485D03*
D94*
X018194Y017477D03*
X018194Y017469D03*
X016084Y016138D03*
X018194Y015445D03*
D95*
X018202Y015453D03*
X018202Y015461D03*
D96*
X018194Y015469D03*
X018194Y017445D03*
X018194Y017453D03*
D97*
X018194Y015485D03*
X018194Y015477D03*
D98*
X018190Y015493D03*
D99*
X018194Y015500D03*
X018194Y015508D03*
X016084Y016248D03*
X016084Y016485D03*
X016084Y016500D03*
X018194Y017414D03*
D100*
X018194Y015516D03*
D101*
X018190Y015524D03*
X018190Y015532D03*
D102*
X018194Y015540D03*
D103*
X018190Y015548D03*
X018190Y015556D03*
D104*
X018194Y015563D03*
X018194Y017351D03*
X018194Y017359D03*
D105*
X018194Y015579D03*
X018194Y015571D03*
D106*
X018194Y015587D03*
D107*
X018194Y015595D03*
X018194Y015603D03*
X018194Y017311D03*
X018194Y017319D03*
D108*
X018198Y015611D03*
D109*
X018190Y015619D03*
X018190Y015626D03*
D110*
X018194Y015634D03*
X018194Y017280D03*
X018186Y017288D03*
D111*
X018194Y015642D03*
D112*
X018190Y015650D03*
X018190Y017272D03*
D113*
X018198Y015658D03*
D114*
X018198Y015666D03*
D115*
X018190Y015674D03*
D116*
X018194Y015682D03*
X018194Y017233D03*
D117*
X018190Y015689D03*
D118*
X018194Y015697D03*
X018194Y017225D03*
D119*
X018194Y015713D03*
X018194Y015705D03*
D120*
X018052Y015768D03*
X018013Y015745D03*
X017989Y015737D03*
X017989Y015729D03*
X017966Y015721D03*
X018013Y017170D03*
X018013Y017178D03*
D121*
X018029Y017162D03*
X017974Y017193D03*
X017974Y017201D03*
X018029Y015760D03*
X018029Y015752D03*
D122*
X018060Y015776D03*
X018060Y015784D03*
X018060Y017138D03*
D123*
X018080Y017130D03*
X018080Y017122D03*
X018080Y015792D03*
D124*
X018092Y015800D03*
X018092Y015808D03*
X018092Y017115D03*
D125*
X016064Y016871D03*
X015135Y017099D03*
X015135Y017107D03*
X015135Y015815D03*
D126*
X018104Y015815D03*
X018104Y017099D03*
X018104Y017107D03*
D127*
X018115Y015831D03*
X018115Y015823D03*
D128*
X016072Y016886D03*
X016096Y017697D03*
X015111Y017083D03*
X015111Y017075D03*
X015111Y015839D03*
X018198Y017697D03*
D129*
X018127Y017083D03*
X018127Y017075D03*
X018127Y015839D03*
D130*
X015100Y015847D03*
X015100Y015855D03*
X015100Y017067D03*
D131*
X018139Y017067D03*
X018139Y015855D03*
X018139Y015847D03*
D132*
X018143Y015863D03*
X018143Y017052D03*
X018143Y017060D03*
D133*
X015080Y017044D03*
X015080Y015878D03*
X015080Y015871D03*
D134*
X018155Y015871D03*
X018155Y015878D03*
X018155Y017044D03*
D135*
X016013Y016067D03*
X016013Y016060D03*
X015068Y015886D03*
X015068Y017028D03*
X015068Y017036D03*
D136*
X018167Y017036D03*
X018167Y017028D03*
X018167Y015886D03*
D137*
X015064Y015894D03*
X015064Y015902D03*
X015064Y017020D03*
D138*
X018174Y017020D03*
X018174Y015902D03*
X018174Y015894D03*
D139*
X018186Y015910D03*
X018186Y015918D03*
X018186Y015926D03*
X018186Y016997D03*
X018186Y017004D03*
X018186Y017012D03*
D140*
X018190Y016989D03*
X018190Y016981D03*
X018190Y016973D03*
X018190Y016965D03*
X018190Y016957D03*
X018190Y016949D03*
X018190Y016941D03*
X018190Y016934D03*
X018190Y016926D03*
X018190Y016918D03*
X018190Y016910D03*
X018190Y016902D03*
X018190Y016894D03*
X018190Y016020D03*
X018190Y016012D03*
X018190Y016004D03*
X018190Y015997D03*
X018190Y015989D03*
X018190Y015981D03*
X018190Y015973D03*
X018190Y015965D03*
X018190Y015957D03*
X018190Y015949D03*
X018190Y015941D03*
X018190Y015934D03*
D141*
X017529Y016028D03*
X016088Y016099D03*
D142*
X018789Y016028D03*
D143*
X018867Y016855D03*
X017513Y016863D03*
X017513Y016044D03*
X017513Y016036D03*
D144*
X018974Y016036D03*
X018974Y016044D03*
X018974Y016052D03*
D145*
X017419Y016060D03*
D146*
X019009Y016060D03*
X019009Y016067D03*
D147*
X015722Y016075D03*
D148*
X016194Y016075D03*
D149*
X017356Y016075D03*
X017356Y016083D03*
X017356Y016626D03*
X018190Y017611D03*
X019025Y016075D03*
X016096Y017611D03*
D150*
X016076Y016713D03*
X016076Y016705D03*
X016076Y016697D03*
X016076Y016689D03*
X016076Y016682D03*
X016194Y016083D03*
D151*
X016194Y016091D03*
X018186Y017587D03*
D152*
X017340Y016619D03*
X017340Y016611D03*
X019041Y016091D03*
D153*
X017332Y016099D03*
X017332Y016107D03*
X016080Y016784D03*
D154*
X019056Y016595D03*
X019056Y016587D03*
X019056Y016107D03*
X019056Y016099D03*
D155*
X018198Y017493D03*
X018198Y017500D03*
X016088Y016115D03*
D156*
X016076Y016792D03*
X017320Y016115D03*
D157*
X016088Y016122D03*
D158*
X017304Y016122D03*
X017304Y016130D03*
X019076Y016563D03*
X018194Y017642D03*
X016092Y017642D03*
D159*
X016068Y016619D03*
X016068Y016611D03*
X016084Y016130D03*
D160*
X016076Y016146D03*
D161*
X016076Y016154D03*
X018194Y017461D03*
D162*
X016072Y016579D03*
X016080Y016162D03*
D163*
X016080Y016170D03*
D164*
X016080Y016178D03*
X016072Y016563D03*
D165*
X016076Y016571D03*
X016076Y016185D03*
D166*
X016080Y016193D03*
X016080Y016201D03*
X016080Y016540D03*
X016080Y016548D03*
D167*
X016084Y016532D03*
X016084Y016209D03*
X018194Y017422D03*
X018194Y017430D03*
D168*
X016076Y016524D03*
X016076Y016516D03*
X016076Y016225D03*
X016076Y016217D03*
D169*
X016080Y016233D03*
X016080Y016508D03*
D170*
X016080Y016241D03*
D171*
X016088Y016256D03*
X016088Y016477D03*
X016080Y016493D03*
D172*
X016080Y016469D03*
X016080Y016272D03*
X016080Y016264D03*
D173*
X016088Y016280D03*
X016088Y016453D03*
X016088Y016461D03*
D174*
X016084Y016288D03*
D175*
X016080Y016296D03*
D176*
X016084Y016304D03*
X016084Y016311D03*
X016084Y016319D03*
X016084Y016327D03*
X016084Y016335D03*
X016084Y016343D03*
X016084Y016351D03*
X016084Y016359D03*
X016084Y016367D03*
X016084Y016374D03*
X016084Y016382D03*
X016084Y016390D03*
X016084Y016398D03*
X016084Y016406D03*
X016084Y016414D03*
X016084Y016422D03*
X016084Y016430D03*
X016084Y016437D03*
X016084Y016445D03*
D177*
X016080Y016556D03*
X018198Y017437D03*
D178*
X019064Y016579D03*
X017316Y016587D03*
X017316Y016595D03*
D179*
X016072Y016595D03*
X016072Y016587D03*
D180*
X016072Y016603D03*
D181*
X017328Y016603D03*
D182*
X016076Y016776D03*
X016100Y017626D03*
X018202Y017626D03*
X019044Y016603D03*
D183*
X019021Y016611D03*
X019021Y016619D03*
X016068Y016737D03*
D184*
X016068Y016626D03*
D185*
X018989Y016626D03*
D186*
X016056Y016634D03*
D187*
X017387Y016634D03*
X017387Y016642D03*
D188*
X017426Y016689D03*
X018954Y016642D03*
X018954Y016634D03*
D189*
X018856Y016863D03*
X017525Y016871D03*
X017525Y016878D03*
X016052Y016650D03*
D190*
X017403Y016650D03*
D191*
X017430Y016658D03*
X017430Y016666D03*
X017430Y016674D03*
X017430Y016682D03*
X018950Y016682D03*
X018950Y016689D03*
X018950Y016674D03*
X018950Y016666D03*
X018950Y016658D03*
X018950Y016650D03*
D192*
X016041Y016658D03*
X016041Y016666D03*
X016088Y017540D03*
X016088Y017548D03*
D193*
X017434Y016713D03*
X017434Y016705D03*
X017434Y016697D03*
D194*
X016072Y016721D03*
X016072Y016729D03*
D195*
X017442Y016729D03*
X017442Y016721D03*
X018938Y016745D03*
D196*
X018934Y016737D03*
X018934Y016729D03*
X018934Y016721D03*
X017446Y016745D03*
D197*
X017450Y016760D03*
D198*
X018178Y017556D03*
X018919Y016768D03*
X016084Y017556D03*
D199*
X017466Y016792D03*
X017466Y016784D03*
X017466Y016776D03*
X018915Y016808D03*
D200*
X018911Y016792D03*
X018911Y016784D03*
X018911Y016776D03*
X017470Y016800D03*
X017470Y016808D03*
D201*
X018186Y017540D03*
X018186Y017548D03*
X018903Y016800D03*
D202*
X018895Y016815D03*
D203*
X018891Y016823D03*
X018891Y016831D03*
X017489Y016831D03*
X017489Y016823D03*
D204*
X017493Y016839D03*
D205*
X018871Y016839D03*
D206*
X018863Y016847D03*
D207*
X017541Y016886D03*
D208*
X018816Y016886D03*
D209*
X016076Y016902D03*
X016100Y017713D03*
D210*
X018107Y017091D03*
D211*
X018044Y017146D03*
X018044Y017154D03*
D212*
X017985Y017185D03*
D213*
X018198Y017209D03*
D214*
X018190Y017217D03*
D215*
X018186Y017241D03*
X018186Y017248D03*
D216*
X018194Y017256D03*
D217*
X018194Y017264D03*
D218*
X018182Y017296D03*
D219*
X018190Y017304D03*
D220*
X018186Y017327D03*
D221*
X018190Y017335D03*
D222*
X018186Y017343D03*
D223*
X018194Y017367D03*
D224*
X018198Y017374D03*
X018198Y017382D03*
D225*
X018202Y017390D03*
D226*
X018186Y017398D03*
X018186Y017406D03*
D227*
X018198Y017705D03*
X018198Y017713D03*
D228*
X023386Y015699D03*
D229*
X023386Y015706D03*
D230*
X023386Y015712D03*
D231*
X023386Y015718D03*
D232*
X023386Y015724D03*
D233*
X023386Y015731D03*
D234*
X023386Y015737D03*
D235*
X023386Y015743D03*
D236*
X023386Y015750D03*
D237*
X023386Y015756D03*
D238*
X023386Y015762D03*
D239*
X023386Y015769D03*
D240*
X023386Y015775D03*
D241*
X023386Y015781D03*
D242*
X023386Y015787D03*
D243*
X023386Y015794D03*
X023386Y017110D03*
D244*
X023386Y015800D03*
D245*
X023386Y015806D03*
D246*
X023386Y015813D03*
X023386Y017091D03*
D247*
X023386Y015819D03*
D248*
X023386Y015825D03*
X023386Y017079D03*
D249*
X023386Y015832D03*
D250*
X023386Y015838D03*
X023386Y017072D03*
D251*
X023386Y017060D03*
X023386Y015844D03*
D252*
X023386Y015850D03*
D253*
X023386Y015857D03*
X023386Y017054D03*
D254*
X023386Y017041D03*
X023386Y015863D03*
D255*
X023386Y015869D03*
D256*
X023386Y015876D03*
X023386Y017035D03*
D257*
X023386Y017028D03*
X023386Y015882D03*
D258*
X023386Y015888D03*
X023386Y017022D03*
D259*
X023386Y017010D03*
X023386Y015895D03*
D260*
X023386Y015901D03*
X023386Y017003D03*
D261*
X023386Y016997D03*
X023386Y015907D03*
D262*
X023386Y015913D03*
X023386Y016991D03*
D263*
X023386Y016984D03*
X023386Y015920D03*
D264*
X023386Y015926D03*
X023386Y016978D03*
D265*
X023386Y016972D03*
X023386Y015932D03*
D266*
X023386Y015939D03*
X023386Y016965D03*
D267*
X023386Y016959D03*
X023386Y015951D03*
X023386Y015945D03*
D268*
X023386Y015958D03*
X023386Y016953D03*
D269*
X023386Y016947D03*
X023386Y015964D03*
D270*
X023386Y015970D03*
X023386Y016934D03*
X023386Y016940D03*
D271*
X023386Y016928D03*
X023386Y015976D03*
D272*
X023386Y015983D03*
X023386Y016921D03*
D273*
X024624Y016814D03*
X024624Y016808D03*
X024624Y016802D03*
X024624Y016795D03*
X024624Y016789D03*
X024624Y016783D03*
X024624Y016776D03*
X024624Y016770D03*
X024624Y016764D03*
X024624Y016758D03*
X024624Y016751D03*
X024624Y016745D03*
X024624Y016739D03*
X024624Y016732D03*
X024624Y016726D03*
X024624Y016720D03*
X024624Y016713D03*
X024624Y016707D03*
X024624Y016701D03*
X024624Y016695D03*
X024624Y016688D03*
X024624Y016682D03*
X024624Y016676D03*
X024624Y016669D03*
X024624Y016663D03*
X024624Y016657D03*
X024624Y016650D03*
X024624Y016644D03*
X024624Y016638D03*
X024624Y016632D03*
X024624Y016625D03*
X024624Y016619D03*
X024624Y016613D03*
X024624Y016606D03*
X024624Y016600D03*
X024624Y016594D03*
X024624Y016587D03*
X024624Y016581D03*
X024624Y016575D03*
X024624Y016569D03*
X024624Y016562D03*
X024624Y016556D03*
X024624Y016550D03*
X024624Y016543D03*
X024624Y016537D03*
X024624Y016531D03*
X024624Y016524D03*
X024624Y016518D03*
X024624Y016512D03*
X024624Y016506D03*
X024624Y016499D03*
X024624Y016493D03*
X024624Y016487D03*
X024624Y016480D03*
X024624Y016474D03*
X024624Y016468D03*
X024624Y016461D03*
X024624Y016455D03*
X024624Y016449D03*
X024624Y016443D03*
X024624Y016436D03*
X024624Y016430D03*
X024624Y016424D03*
X024624Y016417D03*
X024624Y016411D03*
X024624Y016405D03*
X024624Y016398D03*
X024624Y016392D03*
X024624Y016386D03*
X024624Y016380D03*
X024624Y016373D03*
X024624Y016367D03*
X024624Y016361D03*
X024624Y016354D03*
X024624Y016348D03*
X024624Y016342D03*
X024624Y016335D03*
X024624Y016329D03*
X024624Y016323D03*
X024624Y016317D03*
X024624Y016310D03*
X024624Y016304D03*
X024624Y016298D03*
X024624Y016291D03*
X024624Y016285D03*
X024624Y016279D03*
X024624Y016272D03*
X024624Y016266D03*
X024624Y016260D03*
X024624Y016254D03*
X024624Y016247D03*
X024624Y016241D03*
X024624Y016235D03*
X024624Y016228D03*
X024624Y016222D03*
X024624Y016216D03*
X024624Y016210D03*
X024624Y016203D03*
X024624Y016197D03*
X024624Y016191D03*
X024624Y016184D03*
X024624Y016178D03*
X024624Y016172D03*
X024624Y016165D03*
X024624Y016159D03*
X024624Y016153D03*
X024624Y016147D03*
X024624Y016140D03*
X024624Y016134D03*
X024624Y016128D03*
X024624Y016121D03*
X024624Y016115D03*
X024624Y016109D03*
X024624Y016102D03*
X024624Y016096D03*
X024624Y016090D03*
X024624Y016084D03*
X024624Y016077D03*
X024624Y016071D03*
X025563Y016858D03*
X025563Y016865D03*
X025607Y016027D03*
X026123Y015995D03*
X020656Y015989D03*
D274*
X021301Y015989D03*
X021301Y015995D03*
X021301Y016002D03*
X021301Y016008D03*
X021301Y016014D03*
X021301Y016021D03*
X021301Y016027D03*
X021301Y016033D03*
X021301Y016039D03*
X021301Y016046D03*
X021301Y016052D03*
X021301Y016058D03*
X021301Y016065D03*
X021301Y016071D03*
X021301Y016077D03*
X021301Y016084D03*
X021301Y016090D03*
X021301Y016096D03*
X021301Y016102D03*
X021301Y016109D03*
X021301Y016115D03*
X021301Y016121D03*
X021301Y016128D03*
X021301Y016134D03*
X021301Y016140D03*
X021301Y016147D03*
X021301Y016153D03*
X021301Y016159D03*
X021301Y016165D03*
X021301Y016172D03*
X021301Y016178D03*
X021301Y016184D03*
X021301Y016191D03*
X021301Y016197D03*
X021301Y016203D03*
X021301Y016210D03*
X021301Y016216D03*
X021301Y016222D03*
X021301Y016228D03*
X021301Y016235D03*
X021301Y016241D03*
X021301Y016247D03*
X021301Y016254D03*
X021301Y016260D03*
X021301Y016266D03*
X021301Y016272D03*
X021301Y016279D03*
X021301Y016285D03*
X021301Y016291D03*
X021301Y016298D03*
X021301Y016304D03*
X021301Y016310D03*
X021301Y016317D03*
X021301Y016323D03*
X021301Y016329D03*
X021301Y016335D03*
X021301Y016342D03*
X021301Y016348D03*
X021301Y016354D03*
X021301Y016361D03*
X021301Y016367D03*
X021301Y016373D03*
X021301Y016380D03*
X021301Y016386D03*
X021301Y016392D03*
X021301Y016398D03*
X021301Y016405D03*
X021301Y016411D03*
X021301Y016417D03*
X021301Y016506D03*
X021301Y016512D03*
X021301Y016518D03*
X021301Y016524D03*
X021301Y016531D03*
X021301Y016537D03*
X021301Y016543D03*
X021301Y016550D03*
X021301Y016556D03*
X021301Y016562D03*
X021301Y016569D03*
X021301Y016575D03*
X021301Y016581D03*
X021301Y016587D03*
X021301Y016594D03*
X021301Y016600D03*
X021301Y016606D03*
X021301Y016613D03*
X021301Y016619D03*
X021301Y016625D03*
X021301Y016632D03*
X021301Y016638D03*
X021301Y016644D03*
X021301Y016650D03*
X021301Y016657D03*
X021301Y016663D03*
X021301Y016669D03*
X021301Y016676D03*
X021301Y016682D03*
X021301Y016688D03*
X021301Y016695D03*
X021301Y016701D03*
X021301Y016707D03*
X021301Y016713D03*
X021301Y016720D03*
X021301Y016726D03*
X021301Y016732D03*
X021301Y016739D03*
X021301Y016745D03*
X021301Y016751D03*
X021301Y016758D03*
X021301Y016764D03*
X021301Y016770D03*
X021301Y016776D03*
X021301Y016783D03*
X021301Y016789D03*
X021301Y016795D03*
X021301Y016802D03*
X021301Y016808D03*
X021301Y016814D03*
D275*
X021950Y016814D03*
X021950Y016808D03*
X021950Y016802D03*
X021950Y016795D03*
X021950Y016789D03*
X021950Y016783D03*
X021950Y016776D03*
X021950Y016770D03*
X021950Y016764D03*
X021950Y016758D03*
X021950Y016751D03*
X021950Y016745D03*
X021950Y016739D03*
X021950Y016732D03*
X021950Y016726D03*
X021950Y016720D03*
X021950Y016713D03*
X021950Y016707D03*
X021950Y016701D03*
X021950Y016695D03*
X021950Y016688D03*
X021950Y016682D03*
X021950Y016676D03*
X021950Y016669D03*
X021950Y016663D03*
X021950Y016657D03*
X021950Y016650D03*
X021950Y016644D03*
X021950Y016638D03*
X021950Y016632D03*
X021950Y016625D03*
X021950Y016619D03*
X021950Y016613D03*
X021950Y016606D03*
X021950Y016600D03*
X021950Y016594D03*
X021950Y016587D03*
X021950Y016581D03*
X021950Y016575D03*
X021950Y016569D03*
X021950Y016562D03*
X021950Y016556D03*
X021950Y016550D03*
X021950Y016543D03*
X021950Y016537D03*
X021950Y016531D03*
X021950Y016524D03*
X021950Y016518D03*
X021950Y016512D03*
X021950Y016506D03*
X021950Y016499D03*
X021950Y016493D03*
X021950Y016487D03*
X021950Y016480D03*
X021950Y016474D03*
X021950Y016468D03*
X021950Y016461D03*
X021950Y016455D03*
X021950Y016449D03*
X021950Y016443D03*
X021950Y016436D03*
X021950Y016430D03*
X021950Y016342D03*
X021950Y016335D03*
X021950Y016329D03*
X021950Y016323D03*
X021950Y016317D03*
X021950Y016310D03*
X021950Y016304D03*
X021950Y016298D03*
X021950Y016291D03*
X021950Y016285D03*
X021950Y016279D03*
X021950Y016272D03*
X021950Y016266D03*
X021950Y016260D03*
X021950Y016254D03*
X021950Y016247D03*
X021950Y016241D03*
X021950Y016235D03*
X021950Y016228D03*
X021950Y016222D03*
X021950Y016216D03*
X021950Y016210D03*
X021950Y016203D03*
X021950Y016197D03*
X021950Y016191D03*
X021950Y016184D03*
X021950Y016178D03*
X021950Y016172D03*
X021950Y016165D03*
X021950Y016159D03*
X021950Y016153D03*
X021950Y016147D03*
X021950Y016140D03*
X021950Y016134D03*
X021950Y016128D03*
X021950Y016121D03*
X021950Y016115D03*
X021950Y016109D03*
X021950Y016102D03*
X021950Y016096D03*
X021950Y016090D03*
X021950Y016084D03*
X021950Y016077D03*
X021950Y016071D03*
X021950Y016065D03*
X021950Y016058D03*
X021950Y016052D03*
X021950Y016046D03*
X021950Y016039D03*
X021950Y016033D03*
X021950Y016027D03*
X021950Y016021D03*
X021950Y016014D03*
X021950Y016008D03*
X021950Y016002D03*
X021950Y015995D03*
X021950Y015989D03*
X020652Y015995D03*
X025559Y016871D03*
X025610Y016021D03*
X025610Y016014D03*
X026126Y016002D03*
D276*
X025537Y016197D03*
X025115Y016197D03*
X025115Y016203D03*
X025115Y016210D03*
X025115Y016216D03*
X025115Y016222D03*
X025115Y016228D03*
X025115Y016235D03*
X025115Y016241D03*
X025115Y016247D03*
X025115Y016254D03*
X025115Y016260D03*
X025115Y016266D03*
X025115Y016272D03*
X025115Y016279D03*
X025115Y016285D03*
X025115Y016291D03*
X025115Y016298D03*
X025115Y016304D03*
X025115Y016310D03*
X025115Y016317D03*
X025115Y016323D03*
X025115Y016329D03*
X025115Y016335D03*
X025115Y016342D03*
X025115Y016348D03*
X025115Y016354D03*
X025115Y016361D03*
X025115Y016367D03*
X025115Y016373D03*
X025115Y016380D03*
X025115Y016386D03*
X025115Y016392D03*
X025115Y016398D03*
X025115Y016405D03*
X025115Y016411D03*
X025115Y016417D03*
X025115Y016424D03*
X025115Y016430D03*
X025115Y016436D03*
X025115Y016443D03*
X025115Y016449D03*
X025115Y016455D03*
X025115Y016461D03*
X025115Y016468D03*
X025115Y016474D03*
X025115Y016480D03*
X025115Y016487D03*
X025115Y016493D03*
X025115Y016499D03*
X025115Y016506D03*
X025115Y016512D03*
X025115Y016518D03*
X025115Y016524D03*
X025115Y016531D03*
X025115Y016537D03*
X025115Y016543D03*
X025115Y016550D03*
X025115Y016556D03*
X025115Y016562D03*
X025115Y016569D03*
X025115Y016575D03*
X025115Y016581D03*
X025115Y016587D03*
X025115Y016594D03*
X025115Y016600D03*
X025115Y016606D03*
X025115Y016613D03*
X025115Y016619D03*
X025115Y016625D03*
X025115Y016632D03*
X025115Y016638D03*
X025115Y016644D03*
X025115Y016650D03*
X025115Y016657D03*
X025115Y016663D03*
X025115Y016669D03*
X025115Y016676D03*
X025115Y016682D03*
X025115Y016688D03*
X025115Y016695D03*
X025115Y016701D03*
X025115Y016707D03*
X025115Y016713D03*
X025115Y016720D03*
X025115Y016726D03*
X025115Y016732D03*
X025115Y016739D03*
X025115Y016745D03*
X025115Y016751D03*
X025115Y016758D03*
X025115Y016764D03*
X025115Y016770D03*
X025115Y016776D03*
X025115Y016783D03*
X025115Y016789D03*
X025115Y016795D03*
X025115Y016802D03*
X025115Y016808D03*
X025115Y016814D03*
X025115Y016821D03*
X025115Y016827D03*
X025115Y016833D03*
X025115Y016839D03*
X025115Y016846D03*
X025115Y016852D03*
X025632Y016663D03*
X025115Y016191D03*
X025115Y016184D03*
X025115Y016178D03*
X025115Y016172D03*
X025115Y016165D03*
X025115Y016159D03*
X025115Y016153D03*
X025115Y016147D03*
X025115Y016140D03*
X025115Y016134D03*
X025115Y016128D03*
X025115Y016121D03*
X025115Y016115D03*
X025115Y016109D03*
X025115Y016102D03*
X025115Y016096D03*
X025115Y016090D03*
X025115Y016084D03*
X025115Y016077D03*
X025115Y016071D03*
X025115Y016065D03*
X025115Y016058D03*
X025115Y016052D03*
X025115Y016046D03*
X025115Y016039D03*
X024133Y016039D03*
X024133Y016046D03*
X024133Y016052D03*
X024133Y016058D03*
X024133Y016065D03*
X024133Y016071D03*
X024133Y016077D03*
X024133Y016084D03*
X024133Y016090D03*
X024133Y016096D03*
X024133Y016102D03*
X024133Y016109D03*
X024133Y016115D03*
X024133Y016121D03*
X024133Y016128D03*
X024133Y016134D03*
X024133Y016140D03*
X024133Y016147D03*
X024133Y016153D03*
X024133Y016159D03*
X024133Y016165D03*
X024133Y016172D03*
X024133Y016178D03*
X024133Y016184D03*
X024133Y016191D03*
X024133Y016197D03*
X024133Y016203D03*
X024133Y016210D03*
X024133Y016216D03*
X024133Y016222D03*
X024133Y016228D03*
X024133Y016235D03*
X024133Y016241D03*
X024133Y016247D03*
X024133Y016254D03*
X024133Y016260D03*
X024133Y016266D03*
X024133Y016272D03*
X024133Y016279D03*
X024133Y016285D03*
X024133Y016291D03*
X024133Y016298D03*
X024133Y016304D03*
X024133Y016310D03*
X024133Y016317D03*
X024133Y016323D03*
X024133Y016329D03*
X024133Y016335D03*
X024133Y016613D03*
X024133Y016619D03*
X024133Y016625D03*
X024133Y016632D03*
X024133Y016638D03*
X024133Y016644D03*
X024133Y016650D03*
X024133Y016657D03*
X024133Y016663D03*
X024133Y016669D03*
X024133Y016676D03*
X024133Y016682D03*
X024133Y016688D03*
X024133Y016695D03*
X024133Y016701D03*
X024133Y016707D03*
X024133Y016713D03*
X024133Y016720D03*
X024133Y016726D03*
X024133Y016732D03*
X024133Y016739D03*
X024133Y016745D03*
X024133Y016751D03*
X024133Y016758D03*
X024133Y016764D03*
X024133Y016770D03*
X024133Y016776D03*
X024133Y016783D03*
X024133Y016789D03*
X024133Y016795D03*
X024133Y016802D03*
X024133Y016808D03*
X024133Y016814D03*
X024133Y016821D03*
X024133Y016827D03*
X024133Y016833D03*
X024133Y016839D03*
X024133Y016846D03*
X024133Y016852D03*
X024133Y016858D03*
X022444Y016858D03*
X022444Y016852D03*
X022444Y016846D03*
X022444Y016839D03*
X022444Y016833D03*
X022444Y016827D03*
X022444Y016821D03*
X022444Y016814D03*
X022444Y016808D03*
X022444Y016802D03*
X022444Y016795D03*
X022444Y016789D03*
X022444Y016783D03*
X022444Y016776D03*
X022444Y016770D03*
X022444Y016764D03*
X022444Y016758D03*
X022444Y016751D03*
X022444Y016745D03*
X022444Y016739D03*
X022444Y016732D03*
X022444Y016726D03*
X022444Y016720D03*
X022444Y016713D03*
X022444Y016707D03*
X022444Y016701D03*
X022444Y016695D03*
X022444Y016688D03*
X022444Y016682D03*
X022444Y016676D03*
X022444Y016669D03*
X022444Y016663D03*
X022444Y016657D03*
X022444Y016650D03*
X022444Y016644D03*
X022444Y016638D03*
X022444Y016632D03*
X022444Y016625D03*
X022444Y016619D03*
X022444Y016613D03*
X022444Y016606D03*
X022444Y016600D03*
X022444Y016594D03*
X022444Y016587D03*
X022444Y016581D03*
X022444Y016575D03*
X022444Y016569D03*
X022444Y016562D03*
X022444Y016556D03*
X022444Y016550D03*
X022444Y016543D03*
X022444Y016537D03*
X022444Y016531D03*
X022444Y016524D03*
X022444Y016518D03*
X022444Y016512D03*
X022444Y016506D03*
X022444Y016499D03*
X022444Y016493D03*
X022444Y016487D03*
X022444Y016480D03*
X022444Y016474D03*
X022444Y016468D03*
X022444Y016461D03*
X022444Y016455D03*
X022444Y016449D03*
X022444Y016443D03*
X022444Y016436D03*
X022444Y016430D03*
X022444Y016424D03*
X022444Y016417D03*
X022444Y016411D03*
X022444Y016405D03*
X022444Y016398D03*
X022444Y016392D03*
X022444Y016386D03*
X022444Y016380D03*
X022444Y016373D03*
X022444Y016367D03*
X022444Y016361D03*
X022444Y016354D03*
X022444Y016348D03*
X022444Y016342D03*
X022444Y016335D03*
X022444Y016329D03*
X022444Y016323D03*
X022444Y016317D03*
X022444Y016310D03*
X022444Y016304D03*
X022444Y016298D03*
X022444Y016291D03*
X022444Y016285D03*
X022444Y016279D03*
X022444Y016272D03*
X022444Y016266D03*
X022444Y016260D03*
X022444Y016254D03*
X022444Y016247D03*
X022444Y016241D03*
X022444Y016235D03*
X022444Y016228D03*
X022444Y016222D03*
X022444Y016216D03*
X022444Y016210D03*
X022444Y016203D03*
X022444Y016197D03*
X022444Y016191D03*
X022444Y016184D03*
X022444Y016178D03*
X022444Y016172D03*
X022444Y016165D03*
X022444Y016159D03*
X022444Y016153D03*
X022444Y016147D03*
X022444Y016140D03*
X022444Y016134D03*
X022444Y016128D03*
X022444Y016121D03*
X022444Y016115D03*
X022444Y016109D03*
X022444Y016102D03*
X022444Y016096D03*
X022444Y016090D03*
X022444Y016084D03*
X022444Y016077D03*
X022444Y016071D03*
X022444Y016065D03*
X022444Y016058D03*
X022444Y016052D03*
X022444Y016046D03*
X022444Y016039D03*
X022444Y016033D03*
X022444Y016027D03*
X022444Y016021D03*
X022444Y016014D03*
X022444Y016008D03*
X022444Y016002D03*
X022444Y015995D03*
X022444Y015989D03*
X022444Y016865D03*
X021487Y016884D03*
D277*
X022438Y016884D03*
X023270Y015989D03*
X024133Y016027D03*
X024133Y016865D03*
X024133Y016871D03*
X025109Y016865D03*
X025626Y016682D03*
X025626Y016676D03*
X025544Y016184D03*
X025109Y016021D03*
D278*
X025613Y016008D03*
X026130Y016008D03*
X026130Y016014D03*
X026130Y016896D03*
X025556Y016877D03*
X024133Y015989D03*
X020649Y016002D03*
D279*
X024133Y016002D03*
X025078Y015989D03*
X025575Y016102D03*
X025594Y016770D03*
D280*
X026139Y016865D03*
X026139Y016871D03*
X026139Y016039D03*
X025622Y015989D03*
X020640Y016027D03*
X020640Y016033D03*
X020640Y016877D03*
D281*
X025566Y016852D03*
X025604Y016033D03*
X026120Y015989D03*
D282*
X025534Y016203D03*
X025534Y016210D03*
X025635Y016650D03*
X025635Y016657D03*
X023260Y015995D03*
D283*
X024136Y015995D03*
X025591Y016065D03*
X025578Y016814D03*
D284*
X025607Y016732D03*
X025563Y016134D03*
X025090Y015995D03*
X022419Y016896D03*
D285*
X020643Y016890D03*
X020643Y016884D03*
X020643Y016021D03*
X025550Y016896D03*
X026136Y016877D03*
X026136Y016033D03*
X026136Y016027D03*
X025619Y015995D03*
D286*
X025528Y016222D03*
X025641Y016632D03*
X025641Y016638D03*
X023254Y016002D03*
X021465Y016424D03*
X021465Y016430D03*
X021465Y016436D03*
X021465Y016443D03*
X021465Y016449D03*
X021465Y016455D03*
X021465Y016461D03*
X021465Y016468D03*
X021465Y016474D03*
X021465Y016480D03*
X021465Y016487D03*
X021465Y016493D03*
X021465Y016499D03*
X021478Y016871D03*
D287*
X024130Y016877D03*
X025553Y016159D03*
X025100Y016002D03*
X025616Y016707D03*
D288*
X025553Y016884D03*
X025553Y016890D03*
X026133Y016890D03*
X026133Y016884D03*
X026133Y016021D03*
X025616Y016002D03*
X020646Y016008D03*
X020646Y016014D03*
X020646Y016896D03*
D289*
X021471Y016852D03*
X021471Y016846D03*
X021471Y016839D03*
X021471Y016833D03*
X021471Y016827D03*
X021471Y016821D03*
X023248Y016008D03*
X025522Y016235D03*
X025522Y016241D03*
X025648Y016613D03*
X025648Y016619D03*
D290*
X025604Y016739D03*
X025604Y016745D03*
X025087Y016890D03*
X025566Y016128D03*
X024136Y016008D03*
D291*
X025103Y016008D03*
X025550Y016165D03*
X025619Y016695D03*
X025619Y016701D03*
X025103Y016877D03*
X022432Y016890D03*
X021500Y016896D03*
D292*
X023244Y016014D03*
X025519Y016247D03*
X025651Y016606D03*
D293*
X025613Y016713D03*
X025613Y016720D03*
X025096Y016884D03*
X025556Y016153D03*
X024133Y016014D03*
D294*
X024136Y016021D03*
X025106Y016014D03*
X025547Y016172D03*
X025547Y016178D03*
X025622Y016688D03*
X025106Y016871D03*
D295*
X025654Y016600D03*
X025515Y016254D03*
X023241Y016065D03*
X023241Y016058D03*
X023241Y016052D03*
X023241Y016046D03*
X023241Y016039D03*
X023241Y016033D03*
X023241Y016027D03*
X023241Y016021D03*
D296*
X022441Y016871D03*
X022441Y016877D03*
X021490Y016890D03*
X024136Y016033D03*
X025112Y016033D03*
X025112Y016027D03*
X025541Y016191D03*
X025629Y016669D03*
X025112Y016858D03*
D297*
X026142Y016858D03*
X026142Y016052D03*
X026142Y016046D03*
X020637Y016039D03*
X020637Y016865D03*
X020637Y016871D03*
D298*
X025569Y016846D03*
X025569Y016839D03*
X025600Y016039D03*
D299*
X026145Y016058D03*
X026145Y016846D03*
X026145Y016852D03*
X020633Y016858D03*
X020633Y016052D03*
X020633Y016046D03*
D300*
X025597Y016046D03*
X025597Y016052D03*
X025572Y016833D03*
D301*
X026148Y016833D03*
X026148Y016839D03*
X026148Y016071D03*
X026148Y016065D03*
X020630Y016058D03*
X020630Y016846D03*
X020630Y016852D03*
D302*
X024133Y016896D03*
X025575Y016827D03*
X025575Y016821D03*
X025594Y016058D03*
D303*
X026152Y016077D03*
X026152Y016084D03*
X026152Y016827D03*
X020627Y016833D03*
X020627Y016839D03*
X020627Y016071D03*
X020627Y016065D03*
D304*
X023043Y016071D03*
X023043Y016077D03*
X023043Y016084D03*
X023043Y016090D03*
X023043Y016096D03*
X023043Y016102D03*
X023043Y016109D03*
X023043Y016115D03*
X023043Y016121D03*
X023043Y016128D03*
X023043Y016134D03*
X023043Y016140D03*
X023043Y016147D03*
X023043Y016153D03*
X023043Y016159D03*
X023043Y016165D03*
X023043Y016172D03*
X023043Y016178D03*
X023043Y016184D03*
X023043Y016191D03*
X023043Y016197D03*
X023043Y016203D03*
X023043Y016210D03*
X023043Y016216D03*
X023043Y016222D03*
X023043Y016228D03*
X023043Y016235D03*
X023043Y016241D03*
X023043Y016247D03*
X023043Y016254D03*
X023043Y016260D03*
X023043Y016266D03*
X023043Y016272D03*
X023043Y016279D03*
X023043Y016285D03*
X023043Y016291D03*
X023043Y016298D03*
X023043Y016304D03*
X023043Y016310D03*
X023043Y016317D03*
X023043Y016323D03*
X023043Y016329D03*
X023043Y016335D03*
X023043Y016342D03*
X023043Y016348D03*
X023043Y016354D03*
X023043Y016361D03*
X023043Y016367D03*
X023043Y016373D03*
X023043Y016380D03*
X023043Y016386D03*
X023043Y016392D03*
X023043Y016398D03*
X023043Y016405D03*
X023043Y016411D03*
X023043Y016417D03*
X023043Y016424D03*
X023043Y016430D03*
X023043Y016436D03*
X023043Y016443D03*
X023043Y016449D03*
X023043Y016455D03*
X023043Y016461D03*
X023043Y016468D03*
X023043Y016474D03*
X023043Y016480D03*
X023043Y016487D03*
X023043Y016493D03*
X023043Y016499D03*
X023043Y016506D03*
X023043Y016512D03*
X023043Y016518D03*
X023043Y016524D03*
X023043Y016531D03*
X023043Y016537D03*
X023043Y016543D03*
X023043Y016550D03*
X023043Y016556D03*
X023043Y016562D03*
X023043Y016569D03*
X023043Y016575D03*
X023043Y016581D03*
X023043Y016587D03*
X023043Y016594D03*
X023043Y016600D03*
X023043Y016606D03*
X023043Y016613D03*
X023043Y016619D03*
X023043Y016625D03*
X023043Y016632D03*
X023043Y016638D03*
X023043Y016644D03*
X023043Y016650D03*
X023043Y016657D03*
X023043Y016663D03*
X023043Y016669D03*
X023043Y016676D03*
X023043Y016682D03*
X023043Y016688D03*
X023043Y016695D03*
X023043Y016701D03*
X023043Y016707D03*
X023043Y016713D03*
X023043Y016720D03*
X023043Y016726D03*
X023043Y016732D03*
X023043Y016739D03*
X023043Y016745D03*
X023043Y016751D03*
X023043Y016758D03*
X023043Y016764D03*
X023043Y016770D03*
X023043Y016776D03*
X023043Y016783D03*
X023043Y016789D03*
X023043Y016795D03*
X023043Y016802D03*
X023043Y016808D03*
X023043Y016814D03*
X023043Y016821D03*
X023043Y016827D03*
X023043Y016833D03*
X023043Y016839D03*
X023043Y016846D03*
X023043Y016852D03*
X023043Y016858D03*
D305*
X023676Y016814D03*
X023676Y016808D03*
X023676Y016802D03*
X023676Y016795D03*
X023676Y016789D03*
X023676Y016783D03*
X023676Y016776D03*
X023676Y016770D03*
X023676Y016764D03*
X023676Y016758D03*
X023676Y016751D03*
X023676Y016745D03*
X023676Y016739D03*
X023676Y016732D03*
X023676Y016726D03*
X023676Y016720D03*
X023676Y016713D03*
X023676Y016707D03*
X023676Y016701D03*
X023676Y016695D03*
X023676Y016688D03*
X023676Y016682D03*
X023676Y016676D03*
X023676Y016669D03*
X023676Y016663D03*
X023676Y016657D03*
X023676Y016650D03*
X023676Y016644D03*
X023676Y016638D03*
X023676Y016632D03*
X023676Y016625D03*
X023676Y016619D03*
X023676Y016613D03*
X023676Y016335D03*
X023676Y016329D03*
X023676Y016323D03*
X023676Y016317D03*
X023676Y016310D03*
X023676Y016304D03*
X023676Y016298D03*
X023676Y016291D03*
X023676Y016285D03*
X023676Y016279D03*
X023676Y016272D03*
X023676Y016266D03*
X023676Y016260D03*
X023676Y016254D03*
X023676Y016247D03*
X023676Y016241D03*
X023676Y016235D03*
X023676Y016228D03*
X023676Y016222D03*
X023676Y016216D03*
X023676Y016210D03*
X023676Y016203D03*
X023676Y016197D03*
X023676Y016191D03*
X023676Y016184D03*
X023676Y016178D03*
X023676Y016172D03*
X023676Y016165D03*
X023676Y016159D03*
X023676Y016153D03*
X023676Y016147D03*
X023676Y016140D03*
X023676Y016134D03*
X023676Y016128D03*
X023676Y016121D03*
X023676Y016115D03*
X023676Y016109D03*
X023676Y016102D03*
X023676Y016096D03*
X023676Y016090D03*
X023676Y016084D03*
X023676Y016077D03*
X023676Y016071D03*
X024130Y016890D03*
X025597Y016764D03*
X025597Y016758D03*
X025572Y016115D03*
X025572Y016109D03*
D306*
X025588Y016071D03*
X025581Y016802D03*
X025581Y016808D03*
D307*
X026155Y016814D03*
X026155Y016821D03*
X026155Y016096D03*
X026155Y016090D03*
X020624Y016084D03*
X020624Y016077D03*
X020624Y016827D03*
D308*
X025585Y016795D03*
X025585Y016084D03*
X025585Y016077D03*
D309*
X026158Y016102D03*
X026158Y016109D03*
X026158Y016802D03*
X026158Y016808D03*
X020621Y016814D03*
X020621Y016821D03*
X020621Y016096D03*
X020621Y016090D03*
D310*
X025581Y016090D03*
X025588Y016789D03*
D311*
X025591Y016783D03*
X025591Y016776D03*
X025074Y016896D03*
X025578Y016096D03*
D312*
X026161Y016115D03*
X026161Y016121D03*
X026161Y016789D03*
X026161Y016795D03*
X020618Y016802D03*
X020618Y016808D03*
X020618Y016109D03*
X020618Y016102D03*
D313*
X020615Y016115D03*
X020615Y016121D03*
X020615Y016789D03*
X020615Y016795D03*
X026164Y016783D03*
X026164Y016776D03*
X026164Y016134D03*
X026164Y016128D03*
D314*
X025569Y016121D03*
X025600Y016751D03*
D315*
X026167Y016764D03*
X026167Y016770D03*
X026167Y016147D03*
X026167Y016140D03*
X020611Y016134D03*
X020611Y016128D03*
X020611Y016776D03*
X020611Y016783D03*
D316*
X020608Y016770D03*
X020608Y016764D03*
X020608Y016147D03*
X020608Y016140D03*
X026170Y016153D03*
X026170Y016159D03*
X026170Y016745D03*
X026170Y016751D03*
X026170Y016758D03*
D317*
X025610Y016726D03*
X025559Y016147D03*
X025559Y016140D03*
X024130Y016884D03*
D318*
X026174Y016739D03*
X026174Y016732D03*
X026174Y016178D03*
X026174Y016172D03*
X026174Y016165D03*
X020605Y016159D03*
X020605Y016153D03*
X020605Y016745D03*
X020605Y016751D03*
X020605Y016758D03*
D319*
X020602Y016739D03*
X020602Y016732D03*
X020602Y016178D03*
X020602Y016172D03*
X020602Y016165D03*
X026177Y016184D03*
X026177Y016191D03*
X026177Y016197D03*
X026177Y016713D03*
X026177Y016720D03*
X026177Y016726D03*
D320*
X026180Y016707D03*
X026180Y016701D03*
X026180Y016695D03*
X026180Y016210D03*
X026180Y016203D03*
X020599Y016197D03*
X020599Y016191D03*
X020599Y016184D03*
X020599Y016713D03*
X020599Y016720D03*
X020599Y016726D03*
D321*
X020596Y016707D03*
X020596Y016701D03*
X020596Y016695D03*
X020596Y016210D03*
X020596Y016203D03*
X026183Y016216D03*
X026183Y016222D03*
X026183Y016228D03*
X026183Y016235D03*
X026183Y016676D03*
X026183Y016682D03*
X026183Y016688D03*
D322*
X026186Y016669D03*
X026186Y016663D03*
X026186Y016657D03*
X026186Y016650D03*
X026186Y016254D03*
X026186Y016247D03*
X026186Y016241D03*
X020593Y016235D03*
X020593Y016228D03*
X020593Y016222D03*
X020593Y016216D03*
X020593Y016676D03*
X020593Y016682D03*
X020593Y016688D03*
D323*
X021481Y016877D03*
X025531Y016216D03*
X025638Y016644D03*
D324*
X025644Y016625D03*
X025525Y016228D03*
X021474Y016858D03*
X021474Y016865D03*
D325*
X020589Y016669D03*
X020589Y016663D03*
X020589Y016657D03*
X020589Y016650D03*
X020589Y016254D03*
X020589Y016247D03*
X020589Y016241D03*
X026189Y016260D03*
X026189Y016266D03*
X026189Y016272D03*
X026189Y016279D03*
X026189Y016625D03*
X026189Y016632D03*
X026189Y016638D03*
X026189Y016644D03*
D326*
X026193Y016619D03*
X026193Y016613D03*
X026193Y016606D03*
X026193Y016600D03*
X026193Y016594D03*
X026193Y016310D03*
X026193Y016304D03*
X026193Y016298D03*
X026193Y016291D03*
X026193Y016285D03*
X020586Y016279D03*
X020586Y016272D03*
X020586Y016266D03*
X020586Y016260D03*
X020586Y016625D03*
X020586Y016632D03*
X020586Y016638D03*
X020586Y016644D03*
D327*
X025512Y016260D03*
X025657Y016587D03*
X025657Y016594D03*
D328*
X025660Y016581D03*
X025509Y016272D03*
X025509Y016266D03*
D329*
X025506Y016279D03*
X025663Y016569D03*
X025663Y016575D03*
D330*
X026196Y016575D03*
X026196Y016581D03*
X026196Y016587D03*
X026196Y016569D03*
X026196Y016562D03*
X026196Y016556D03*
X026196Y016354D03*
X026196Y016348D03*
X026196Y016342D03*
X026196Y016335D03*
X026196Y016329D03*
X026196Y016323D03*
X026196Y016317D03*
X020583Y016310D03*
X020583Y016304D03*
X020583Y016298D03*
X020583Y016291D03*
X020583Y016285D03*
X020583Y016594D03*
X020583Y016600D03*
X020583Y016606D03*
X020583Y016613D03*
X020583Y016619D03*
D331*
X025503Y016285D03*
X025667Y016562D03*
D332*
X025670Y016556D03*
X025670Y016550D03*
X025500Y016291D03*
D333*
X025496Y016298D03*
X025496Y016304D03*
X025673Y016543D03*
D334*
X025676Y016537D03*
X025493Y016310D03*
D335*
X025415Y016506D03*
X025755Y016310D03*
D336*
X026199Y016361D03*
X026199Y016367D03*
X026199Y016373D03*
X026199Y016380D03*
X026199Y016386D03*
X026199Y016392D03*
X026199Y016398D03*
X026199Y016405D03*
X026199Y016411D03*
X026199Y016417D03*
X026199Y016424D03*
X026199Y016430D03*
X026199Y016436D03*
X026199Y016443D03*
X026199Y016449D03*
X026199Y016455D03*
X026199Y016461D03*
X026199Y016468D03*
X026199Y016474D03*
X026199Y016480D03*
X026199Y016487D03*
X026199Y016493D03*
X026199Y016499D03*
X026199Y016506D03*
X026199Y016512D03*
X026199Y016518D03*
X026199Y016524D03*
X026199Y016531D03*
X026199Y016537D03*
X026199Y016543D03*
X026199Y016550D03*
X020580Y016556D03*
X020580Y016562D03*
X020580Y016569D03*
X020580Y016575D03*
X020580Y016581D03*
X020580Y016587D03*
X020580Y016354D03*
X020580Y016348D03*
X020580Y016342D03*
X020580Y016335D03*
X020580Y016329D03*
X020580Y016323D03*
X020580Y016317D03*
D337*
X025490Y016317D03*
X025679Y016524D03*
X025679Y016531D03*
D338*
X025752Y016323D03*
X025752Y016317D03*
X025418Y016499D03*
D339*
X025487Y016323D03*
X025682Y016518D03*
D340*
X025685Y016512D03*
X025685Y016506D03*
X025484Y016335D03*
X025484Y016329D03*
D341*
X025421Y016487D03*
X025421Y016493D03*
X025748Y016329D03*
D342*
X025745Y016335D03*
X025745Y016342D03*
X025424Y016480D03*
D343*
X023887Y016480D03*
X023887Y016474D03*
X023887Y016468D03*
X023887Y016461D03*
X023887Y016455D03*
X023887Y016449D03*
X023887Y016443D03*
X023887Y016436D03*
X023887Y016430D03*
X023887Y016424D03*
X023887Y016417D03*
X023887Y016411D03*
X023887Y016405D03*
X023887Y016398D03*
X023887Y016392D03*
X023887Y016386D03*
X023887Y016380D03*
X023887Y016373D03*
X023887Y016367D03*
X023887Y016361D03*
X023887Y016354D03*
X023887Y016348D03*
X023887Y016342D03*
X023887Y016487D03*
X023887Y016493D03*
X023887Y016499D03*
X023887Y016506D03*
X023887Y016512D03*
X023887Y016518D03*
X023887Y016524D03*
X023887Y016531D03*
X023887Y016537D03*
X023887Y016543D03*
X023887Y016550D03*
X023887Y016556D03*
X023887Y016562D03*
X023887Y016569D03*
X023887Y016575D03*
X023887Y016581D03*
X023887Y016587D03*
X023887Y016594D03*
X023887Y016600D03*
X023887Y016606D03*
D344*
X025481Y016342D03*
X025689Y016499D03*
D345*
X025692Y016493D03*
X025692Y016487D03*
X025478Y016348D03*
D346*
X025427Y016474D03*
X025742Y016348D03*
D347*
X025695Y016480D03*
X025474Y016354D03*
D348*
X025430Y016468D03*
X025739Y016354D03*
D349*
X020577Y016361D03*
X020577Y016367D03*
X020577Y016373D03*
X020577Y016380D03*
X020577Y016386D03*
X020577Y016392D03*
X020577Y016398D03*
X020577Y016405D03*
X020577Y016411D03*
X020577Y016417D03*
X020577Y016424D03*
X020577Y016430D03*
X020577Y016436D03*
X020577Y016443D03*
X020577Y016449D03*
X020577Y016455D03*
X020577Y016461D03*
X020577Y016468D03*
X020577Y016474D03*
X020577Y016480D03*
X020577Y016487D03*
X020577Y016493D03*
X020577Y016499D03*
X020577Y016506D03*
X020577Y016512D03*
X020577Y016518D03*
X020577Y016524D03*
X020577Y016531D03*
X020577Y016537D03*
X020577Y016543D03*
X020577Y016550D03*
D350*
X025471Y016367D03*
X025471Y016361D03*
X025698Y016474D03*
D351*
X025736Y016367D03*
X025736Y016361D03*
X025433Y016455D03*
X025433Y016461D03*
D352*
X025468Y016373D03*
X025701Y016461D03*
X025701Y016468D03*
D353*
X025733Y016373D03*
X025437Y016449D03*
D354*
X025465Y016380D03*
X025704Y016455D03*
D355*
X025730Y016386D03*
X025730Y016380D03*
X025440Y016443D03*
D356*
X025462Y016386D03*
X025707Y016443D03*
X025707Y016449D03*
D357*
X025711Y016436D03*
X025459Y016398D03*
X025459Y016392D03*
D358*
X025443Y016436D03*
X025726Y016392D03*
D359*
X025723Y016398D03*
X025723Y016405D03*
X025446Y016424D03*
X025446Y016430D03*
D360*
X025456Y016405D03*
X025714Y016424D03*
X025714Y016430D03*
D361*
X025717Y016417D03*
X025452Y016411D03*
D362*
X025449Y016417D03*
X025720Y016411D03*
D363*
X023046Y016865D03*
D364*
X023052Y016871D03*
D365*
X023056Y016877D03*
D366*
X023062Y016884D03*
D367*
X023068Y016890D03*
D368*
X023081Y016896D03*
D369*
X023386Y016902D03*
X023386Y016909D03*
D370*
X023386Y016915D03*
D371*
X023386Y017016D03*
D372*
X023386Y017047D03*
D373*
X023386Y017066D03*
D374*
X023386Y017085D03*
D375*
X023386Y017098D03*
D376*
X023386Y017104D03*
D377*
X023386Y017117D03*
D378*
X023386Y017123D03*
D379*
X023386Y017129D03*
D380*
X023386Y017135D03*
D381*
X023386Y017142D03*
D382*
X023386Y017148D03*
D383*
X023386Y017154D03*
D384*
X023386Y017161D03*
D385*
X023386Y017167D03*
D386*
X023386Y017173D03*
D387*
X023386Y017180D03*
D388*
X023386Y017186D03*
D389*
X023386Y017192D03*
D390*
X023386Y017198D03*
D391*
X023386Y017205D03*
D392*
X026365Y009707D03*
X026402Y009707D03*
X026421Y009707D03*
X026439Y009707D03*
X026476Y009707D03*
X026494Y009707D03*
X026531Y009707D03*
X026550Y009707D03*
X026587Y009707D03*
X026605Y009707D03*
X026624Y009707D03*
X026660Y009707D03*
X026679Y009707D03*
X026716Y009707D03*
X026734Y009707D03*
X026771Y009707D03*
X026789Y009707D03*
X026808Y009707D03*
X026845Y009707D03*
X026863Y009707D03*
X026900Y009707D03*
X026918Y009707D03*
X026955Y009707D03*
X026974Y009707D03*
X026992Y009707D03*
X027029Y009707D03*
X027048Y009707D03*
X027084Y009707D03*
X027103Y009707D03*
X027140Y009707D03*
X027158Y009707D03*
X027177Y009707D03*
X027213Y009707D03*
X027232Y009707D03*
X027269Y009707D03*
X027287Y009707D03*
X027324Y009707D03*
X027342Y009707D03*
X027361Y009707D03*
X027398Y009707D03*
X027416Y009707D03*
X027453Y009707D03*
X027471Y009707D03*
X027508Y009707D03*
X027527Y009707D03*
X027545Y009707D03*
X027582Y009707D03*
X027601Y009707D03*
X027637Y009707D03*
X027656Y009707D03*
X027693Y009707D03*
X027711Y009707D03*
X027730Y009707D03*
X027766Y009707D03*
X027785Y009707D03*
X027822Y009707D03*
X027840Y009707D03*
X027877Y009707D03*
X027895Y009707D03*
X027914Y009707D03*
X027951Y009707D03*
X027969Y009707D03*
X028006Y009707D03*
X028025Y009707D03*
X028061Y009707D03*
X028080Y009707D03*
X028098Y009707D03*
X028135Y009707D03*
D393*
X028135Y008933D03*
X028098Y008933D03*
X028080Y008933D03*
X028061Y008933D03*
X028025Y008933D03*
X028006Y008933D03*
X027969Y008933D03*
X027951Y008933D03*
X027914Y008933D03*
X027895Y008933D03*
X027877Y008933D03*
X027840Y008933D03*
X027822Y008933D03*
X027785Y008933D03*
X027766Y008933D03*
X027730Y008933D03*
X027711Y008933D03*
X027693Y008933D03*
X027656Y008933D03*
X027637Y008933D03*
X027601Y008933D03*
X027582Y008933D03*
X027545Y008933D03*
X027527Y008933D03*
X027508Y008933D03*
X027471Y008933D03*
X027453Y008933D03*
X027416Y008933D03*
X027398Y008933D03*
X027361Y008933D03*
X027342Y008933D03*
X027324Y008933D03*
X027287Y008933D03*
X027269Y008933D03*
X027232Y008933D03*
X027213Y008933D03*
X027177Y008933D03*
X027158Y008933D03*
X027140Y008933D03*
X027103Y008933D03*
X027084Y008933D03*
X027048Y008933D03*
X027029Y008933D03*
X026992Y008933D03*
X026974Y008933D03*
X026955Y008933D03*
X026918Y008933D03*
X026900Y008933D03*
X026863Y008933D03*
X026845Y008933D03*
X026808Y008933D03*
X026789Y008933D03*
X026771Y008933D03*
X026734Y008933D03*
X026716Y008933D03*
X026679Y008933D03*
X026660Y008933D03*
X026624Y008933D03*
X026605Y008933D03*
X026587Y008933D03*
X026550Y008933D03*
X026531Y008933D03*
X026494Y008933D03*
X026476Y008933D03*
X026439Y008933D03*
X026421Y008933D03*
X026402Y008933D03*
X026365Y008933D03*
X027398Y008122D03*
X027416Y008122D03*
X027453Y008122D03*
X027471Y008122D03*
X027508Y008122D03*
X027527Y008122D03*
X027545Y008122D03*
X027582Y008122D03*
X027601Y008122D03*
X027637Y008122D03*
X027656Y008122D03*
X027693Y008122D03*
X027711Y008122D03*
X027730Y008122D03*
X027766Y008122D03*
X027785Y008122D03*
X027822Y008122D03*
X027840Y008122D03*
X027877Y008122D03*
X027895Y008122D03*
X027914Y008122D03*
X027951Y008122D03*
X027969Y008122D03*
X028006Y008122D03*
X028025Y008122D03*
X028061Y008122D03*
X028080Y008122D03*
X028098Y008122D03*
X028135Y008122D03*
X028135Y006389D03*
X028098Y006389D03*
X028080Y006389D03*
X028061Y006389D03*
X028025Y006389D03*
X028006Y006389D03*
X027969Y006389D03*
X027951Y006389D03*
X027914Y006389D03*
X027895Y006389D03*
X027877Y006389D03*
X027840Y006389D03*
X027822Y006389D03*
X027785Y006389D03*
X027766Y006389D03*
X027730Y006389D03*
X027711Y006389D03*
X027693Y006389D03*
X027656Y006389D03*
X027637Y006389D03*
X027601Y006389D03*
X027582Y006389D03*
X027545Y006389D03*
X027527Y006389D03*
X027508Y006389D03*
X027471Y006389D03*
X027453Y006389D03*
X027416Y006389D03*
X027398Y006389D03*
X027398Y005485D03*
X027416Y005485D03*
X027453Y005485D03*
X027471Y005485D03*
X027508Y005485D03*
X027527Y005485D03*
X027545Y005485D03*
X027582Y005485D03*
X027601Y005485D03*
X027637Y005485D03*
X027656Y005485D03*
X027693Y005485D03*
X027711Y005485D03*
X027730Y005485D03*
X027766Y005485D03*
X027785Y005485D03*
X027822Y005485D03*
X027840Y005485D03*
X027877Y005485D03*
X027895Y005485D03*
X027914Y005485D03*
X027951Y005485D03*
X027969Y005485D03*
X028006Y005485D03*
X028025Y005485D03*
X028061Y005485D03*
X028080Y005485D03*
X028098Y005485D03*
X028135Y005485D03*
X028135Y004674D03*
X028098Y004674D03*
X028080Y004674D03*
X028061Y004674D03*
X028025Y004674D03*
X028006Y004674D03*
X027969Y004674D03*
X027951Y004674D03*
X027914Y004674D03*
X027895Y004674D03*
X027877Y004674D03*
X027840Y004674D03*
X027822Y004674D03*
X027785Y004674D03*
X027766Y004674D03*
X027730Y004674D03*
X027711Y004674D03*
X027693Y004674D03*
X027656Y004674D03*
X027637Y004674D03*
X027601Y004674D03*
X027582Y004674D03*
X027545Y004674D03*
X027527Y004674D03*
X027508Y004674D03*
X027471Y004674D03*
X027453Y004674D03*
X027416Y004674D03*
X027398Y004674D03*
X027361Y004674D03*
X027342Y004674D03*
X027324Y004674D03*
X027287Y004674D03*
X027269Y004674D03*
X027232Y004674D03*
X027213Y004674D03*
X027177Y004674D03*
X027158Y004674D03*
X027140Y004674D03*
X027103Y004674D03*
X027084Y004674D03*
X027048Y004674D03*
X027029Y004674D03*
X026992Y004674D03*
X026974Y004674D03*
X026955Y004674D03*
X026918Y004674D03*
X026900Y004674D03*
X026863Y004674D03*
X026845Y004674D03*
X026808Y004674D03*
X026789Y004674D03*
X026771Y004674D03*
X026734Y004674D03*
X026716Y004674D03*
D394*
X026753Y009707D03*
X026826Y009707D03*
X026882Y009707D03*
X027066Y009707D03*
X027121Y009707D03*
X027195Y009707D03*
X027306Y009707D03*
X027435Y009707D03*
X027564Y009707D03*
X027674Y009707D03*
X027748Y009707D03*
X027803Y009707D03*
X027988Y009707D03*
X028043Y009707D03*
X028117Y009707D03*
X026642Y009707D03*
X026513Y009707D03*
X026384Y009707D03*
D395*
X026384Y008933D03*
X026513Y008933D03*
X026642Y008933D03*
X026753Y008933D03*
X026826Y008933D03*
X026882Y008933D03*
X027066Y008933D03*
X027121Y008933D03*
X027195Y008933D03*
X027306Y008933D03*
X027435Y008933D03*
X027564Y008933D03*
X027674Y008933D03*
X027748Y008933D03*
X027803Y008933D03*
X027988Y008933D03*
X028043Y008933D03*
X028117Y008933D03*
X028117Y008122D03*
X028043Y008122D03*
X027988Y008122D03*
X027803Y008122D03*
X027748Y008122D03*
X027674Y008122D03*
X027564Y008122D03*
X027435Y008122D03*
X027435Y006389D03*
X027564Y006389D03*
X027674Y006389D03*
X027748Y006389D03*
X027803Y006389D03*
X027988Y006389D03*
X028043Y006389D03*
X028117Y006389D03*
X028117Y005485D03*
X028043Y005485D03*
X027988Y005485D03*
X027803Y005485D03*
X027748Y005485D03*
X027674Y005485D03*
X027564Y005485D03*
X027435Y005485D03*
X027435Y004674D03*
X027564Y004674D03*
X027674Y004674D03*
X027748Y004674D03*
X027803Y004674D03*
X027988Y004674D03*
X028043Y004674D03*
X028117Y004674D03*
X027306Y004674D03*
X027195Y004674D03*
X027121Y004674D03*
X027066Y004674D03*
X026882Y004674D03*
X026826Y004674D03*
X026753Y004674D03*
D396*
X026697Y009707D03*
X026568Y009707D03*
X026458Y009707D03*
X026937Y009707D03*
X027011Y009707D03*
X027250Y009707D03*
X027379Y009707D03*
X027490Y009707D03*
X027619Y009707D03*
X027859Y009707D03*
X027932Y009707D03*
D397*
X027932Y008933D03*
X027859Y008933D03*
X027619Y008933D03*
X027490Y008933D03*
X027379Y008933D03*
X027250Y008933D03*
X027011Y008933D03*
X026937Y008933D03*
X026697Y008933D03*
X026568Y008933D03*
X026458Y008933D03*
X027490Y008122D03*
X027619Y008122D03*
X027859Y008122D03*
X027932Y008122D03*
X027932Y006389D03*
X027859Y006389D03*
X027619Y006389D03*
X027490Y006389D03*
X027490Y005485D03*
X027619Y005485D03*
X027859Y005485D03*
X027932Y005485D03*
X027932Y004674D03*
X027859Y004674D03*
X027619Y004674D03*
X027490Y004674D03*
X027379Y004674D03*
X027250Y004674D03*
X027011Y004674D03*
X026937Y004674D03*
D398*
X027195Y007661D03*
X027306Y007661D03*
D399*
X027306Y005937D03*
X027195Y005937D03*
D400*
X027213Y007661D03*
X027232Y007661D03*
X027269Y007661D03*
X027287Y007661D03*
X027324Y007661D03*
X027342Y007661D03*
X027361Y007661D03*
D401*
X027361Y005937D03*
X027342Y005937D03*
X027324Y005937D03*
X027287Y005937D03*
X027269Y005937D03*
X027232Y005937D03*
X027213Y005937D03*
D402*
X027250Y007661D03*
X027379Y007661D03*
D403*
X027379Y005937D03*
X027250Y005937D03*
D404*
X027398Y007200D03*
X027416Y007200D03*
X027453Y007200D03*
X027471Y007200D03*
X027508Y007200D03*
X027527Y007200D03*
X027545Y007200D03*
X027582Y007200D03*
X027601Y007200D03*
X027637Y007200D03*
X027656Y007200D03*
X027693Y007200D03*
X027711Y007200D03*
X027730Y007200D03*
X027766Y007200D03*
X027785Y007200D03*
X027822Y007200D03*
X027840Y007200D03*
X027877Y007200D03*
X027895Y007200D03*
X027914Y007200D03*
X027951Y007200D03*
X027969Y007200D03*
X028006Y007200D03*
X028025Y007200D03*
X028061Y007200D03*
X028080Y007200D03*
X028098Y007200D03*
X028135Y007200D03*
D405*
X028117Y007200D03*
X028043Y007200D03*
X027988Y007200D03*
X027803Y007200D03*
X027748Y007200D03*
X027674Y007200D03*
X027564Y007200D03*
X027435Y007200D03*
D406*
X027490Y007200D03*
X027619Y007200D03*
X027859Y007200D03*
X027932Y007200D03*
D407*
X028154Y008951D03*
X028190Y008951D03*
X028209Y008951D03*
X028246Y008951D03*
X028264Y008951D03*
X028283Y008951D03*
X028319Y008951D03*
X028338Y008951D03*
D408*
X028338Y006794D03*
X028319Y006794D03*
X028283Y006794D03*
X028264Y006794D03*
X028246Y006794D03*
X028209Y006794D03*
X028190Y006794D03*
X028154Y006794D03*
D409*
X028154Y005080D03*
X028190Y005080D03*
X028209Y005080D03*
X028246Y005080D03*
X028264Y005080D03*
X028283Y005080D03*
X028319Y005080D03*
X028338Y005080D03*
D410*
X028301Y008951D03*
X028172Y008951D03*
D411*
X028172Y006794D03*
X028301Y006794D03*
D412*
X028301Y005080D03*
X028172Y005080D03*
D413*
X028227Y008951D03*
D414*
X028227Y006794D03*
D415*
X028227Y005080D03*
M02*
