G75*
%MOIN*%
%OFA0B0*%
%FSLAX24Y24*%
%IPPOS*%
%LPD*%
%AMOC8*
5,1,8,0,0,1.08239X$1,22.5*
%
%ADD10C,0.0118*%
%ADD11R,0.0276X0.0315*%
%ADD12R,0.0315X0.0354*%
%ADD13R,0.0591X0.0709*%
%ADD14R,0.0276X0.0591*%
%ADD15R,0.0787X0.0157*%
%ADD16R,0.0880X0.0480*%
%ADD17R,0.0866X0.1417*%
%ADD18R,0.0945X0.0945*%
%ADD19R,0.0709X0.0630*%
%ADD20R,0.0248X0.0327*%
%ADD21R,0.0906X0.0630*%
%ADD22R,0.0984X0.0472*%
%ADD23R,0.0220X0.0102*%
%ADD24R,0.0394X0.0394*%
%ADD25R,0.0118X0.0118*%
%ADD26R,0.0102X0.0220*%
%ADD27R,0.0591X0.0394*%
%ADD28R,0.0472X0.0866*%
%ADD29R,0.0315X0.0276*%
D10*
X003077Y008349D02*
X003077Y008625D01*
X003077Y008349D02*
X002801Y008349D01*
X002801Y008625D01*
X003077Y008625D01*
X003077Y008466D02*
X002801Y008466D01*
X002801Y008583D02*
X003077Y008583D01*
X003768Y008625D02*
X003768Y008349D01*
X003492Y008349D01*
X003492Y008625D01*
X003768Y008625D01*
X003768Y008466D02*
X003492Y008466D01*
X003492Y008583D02*
X003768Y008583D01*
X003492Y010099D02*
X003492Y010375D01*
X003768Y010375D01*
X003768Y010099D01*
X003492Y010099D01*
X003492Y010216D02*
X003768Y010216D01*
X003768Y010333D02*
X003492Y010333D01*
X002801Y010375D02*
X002801Y010099D01*
X002801Y010375D02*
X003077Y010375D01*
X003077Y010099D01*
X002801Y010099D01*
X002801Y010216D02*
X003077Y010216D01*
X003077Y010333D02*
X002801Y010333D01*
D11*
X007200Y010487D03*
X007869Y010487D03*
X007869Y009487D03*
X007200Y009487D03*
X007499Y013487D03*
X007499Y013917D03*
X006830Y013917D03*
X006830Y013487D03*
X006119Y014417D03*
X006119Y014847D03*
X005450Y014847D03*
X005450Y014417D03*
X013380Y014887D03*
X014049Y014887D03*
X014049Y015587D03*
X013380Y015587D03*
X013380Y016287D03*
X014049Y016287D03*
X014049Y016987D03*
X013380Y016987D03*
X020670Y003237D03*
X021339Y003237D03*
X022470Y003237D03*
X023139Y003237D03*
D12*
X011785Y014554D03*
X012159Y015380D03*
X011411Y015380D03*
X011411Y016343D03*
X012159Y016343D03*
X011785Y017170D03*
D13*
X002135Y016937D03*
X002135Y014036D03*
D14*
X002135Y015487D03*
D15*
X003298Y015487D03*
X003298Y015743D03*
X003298Y015998D03*
X003298Y015231D03*
X003298Y014975D03*
D16*
X009255Y008147D03*
X009255Y007237D03*
X009255Y006327D03*
D17*
X006815Y007237D03*
D18*
X008285Y002621D03*
X008285Y004353D03*
D19*
X010285Y004038D03*
X010285Y002935D03*
D20*
X009737Y009487D03*
X008832Y009487D03*
D21*
X004875Y020187D03*
X002394Y020187D03*
D22*
X011785Y004136D03*
X011785Y002837D03*
D23*
X008440Y014896D03*
X008440Y015093D03*
X008440Y015290D03*
X008440Y015487D03*
X008440Y015684D03*
X008440Y015880D03*
X008440Y016077D03*
X006629Y016077D03*
X006629Y015880D03*
X006629Y015684D03*
X006629Y015487D03*
X006629Y015290D03*
X006629Y015093D03*
X006629Y014896D03*
D24*
X007535Y015487D03*
D25*
X006708Y016313D03*
D26*
X006944Y016392D03*
X007141Y016392D03*
X007338Y016392D03*
X007535Y016392D03*
X007731Y016392D03*
X007928Y016392D03*
X008125Y016392D03*
X008125Y014581D03*
X007928Y014581D03*
X007731Y014581D03*
X007535Y014581D03*
X007338Y014581D03*
X007141Y014581D03*
X006944Y014581D03*
D27*
X019060Y009205D03*
X019060Y008418D03*
X019060Y007630D03*
X019060Y006843D03*
X019060Y006056D03*
X019060Y005268D03*
D28*
X019651Y004323D03*
X020438Y004323D03*
X021226Y004323D03*
X022013Y004323D03*
X022800Y004323D03*
X023588Y004323D03*
X024375Y004323D03*
X025163Y004323D03*
X025163Y010150D03*
X024375Y010150D03*
X023588Y010150D03*
X022800Y010150D03*
X022013Y010150D03*
X021226Y010150D03*
X020438Y010150D03*
X019651Y010150D03*
D29*
X018435Y010421D03*
X017735Y010421D03*
X017735Y009752D03*
X018435Y009752D03*
M02*
