G75*
%MOIN*%
%OFA0B0*%
%FSLAX24Y24*%
%IPPOS*%
%LPD*%
%AMOC8*
5,1,8,0,0,1.08239X$1,22.5*
%
%ADD10C,0.1340*%
%ADD11C,0.0142*%
%ADD12R,0.0356X0.0395*%
%ADD13R,0.0395X0.0434*%
%ADD14R,0.0669X0.0787*%
%ADD15R,0.0669X0.1063*%
%ADD16R,0.0867X0.0237*%
%ADD17C,0.0237*%
%ADD18R,0.0960X0.0560*%
%ADD19R,0.0946X0.1497*%
%ADD20R,0.1025X0.1025*%
%ADD21C,0.1504*%
%ADD22C,0.1346*%
%ADD23R,0.0789X0.0710*%
%ADD24R,0.0328X0.0407*%
%ADD25C,0.0820*%
%ADD26R,0.0820X0.0820*%
%ADD27R,0.0986X0.0710*%
%ADD28R,0.1064X0.0552*%
%ADD29R,0.0413X0.0157*%
%ADD30R,0.0197X0.0197*%
%ADD31R,0.1181X0.1181*%
%ADD32R,0.0157X0.0413*%
%ADD33R,0.0671X0.0474*%
%ADD34C,0.0436*%
%ADD35R,0.0552X0.0946*%
%ADD36R,0.0395X0.0356*%
%ADD37C,0.0560*%
%ADD38C,0.0440*%
D10*
X007035Y001487D03*
X027535Y003237D03*
X027535Y014737D03*
X007535Y020487D03*
D11*
X003464Y010403D02*
X003464Y010071D01*
X003464Y010403D02*
X003796Y010403D01*
X003796Y010071D01*
X003464Y010071D01*
X003464Y010212D02*
X003796Y010212D01*
X003796Y010353D02*
X003464Y010353D01*
X002773Y010403D02*
X002773Y010071D01*
X002773Y010403D02*
X003105Y010403D01*
X003105Y010071D01*
X002773Y010071D01*
X002773Y010212D02*
X003105Y010212D01*
X003105Y010353D02*
X002773Y010353D01*
X003105Y008653D02*
X003105Y008321D01*
X002773Y008321D01*
X002773Y008653D01*
X003105Y008653D01*
X003105Y008462D02*
X002773Y008462D01*
X002773Y008603D02*
X003105Y008603D01*
X003796Y008653D02*
X003796Y008321D01*
X003464Y008321D01*
X003464Y008653D01*
X003796Y008653D01*
X003796Y008462D02*
X003464Y008462D01*
X003464Y008603D02*
X003796Y008603D01*
D12*
X007200Y009487D03*
X007869Y009487D03*
X007869Y010487D03*
X007200Y010487D03*
X007499Y013487D03*
X007499Y013917D03*
X006830Y013917D03*
X006830Y013487D03*
X006119Y014417D03*
X006119Y014847D03*
X005450Y014847D03*
X005450Y014417D03*
X013380Y014887D03*
X014049Y014887D03*
X014049Y015587D03*
X013380Y015587D03*
X013380Y016287D03*
X014049Y016287D03*
X014049Y016987D03*
X013380Y016987D03*
X020670Y003237D03*
X021339Y003237D03*
X022470Y003237D03*
X023139Y003237D03*
D13*
X011785Y014554D03*
X012159Y015380D03*
X011411Y015380D03*
X011411Y016343D03*
X012159Y016343D03*
X011785Y017170D03*
D14*
X002135Y016937D03*
X002135Y014036D03*
D15*
X002135Y015487D03*
D16*
X003298Y015487D03*
X003298Y015743D03*
X003298Y015998D03*
X003298Y015231D03*
X003298Y014975D03*
D17*
X003001Y014699D03*
X003001Y016274D03*
D18*
X009255Y008147D03*
X009255Y007237D03*
X009255Y006327D03*
D19*
X006815Y007237D03*
D20*
X008285Y004353D03*
X008285Y002621D03*
D21*
X003966Y003587D03*
X006328Y003587D03*
D22*
X005147Y001736D03*
D23*
X010285Y002935D03*
X010285Y004038D03*
D24*
X009737Y009487D03*
X008832Y009487D03*
D25*
X014535Y001487D03*
X015535Y001487D03*
X016535Y001487D03*
X017535Y001487D03*
X018535Y001487D03*
X019535Y001487D03*
X021535Y001487D03*
X022535Y001487D03*
X023535Y001487D03*
X024535Y001487D03*
X025535Y001487D03*
X026535Y001487D03*
X026535Y011387D03*
X027535Y011387D03*
X027535Y012387D03*
X026535Y012387D03*
X026535Y013387D03*
X027535Y013387D03*
X025535Y020487D03*
X024535Y020487D03*
X023535Y020487D03*
X022535Y020487D03*
X021535Y020487D03*
X020535Y020487D03*
X019535Y020487D03*
X016935Y020487D03*
X015935Y020487D03*
X014935Y020487D03*
X013935Y020487D03*
X012935Y020487D03*
X011935Y020487D03*
X010935Y020487D03*
D26*
X017935Y020487D03*
X026535Y020487D03*
D27*
X004875Y020187D03*
X002394Y020187D03*
D28*
X011785Y004136D03*
X011785Y002837D03*
D29*
X008529Y014896D03*
X008529Y015093D03*
X008529Y015290D03*
X008529Y015487D03*
X008529Y015684D03*
X008529Y015880D03*
X008529Y016077D03*
X006541Y016077D03*
X006541Y015880D03*
X006541Y015684D03*
X006541Y015487D03*
X006541Y015290D03*
X006541Y015093D03*
X006541Y014896D03*
D30*
X006707Y016314D03*
D31*
X007535Y015487D03*
D32*
X007535Y016481D03*
X007731Y016481D03*
X007928Y016481D03*
X008125Y016481D03*
X007338Y016481D03*
X007141Y016481D03*
X006944Y016481D03*
X006944Y014493D03*
X007141Y014493D03*
X007338Y014493D03*
X007535Y014493D03*
X007731Y014493D03*
X007928Y014493D03*
X008125Y014493D03*
D33*
X019060Y009205D03*
X019060Y008418D03*
X019060Y007630D03*
X019060Y006843D03*
X019060Y006056D03*
X019060Y005268D03*
D34*
X019651Y004481D03*
X020438Y004481D03*
X021226Y004481D03*
X022013Y004481D03*
X022800Y004481D03*
X023588Y004481D03*
X024375Y004481D03*
X025163Y004481D03*
X025163Y009993D03*
X024375Y009993D03*
X023588Y009993D03*
X022800Y009993D03*
X022013Y009993D03*
X021226Y009993D03*
X020438Y009993D03*
X019651Y009993D03*
X018685Y010987D03*
X009285Y008737D03*
X008535Y010237D03*
X009285Y004987D03*
D35*
X019651Y004323D03*
X020438Y004323D03*
X021226Y004323D03*
X022013Y004323D03*
X022800Y004323D03*
X023588Y004323D03*
X024375Y004323D03*
X025163Y004323D03*
X025163Y010150D03*
X024375Y010150D03*
X023588Y010150D03*
X022800Y010150D03*
X022013Y010150D03*
X021226Y010150D03*
X020438Y010150D03*
X019651Y010150D03*
D36*
X018435Y010421D03*
X017735Y010421D03*
X017735Y009752D03*
X018435Y009752D03*
D37*
X007785Y008737D03*
X007035Y008737D03*
X006285Y008737D03*
X005535Y008737D03*
X007785Y007237D03*
X007785Y005737D03*
X007035Y005737D03*
X006285Y005737D03*
X005535Y005737D03*
D38*
X011035Y004987D03*
M02*
